<?xml version="1.0" encoding="UTF-8" standalone="no"?>
<svg
   xmlns:dc="http://purl.org/dc/elements/1.1/"
   xmlns:cc="http://creativecommons.org/ns#"
   xmlns:rdf="http://www.w3.org/1999/02/22-rdf-syntax-ns#"
   xmlns:svg="http://www.w3.org/2000/svg"
   xmlns="http://www.w3.org/2000/svg"
   xmlns:sodipodi="http://sodipodi.sourceforge.net/DTD/sodipodi-0.dtd"
   xmlns:inkscape="http://www.inkscape.org/namespaces/inkscape"
   viewBox="0 0 75.59055 485.66928"
   version="1.1"
   id="svg183"
   sodipodi:docname="CEQ Final VCV-17.svg"
   width="20mm"
   height="128.5mm"
   inkscape:version="0.92.2 5c3e80d, 2017-08-06">
  <metadata
     id="metadata187">
    <rdf:RDF>
      <cc:Work
         rdf:about="">
        <dc:format>image/svg+xml</dc:format>
        <dc:type
           rdf:resource="http://purl.org/dc/dcmitype/StillImage" />
        <dc:title>CEQ Final VCV</dc:title>
      </cc:Work>
    </rdf:RDF>
  </metadata>
  <sodipodi:namedview
     pagecolor="#ffffff"
     bordercolor="#666666"
     borderopacity="1"
     objecttolerance="10"
     gridtolerance="10"
     guidetolerance="10"
     inkscape:pageopacity="0"
     inkscape:pageshadow="2"
     inkscape:window-width="1512"
     inkscape:window-height="1056"
     id="namedview185"
     showgrid="false"
     units="mm"
     inkscape:zoom="165.8641"
     inkscape:cx="0.14449431"
     inkscape:cy="483.5766"
     inkscape:window-x="0"
     inkscape:window-y="0"
     inkscape:window-maximized="0"
     inkscape:current-layer="svg183" />
  <defs
     id="defs4">
    <style
       id="style2">.cls-1{fill:#010100;}.cls-2{fill:none;}.cls-3{fill:#fff;}.cls-4{fill:#040006;}.cls-5{fill:#a6a6a6;}.cls-6{fill:#ffcd00;}.cls-7{fill:#f0f;}</style>
  </defs>
  <title
     id="title6">CEQ Final VCV</title>
  <g
     id="Capa_2"
     data-name="Capa 2"
     transform="matrix(1.3334019,0,0,1.3333039,0.00324667,0.00831424)">
    <rect
       class="cls-1"
       width="56.689999"
       height="364.25"
       id="rect8"
       x="0"
       y="0"
       style="fill:#010100" />
    <circle
       class="cls-2"
       cx="28.35"
       cy="300.32999"
       r="20.049999"
       id="circle10"
       style="fill:none" />
  </g>
  <g
     id="Capa_1"
     data-name="Capa 1"
     transform="matrix(1.3334019,0,0,1.3333039,0.00324667,0.00831424)">
    <path
       class="cls-3"
       d="M 35.12,11.56 A 3.12,3.12 0 0 1 33.89,10.4 3.24,3.24 0 0 1 33.45,8.72 3.29,3.29 0 0 1 33.89,7 3.19,3.19 0 0 1 35.12,5.84 3.62,3.62 0 0 1 36.87,5.42 3.72,3.72 0 0 1 38.35,5.71 3,3 0 0 1 39.46,6.54 L 38.52,7.4 a 2,2 0 0 0 -1.58,-0.73 2.08,2.08 0 0 0 -1,0.25 1.78,1.78 0 0 0 -0.72,0.72 2.08,2.08 0 0 0 -0.26,1 2.15,2.15 0 0 0 0.26,1 1.82,1.82 0 0 0 0.72,0.71 2.08,2.08 0 0 0 1,0.26 2,2 0 0 0 1.58,-0.61 l 0.94,0.86 a 2.84,2.84 0 0 1 -1.12,0.84 3.69,3.69 0 0 1 -1.48,0.29 3.61,3.61 0 0 1 -1.74,-0.43 z"
       id="path13"
       inkscape:connector-curvature="0"
       style="fill:#ffffff" />
    <path
       class="cls-3"
       d="m 45.32,10.7 v 1.17 h -4.88 v -6.3 h 4.76 v 1.17 h -3.31 v 1.37 h 2.93 v 1.13 h -2.93 v 1.46 z"
       id="path15"
       inkscape:connector-curvature="0"
       style="fill:#ffffff" />
    <path
       class="cls-3"
       d="m 53.27,12.55 a 2,2 0 0 1 -0.74,0.57 2.17,2.17 0 0 1 -1,0.2 2.63,2.63 0 0 1 -1.26,-0.3 A 5.33,5.33 0 0 1 49,12 3.48,3.48 0 0 1 47.47,11.45 3.13,3.13 0 0 1 46.47,10.32 3.23,3.23 0 0 1 46.1,8.77 3.16,3.16 0 0 1 46.54,7.1 3.19,3.19 0 0 1 47.77,5.94 3.62,3.62 0 0 1 49.54,5.51 3.57,3.57 0 0 1 51.31,5.94 3.14,3.14 0 0 1 53,8.72 a 3.16,3.16 0 0 1 -0.62,1.93 3.2,3.2 0 0 1 -1.63,1.15 1.58,1.58 0 0 0 0.44,0.34 1,1 0 0 0 0.45,0.1 1.36,1.36 0 0 0 1,-0.47 z M 47.8,9.77 a 1.8,1.8 0 0 0 0.71,0.71 2.07,2.07 0 0 0 2,0 1.86,1.86 0 0 0 0.71,-0.71 2.14,2.14 0 0 0 0.25,-1 2.08,2.08 0 0 0 -0.25,-1 1.82,1.82 0 0 0 -0.7,-0.77 2.15,2.15 0 0 0 -2,0 1.76,1.76 0 0 0 -0.71,0.72 2.08,2.08 0 0 0 -0.26,1 2.15,2.15 0 0 0 0.25,1.05 z"
       id="path17"
       inkscape:connector-curvature="0"
       style="fill:#ffffff" />
    <path
       class="cls-4"
       d="m 24.24,13.32 h -8.8 a 4.65,4.65 0 0 1 0,-9.29 h 8.8 a 4.65,4.65 0 1 1 0,9.29 z m -8.8,-8.79 a 4.15,4.15 0 0 0 0,8.29 h 8.8 a 4.15,4.15 0 1 0 0,-8.29 z"
       id="path19"
       inkscape:connector-curvature="0"
       style="fill:#040006" />
    <path
       class="cls-5"
       d="m 24.24,12.9 h -8.8 a 4.4,4.4 0 1 1 0,-8.79 h 8.8 a 4.4,4.4 0 1 1 0,8.79 z"
       id="path21"
       inkscape:connector-curvature="0"
       style="fill:#a6a6a6" />
    <path
       class="cls-1"
       d="m 28.64,8.5 a 4.4,4.4 0 0 1 -4.4,4.4 h -8.8 a 4.4,4.4 0 1 1 0,-8.79 h 8.8 a 4.4,4.4 0 0 1 4.4,4.39 z"
       id="path23"
       inkscape:connector-curvature="0"
       style="fill:#010100" />
    <path
       class="cls-3"
       d="m 49.73,344.53 c -3.55,0 -3.55,-2.27 -7.1,-2.27 -3.55,0 -3.55,2.27 -7.1,2.27 -3.55,0 -3.55,-2.27 -7.1,-2.27 -3.55,0 -3.55,2.27 -7.1,2.27 -3.55,0 -3.55,-2.27 -7.1,-2.27 -3.55,0 -3.55,2.27 -7.1,2.27 -3.55,0 -3.55,-2.27 -7.1,-2.27 H 0 v 22 h 56.69 v -22 c -3.4,0.07 -3.46,2.27 -6.96,2.27 z"
       id="path25"
       inkscape:connector-curvature="0"
       style="fill:#ffffff" />
    <polygon
       class="cls-6"
       points="6.92,359.16 9,361.24 13.37,361.24 11.29,359.16 "
       id="polygon27"
       style="fill:#ffcd00" />
    <polygon
       class="cls-6"
       points="16.97,359.16 12.6,359.16 14.68,361.24 19.05,361.24 "
       id="polygon29"
       style="fill:#ffcd00" />
    <path
       class="cls-6"
       d="m 17.63,358.5 2.08,2.08 v -7.48 a 4.4,4.4 0 0 0 -1.3,-3.12 l -1.08,-1.08 a 4.74,4.74 0 0 1 0.3,1.65 z"
       id="path31"
       inkscape:connector-curvature="0"
       style="fill:#ffcd00" />
    <path
       class="cls-6"
       d="m 15.75,348 a 4,4 0 0 0 -3,-1.38 h -2.54 a 4,4 0 0 0 -4,3.95 v 7.68 H 11 v -7 a 0.47,0.47 0 0 1 0.93,0 v 7 h 4.77 v -7.68 A 4,4 0 0 0 15.75,348 Z"
       id="path33"
       inkscape:connector-curvature="0"
       style="fill:#ffcd00" />
    <path
       class="cls-6"
       d="m 41.36,349.55 h -9 a 6.19,6.19 0 0 0 0,12.38 h 9 a 6.19,6.19 0 0 0 0,-12.38 z m -0.11,10.58 h -8.8 a 4.4,4.4 0 0 1 0,-8.79 h 8.8 a 4.4,4.4 0 1 1 0,8.79 z"
       id="path35"
       inkscape:connector-curvature="0"
       style="fill:#ffcd00" />
    <path
       class="cls-5"
       d="m 41.25,360.14 h -8.8 a 4.4,4.4 0 1 1 0,-8.79 h 8.8 a 4.4,4.4 0 1 1 0,8.79 z"
       id="path37"
       inkscape:connector-curvature="0"
       style="fill:#a6a6a6" />
    <path
       class="cls-1"
       d="m 45.65,355.74 a 4.4,4.4 0 0 1 -4.4,4.4 h -8.8 a 4.4,4.4 0 1 1 0,-8.79 h 8.8 a 4.4,4.4 0 0 1 4.4,4.39 z"
       id="path39"
       inkscape:connector-curvature="0"
       style="fill:#010100" />
    <path
       class="cls-6"
       d="m 29.55,40.5 -2,-1.15 a 0.57,0.57 0 0 0 -0.85,0.49 v 2.3 a 0.57,0.57 0 0 0 0.85,0.49 l 2,-1.15 a 0.56,0.56 0 0 0 0,-0.98 z"
       id="path41"
       inkscape:connector-curvature="0"
       style="fill:#ffcd00" />
    <path
       class="cls-6"
       d="M 42.52,65.62 H 14.17 A 12.19,12.19 0 0 0 2,77.81 v 0 A 12.19,12.19 0 0 0 14.17,90 H 42.52 A 12.19,12.19 0 0 0 54.71,77.81 v 0 A 12.19,12.19 0 0 0 42.52,65.62 Z"
       id="path43"
       inkscape:connector-curvature="0"
       style="fill:#ffcd00" />
    <rect
       class="cls-3"
       x="9.5699997"
       y="53.91"
       width="9.29"
       height="9.29"
       rx="4.6399999"
       ry="4.6399999"
       id="rect45"
       style="fill:#ffffff" />
    <path
       class="cls-4"
       d="M 15.63,60.18 V 61 H 12.8 v -4.9 h 0.85 v 4 z"
       id="path47"
       inkscape:connector-curvature="0"
       style="fill:#040006" />
    <rect
       class="cls-3"
       x="37.880001"
       y="53.91"
       width="9.29"
       height="9.29"
       rx="4.6399999"
       ry="4.6399999"
       id="rect49"
       style="fill:#ffffff" />
    <path
       class="cls-4"
       d="m 43.65,58.56 a 1.42,1.42 0 0 1 0.42,1 V 61 H 43.22 V 59.58 A 0.59,0.59 0 0 0 42.65,58.99 H 42 v 2 H 41.2 V 57 h -0.37 v -0.85 h 1.8 a 1.45,1.45 0 0 1 1.44,1.44 1.42,1.42 0 0 1 -0.42,0.97 z m -1,-0.42 a 0.59,0.59 0 0 0 0,-1.18 H 42 v 1.18 h 0.61 z"
       id="path51"
       inkscape:connector-curvature="0"
       style="fill:#040006" />
    <path
       class="cls-3"
       d="m 15.63,98.38 v 0.85 H 12.8 v -4.9 h 0.85 v 4 z"
       id="path53"
       inkscape:connector-curvature="0"
       style="fill:#ffffff" />
    <path
       class="cls-3"
       d="m 43.65,96.77 a 1.42,1.42 0 0 1 0.42,1 v 1.44 H 43.22 V 97.78 A 0.59,0.59 0 0 0 42.65,97.19 H 42 v 2 h -0.8 v -4 h -0.37 v -0.85 h 1.8 a 1.44,1.44 0 0 1 1,2.45 z m -1,-0.43 a 0.59,0.59 0 0 0 0,-1.17 H 42 v 1.17 h 0.61 z"
       id="path55"
       inkscape:connector-curvature="0"
       style="fill:#ffffff" />
    <path
       class="cls-6"
       d="m 24.35,2.31 h -9 a 6.19,6.19 0 0 0 0,12.38 h 9 a 6.19,6.19 0 0 0 0,-12.38 z M 24.24,12.9 h -8.8 a 4.4,4.4 0 0 1 0,-8.79 h 8.8 a 4.4,4.4 0 1 1 0,8.79 z"
       id="path57"
       inkscape:connector-curvature="0"
       style="fill:#ffcd00" />
    <path
       class="cls-3"
       d="m 25.44,267.48 v 0.85 h -2.83 v -4.9 h 0.85 v 4.05 z"
       id="path59"
       inkscape:connector-curvature="0"
       style="fill:#ffffff" />
    <path
       class="cls-3"
       d="m 29.19,265.05 v 1.64 a 1.63,1.63 0 0 1 -3.26,0 v -1.64 a 1.63,1.63 0 0 1 3.26,0 z m -0.85,0 a 0.79,0.79 0 0 0 -1.57,0 v 1.64 a 0.79,0.79 0 0 0 1.57,0 z"
       id="path61"
       inkscape:connector-curvature="0"
       style="fill:#ffffff" />
    <path
       class="cls-3"
       d="m 34.7,263.42 v 3.43 a 1.46,1.46 0 0 1 -2.51,1 1.47,1.47 0 0 1 -2.52,-1 v -3.43 h 0.85 v 3.43 a 0.63,0.63 0 0 0 1.25,0 v -3.43 h 0.84 v 3.43 a 0.63,0.63 0 0 0 1.25,0 v -3.43 z"
       id="path63"
       inkscape:connector-curvature="0"
       style="fill:#ffffff" />
    <path
       class="cls-3"
       d="m 22.51,326.18 h 0.85 a 1.63,1.63 0 0 1 -3.26,0 v -1.65 a 1.63,1.63 0 0 1 3.26,0 h -0.85 a 0.78,0.78 0 0 0 -1.56,0 v 1.65 a 0.78,0.78 0 0 0 1.56,0 z"
       id="path65"
       inkscape:connector-curvature="0"
       style="fill:#ffffff" />
    <path
       class="cls-3"
       d="m 27.11,324.54 v 1.64 a 1.63,1.63 0 0 1 -3.26,0 v -1.64 a 1.63,1.63 0 0 1 3.26,0 z m -0.85,0 a 0.77,0.77 0 0 0 -0.78,-0.78 0.78,0.78 0 0 0 -0.79,0.78 v 1.64 a 0.79,0.79 0 0 0 0.79,0.78 0.78,0.78 0 0 0 0.78,-0.78 z"
       id="path67"
       inkscape:connector-curvature="0"
       style="fill:#ffffff" />
    <path
       class="cls-3"
       d="m 32.9,324.38 v 3.43 h -0.84 v -3.43 a 0.63,0.63 0 0 0 -1.26,0 v 3.43 H 30 v -3.43 a 0.63,0.63 0 0 0 -1.26,0 v 3.43 H 27.9 v -4 h -0.41 v -0.85 h 0.43 a 0.81,0.81 0 0 1 0.6,0.26 1.47,1.47 0 0 1 1.9,0.17 1.49,1.49 0 0 1 1.05,-0.44 1.47,1.47 0 0 1 1.43,1.43 z"
       id="path69"
       inkscape:connector-curvature="0"
       style="fill:#ffffff" />
    <path
       class="cls-3"
       d="m 36.56,324.34 a 1.43,1.43 0 0 1 -1.44,1.44 h -0.59 v 2 h -0.84 v -4.05 h -0.37 v -0.85 h 1.8 a 1.43,1.43 0 0 1 1.44,1.46 z m -0.85,0 a 0.59,0.59 0 0 0 -0.59,-0.59 h -0.59 v 1.18 h 0.59 a 0.58,0.58 0 0 0 0.59,-0.59 z"
       id="path71"
       inkscape:connector-curvature="0"
       style="fill:#ffffff" />
    <path
       class="cls-3"
       d="m 28,207.79 v 3.42 h -0.84 v -3.42 a 0.63,0.63 0 0 0 -1.26,0 v 3.42 H 25 v -3.42 a 0.63,0.63 0 0 0 -1.26,0 v 3.42 H 22.9 v -4 h -0.41 v -0.85 H 23 a 0.85,0.85 0 0 1 0.6,0.26 1.49,1.49 0 0 1 1.9,0.17 1.49,1.49 0 0 1 1.05,-0.44 1.47,1.47 0 0 1 1.45,1.44 z"
       id="path73"
       inkscape:connector-curvature="0"
       style="fill:#ffffff" />
    <path
       class="cls-3"
       d="m 29.74,207.18 v 3.19 h 0.37 v 0.85 h -1.58 v -0.85 h 0.37 v -3.19 h -0.37 v -0.85 h 1.58 v 0.85 z"
       id="path75"
       inkscape:connector-curvature="0"
       style="fill:#ffffff" />
    <path
       class="cls-3"
       d="m 34,207.89 v 1.76 a 1.57,1.57 0 0 1 -1.57,1.57 H 30.9 v -4.06 h -0.37 v -0.84 h 1.93 a 1.57,1.57 0 0 1 1.54,1.57 z m -0.85,0 a 0.73,0.73 0 0 0 -0.72,-0.73 h -0.71 v 3.21 h 0.71 a 0.72,0.72 0 0 0 0.72,-0.72 z"
       id="path77"
       inkscape:connector-curvature="0"
       style="fill:#ffffff" />
    <path
       class="cls-3"
       d="m 25.09,148.21 v 4.89 h -0.84 v -2 h -1.57 v 2 h -0.85 v -4.9 h 0.85 v 2 h 1.57 v -2 z"
       id="path79"
       inkscape:connector-curvature="0"
       style="fill:#ffffff" />
    <path
       class="cls-3"
       d="m 26.86,149.07 v 3.19 h 0.37 v 0.85 h -1.58 v -0.85 H 26 v -3.19 h -0.37 v -0.85 h 1.58 v 0.85 z"
       id="path81"
       inkscape:connector-curvature="0"
       style="fill:#ffffff" />
    <path
       class="cls-3"
       d="m 31.05,150.23 v 1.25 a 1.63,1.63 0 0 1 -3.26,0 v -1.64 a 1.63,1.63 0 0 1 2.78,-1.16 l -0.6,0.6 a 0.78,0.78 0 0 0 -1.33,0.56 v 1.64 a 0.78,0.78 0 1 0 1.56,0 v -0.4 h -0.78 v -0.85 z"
       id="path83"
       inkscape:connector-curvature="0"
       style="fill:#ffffff" />
    <path
       class="cls-3"
       d="m 34.86,148.21 v 4.89 H 34 v -2 h -1.55 v 2 h -0.84 v -4.9 h 0.84 v 2 H 34 v -2 z"
       id="path85"
       inkscape:connector-curvature="0"
       style="fill:#ffffff" />
    <path
       class="cls-6"
       d="m 41.77,23.51 a 0.46,0.46 0 0 1 -0.13,-0.35 0.42,0.42 0 0 1 0.13,-0.33 0.43,0.43 0 0 1 0.33,-0.13 0.45,0.45 0 0 1 0.34,0.13 0.42,0.42 0 0 1 0.13,0.33 0.46,0.46 0 0 1 -0.13,0.35 0.49,0.49 0 0 1 -0.34,0.13 0.49,0.49 0 0 1 -0.33,-0.13 z"
       id="path87"
       inkscape:connector-curvature="0"
       style="fill:#ffcd00" />
    <path
       class="cls-6"
       d="m 44.82,23.51 a 0.46,0.46 0 0 1 -0.13,-0.35 0.42,0.42 0 0 1 0.13,-0.33 0.43,0.43 0 0 1 0.33,-0.13 0.45,0.45 0 0 1 0.34,0.13 0.42,0.42 0 0 1 0.13,0.33 0.46,0.46 0 0 1 -0.13,0.35 0.49,0.49 0 0 1 -0.34,0.13 0.49,0.49 0 0 1 -0.33,-0.13 z"
       id="path89"
       inkscape:connector-curvature="0"
       style="fill:#ffcd00" />
    <path
       class="cls-6"
       d="m 47.87,23.51 a 0.46,0.46 0 0 1 -0.13,-0.35 0.42,0.42 0 0 1 0.13,-0.33 0.45,0.45 0 0 1 0.34,-0.13 0.43,0.43 0 0 1 0.33,0.13 0.42,0.42 0 0 1 0.13,0.33 0.46,0.46 0 0 1 -0.13,0.35 0.47,0.47 0 0 1 -0.33,0.13 0.49,0.49 0 0 1 -0.34,-0.13 z"
       id="path91"
       inkscape:connector-curvature="0"
       style="fill:#ffcd00" />
    <path
       class="cls-6"
       d="m 50.93,23.51 a 0.47,0.47 0 0 1 -0.14,-0.35 0.47,0.47 0 1 1 0.94,0 0.5,0.5 0 0 1 -0.13,0.35"
       id="path93"
       inkscape:connector-curvature="0"
       style="fill:#ffcd00" />
    <path
       class="cls-6"
       d="m 32.61,23.51 a 0.46,0.46 0 0 1 -0.13,-0.35 0.42,0.42 0 0 1 0.13,-0.33 0.45,0.45 0 0 1 0.39,-0.13 0.43,0.43 0 0 1 0.33,0.13 0.42,0.42 0 0 1 0.13,0.33 0.46,0.46 0 0 1 -0.13,0.35 0.47,0.47 0 0 1 -0.33,0.13 0.49,0.49 0 0 1 -0.39,-0.13 z"
       id="path95"
       inkscape:connector-curvature="0"
       style="fill:#ffcd00" />
    <path
       class="cls-6"
       d="M 35.66,23.51 A 0.5,0.5 0 0 1 35.53,23.16 0.45,0.45 0 0 1 36,22.7 0.44,0.44 0 0 1 36.46,23.16 0.46,0.46 0 0 1 36.33,23.51 0.45,0.45 0 0 1 36,23.64 0.49,0.49 0 0 1 35.66,23.51 Z"
       id="path97"
       inkscape:connector-curvature="0"
       style="fill:#ffcd00" />
    <path
       class="cls-6"
       d="m 38.72,23.51 a 0.47,0.47 0 0 1 -0.14,-0.35 0.47,0.47 0 1 1 0.94,0 0.5,0.5 0 0 1 -0.13,0.35 0.49,0.49 0 0 1 -0.34,0.13 0.47,0.47 0 0 1 -0.33,-0.13 z"
       id="path99"
       inkscape:connector-curvature="0"
       style="fill:#ffcd00" />
    <path
       class="cls-6"
       d="m 26.51,23.51 a 0.46,0.46 0 0 1 -0.13,-0.35 0.44,0.44 0 0 1 0.46,-0.46 0.45,0.45 0 0 1 0.47,0.46 0.5,0.5 0 0 1 -0.13,0.35 0.49,0.49 0 0 1 -0.34,0.13 0.49,0.49 0 0 1 -0.33,-0.13 z"
       id="path101"
       inkscape:connector-curvature="0"
       style="fill:#ffcd00" />
    <path
       class="cls-6"
       d="m 29.56,23.51 a 0.46,0.46 0 0 1 -0.13,-0.35 0.42,0.42 0 0 1 0.13,-0.33 0.43,0.43 0 0 1 0.33,-0.13 0.45,0.45 0 0 1 0.34,0.13 0.42,0.42 0 0 1 0.13,0.33 0.46,0.46 0 0 1 -0.13,0.35 0.49,0.49 0 0 1 -0.34,0.13 0.49,0.49 0 0 1 -0.33,-0.13 z"
       id="path103"
       inkscape:connector-curvature="0"
       style="fill:#ffcd00" />
    <path
       class="cls-6"
       d="m 20.4,23.51 a 0.5,0.5 0 0 1 -0.13,-0.35 0.42,0.42 0 0 1 0.13,-0.33 0.45,0.45 0 0 1 0.34,-0.13 0.44,0.44 0 0 1 0.46,0.46 0.46,0.46 0 0 1 -0.13,0.35 0.45,0.45 0 0 1 -0.33,0.13 0.49,0.49 0 0 1 -0.34,-0.13 z"
       id="path105"
       inkscape:connector-curvature="0"
       style="fill:#ffcd00" />
    <path
       class="cls-6"
       d="m 23.46,23.51 a 0.47,0.47 0 0 1 -0.14,-0.35 0.47,0.47 0 1 1 0.94,0 0.5,0.5 0 0 1 -0.13,0.35 0.49,0.49 0 0 1 -0.34,0.13 0.47,0.47 0 0 1 -0.33,-0.13 z"
       id="path107"
       inkscape:connector-curvature="0"
       style="fill:#ffcd00" />
    <path
       class="cls-6"
       d="m 17.35,23.51 a 0.46,0.46 0 0 1 -0.13,-0.35 0.42,0.42 0 0 1 0.13,-0.33 0.45,0.45 0 0 1 0.34,-0.13 0.43,0.43 0 0 1 0.33,0.13 0.42,0.42 0 0 1 0.13,0.33 0.46,0.46 0 0 1 -0.13,0.35 0.47,0.47 0 0 1 -0.33,0.13 0.49,0.49 0 0 1 -0.34,-0.13 z"
       id="path109"
       inkscape:connector-curvature="0"
       style="fill:#ffcd00" />
    <path
       class="cls-6"
       d="m 14.26,23.51 a 0.47,0.47 0 0 1 -0.14,-0.35 0.47,0.47 0 1 1 0.94,0 0.5,0.5 0 0 1 -0.13,0.35 0.49,0.49 0 0 1 -0.34,0.13 0.47,0.47 0 0 1 -0.33,-0.13 z"
       id="path111"
       inkscape:connector-curvature="0"
       style="fill:#ffcd00" />
    <path
       class="cls-6"
       d="M 8.15,23.51 A 0.46,0.46 0 0 1 8,23.16 0.42,0.42 0 0 1 8.13,22.83 0.45,0.45 0 0 1 8.47,22.7 0.43,0.43 0 0 1 8.8,22.83 0.42,0.42 0 0 1 8.93,23.16 0.46,0.46 0 0 1 8.8,23.51 0.47,0.47 0 0 1 8.47,23.64 0.49,0.49 0 0 1 8.15,23.51 Z"
       id="path113"
       inkscape:connector-curvature="0"
       style="fill:#ffcd00" />
    <path
       class="cls-6"
       d="M 11.2,23.51 A 0.5,0.5 0 0 1 11.07,23.16 0.42,0.42 0 0 1 11.2,22.83 0.45,0.45 0 0 1 11.54,22.7 0.44,0.44 0 0 1 12,23.16 0.46,0.46 0 0 1 11.87,23.51 0.45,0.45 0 0 1 11.54,23.64 0.49,0.49 0 0 1 11.2,23.51 Z"
       id="path115"
       inkscape:connector-curvature="0"
       style="fill:#ffcd00" />
    <path
       class="cls-6"
       d="M 5.1,23.51 A 0.46,0.46 0 0 1 5,23.16 0.42,0.42 0 0 1 5.13,22.83 0.43,0.43 0 0 1 5.46,22.7 0.45,0.45 0 0 1 5.8,22.83 0.42,0.42 0 0 1 5.93,23.16 0.46,0.46 0 0 1 5.8,23.51 0.49,0.49 0 0 1 5.46,23.64 0.49,0.49 0 0 1 5.1,23.51 Z"
       id="path117"
       inkscape:connector-curvature="0"
       style="fill:#ffcd00" />
    <path
       class="cls-6"
       d="m 7.61,296.94 a 22.7,22.7 0 0 0 -0.24,2.43 l 1.88,0.14 a 17.4,17.4 0 0 1 0.24,-2.3 z"
       id="path119"
       inkscape:connector-curvature="0"
       style="fill:#ffcd00" />
    <path
       class="cls-6"
       d="m 11.51,291.21 a 19.18,19.18 0 0 0 -1.27,2.94 l -1.8,-0.61 a 22.26,22.26 0 0 1 1.36,-3.13 z"
       id="path121"
       inkscape:connector-curvature="0"
       style="fill:#ffcd00" />
    <path
       class="cls-6"
       d="m 14.8,286.78 a 19.64,19.64 0 0 0 -2.18,2.63 L 11,288.34 a 22.75,22.75 0 0 1 2.36,-2.82 z"
       id="path123"
       inkscape:connector-curvature="0"
       style="fill:#ffcd00" />
    <path
       class="cls-6"
       d="m 19.16,283.52 a 17.61,17.61 0 0 0 -3,2 L 15,284 a 22.34,22.34 0 0 1 3.22,-2.16 z"
       id="path125"
       inkscape:connector-curvature="0"
       style="fill:#ffcd00" />
    <path
       class="cls-6"
       d="m 24.45,281.57 a 17.42,17.42 0 0 0 -3.59,1.12 L 20.1,281 a 21.68,21.68 0 0 1 3.84,-1.2 z"
       id="path127"
       inkscape:connector-curvature="0"
       style="fill:#ffcd00" />
    <path
       class="cls-6"
       d="m 30.36,279.4 -0.15,1.86 c -0.62,-0.06 -1.25,-0.09 -1.88,-0.09 a 14.57,14.57 0 0 0 -2,0.11 l -0.17,-1.88 a 17.16,17.16 0 0 1 2.16,-0.12 c 0.68,0 1.4,0.06 2.04,0.12 z"
       id="path129"
       inkscape:connector-curvature="0"
       style="fill:#ffcd00" />
    <path
       class="cls-6"
       d="m 36.51,281 -0.7,1.74 a 21.24,21.24 0 0 0 -3.93,-1.24 l 0.41,-1.79 a 19.77,19.77 0 0 1 2.05,0.5 22.39,22.39 0 0 1 2.17,0.79 z"
       id="path131"
       inkscape:connector-curvature="0"
       style="fill:#ffcd00" />
    <path
       class="cls-6"
       d="m 41.64,284.05 -1.23,1.43 A 15.64,15.64 0 0 0 37,283.24 l 0.89,-1.66 a 19.78,19.78 0 0 1 2.09,1.2 c 0.41,0.3 1.39,1.04 1.66,1.27 z"
       id="path133"
       inkscape:connector-curvature="0"
       style="fill:#ffcd00" />
    <path
       class="cls-6"
       d="m 45.72,288.52 -1.59,1 a 16.3,16.3 0 0 0 -2.84,-3.3 l 1.36,-1.3 a 14.12,14.12 0 0 1 1.15,1.17 v 0 l 1.23,1.46 v 0 c 0.28,0.37 0.49,0.66 0.69,0.97 z"
       id="path135"
       inkscape:connector-curvature="0"
       style="fill:#ffcd00" />
    <path
       class="cls-6"
       d="m 48.36,294 -1.81,0.52 a 25.26,25.26 0 0 0 -1.83,-4.08 l 1.63,-0.95 a 21.18,21.18 0 0 1 2.01,4.51 z"
       id="path137"
       inkscape:connector-curvature="0"
       style="fill:#ffcd00" />
    <path
       class="cls-6"
       d="m 47.43,300.16 a 30.59,30.59 0 0 0 -0.6,-4.64 l 1.83,-0.47 a 25.74,25.74 0 0 1 0.66,5.11 z"
       id="path139"
       inkscape:connector-curvature="0"
       style="fill:#ffcd00" />
    <path
       class="cls-6"
       d="m 37.77,319.07 a 24.6,24.6 0 0 0 2.93,-1.76 20.9,20.9 0 0 0 4.77,-4.85 l 0.17,-0.23 v 0 a 17.58,17.58 0 0 0 2.45,-4.86 l -1.78,-0.6 a 18.15,18.15 0 0 1 -2.23,4.39 l -0.15,0.21 a 18.84,18.84 0 0 1 -3.49,3.75 l -0.33,0.27 a 18.65,18.65 0 0 1 -3.26,2 z"
       id="path141"
       inkscape:connector-curvature="0"
       style="fill:#ffcd00" />
    <path
       class="cls-6"
       d="m 18.15,318.73 1.08,-1.64 0.55,0.3 -0.91,1.74 c 0,0 -0.22,-0.13 -0.35,-0.19 -0.13,-0.06 -0.37,-0.21 -0.37,-0.21 z"
       id="path143"
       inkscape:connector-curvature="0"
       style="fill:#ffcd00" />
    <path
       class="cls-6"
       d="m 14.74,316.29 a 6.72,6.72 0 0 1 -0.81,-0.74 l 1.33,-1.35 a 3.66,3.66 0 0 0 0.62,0.57 l 0.12,0.1 -1.2,1.47 z"
       id="path145"
       inkscape:connector-curvature="0"
       style="fill:#ffcd00" />
    <path
       class="cls-6"
       d="m 10.58,311.51 c -0.38,-0.62 -0.81,-1.43 -0.81,-1.43 l 1.69,-0.84 c 0,0 0.41,0.75 0.74,1.26 v 0.06 l -1.62,1 z"
       id="path147"
       inkscape:connector-curvature="0"
       style="fill:#ffcd00" />
    <path
       class="cls-6"
       d="M 9.85,305.11 8,305.54 v -0.08 c -0.19,-0.71 -0.38,-1.91 -0.38,-1.91 l 1.87,-0.27 c 0,0 0.08,0.56 0.16,0.89 0.08,0.33 0.2,0.94 0.2,0.94 z"
       id="path149"
       inkscape:connector-curvature="0"
       style="fill:#ffcd00" />
    <path
       class="cls-6"
       d="m 49.29,301.26 -1.88,-0.1 a 15.56,15.56 0 0 1 -0.78,4.6 l 1.8,0.53 a 17.08,17.08 0 0 0 0.86,-5.03 z"
       id="path151"
       inkscape:connector-curvature="0"
       style="fill:#ffcd00" />
    <circle
       class="cls-7"
       cx="14.17"
       cy="40.959999"
       r="1.42"
       id="circle153"
       style="fill:#ff00ff" />
    <circle
       class="cls-7"
       cx="42.52"
       cy="40.959999"
       r="1.42"
       id="circle155"
       style="fill:#ff00ff" />
    <circle
       class="cls-7"
       cx="14.17"
       cy="77.809998"
       r="1.42"
       id="circle157"
       style="fill:#ff00ff" />
    <circle
       class="cls-7"
       cx="28.35"
       cy="126"
       r="1.42"
       id="circle159"
       style="fill:#ff00ff" />
    <circle
       class="cls-7"
       cx="28.35"
       cy="300.32999"
       r="1.42"
       id="circle161"
       style="fill:#ff00ff" />
    <circle
       class="cls-7"
       cx="8.8699999"
       cy="325.10999"
       r="1.42"
       id="circle163"
       style="fill:#ff00ff" />
    <circle
       class="cls-7"
       cx="47.849998"
       cy="325.10999"
       r="1.42"
       id="circle165"
       style="fill:#ff00ff" />
    <circle
       class="cls-7"
       cx="42.52"
       cy="77.809998"
       r="1.42"
       id="circle167"
       style="fill:#ff00ff" />
  </g>
  <g
     id="Cotas"
     transform="matrix(1.3334019,0,0,1.3333039,0.00324667,0.00831424)">
    <path
       class="cls-3"
       d="m 41.7,142.87 h -0.05 l -1.24,-1.54 v 0 c 0.51,-0.41 1,-0.84 1.46,-1.29 v 0 0 l 1.4,1.43 v 0 0 h -0.08 a 20.75,20.75 0 0 1 -1.56,1.38 v 0 z m -27,-0.14 v -0.09 c -0.55,-0.46 -1.08,-0.94 -1.57,-1.44 v 0 l 1.45,-1.44 v 0 c 0.45,0.46 0.94,0.9 1.43,1.31 l 0.05,0.05 -1.31,1.57 v 0 z m 30.06,-2.83 -1.57,-1.32 v 0 A 18.07,18.07 0 0 0 44.4,137 v 0 0 l 1.66,1.12 v 0 c -0.41,0.59 -0.84,1.17 -1.3,1.73 z m -33,-0.26 v 0 a 20.12,20.12 0 0 1 -1.28,-1.75 v 0 l 1.71,-1.12 v 0 a 18.65,18.65 0 0 0 1.15,1.57 v 0 0 z m 35.43,-3.29 -1.8,-1 v 0 a 16.76,16.76 0 0 0 0.84,-1.76 v 0 l 1.88,0.78 v 0.06 c -0.27,0.66 -0.59,1.32 -0.92,1.94 z m -37.8,-0.29 v -0.05 c -0.33,-0.63 -0.63,-1.29 -0.9,-2 v -0.07 h 0.07 l 1.84,-0.73 v 0.05 c 0.24,0.59 0.51,1.19 0.81,1.77 v 0 0 z m 39.46,-3.67 -2,-0.59 v -0.05 c 0.19,-0.63 0.34,-1.26 0.47,-1.89 v -0.06 l 2,0.39 v 0.05 c -0.14,0.7 -0.31,1.41 -0.52,2.1 z M 7.78,132.08 v -0.06 q -0.29,-1 -0.48,-2.1 v 0 l 2,-0.36 v 0.05 c 0.12,0.63 0.26,1.25 0.43,1.86 v 0.09 0 z m 41.91,-3.91 v 0 l -2,-0.18 v 0 a 17.87,17.87 0 0 0 0.08,-1.81 l 0.05,-0.2 h 2 v 0.21 c 0,0.67 0,1.34 -0.09,2 z M 7,127.85 v 0 c 0,-0.57 -0.07,-1.13 -0.07,-1.67 0,-0.16 0,-0.33 0,-0.49 v 0 h 2.05 v 0 c 0,0.15 0,0.29 0,0.44 0,0.49 0,1 0.06,1.51 v 0 H 9 Z m 40.61,-3.75 v 0 a 18.8,18.8 0 0 0 -0.3,-1.92 v -0.06 h 0.05 l 1.95,-0.41 v 0 c 0.15,0.71 0.26,1.42 0.34,2.14 v 0 z M 9.12,123.81 H 9.07 l -2,-0.3 c 0.09,-0.71 0.22,-1.42 0.37,-2.12 v 0 l 2,0.45 v 0 c -0.14,0.63 -0.25,1.28 -0.33,1.92 z m 37.7,-3.51 v 0 c -0.2,-0.61 -0.43,-1.23 -0.69,-1.82 v -0.06 L 48,117.61 v 0.06 c 0.28,0.65 0.54,1.33 0.76,2 v 0.05 z M 9.93,120 v 0 L 8,119.37 v -0.06 c 0.23,-0.66 0.49,-1.34 0.79,-2 v 0 l 1.87,0.85 v 0 c -0.27,0.58 -0.5,1.19 -0.72,1.82 z m 35.37,-3.27 v 0 a 17.48,17.48 0 0 0 -1,-1.61 l -0.24,0.17 0.12,-0.16 h -0.13 l 1.87,-1.31 v 0.05 c 0.41,0.59 0.79,1.2 1.14,1.82 v 0 z m -33.75,-0.26 -1.77,-1 v 0 A 18.76,18.76 0 0 1 11,113.6 v 0 l 1.65,1.19 v 0 c -0.37,0.53 -0.73,1.08 -1.06,1.64 z m 31.53,-2.93 v 0 c -0.42,-0.49 -0.87,-1 -1.34,-1.41 h -0.05 l 1.41,-1.48 v 0 c 0.52,0.49 1,1 1.49,1.57 v 0 z M 13.81,113.31 12.28,112 v 0 c 0.48,-0.54 1,-1.06 1.51,-1.54 v 0 l 1.39,1.51 v 0 c -0.48,0.44 -0.93,0.91 -1.36,1.39 z m 26.46,-2.46 v 0 c -0.49,-0.38 -1,-0.75 -1.55,-1.09 v 0 l -0.08,-0.06 v 0 l 1.04,-1.7 v 0 c 0.61,0.39 1.21,0.81 1.77,1.25 v 0 z m -23.6,-0.2 v 0 l -1.2,-1.59 v 0 -0.1 l 0.06,0.06 a 19,19 0 0 1 1.74,-1.18 v 0 l 1.06,1.75 v 0 a 17.64,17.64 0 0 0 -1.62,1.09 z M 37,108.79 v 0 c -0.58,-0.29 -1.19,-0.55 -1.79,-0.78 v -0.06 l 0.71,-1.88 v 0 c 0.69,0.26 1.35,0.55 2,0.86 v 0 z m -17,-0.15 v 0 l -0.86,-1.8 v 0 c 0.65,-0.31 1.31,-0.58 2,-0.82 v -0.25 l 0.77,2.15 h -0.05 c -0.61,0.22 -1.22,0.47 -1.8,0.74 z m 13.36,-1.23 v 0 c -0.62,-0.16 -1.27,-0.3 -1.9,-0.4 l -0.05,-0.06 0.31,-2 v 0 a 21,21 0 0 1 2.12,0.44 v 0 z m -9.74,-0.07 v 0 l -0.48,-1.94 h 0.05 a 21.44,21.44 0 0 1 2.12,-0.41 h 0.06 l 0.28,2 v 0 c -0.64,0.1 -1.29,0.22 -1.91,0.38 z"
       id="path170"
       inkscape:connector-curvature="0"
       style="fill:#ffffff" />
    <rect
       class="cls-6"
       x="27.209999"
       y="103.65"
       width="2.27"
       height="3.1400001"
       id="rect172"
       style="fill:#ffcd00" />
    <path
       class="cls-3"
       d="m 41.7,201 h -0.05 l -1.24,-1.54 v 0 c 0.51,-0.41 1,-0.84 1.46,-1.29 v 0 0 l 1.4,1.43 v 0 0.05 h -0.08 a 20.75,20.75 0 0 1 -1.56,1.38 v 0 z m -27,-0.14 v -0.09 c -0.55,-0.46 -1.08,-0.94 -1.57,-1.44 v 0 l 1.45,-1.44 v 0 c 0.45,0.46 0.94,0.9 1.43,1.31 h 0.05 l -1.31,1.57 v 0 z M 44.76,198 43.19,196.68 v 0 a 18.07,18.07 0 0 0 1.18,-1.55 v 0 0 l 1.66,1.12 v 0 c -0.41,0.59 -0.84,1.17 -1.3,1.73 z m -33,-0.26 v 0 A 20.12,20.12 0 0 1 10.43,196 v 0 l 1.71,-1.12 v 0 a 18.65,18.65 0 0 0 1.15,1.57 v 0 0 z m 35.43,-3.29 -1.8,-1 v 0 a 16.76,16.76 0 0 0 0.84,-1.76 v -0.05 l 1.88,0.78 v 0.06 c -0.27,0.66 -0.59,1.32 -0.92,1.94 z m -37.8,-0.29 v 0 c -0.33,-0.63 -0.63,-1.29 -0.9,-2 v -0.07 h 0.07 l 1.84,-0.73 v 0 c 0.24,0.59 0.51,1.19 0.81,1.77 v 0 0 z m 39.46,-3.67 -2,-0.59 v 0 c 0.19,-0.63 0.34,-1.26 0.47,-1.89 v -0.06 l 2,0.39 v 0 c -0.14,0.7 -0.31,1.41 -0.52,2.1 z M 7.78,190.18 v -0.06 q -0.29,-1 -0.48,-2.1 V 188 l 2,-0.36 v 0 c 0.12,0.63 0.26,1.25 0.43,1.86 v 0.09 0 z m 41.91,-3.91 v 0 l -2,-0.18 v 0 a 17.87,17.87 0 0 0 0.08,-1.81 l 0.05,-0.2 h 2 v 0.21 c 0,0.67 0,1.34 -0.09,2 z M 7,186 v -0.05 c 0,-0.57 -0.07,-1.13 -0.07,-1.67 0,-0.16 0,-0.33 0,-0.49 v -0.05 l 2.05,0.05 v 0.05 c 0,0.15 0,0.29 0,0.44 0,0.49 0,1 0.06,1.51 v 0.05 H 9 Z m 40.61,-3.75 v -0.05 a 18.8,18.8 0 0 0 -0.3,-1.92 v -0.06 h 0.05 l 1.95,-0.41 v 0.05 c 0.15,0.71 0.26,1.42 0.34,2.14 v 0 z M 9.12,181.96 H 9.07 l -2,-0.3 c 0.09,-0.71 0.22,-1.42 0.37,-2.12 v -0.05 l 2,0.45 v 0.05 c -0.14,0.63 -0.25,1.28 -0.33,1.92 z m 37.7,-3.51 v 0 c -0.2,-0.61 -0.43,-1.23 -0.69,-1.82 v -0.06 L 48,175.76 v 0.06 c 0.28,0.65 0.54,1.33 0.76,2 v 0 z m -36.9,-0.29 v 0 L 8,177.48 v -0.06 c 0.23,-0.66 0.49,-1.34 0.79,-2 v 0 l 1.87,0.85 v 0 c -0.27,0.58 -0.5,1.19 -0.72,1.82 z m 35.37,-3.27 v 0 a 17.48,17.48 0 0 0 -1,-1.61 l -0.24,0.17 0.12,-0.16 h -0.13 l 1.87,-1.31 v 0 c 0.41,0.59 0.79,1.2 1.14,1.82 v 0 z m -33.75,-0.26 -1.77,-1 v 0 A 18.76,18.76 0 0 1 11,171.71 v 0 l 1.65,1.19 v 0 c -0.37,0.53 -0.73,1.08 -1.06,1.64 z m 31.53,-2.93 v 0 c -0.42,-0.49 -0.87,-1 -1.34,-1.41 l -0.05,-0.05 1.41,-1.48 v 0 c 0.52,0.49 1,1 1.49,1.57 v 0 z m -29.27,-0.23 -1.53,-1.35 v 0 c 0.48,-0.54 1,-1.06 1.51,-1.54 v 0 l 1.48,1.42 v 0 c -0.48,0.44 -0.93,0.91 -1.36,1.39 z M 40.27,169 v 0 c -0.49,-0.38 -1,-0.75 -1.55,-1.09 v 0 l -0.08,-0.06 v 0 l 1.07,-1.69 v 0 c 0.61,0.39 1.21,0.81 1.77,1.25 v 0 z m -23.6,-0.2 v 0 l -1.2,-1.59 v 0 -0.21 l 0.06,0.06 a 19,19 0 0 1 1.74,-1.18 v 0 l 1.06,1.75 v 0 a 17.64,17.64 0 0 0 -1.62,1.09 z M 37,166.9 v 0 c -0.58,-0.29 -1.19,-0.55 -1.79,-0.78 v -0.06 l 0.71,-1.88 v 0 c 0.69,0.26 1.35,0.55 2,0.86 v 0 z m -17,-0.15 v 0 l -0.86,-1.8 v 0 c 0.65,-0.31 1.31,-0.58 2,-0.82 v -0.25 l 0.77,2.15 h -0.05 c -0.61,0.22 -1.22,0.47 -1.8,0.74 z m 13.36,-1.23 v 0 c -0.62,-0.16 -1.27,-0.3 -1.9,-0.4 l -0.05,-0.06 0.31,-2 v 0 a 21,21 0 0 1 2.12,0.44 v 0 z m -9.74,-0.07 v 0 l -0.48,-1.94 h 0.05 a 21.44,21.44 0 0 1 2.12,-0.41 h 0.06 l 0.28,2 v 0 c -0.64,0.1 -1.29,0.22 -1.91,0.38 z"
       id="path174"
       inkscape:connector-curvature="0"
       style="fill:#ffffff" />
    <rect
       class="cls-6"
       x="27.209999"
       y="161.75999"
       width="2.27"
       height="3.1400001"
       id="rect176"
       style="fill:#ffcd00" />
    <path
       class="cls-3"
       d="m 41.7,259.09 h -0.05 l -1.24,-1.54 v 0 c 0.51,-0.41 1,-0.84 1.46,-1.29 v 0 0 l 1.4,1.43 v 0 0.05 h -0.08 a 20.75,20.75 0 0 1 -1.56,1.38 v 0 z m -27,-0.14 v -0.09 c -0.55,-0.46 -1.08,-0.94 -1.57,-1.44 v 0 l 1.45,-1.44 v 0 c 0.45,0.46 0.94,0.9 1.43,1.31 h 0.05 l -1.31,1.57 v 0 z m 30.06,-2.83 -1.57,-1.32 v 0 a 18.07,18.07 0 0 0 1.18,-1.55 v 0 0 l 1.66,1.12 v 0 c -0.41,0.59 -0.84,1.17 -1.3,1.73 z m -33,-0.26 v 0 a 20.12,20.12 0 0 1 -1.28,-1.75 v 0 l 1.71,-1.12 v 0 a 18.65,18.65 0 0 0 1.15,1.57 v 0 0 z m 35.43,-3.29 -1.8,-1 v 0 a 16.76,16.76 0 0 0 0.84,-1.76 v 0 l 1.88,0.78 v 0.06 c -0.27,0.66 -0.59,1.32 -0.92,1.94 z m -37.8,-0.29 v -0.05 c -0.33,-0.63 -0.63,-1.29 -0.9,-2 v -0.07 h 0.07 l 1.84,-0.73 v 0.05 c 0.24,0.59 0.51,1.19 0.81,1.77 v 0 0 z m 39.46,-3.67 -2,-0.59 v -0.05 c 0.19,-0.63 0.34,-1.26 0.47,-1.89 V 246 l 2,0.39 v 0.05 c -0.14,0.7 -0.31,1.41 -0.52,2.1 z M 7.77,248.3 v -0.06 q -0.29,-1 -0.48,-2.1 v 0 l 2,-0.36 v 0.05 c 0.12,0.63 0.26,1.25 0.43,1.86 v 0.09 0 z m 41.91,-3.91 v 0 l -2,-0.18 v -0.05 a 17.87,17.87 0 0 0 0.08,-1.81 l 0.05,-0.2 h 2 v 0.21 c 0,0.67 0,1.34 -0.09,2 z M 7,244.07 v 0 c 0,-0.57 -0.07,-1.13 -0.07,-1.67 0,-0.16 0,-0.33 0,-0.49 v -0.05 l 2.05,0.05 v 0 c 0,0.15 0,0.29 0,0.44 0,0.49 0,1 0.06,1.51 v 0 H 9 Z m 40.61,-3.75 v 0 a 18.8,18.8 0 0 0 -0.3,-1.92 v -0.06 h 0.05 l 1.95,-0.41 v 0 c 0.15,0.71 0.26,1.42 0.34,2.14 v 0.05 z M 9.13,240 H 9.07 l -2,-0.3 c 0.09,-0.71 0.22,-1.42 0.37,-2.12 v 0 l 2,0.45 v 0.05 C 9.3,238.71 9.19,239.36 9.11,240 Z m 37.7,-3.51 v -0.05 c -0.2,-0.61 -0.43,-1.23 -0.69,-1.82 v -0.06 l 1.87,-0.81 v 0.06 c 0.28,0.65 0.54,1.33 0.76,2 v 0.05 z M 9.93,236.2 v 0 L 8,235.59 v -0.06 c 0.23,-0.66 0.49,-1.34 0.79,-2 v -0.05 l 1.87,0.85 v 0 c -0.27,0.58 -0.5,1.19 -0.72,1.82 z M 45.3,233 v -0.05 a 17.48,17.48 0 0 0 -1,-1.61 l -0.24,0.17 0.12,-0.16 H 44.05 L 45.88,230 v 0.05 c 0.41,0.59 0.79,1.2 1.14,1.82 v 0.05 z m -33.75,-0.26 -1.77,-1 v 0 A 18.76,18.76 0 0 1 11,229.82 v 0 l 1.67,1.18 v 0 c -0.37,0.53 -0.73,1.08 -1.06,1.64 z m 31.53,-2.93 v 0 c -0.42,-0.49 -0.87,-1 -1.34,-1.41 h -0.05 l 1.41,-1.48 v 0 c 0.52,0.49 1,1 1.49,1.57 v 0 z m -29.27,-0.23 -1.53,-1.35 v 0 c 0.48,-0.54 1,-1.06 1.51,-1.54 v 0 l 1.39,1.51 v 0 c -0.48,0.44 -0.93,0.91 -1.36,1.39 z m 26.46,-2.46 v 0 c -0.49,-0.38 -1,-0.75 -1.55,-1.09 v 0 l -0.08,-0.06 v 0 l 1.07,-1.69 v 0 c 0.61,0.39 1.21,0.81 1.77,1.25 v 0 z m -23.6,-0.2 v 0 l -1.2,-1.59 v 0 -0.1 l 0.06,0.06 A 19,19 0 0 1 17.26,224 v 0 l 1.06,1.75 v 0 a 17.64,17.64 0 0 0 -1.62,1.09 z M 37,225 v 0 c -0.58,-0.29 -1.19,-0.55 -1.79,-0.78 v -0.06 l 0.71,-1.88 v 0 c 0.69,0.26 1.35,0.55 2,0.86 v 0 z m -17,-0.15 v 0 L 19.1,223 v 0 c 0.65,-0.31 1.31,-0.58 2,-0.82 v -0.25 l 0.77,2.15 h -0.05 c -0.61,0.22 -1.22,0.47 -1.8,0.74 z m 13.36,-1.23 v 0 c -0.62,-0.16 -1.27,-0.3 -1.9,-0.4 l -0.05,-0.06 0.31,-2 v 0 a 21,21 0 0 1 2.12,0.44 v 0 z m -9.74,-0.07 v -0.05 l -0.48,-1.94 h 0.05 a 21.44,21.44 0 0 1 2.12,-0.41 h 0.06 l 0.28,2 v 0 c -0.64,0.1 -1.29,0.22 -1.91,0.38 z"
       id="path178"
       inkscape:connector-curvature="0"
       style="fill:#ffffff" />
    <rect
       class="cls-6"
       x="27.209999"
       y="219.87"
       width="2.27"
       height="3.1400001"
       id="rect180"
       style="fill:#ffcd00" />
  </g>
</svg>
