<?xml version="1.0" encoding="UTF-8"?>
<svg xmlns="http://www.w3.org/2000/svg" width="20mm" height="128.5mm" viewBox="0 0 56.69 364.25">
  <g id="a" data-name="Capa 2">
    <rect width="56.69" height="364.25" style="stroke-width: 0px;"/>
  </g>
  <g id="b" data-name="Capa 1">
    <path d="m49.59,342.28c-3.55,0-3.55,2.27-7.09,2.27s-3.56-2.27-7.1-2.27-3.55,2.27-7.1,2.27-3.55-2.27-7.09-2.27h-.01c-3.55,0-3.55,2.27-7.09,2.27s-3.55-2.27-7.1-2.27-3.55,2.22-6.99,2.27v19.7h56.69v-19.7c-3.56,0-3.56-2.27-7.1-2.27Z" style="fill: #fff; stroke-width: 0px;"/>
    <g>
      <path d="m34.54,361.93h9.03c3.41,0,6.19-2.78,6.19-6.19s-2.78-6.19-6.19-6.19h-9.03c-3.41,0-6.19,2.78-6.19,6.19s2.78,6.19,6.19,6.19Zm.11-10.58h8.8c2.43,0,4.39,1.97,4.39,4.39s-1.97,4.39-4.39,4.39h-8.8c-2.43,0-4.39-1.97-4.39-4.39s1.97-4.39,4.39-4.39Z" style="fill: #fac300; stroke-width: 0px;"/>
      <g>
        <path d="m43.46,360.12h-8.8c-2.43,0-4.4-1.97-4.4-4.4s1.97-4.39,4.4-4.39h8.8c2.43,0,4.4,1.97,4.4,4.39s-1.97,4.4-4.4,4.4Z" style="fill: #a2a2a2; stroke-width: 0px;"/>
        <path d="m47.86,355.72c0,2.43-1.97,4.4-4.4,4.4h-8.8c-2.43,0-4.4-1.97-4.4-4.4s1.97-4.39,4.4-4.39h8.8c2.43,0,4.4,1.97,4.4,4.39Z" style="stroke-width: 0px;"/>
      </g>
    </g>
    <g>
      <polygon points="5.46 359.87 7.54 361.95 11.91 361.95 9.83 359.87 5.46 359.87" style="fill: #fac300; stroke-width: 0px;"/>
      <polygon points="15.51 359.87 11.14 359.87 13.22 361.95 17.59 361.95 15.51 359.87" style="fill: #fac300; stroke-width: 0px;"/>
      <path d="m16.17,359.21l2.08,2.08v-7.48c0-1.17-.46-2.29-1.29-3.12l-1.08-1.08c.19.52.3,1.07.3,1.66v7.95Z" style="fill: #fac300; stroke-width: 0px;"/>
      <path d="m14.28,348.7c-.72-.84-1.8-1.38-3-1.38h-2.54c-2.18,0-3.95,1.77-3.95,3.95v7.68h4.76v-6.98c0-.26.21-.46.46-.46s.46.21.46.46v6.98h4.75v-7.68c0-.98-.36-1.88-.96-2.57Z" style="fill: #fac300; stroke-width: 0px;"/>
    </g>
    <g>
      <rect x="9.53" y="226.31" width="9.29" height="9.29" rx="4.64" ry="4.64" style="fill: #fff; stroke-width: 0px;"/>
      <path d="m14.74,229.29v4.07h-.85v-4.05h-.41v-.85h.42c.46,0,.83.37.83.83Z" style="fill: #080409; stroke-width: 0px;"/>
    </g>
    <g>
      <rect x="9.47" y="166.54" width="9.29" height="9.29" rx="4.64" ry="4.64" style="fill: #fac300; stroke-width: 0px;"/>
      <path d="m15.59,172.74v.85h-2.83v-4.9h.85v4.05h1.99Z" style="fill: #080409; stroke-width: 0px;"/>
    </g>
    <g>
      <rect x="37.88" y="166.54" width="9.29" height="9.29" rx="4.64" ry="4.64" style="fill: #fac300; stroke-width: 0px;"/>
      <path d="m43.59,171.12c.27.27.42.63.42,1.01v1.44h-.85v-1.44c0-.32-.25-.58-.57-.59h-.61v2.03h-.85v-4.05h-.37v-.85h1.8c.79,0,1.44.64,1.44,1.44,0,.38-.15.74-.42,1.01Zm-1-.42c.32-.01.57-.28.57-.6s-.27-.58-.59-.58h-.59v1.18h.61Z" style="fill: #080409; stroke-width: 0px;"/>
    </g>
    <g>
      <rect x="37.88" y="226.31" width="9.29" height="9.29" rx="4.64" ry="4.64" style="fill: #fff; stroke-width: 0px;"/>
      <path d="m41.94,232.51h1.83v.85h-2.75v-.42c0-.14.01-.28.04-.42.11-.58.47-.96,1.14-1.49.73-.57.85-.78.85-1.13,0-.32-.27-.58-.59-.58s-.59.26-.59.58h-.85c0-.79.64-1.44,1.44-1.44s1.44.64,1.44,1.44-.49,1.26-1.17,1.79c-.49.38-.7.6-.79.82Z" style="fill: #080409; stroke-width: 0px;"/>
    </g>
    <g>
      <rect x="9.53" y="263.5" width="9.29" height="9.29" rx="4.64" ry="4.64" style="fill: #fff; stroke-width: 0px;"/>
      <path d="m15.13,268.1c.46.46.55,1.17.23,1.73-.33.56-.99.84-1.62.67-.63-.17-1.06-.74-1.06-1.39h.85c0,.24.14.45.36.54.22.09.47.04.64-.13.17-.17.22-.42.13-.64-.09-.22-.31-.36-.54-.36h-.31v-.85h.31c.24,0,.45-.14.54-.36.09-.22.04-.47-.13-.64-.17-.17-.42-.22-.64-.13-.22.09-.36.31-.36.54h-.85c0-.79.64-1.44,1.44-1.44s1.44.64,1.44,1.44c0,.38-.15.74-.42,1.01Z" style="fill: #080409; stroke-width: 0px;"/>
    </g>
    <g>
      <rect x="37.88" y="263.5" width="9.29" height="9.29" rx="4.64" ry="4.64" style="fill: #fff; stroke-width: 0px;"/>
      <path d="m43.9,265.65v4.9h-.85v-2.15c-.45.2-.96.16-1.37-.1s-.66-.72-.66-1.21v-1.44h.85v1.44c0,.33.26.59.59.59s.59-.26.59-.59v-1.44h.85Z" style="fill: #080409; stroke-width: 0px;"/>
    </g>
    <path d="m42.48,53.59H14.21c-6.91,0-12.53-5.62-12.53-12.53s5.62-12.53,12.53-12.53h28.27c6.91,0,12.53,5.62,12.53,12.53s-5.62,12.53-12.53,12.53ZM14.21,29.23c-6.52,0-11.82,5.3-11.82,11.83s5.3,11.82,11.82,11.82h28.27c6.52,0,11.82-5.3,11.82-11.82s-5.3-11.83-11.82-11.83H14.21Z" style="fill: #fac300; stroke-width: 0px;"/>
    <path d="m42.48,90.44H14.21c-6.91,0-12.53-5.62-12.53-12.53s5.62-12.53,12.53-12.53h28.27c6.91,0,12.53,5.62,12.53,12.53s-5.62,12.53-12.53,12.53Zm-28.27-24.36c-6.52,0-11.82,5.3-11.82,11.83s5.3,11.82,11.82,11.82h28.27c6.52,0,11.82-5.3,11.82-11.82s-5.3-11.83-11.82-11.83H14.21Z" style="fill: #fac300; stroke-width: 0px;"/>
    <path d="m42.48,127.29H14.21c-6.91,0-12.53-5.62-12.53-12.53s5.62-12.53,12.53-12.53h28.27c6.91,0,12.53,5.62,12.53,12.53s-5.62,12.53-12.53,12.53Zm-28.27-24.36c-6.52,0-11.82,5.3-11.82,11.83s5.3,11.82,11.82,11.82h28.27c6.52,0,11.82-5.3,11.82-11.82s-5.3-11.83-11.82-11.83H14.21Z" style="fill: #fac300; stroke-width: 0px;"/>
    <path d="m42.48,164.14H14.21c-6.91,0-12.53-5.62-12.53-12.53s5.62-12.53,12.53-12.53h28.27c6.91,0,12.53,5.62,12.53,12.53s-5.62,12.53-12.53,12.53Zm-28.27-24.36c-6.52,0-11.82,5.3-11.82,11.82s5.3,11.83,11.82,11.83h28.27c6.52,0,11.82-5.3,11.82-11.83s-5.3-11.82-11.82-11.82H14.21Z" style="fill: #fac300; stroke-width: 0px;"/>
    <g>
      <path d="m39.52,325.25h.85c0,.9-.73,1.63-1.63,1.63s-1.63-.73-1.63-1.63v-1.64c0-.9.73-1.63,1.63-1.63s1.63.73,1.63,1.63h-.85c0-.43-.35-.78-.78-.78s-.78.35-.78.78v1.64c0,.43.35.78.78.78s.78-.35.78-.78Z" style="fill: #fff; stroke-width: 0px;"/>
      <path d="m44.72,321.99l-1.56,4.9h-.89l-1.56-4.9h.89l1.11,3.5,1.12-3.5h.89Z" style="fill: #fff; stroke-width: 0px;"/>
      <path d="m47.94,321.99v4.9h-.85v-2.15c-.45.2-.96.16-1.37-.1s-.66-.72-.66-1.21v-1.44h.85v1.44c0,.33.26.59.59.59s.59-.26.59-.59v-1.44h.85Z" style="fill: #fff; stroke-width: 0px;"/>
    </g>
    <g>
      <path d="m11.17,325.25h.85c0,.9-.73,1.63-1.63,1.63s-1.63-.73-1.63-1.63v-1.64c0-.9.73-1.63,1.63-1.63s1.63.73,1.63,1.63h-.85c0-.43-.35-.78-.78-.78s-.78.35-.78.78v1.64c0,.43.35.78.78.78s.78-.35.78-.78Z" style="fill: #fff; stroke-width: 0px;"/>
      <path d="m16.37,321.99l-1.56,4.9h-.89l-1.56-4.9h.89l1.11,3.5,1.12-3.5h.89Z" style="fill: #fff; stroke-width: 0px;"/>
      <path d="m19.17,324.44c.46.46.55,1.17.23,1.73-.33.56-.99.84-1.62.67-.63-.17-1.06-.74-1.06-1.39h.85c0,.24.14.45.36.54.22.09.47.04.64-.13.17-.17.22-.42.13-.64-.09-.22-.31-.36-.54-.36h-.31v-.85h.31c.24,0,.45-.14.54-.36.09-.22.04-.47-.13-.64-.17-.17-.42-.22-.64-.13-.22.09-.36.31-.36.54h-.85c0-.79.64-1.44,1.44-1.44s1.44.64,1.44,1.44c0,.38-.15.74-.42,1.01Z" style="fill: #fff; stroke-width: 0px;"/>
    </g>
    <path d="m27.82,97.09h1.83v.85h-2.75v-.42c0-.14.01-.28.04-.42.11-.58.47-.96,1.14-1.49.73-.57.85-.78.85-1.13,0-.32-.27-.58-.59-.58s-.59.26-.59.58h-.85c0-.79.64-1.44,1.44-1.44s1.44.64,1.44,1.44-.49,1.25-1.18,1.79c-.48.38-.7.6-.79.82Z" style="fill: #fff; stroke-width: 0px;"/>
    <path d="m29.37,132.35c.46.46.55,1.17.23,1.73s-.99.84-1.62.67c-.63-.17-1.06-.74-1.06-1.39h.85c0,.24.14.45.36.54.22.09.47.04.64-.13.17-.17.22-.42.13-.64-.09-.22-.31-.36-.54-.36h-.31v-.85h.31c.24,0,.45-.14.54-.36.09-.22.04-.47-.13-.64-.17-.17-.42-.22-.64-.13-.22.09-.36.31-.36.54h-.85c0-.79.64-1.44,1.44-1.44s1.44.64,1.44,1.44c0,.38-.15.75-.42,1.01Z" style="fill: #fff; stroke-width: 0px;"/>
    <path d="m29.79,168.68v4.9h-.85v-2.15c-.44.2-.96.16-1.37-.1-.41-.26-.66-.72-.66-1.21v-1.44h.85v1.44c0,.33.26.59.59.59s.59-.26.59-.59v-1.44h.85Z" style="fill: #fff; stroke-width: 0px;"/>
    <path d="m28.97,57.02v4.07h-.85v-4.05h-.41v-.85h.42c.46,0,.83.37.83.83Z" style="fill: #fff; stroke-width: 0px;"/>
    <g>
      <path d="m12.21,193.21v3.43h-.85v-3.43c0-.35-.28-.63-.63-.63s-.63.28-.63.63v3.43h-.85v-3.43c0-.35-.28-.63-.63-.63s-.63.28-.63.63v3.43h-.85v-4.04h-.4v-.85h.42c.23,0,.45.09.6.26.59-.42,1.39-.35,1.9.17.28-.28.66-.44,1.05-.44.81,0,1.47.66,1.47,1.47Z" style="fill: #fff; stroke-width: 0px;"/>
      <path d="m16.23,195.79v.85h-.42c-.23,0-.45-.1-.6-.28-.47.33-1.09.37-1.6.11-.51-.27-.83-.8-.83-1.37v-3.35h.85v3.35c0,.38.32.69.7.69s.7-.31.7-.69v-3.35h.85v4.05h.37Z" style="fill: #fff; stroke-width: 0px;"/>
      <path d="m19.34,191.73v.85h-.99v4.05h-.85v-4.05h-.99v-.85h2.83Z" style="fill: #fff; stroke-width: 0px;"/>
      <path d="m20.6,193.18c0,.33.26.59.59.59h1.57v.85h-1.57c-.2,0-.4-.04-.59-.13v.72c0,.33.26.59.59.59h1.57v.85h-1.57c-.79,0-1.44-.64-1.44-1.44v-2.03c0-.79.64-1.44,1.44-1.44h1.57v.85h-1.57c-.33,0-.59.26-.59.59Z" style="fill: #fff; stroke-width: 0px;"/>
      <path d="m27.74,195h.85c0,.9-.73,1.63-1.63,1.63s-1.63-.73-1.63-1.63v-1.64c0-.9.73-1.63,1.63-1.63s1.63.73,1.63,1.63h-.85c0-.43-.35-.78-.78-.78s-.78.35-.78.78v1.64c0,.43.35.78.78.78s.78-.35.78-.78Z" style="fill: #fff; stroke-width: 0px;"/>
      <path d="m32.33,193.36v1.64c0,.9-.73,1.63-1.63,1.63s-1.63-.73-1.63-1.63v-1.64c0-.9.73-1.63,1.63-1.63.9,0,1.63.73,1.63,1.63Zm-.85,0c0-.43-.35-.78-.78-.78s-.78.35-.78.78v1.64c0,.43.35.78.78.78s.78-.35.78-.78v-1.64Z" style="fill: #fff; stroke-width: 0px;"/>
      <path d="m36.19,193.29v3.34h-.85v-3.34c0-.26-.13-.49-.35-.62-.22-.13-.49-.13-.71,0s-.35.37-.35.62v3.34h-.85v-4.04h-.41v-.85h.42c.24,0,.47.1.63.29.26-.19.58-.3.91-.29.86,0,1.55.7,1.55,1.55Z" style="fill: #fff; stroke-width: 0px;"/>
      <path d="m39.44,191.73v.85h-.99v4.05h-.85v-4.05h-.99v-.85h2.83Z" style="fill: #fff; stroke-width: 0px;"/>
      <path d="m42.54,194.18c.27.27.42.63.42,1.01v1.44h-.85v-1.44c0-.32-.25-.58-.57-.59h-.61v2.03h-.85v-4.05h-.37v-.85h1.8c.79,0,1.44.64,1.44,1.44,0,.38-.15.74-.42,1.01Zm-1-.42c.32-.01.57-.28.57-.6s-.27-.58-.59-.58h-.59v1.18h.61Z" style="fill: #fff; stroke-width: 0px;"/>
      <path d="m46.71,193.36v1.64c0,.9-.73,1.63-1.63,1.63s-1.63-.73-1.63-1.63v-1.64c0-.9.73-1.63,1.63-1.63.9,0,1.63.73,1.63,1.63Zm-.85,0c0-.43-.35-.78-.78-.78s-.78.35-.78.78v1.64c0,.43.35.78.78.78s.78-.35.78-.78v-1.64Z" style="fill: #fff; stroke-width: 0px;"/>
      <path d="m50.02,195.8v.85h-2.83v-4.9h.85v4.05h1.99Z" style="fill: #fff; stroke-width: 0px;"/>
    </g>
    <g>
      <path d="m14.83,23.18c-.03.77-.67,1.35-1.49,1.35-1.02,0-1.38-.72-1.46-.94l.81-.31c.07.17.23.38.65.38.35,0,.61-.22.63-.53,0-.11.02-.45-.77-.72-1.15-.4-1.37-1.07-1.35-1.57.03-.77.67-1.35,1.49-1.35,1.02,0,1.38.72,1.46.94l-.81.31c-.07-.17-.23-.38-.65-.38-.35,0-.61.22-.63.53,0,.11-.02.45.77.72,1.15.4,1.37,1.07,1.35,1.57Z" style="fill: #fac300; stroke-width: 0px;"/>
      <path d="m18.08,19.63v.85h-.99v4.05h-.85v-4.05h-.99v-.85h2.83Z" style="fill: #fac300; stroke-width: 0px;"/>
      <path d="m19.34,21.07c0,.33.26.59.59.59h1.57v.85h-1.57c-.2,0-.4-.04-.59-.13v.72c0,.33.26.59.59.59h1.57v.85h-1.57c-.79,0-1.44-.64-1.44-1.44v-2.03c0-.79.64-1.44,1.44-1.44h1.57v.85h-1.57c-.33,0-.59.26-.59.59Z" style="fill: #fac300; stroke-width: 0px;"/>
      <path d="m24.74,22.08c.27.27.42.63.42,1.01v1.44h-.85v-1.44c0-.32-.25-.58-.57-.59h-.61v2.03h-.85v-4.05h-.37v-.85h1.8c.79,0,1.44.64,1.44,1.44,0,.38-.15.74-.42,1.01Zm-1-.42c.32-.01.57-.28.57-.6s-.27-.58-.59-.58h-.59v1.18h.61Z" style="fill: #fac300; stroke-width: 0px;"/>
      <path d="m26.57,21.07c0,.33.26.59.59.59h1.57v.85h-1.57c-.2,0-.4-.04-.59-.13v.72c0,.33.26.59.59.59h1.57v.85h-1.57c-.79,0-1.44-.64-1.44-1.44v-2.03c0-.79.64-1.44,1.44-1.44h1.57v.85h-1.57c-.33,0-.59.26-.59.59Z" style="fill: #fac300; stroke-width: 0px;"/>
      <path d="m32.47,21.26v1.64c0,.9-.73,1.63-1.63,1.63s-1.63-.73-1.63-1.63v-1.64c0-.9.73-1.63,1.63-1.63.9,0,1.63.73,1.63,1.63Zm-.85,0c0-.43-.35-.78-.78-.78s-.78.35-.78.78v1.64c0,.43.35.78.78.78s.78-.35.78-.78v-1.64Z" style="fill: #fac300; stroke-width: 0px;"/>
      <path d="m38.16,21.26v1.64c0,.9-.73,1.63-1.63,1.63s-1.63-.73-1.63-1.63v-1.64c0-.9.73-1.63,1.63-1.63.9,0,1.63.73,1.63,1.63Zm-.85,0c0-.43-.35-.78-.78-.78s-.78.35-.78.78v1.64c0,.43.35.78.78.78s.78-.35.78-.78v-1.64Z" style="fill: #fac300; stroke-width: 0px;"/>
      <path d="m42.1,23.68v.85h-.42c-.23,0-.45-.1-.6-.28-.47.33-1.09.37-1.6.11-.51-.27-.83-.8-.83-1.37v-3.35h.85v3.35c0,.38.32.69.7.69s.7-.31.7-.69v-3.35h.85v4.05h.37Z" style="fill: #fac300; stroke-width: 0px;"/>
      <path d="m45.21,19.63v.85h-.99v4.05h-.85v-4.05h-.99v-.85h2.83Z" style="fill: #fac300; stroke-width: 0px;"/>
    </g>
    <g>
      <path d="m38.46,9.59v1.04h-4.34v-5.6h4.23v1.04h-2.94v1.22h2.6v1.01h-2.6v1.3h3.05Z" style="fill: #fff; stroke-width: 0px;"/>
      <path d="m42.57,10.63l-1.35-1.94-1.33,1.94h-1.49l2.07-2.85-1.97-2.75h1.47l1.29,1.82,1.26-1.82h1.4l-1.95,2.7,2.09,2.9h-1.5Z" style="fill: #fff; stroke-width: 0px;"/>
      <path d="m47.89,5.28c.37.17.65.4.84.7.2.3.3.66.3,1.08s-.1.77-.3,1.08-.48.54-.84.7c-.37.16-.8.24-1.29.24h-1.13v1.54h-1.3v-5.6h2.42c.5,0,.93.08,1.29.25Zm-.48,2.5c.2-.17.3-.41.3-.72s-.1-.56-.3-.72c-.2-.17-.5-.25-.89-.25h-1.06v1.94h1.06c.39,0,.69-.08.89-.25Z" style="fill: #fff; stroke-width: 0px;"/>
      <path d="m54.17,9.46h-.91v1.18h-1.26v-1.18h-3.02v-.87l2.64-3.55h1.36l-2.45,3.37h1.5v-1.05h1.22v1.05h.91v1.06Z" style="fill: #fff; stroke-width: 0px;"/>
    </g>
    <g>
      <path d="m6.33,183.79c-.09-.09-.14-.21-.14-.36s.05-.26.14-.35c.09-.09.21-.13.35-.13s.26.04.35.13c.09.09.13.21.13.35s-.04.27-.13.36c-.09.09-.21.13-.35.13s-.26-.04-.35-.13Z" style="fill: #fac300; stroke-width: 0px;"/>
      <path d="m8.37,183.79c-.09-.09-.14-.21-.14-.36s.05-.26.14-.35c.09-.09.21-.13.35-.13s.26.04.35.13c.09.09.13.21.13.35s-.04.27-.13.36c-.09.09-.21.13-.35.13s-.26-.04-.35-.13Z" style="fill: #fac300; stroke-width: 0px;"/>
      <path d="m10.41,183.79c-.09-.09-.14-.21-.14-.36s.05-.26.14-.35c.09-.09.21-.13.35-.13s.26.04.35.13c.09.09.13.21.13.35s-.04.27-.13.36c-.09.09-.21.13-.35.13s-.26-.04-.35-.13Z" style="fill: #fac300; stroke-width: 0px;"/>
      <path d="m12.45,183.79c-.09-.09-.14-.21-.14-.36s.05-.26.14-.35c.09-.09.21-.13.35-.13s.26.04.35.13c.09.09.13.21.13.35s-.04.27-.13.36c-.09.09-.21.13-.35.13s-.26-.04-.35-.13Z" style="fill: #fac300; stroke-width: 0px;"/>
      <path d="m14.49,183.79c-.09-.09-.14-.21-.14-.36s.05-.26.14-.35c.09-.09.21-.13.35-.13s.26.04.35.13c.09.09.13.21.13.35s-.04.27-.13.36c-.09.09-.21.13-.35.13s-.26-.04-.35-.13Z" style="fill: #fac300; stroke-width: 0px;"/>
      <path d="m16.53,183.79c-.09-.09-.14-.21-.14-.36s.05-.26.14-.35c.09-.09.21-.13.35-.13s.26.04.35.13c.09.09.13.21.13.35s-.04.27-.13.36c-.09.09-.21.13-.35.13s-.26-.04-.35-.13Z" style="fill: #fac300; stroke-width: 0px;"/>
      <path d="m18.57,183.79c-.09-.09-.14-.21-.14-.36s.05-.26.14-.35c.09-.09.21-.13.35-.13s.26.04.35.13c.09.09.13.21.13.35s-.04.27-.13.36c-.09.09-.21.13-.35.13s-.26-.04-.35-.13Z" style="fill: #fac300; stroke-width: 0px;"/>
      <path d="m20.61,183.79c-.09-.09-.14-.21-.14-.36s.05-.26.14-.35c.09-.09.21-.13.35-.13s.26.04.35.13c.09.09.13.21.13.35s-.04.27-.13.36c-.09.09-.21.13-.35.13s-.26-.04-.35-.13Z" style="fill: #fac300; stroke-width: 0px;"/>
      <path d="m22.65,183.79c-.09-.09-.14-.21-.14-.36s.05-.26.14-.35c.09-.09.21-.13.35-.13s.26.04.35.13c.09.09.13.21.13.35s-.04.27-.13.36c-.09.09-.21.13-.35.13s-.26-.04-.35-.13Z" style="fill: #fac300; stroke-width: 0px;"/>
      <path d="m24.69,183.79c-.09-.09-.14-.21-.14-.36s.05-.26.14-.35c.09-.09.21-.13.35-.13s.26.04.35.13c.09.09.13.21.13.35s-.04.27-.13.36c-.09.09-.21.13-.35.13s-.26-.04-.35-.13Z" style="fill: #fac300; stroke-width: 0px;"/>
      <path d="m26.73,183.79c-.09-.09-.14-.21-.14-.36s.05-.26.14-.35c.09-.09.21-.13.35-.13s.26.04.35.13c.09.09.13.21.13.35s-.04.27-.13.36c-.09.09-.21.13-.35.13s-.26-.04-.35-.13Z" style="fill: #fac300; stroke-width: 0px;"/>
      <path d="m28.77,183.79c-.09-.09-.14-.21-.14-.36s.05-.26.14-.35c.09-.09.21-.13.35-.13s.26.04.35.13c.09.09.13.21.13.35s-.04.27-.13.36c-.09.09-.21.13-.35.13s-.26-.04-.35-.13Z" style="fill: #fac300; stroke-width: 0px;"/>
      <path d="m30.81,183.79c-.09-.09-.14-.21-.14-.36s.05-.26.14-.35c.09-.09.21-.13.35-.13s.26.04.35.13c.09.09.13.21.13.35s-.04.27-.13.36c-.09.09-.21.13-.35.13s-.26-.04-.35-.13Z" style="fill: #fac300; stroke-width: 0px;"/>
      <path d="m32.85,183.79c-.09-.09-.14-.21-.14-.36s.05-.26.14-.35c.09-.09.21-.13.35-.13s.26.04.35.13c.09.09.13.21.13.35s-.04.27-.13.36c-.09.09-.21.13-.35.13s-.26-.04-.35-.13Z" style="fill: #fac300; stroke-width: 0px;"/>
      <path d="m34.89,183.79c-.09-.09-.14-.21-.14-.36s.05-.26.14-.35c.09-.09.21-.13.35-.13s.26.04.35.13c.09.09.13.21.13.35s-.04.27-.13.36c-.09.09-.21.13-.35.13s-.26-.04-.35-.13Z" style="fill: #fac300; stroke-width: 0px;"/>
      <path d="m36.93,183.79c-.09-.09-.14-.21-.14-.36s.05-.26.14-.35c.09-.09.21-.13.35-.13s.26.04.35.13c.09.09.13.21.13.35s-.04.27-.13.36c-.09.09-.21.13-.35.13s-.26-.04-.35-.13Z" style="fill: #fac300; stroke-width: 0px;"/>
      <path d="m38.97,183.79c-.09-.09-.14-.21-.14-.36s.05-.26.14-.35c.09-.09.21-.13.35-.13s.26.04.35.13c.09.09.13.21.13.35s-.04.27-.13.36c-.09.09-.21.13-.35.13s-.26-.04-.35-.13Z" style="fill: #fac300; stroke-width: 0px;"/>
      <path d="m41.01,183.79c-.09-.09-.14-.21-.14-.36s.05-.26.14-.35c.09-.09.21-.13.35-.13s.26.04.35.13c.09.09.13.21.13.35s-.04.27-.13.36c-.09.09-.21.13-.35.13s-.26-.04-.35-.13Z" style="fill: #fac300; stroke-width: 0px;"/>
      <path d="m43.05,183.79c-.09-.09-.14-.21-.14-.36s.05-.26.14-.35c.09-.09.21-.13.35-.13s.26.04.35.13c.09.09.13.21.13.35s-.04.27-.13.36c-.09.09-.21.13-.35.13s-.26-.04-.35-.13Z" style="fill: #fac300; stroke-width: 0px;"/>
      <path d="m45.09,183.79c-.09-.09-.14-.21-.14-.36s.05-.26.14-.35c.09-.09.21-.13.35-.13s.26.04.35.13c.09.09.13.21.13.35s-.04.27-.13.36c-.09.09-.21.13-.35.13s-.26-.04-.35-.13Z" style="fill: #fac300; stroke-width: 0px;"/>
      <path d="m47.13,183.79c-.09-.09-.14-.21-.14-.36s.05-.26.14-.35c.09-.09.21-.13.35-.13s.26.04.35.13c.09.09.13.21.13.35s-.04.27-.13.36c-.09.09-.21.13-.35.13s-.26-.04-.35-.13Z" style="fill: #fac300; stroke-width: 0px;"/>
      <path d="m49.17,183.79c-.09-.09-.14-.21-.14-.36s.05-.26.14-.35c.09-.09.21-.13.35-.13s.26.04.35.13c.09.09.13.21.13.35s-.04.27-.13.36c-.09.09-.21.13-.35.13s-.26-.04-.35-.13Z" style="fill: #fac300; stroke-width: 0px;"/>
    </g>
    <g>
      <path d="m6.33,278.92c-.09-.09-.14-.21-.14-.36s.05-.26.14-.35c.09-.09.21-.13.35-.13s.26.04.35.13c.09.09.13.21.13.35s-.04.27-.13.36c-.09.09-.21.13-.35.13s-.26-.04-.35-.13Z" style="fill: #fac300; stroke-width: 0px;"/>
      <path d="m8.37,278.92c-.09-.09-.14-.21-.14-.36s.05-.26.14-.35c.09-.09.21-.13.35-.13s.26.04.35.13c.09.09.13.21.13.35s-.04.27-.13.36c-.09.09-.21.13-.35.13s-.26-.04-.35-.13Z" style="fill: #fac300; stroke-width: 0px;"/>
      <path d="m10.41,278.92c-.09-.09-.14-.21-.14-.36s.05-.26.14-.35c.09-.09.21-.13.35-.13s.26.04.35.13c.09.09.13.21.13.35s-.04.27-.13.36c-.09.09-.21.13-.35.13s-.26-.04-.35-.13Z" style="fill: #fac300; stroke-width: 0px;"/>
      <path d="m12.45,278.92c-.09-.09-.14-.21-.14-.36s.05-.26.14-.35c.09-.09.21-.13.35-.13s.26.04.35.13c.09.09.13.21.13.35s-.04.27-.13.36c-.09.09-.21.13-.35.13s-.26-.04-.35-.13Z" style="fill: #fac300; stroke-width: 0px;"/>
      <path d="m14.49,278.92c-.09-.09-.14-.21-.14-.36s.05-.26.14-.35c.09-.09.21-.13.35-.13s.26.04.35.13c.09.09.13.21.13.35s-.04.27-.13.36c-.09.09-.21.13-.35.13s-.26-.04-.35-.13Z" style="fill: #fac300; stroke-width: 0px;"/>
      <path d="m16.53,278.92c-.09-.09-.14-.21-.14-.36s.05-.26.14-.35c.09-.09.21-.13.35-.13s.26.04.35.13c.09.09.13.21.13.35s-.04.27-.13.36c-.09.09-.21.13-.35.13s-.26-.04-.35-.13Z" style="fill: #fac300; stroke-width: 0px;"/>
      <path d="m18.57,278.92c-.09-.09-.14-.21-.14-.36s.05-.26.14-.35c.09-.09.21-.13.35-.13s.26.04.35.13c.09.09.13.21.13.35s-.04.27-.13.36c-.09.09-.21.13-.35.13s-.26-.04-.35-.13Z" style="fill: #fac300; stroke-width: 0px;"/>
      <path d="m20.61,278.92c-.09-.09-.14-.21-.14-.36s.05-.26.14-.35c.09-.09.21-.13.35-.13s.26.04.35.13c.09.09.13.21.13.35s-.04.27-.13.36c-.09.09-.21.13-.35.13s-.26-.04-.35-.13Z" style="fill: #fac300; stroke-width: 0px;"/>
      <path d="m22.65,278.92c-.09-.09-.14-.21-.14-.36s.05-.26.14-.35c.09-.09.21-.13.35-.13s.26.04.35.13c.09.09.13.21.13.35s-.04.27-.13.36c-.09.09-.21.13-.35.13s-.26-.04-.35-.13Z" style="fill: #fac300; stroke-width: 0px;"/>
      <path d="m24.69,278.92c-.09-.09-.14-.21-.14-.36s.05-.26.14-.35c.09-.09.21-.13.35-.13s.26.04.35.13c.09.09.13.21.13.35s-.04.27-.13.36c-.09.09-.21.13-.35.13s-.26-.04-.35-.13Z" style="fill: #fac300; stroke-width: 0px;"/>
      <path d="m26.73,278.92c-.09-.09-.14-.21-.14-.36s.05-.26.14-.35c.09-.09.21-.13.35-.13s.26.04.35.13c.09.09.13.21.13.35s-.04.27-.13.36c-.09.09-.21.13-.35.13s-.26-.04-.35-.13Z" style="fill: #fac300; stroke-width: 0px;"/>
      <path d="m28.77,278.92c-.09-.09-.14-.21-.14-.36s.05-.26.14-.35c.09-.09.21-.13.35-.13s.26.04.35.13c.09.09.13.21.13.35s-.04.27-.13.36c-.09.09-.21.13-.35.13s-.26-.04-.35-.13Z" style="fill: #fac300; stroke-width: 0px;"/>
      <path d="m30.81,278.92c-.09-.09-.14-.21-.14-.36s.05-.26.14-.35c.09-.09.21-.13.35-.13s.26.04.35.13c.09.09.13.21.13.35s-.04.27-.13.36c-.09.09-.21.13-.35.13s-.26-.04-.35-.13Z" style="fill: #fac300; stroke-width: 0px;"/>
      <path d="m32.85,278.92c-.09-.09-.14-.21-.14-.36s.05-.26.14-.35c.09-.09.21-.13.35-.13s.26.04.35.13c.09.09.13.21.13.35s-.04.27-.13.36c-.09.09-.21.13-.35.13s-.26-.04-.35-.13Z" style="fill: #fac300; stroke-width: 0px;"/>
      <path d="m34.89,278.92c-.09-.09-.14-.21-.14-.36s.05-.26.14-.35c.09-.09.21-.13.35-.13s.26.04.35.13c.09.09.13.21.13.35s-.04.27-.13.36c-.09.09-.21.13-.35.13s-.26-.04-.35-.13Z" style="fill: #fac300; stroke-width: 0px;"/>
      <path d="m36.93,278.92c-.09-.09-.14-.21-.14-.36s.05-.26.14-.35c.09-.09.21-.13.35-.13s.26.04.35.13c.09.09.13.21.13.35s-.04.27-.13.36c-.09.09-.21.13-.35.13s-.26-.04-.35-.13Z" style="fill: #fac300; stroke-width: 0px;"/>
      <path d="m38.97,278.92c-.09-.09-.14-.21-.14-.36s.05-.26.14-.35c.09-.09.21-.13.35-.13s.26.04.35.13c.09.09.13.21.13.35s-.04.27-.13.36c-.09.09-.21.13-.35.13s-.26-.04-.35-.13Z" style="fill: #fac300; stroke-width: 0px;"/>
      <path d="m41.01,278.92c-.09-.09-.14-.21-.14-.36s.05-.26.14-.35c.09-.09.21-.13.35-.13s.26.04.35.13c.09.09.13.21.13.35s-.04.27-.13.36c-.09.09-.21.13-.35.13s-.26-.04-.35-.13Z" style="fill: #fac300; stroke-width: 0px;"/>
      <path d="m43.05,278.92c-.09-.09-.14-.21-.14-.36s.05-.26.14-.35c.09-.09.21-.13.35-.13s.26.04.35.13c.09.09.13.21.13.35s-.04.27-.13.36c-.09.09-.21.13-.35.13s-.26-.04-.35-.13Z" style="fill: #fac300; stroke-width: 0px;"/>
      <path d="m45.09,278.92c-.09-.09-.14-.21-.14-.36s.05-.26.14-.35c.09-.09.21-.13.35-.13s.26.04.35.13c.09.09.13.21.13.35s-.04.27-.13.36c-.09.09-.21.13-.35.13s-.26-.04-.35-.13Z" style="fill: #fac300; stroke-width: 0px;"/>
      <path d="m47.13,278.92c-.09-.09-.14-.21-.14-.36s.05-.26.14-.35c.09-.09.21-.13.35-.13s.26.04.35.13c.09.09.13.21.13.35s-.04.27-.13.36c-.09.09-.21.13-.35.13s-.26-.04-.35-.13Z" style="fill: #fac300; stroke-width: 0px;"/>
      <path d="m49.17,278.92c-.09-.09-.14-.21-.14-.36s.05-.26.14-.35c.09-.09.21-.13.35-.13s.26.04.35.13c.09.09.13.21.13.35s-.04.27-.13.36c-.09.09-.21.13-.35.13s-.26-.04-.35-.13Z" style="fill: #fac300; stroke-width: 0px;"/>
    </g>
    <g>
      <path d="m24.34,12.9h-8.8c-2.43,0-4.4-1.97-4.4-4.4s1.97-4.39,4.4-4.39h8.8c2.43,0,4.4,1.97,4.4,4.39s-1.97,4.4-4.4,4.4Z" style="fill: #a2a2a2; stroke-width: 0px;"/>
      <path d="m28.74,8.5c0,2.43-1.97,4.4-4.4,4.4h-8.8c-2.43,0-4.4-1.97-4.4-4.4s1.97-4.39,4.4-4.39h8.8c2.43,0,4.4,1.97,4.4,4.39Z" style="stroke-width: 0px;"/>
    </g>
    <path d="m24.45,2.31h-9.03c-3.41,0-6.19,2.78-6.19,6.19s2.78,6.19,6.19,6.19h9.03c3.41,0,6.19-2.78,6.19-6.19s-2.78-6.19-6.19-6.19Zm-.11,10.58h-8.8c-2.43,0-4.39-1.97-4.39-4.39s1.97-4.39,4.39-4.39h8.8c2.43,0,4.39,1.97,4.39,4.39s-1.97,4.39-4.39,4.39Z" style="fill: #fac300; stroke-width: 0px;"/>
    <g>
      <path d="m26.63,287.46v2.8h-.73v-1.49h-1.33v1.49h-.72v-2.8c0-.77.62-1.39,1.39-1.39s1.39.62,1.39,1.39Zm-.73.58v-.58c0-.37-.3-.67-.67-.67s-.67.3-.67.67v.58h1.33Z" style="fill: #fac300; stroke-width: 0px;"/>
      <path d="m30.07,289.53v.73h-.36c-.2,0-.39-.09-.52-.24-.4.28-.93.32-1.37.09-.44-.23-.71-.68-.71-1.18v-2.87h.72v2.87c0,.33.27.6.6.6s.6-.27.6-.6v-2.87h.72v3.47h.32Z" style="fill: #fac300; stroke-width: 0px;"/>
      <path d="m32.66,288.16c.27.25.42.6.42.96v1.13h-.72v-1.13c0-.33-.27-.59-.6-.59s-.6.26-.6.59v1.13h-.72v-1.13c0-.36.15-.71.42-.96-.27-.25-.42-.6-.42-.96v-1.13h.72v1.13c0,.21.11.42.3.52s.42.11.6,0,.3-.31.3-.52v-1.13h.72v1.13c0,.36-.15.71-.42.96Z" style="fill: #fac300; stroke-width: 0px;"/>
    </g>
    <path d="m32.37,291.95h-7.81c-2.12,0-3.84-1.72-3.84-3.84s1.72-3.84,3.84-3.84h7.81c2.12,0,3.84,1.72,3.84,3.84s-1.72,3.84-3.84,3.84Zm-7.81-7.13c-1.81,0-3.29,1.47-3.29,3.29s1.47,3.29,3.29,3.29h7.81c1.81,0,3.29-1.47,3.29-3.29s-1.47-3.29-3.29-3.29h-7.81Z" style="fill: #fac300; stroke-width: 0px;"/>
    <path d="m50.03,293.14c-.21,0-.38-.17-.38-.38,0-2.55-2.08-4.63-4.63-4.63h-7.58c-.21,0-.38-.17-.38-.38s.17-.38.38-.38h7.58c2.97,0,5.38,2.41,5.38,5.38,0,.21-.17.38-.38.38Z" style="fill: #fac300; stroke-width: 0px;"/>
    <path d="m6.68,293.14c-.21,0-.38-.17-.38-.38,0-2.97,2.41-5.38,5.38-5.38h7.79c.21,0,.38.17.38.38s-.17.38-.38.38h-7.79c-2.55,0-4.63,2.08-4.63,4.63,0,.21-.17.38-.38.38Z" style="fill: #fac300; stroke-width: 0px;"/>
    <circle cx="14.17" cy="41.06" r="1.57" style="fill: red; stroke-width: 0px;"/>
    <circle cx="42.52" cy="41.06" r="1.57" style="fill: red; stroke-width: 0px;"/>
    <circle cx="14.17" cy="77.91" r="1.57" style="fill: red; stroke-width: 0px;"/>
    <circle cx="42.52" cy="77.91" r="1.57" style="fill: red; stroke-width: 0px;"/>
    <circle cx="14.17" cy="114.76" r="1.57" style="fill: red; stroke-width: 0px;"/>
    <circle cx="42.52" cy="114.76" r="1.57" style="fill: red; stroke-width: 0px;"/>
    <circle cx="14.17" cy="151.61" r="1.57" style="fill: red; stroke-width: 0px;"/>
    <circle cx="42.52" cy="151.61" r="1.57" style="fill: red; stroke-width: 0px;"/>
    <circle cx="14.17" cy="213.31" r="1.57" style="fill: red; stroke-width: 0px;"/>
    <circle cx="42.52" cy="213.31" r="1.57" style="fill: red; stroke-width: 0px;"/>
    <circle cx="14.17" cy="250.16" r="1.57" style="fill: red; stroke-width: 0px;"/>
    <circle cx="42.52" cy="250.16" r="1.57" style="fill: red; stroke-width: 0px;"/>
    <circle cx="14.17" cy="306.85" r="1.57" style="fill: red; stroke-width: 0px;"/>
    <circle cx="42.52" cy="306.85" r="1.57" style="fill: red; stroke-width: 0px;"/>
  </g>
</svg>