<?xml version="1.0" encoding="UTF-8" standalone="no"?>
<svg
   xmlns:dc="http://purl.org/dc/elements/1.1/"
   xmlns:cc="http://creativecommons.org/ns#"
   xmlns:rdf="http://www.w3.org/1999/02/22-rdf-syntax-ns#"
   xmlns:svg="http://www.w3.org/2000/svg"
   xmlns="http://www.w3.org/2000/svg"
   xmlns:sodipodi="http://sodipodi.sourceforge.net/DTD/sodipodi-0.dtd"
   xmlns:inkscape="http://www.inkscape.org/namespaces/inkscape"
   id="Capa_1"
   data-name="Capa 1"
   viewBox="0 0 151.1811 485.66928"
   version="1.1"
   sodipodi:docname="MAR.svg"
   width="40mm"
   height="128.5mm"
   inkscape:version="0.92.2 5c3e80d, 2017-08-06">
  <metadata
     id="metadata219">
    <rdf:RDF>
      <cc:Work
         rdf:about="">
        <dc:format>image/svg+xml</dc:format>
        <dc:type
           rdf:resource="http://purl.org/dc/dcmitype/StillImage" />
        <dc:title>VCV Rack MAR</dc:title>
      </cc:Work>
    </rdf:RDF>
  </metadata>
  <sodipodi:namedview
     pagecolor="#ffffff"
     bordercolor="#666666"
     borderopacity="1"
     objecttolerance="10"
     gridtolerance="10"
     guidetolerance="10"
     inkscape:pageopacity="0"
     inkscape:pageshadow="2"
     inkscape:window-width="1464"
     inkscape:window-height="813"
     id="namedview217"
     showgrid="false"
     units="mm"
     inkscape:zoom="10.366506"
     inkscape:cx="144.80877"
     inkscape:cy="12.222656"
     inkscape:window-x="0"
     inkscape:window-y="0"
     inkscape:window-maximized="0"
     inkscape:current-layer="Capa_1" />
  <defs
     id="defs4">
    <style
       id="style2">.cls-1,.cls-5{fill:#fff;}.cls-2,.cls-6{fill:#ffc300;}.cls-3{fill:none;stroke:#040006;stroke-width:0.5px;}.cls-3,.cls-5,.cls-6{stroke-miterlimit:10;}.cls-4{fill:#a5a5a5;}.cls-5,.cls-6{stroke:#211915;stroke-width:0.14px;}</style>
  </defs>
  <title
     id="title6">VCV Rack MAR</title>
  <rect
     class="cls-1"
     x="112.45835"
     y="468.36078"
     width="23.452469"
     height="11.718778"
     rx="5.8531175"
     ry="5.8527226"
     id="rect8"
     style="fill:#ffffff;stroke-width:1" />
  <rect
     class="cls-1"
     x="15.301902"
     y="5.4223433"
     width="23.452469"
     height="11.718778"
     rx="5.8531175"
     ry="5.8527226"
     id="rect10"
     style="fill:#ffffff;stroke-width:1" />
  <rect
     width="151.18111"
     height="485.616"
     id="rect12"
     x="0.022468137"
     y="-0.057095628"
     style="stroke-width:1" />
  <path
     class="cls-1"
     d="m 132.28425,456.28193 c -4.73316,0 -4.73316,3.01302 -9.45297,3.01302 -4.71983,0 -4.71983,-3.01302 -9.45299,-3.01302 -4.73316,0 -4.71983,3.01302 -9.43965,3.01302 -4.719829,0 -4.733155,-3.01302 -9.452988,-3.01302 -4.719823,0 -4.719823,3.01302 -9.439657,3.01302 -4.719823,0 -4.733159,-3.01302 -9.452982,-3.01302 -4.719823,0 -4.719823,3.01302 -9.439656,3.01302 -4.719824,0 -4.73315,-3.01302 -9.452983,-3.01302 -4.719823,0 -4.719823,3.01302 -9.452982,3.01302 -4.733159,0 -4.719823,-3.01302 -9.439657,-3.01302 -4.719823,0 -4.719823,3.01302 -9.452982,3.01302 -4.733159,0 -4.719823,-3.01302 -9.43965,-3.01302 -4.719827,0 -4.719827,3.01302 -9.4529851,3.01302 -4.7331594,0 -4.7198274,-3.01302 -9.43965262,-3.01302 V 485.6122 H 151.20356 v -29.33027 c -4.73315,0 -4.73315,3.01302 -9.46631,3.01302 -4.73316,0 -4.73316,-3.01302 -9.453,-3.01302 z"
     id="path14"
     inkscape:connector-curvature="0"
     style="fill:#ffffff;stroke-width:1" />
  <path
     class="cls-1"
     d="m 108.77846,16.047893 v -5.039476 l -2.46659,4.146232 h -0.87995 l -2.45325,-3.999579 v 4.932815 h -1.83993 V 7.6487665 h 1.54661 l 3.19987,5.2127865 3.09323,-5.2127865 h 1.59994 v 8.3991265 z"
     id="path16"
     inkscape:connector-curvature="0"
     style="fill:#ffffff;stroke-width:1" />
  <path
     class="cls-1"
     d="m 118.12477,14.248072 h -3.89318 l -0.74664,1.799821 h -1.98659 l 3.7332,-8.3991265 h 1.91993 l 3.75986,8.3991265 h -2.03993 z m -0.6133,-1.479837 -1.33328,-3.2129957 -1.33329,3.2129957 z"
     id="path18"
     inkscape:connector-curvature="0"
     style="fill:#ffffff;stroke-width:1" />
  <path
     class="cls-1"
     d="m 127.13778,16.047893 -1.61327,-2.346423 h -1.7866 v 2.346423 h -1.9466 V 7.6487665 h 3.62654 a 4.6131634,4.6128518 0 0 1 1.94659,0.3732901 2.8398954,2.8397036 0 0 1 1.26662,1.0532307 2.9198923,2.9196953 0 0 1 0.43998,1.6131647 2.7732311,2.7730438 0 0 1 -0.45332,1.613156 2.8132297,2.8130396 0 0 1 -1.33328,1.039897 l 1.87994,2.666386 z m -0.45331,-6.4393287 a 2.0132591,2.0131233 0 0 0 -1.33329,-0.333298 h -1.61327 v 2.8796987 h 1.61327 a 1.946595,1.9464634 0 0 0 1.33329,-0.386624 1.3332842,1.3331942 0 0 0 0.46665,-1.079889 1.3332842,1.3331942 0 0 0 -0.46665,-1.0798877 z"
     id="path20"
     inkscape:connector-curvature="0"
     style="fill:#ffffff;stroke-width:1" />
  <path
     class="cls-2"
     d="M 33.047914,3.022582 H 21.048352 a 8.2530311,8.2524739 0 0 0 0,16.504947 h 11.999562 a 8.2530311,8.2524739 0 1 0 0,-16.504947 z M 32.901259,17.141105 H 21.168355 a 5.8664504,5.8660543 0 1 1 0,-11.7187754 h 11.732904 a 5.8664504,5.8660543 0 1 1 0,11.7187754 z"
     id="path22"
     inkscape:connector-curvature="0"
     style="fill:#ffc300;stroke-width:1" />
  <path
     class="cls-2"
     d="m 130.20433,465.96093 h -11.99955 a 8.2530312,8.2524741 0 0 0 0,16.50494 h 11.99955 a 8.2530312,8.2524741 0 0 0 0,-16.50494 z m -0.14665,14.10519 h -11.74624 a 5.8664504,5.8660543 0 0 1 0,-11.71878 h 11.74624 a 5.8664504,5.8660543 0 0 1 0,11.71878 z"
     id="path24"
     inkscape:connector-curvature="0"
     style="fill:#ffc300;stroke-width:1" />
  <ellipse
     class="cls-3"
     cx="18.915102"
     cy="409.0336"
     id="circle26"
     style="fill:none;stroke:#040006;stroke-width:0.5px;stroke-miterlimit:10"
     rx="11.332915"
     ry="11.332151" />
  <ellipse
     class="cls-3"
     cx="18.915102"
     cy="359.90533"
     id="circle28"
     style="fill:none;stroke:#040006;stroke-width:0.5px;stroke-miterlimit:10"
     rx="11.332915"
     ry="11.332151" />
  <ellipse
     class="cls-3"
     cx="56.713703"
     cy="359.90533"
     id="circle30"
     style="fill:none;stroke:#040006;stroke-width:0.5px;stroke-miterlimit:10"
     rx="11.332915"
     ry="11.332151" />
  <ellipse
     class="cls-3"
     cx="94.512314"
     cy="359.90533"
     id="circle32"
     style="fill:none;stroke:#040006;stroke-width:0.5px;stroke-miterlimit:10"
     rx="11.332915"
     ry="11.332151" />
  <ellipse
     class="cls-3"
     cx="132.29761"
     cy="359.90533"
     id="circle34"
     style="fill:none;stroke:#040006;stroke-width:0.5px;stroke-miterlimit:10"
     rx="11.332915"
     ry="11.332151" />
  <ellipse
     class="cls-3"
     cx="56.713703"
     cy="409.0336"
     id="circle36"
     style="fill:none;stroke:#040006;stroke-width:0.5px;stroke-miterlimit:10"
     rx="11.332915"
     ry="11.332151" />
  <ellipse
     class="cls-3"
     cx="94.512314"
     cy="409.0336"
     id="circle38"
     style="fill:none;stroke:#040006;stroke-width:0.5px;stroke-miterlimit:10"
     rx="11.332915"
     ry="11.332151" />
  <ellipse
     class="cls-3"
     cx="132.29761"
     cy="409.0336"
     id="circle40"
     style="fill:none;stroke:#040006;stroke-width:0.5px;stroke-miterlimit:10"
     rx="11.332915"
     ry="11.332151" />
  <ellipse
     class="cls-3"
     cx="18.915102"
     cy="310.77716"
     id="circle42"
     style="fill:none;stroke:#040006;stroke-width:0.5px;stroke-miterlimit:10"
     rx="11.332915"
     ry="11.332151" />
  <ellipse
     class="cls-3"
     cx="56.713703"
     cy="310.77716"
     id="circle44"
     style="fill:none;stroke:#040006;stroke-width:0.5px;stroke-miterlimit:10"
     rx="11.332915"
     ry="11.332151" />
  <ellipse
     class="cls-3"
     cx="94.512314"
     cy="310.77716"
     id="circle46"
     style="fill:none;stroke:#040006;stroke-width:0.5px;stroke-miterlimit:10"
     rx="11.332915"
     ry="11.332151" />
  <ellipse
     class="cls-3"
     cx="132.29761"
     cy="310.77716"
     id="circle48"
     style="fill:none;stroke:#040006;stroke-width:0.5px;stroke-miterlimit:10"
     rx="11.332915"
     ry="11.332151" />
  <rect
     class="cls-2"
     x="87.992546"
     y="327.76205"
     width="12.38621"
     height="12.385374"
     rx="6.1864386"
     ry="6.1860204"
     id="rect50"
     style="fill:#ffc300;stroke-width:1" />
  <rect
     class="cls-1"
     x="126.36449"
     y="327.68207"
     width="12.38621"
     height="12.385374"
     rx="6.1864386"
     ry="6.1860204"
     id="rect52"
     style="fill:#ffffff;stroke-width:1" />
  <rect
     class="cls-1"
     x="126.36449"
     y="377.07687"
     width="12.38621"
     height="12.385374"
     rx="6.1864386"
     ry="6.1860204"
     id="rect54"
     style="fill:#ffffff;stroke-width:1" />
  <rect
     class="cls-1"
     x="87.699234"
     y="377.07687"
     width="12.38621"
     height="12.385374"
     rx="6.1864386"
     ry="6.1860204"
     id="rect56"
     style="fill:#ffffff;stroke-width:1" />
  <rect
     class="cls-1"
     x="50.567253"
     y="327.76205"
     width="12.38621"
     height="12.385374"
     rx="6.1864386"
     ry="6.1860204"
     id="rect58"
     style="fill:#ffffff;stroke-width:1" />
  <rect
     class="cls-1"
     x="50.567253"
     y="377.07687"
     width="12.38621"
     height="12.385374"
     rx="6.1864386"
     ry="6.1860204"
     id="rect60"
     style="fill:#ffffff;stroke-width:1" />
  <rect
     class="cls-1"
     x="12.475338"
     y="377.07687"
     width="12.38621"
     height="12.385374"
     rx="6.1864386"
     ry="6.1860204"
     id="rect62"
     style="fill:#ffffff;stroke-width:1" />
  <rect
     class="cls-1"
     x="12.475338"
     y="327.76205"
     width="12.38621"
     height="12.385374"
     rx="6.1864386"
     ry="6.1860204"
     id="rect64"
     style="fill:#ffffff;stroke-width:1" />
  <path
     d="m 17.715147,383.38287 a 2.0665906,2.0664509 0 0 1 0.653309,1.49319 v 1.77314 h -1.133292 v -1.77314 a 0.93329894,0.93323592 0 0 0 -1.866597,0 v 1.77314 h -1.133293 v -1.77314 a 2.0532576,2.053119 0 0 0 0,-2.99969 v -1.75982 h 1.133293 v 1.75982 a 0.9199661,0.91990397 0 0 0 0.46665,0.81324 0.90663325,0.90657203 0 0 0 0.933298,0 0.9199661,0.91990397 0 0 0 0.466649,-0.81324 v -1.75982 h 1.133292 v 1.75982 a 2.0665906,2.0664509 0 0 1 -0.653309,1.5065 z"
     id="path66"
     inkscape:connector-curvature="0"
     style="stroke-width:1" />
  <path
     d="m 22.381639,383.38287 a 1.9065963,1.9064676 0 0 1 -1.85326,3.19967 1.8932636,1.8931358 0 0 1 -1.413284,-1.83981 h 1.133288 a 0.78663768,0.78658456 0 1 0 0.773307,-0.78657 h -0.413315 v -1.13322 h 0.413315 a 0.78663768,0.78658456 0 0 0 0.733308,-0.47996 0.79997051,0.7999165 0 0 0 -0.173328,-0.86657 0.78663768,0.78658456 0 0 0 -0.853302,-0.17331 0.79997051,0.7999165 0 0 0 -0.479985,0.73324 h -1.133288 a 1.9199292,1.9197997 0 1 1 3.826524,0 1.8932636,1.8931358 0 0 1 -0.55998,1.34653 z"
     id="path68"
     inkscape:connector-curvature="0"
     style="stroke-width:1" />
  <path
     d="m 56.100396,333.88137 a 2.0532576,2.053119 0 0 1 0.639976,1.49319 v 1.77314 h -1.133287 v -1.77314 a 0.9199661,0.91990397 0 0 0 -0.933298,-0.9199 0.94663178,0.94656786 0 0 0 -0.933298,0.9199 v 1.77314 h -1.119961 v -1.77314 a 2.0799233,2.0797829 0 0 0 0,-2.99969 v -1.79981 h 1.119961 v 1.75982 a 0.94663178,0.94656786 0 0 0 1.413283,0.81324 0.90663325,0.90657203 0 0 0 0.453313,-0.81324 v -1.75982 h 1.133287 v 1.75982 a 2.0532576,2.053119 0 0 1 -0.639976,1.54649 z"
     id="path70"
     inkscape:connector-curvature="0"
     style="stroke-width:1" />
  <path
     d="m 58.686974,336.02782 h 2.453238 v 1.11988 h -3.653196 v -0.55994 a 2.6665684,2.6663883 0 0 1 0,-0.55994 3.293212,3.2929896 0 0 1 1.519941,-1.98647 c 0.95997,-0.75992 1.133297,-1.03988 1.133297,-1.50649 a 0.79997051,0.7999165 0 0 0 -0.786642,-0.77327 0.77330483,0.77325262 0 0 0 -0.786642,0.77327 h -1.079954 a 1.9199292,1.9197997 0 1 1 3.826524,0 c 0,1.07987 -0.639977,1.67981 -1.559939,2.39975 a 3.0932193,3.0930104 0 0 0 -1.066627,1.09321 z"
     id="path72"
     inkscape:connector-curvature="0"
     style="stroke-width:1" />
  <path
     d="m 56.100396,383.38287 a 2.0532576,2.053119 0 0 1 0.639976,1.49319 v 1.77314 h -1.133287 v -1.77314 a 0.9199661,0.91990397 0 0 0 -0.919972,-0.97324 0.94663178,0.94656786 0 0 0 -0.933298,0.91991 v 1.77314 h -1.119952 v -1.77314 a 2.0799233,2.0797829 0 0 0 0,-2.99969 v -1.75981 h 1.119952 v 1.75981 a 0.94663178,0.94656786 0 0 0 0.466649,0.82658 0.99996312,0.9998956 0 0 0 0.946634,0 0.93329894,0.93323592 0 0 0 0.453323,-0.82658 v -1.75981 h 1.133287 v 1.75981 a 2.0532576,2.053119 0 0 1 -0.653312,1.55983 z"
     id="path74"
     inkscape:connector-curvature="0"
     style="stroke-width:1" />
  <path
     d="m 61.353538,380.11655 v 6.53265 h -1.119962 v -2.86637 a 1.9199292,1.9197997 0 0 1 -2.666564,-1.74649 v -1.91979 h 1.119962 v 1.91979 a 0.77330483,0.77325262 0 0 0 0.786632,0.7866 0.78663768,0.78658456 0 0 0 0.786642,-0.7866 v -1.91979 z"
     id="path76"
     inkscape:connector-curvature="0"
     style="stroke-width:1" />
  <path
     d="m 18.795107,334.13468 a 2.0665906,2.0664509 0 0 1 0.653309,1.49318 v 1.77315 h -1.133292 v -1.77315 a 0.933299,0.93323598 0 0 0 -1.866598,0 v 1.77315 h -1.13329 v -1.77315 a 2.0532576,2.053119 0 0 0 0,-2.99968 v -1.75982 h 1.13329 v 1.75982 a 0.94663178,0.94656786 0 0 0 0.46665,0.82657 0.97329747,0.97323174 0 0 0 0.933299,0 0.94663178,0.94656786 0 0 0 0.466649,-0.82657 v -1.75982 h 1.133292 v 1.75982 a 2.0665906,2.0664509 0 0 1 -0.653309,1.5065 z"
     id="path78"
     inkscape:connector-curvature="0"
     style="stroke-width:1" />
  <path
     d="m 21.861666,331.97491 v 5.4261 h -1.133298 v -5.39944 H 20.19506 v -1.13321 h 0.55998 a 1.1199587,1.119883 0 0 1 1.106626,1.10655 z"
     id="path80"
     inkscape:connector-curvature="0"
     style="stroke-width:1" />
  <path
     d="m 93.952333,380.11655 v 1.75982 a 2.0665906,2.0664509 0 0 1 -1.493278,2.02645 v 2.78637 h -1.133288 v -2.78637 a 2.0665906,2.0664509 0 0 1 -1.493278,-1.98645 v -1.75983 h 1.119961 v 1.75983 a 0.94663178,0.94656786 0 0 0 1.879932,0 v -1.75983 z"
     id="path82"
     inkscape:connector-curvature="0"
     style="stroke-width:1" />
  <path
     d="m 97.978856,383.38287 a 1.9332621,1.9331316 0 0 1 0.293321,2.31976 1.9199292,1.9197997 0 0 1 -3.5732,-0.9599 h 1.133288 a 0.78663768,0.78658456 0 0 0 0.479985,0.71993 0.78663768,0.78658456 0 0 0 1.026629,-1.02656 0.77330483,0.77325262 0 0 0 -0.719972,-0.47994 h -0.413315 v -1.13322 h 0.413315 a 0.77330483,0.77325262 0 0 0 0.719972,-0.47996 0.8266362,0.82658039 0 0 0 -0.159991,-0.86657 0.78663768,0.78658456 0 0 0 -1.333287,0.55993 h -1.15996 a 1.9199292,1.9197997 0 1 1 3.826524,0 1.946595,1.9464634 0 0 1 -0.533309,1.34653 z"
     id="path84"
     inkscape:connector-curvature="0"
     style="stroke-width:1" />
  <path
     d="m 132.33759,330.57506 v 1.75982 a 2.0665906,2.0664509 0 0 1 -1.50662,1.98645 v 2.78638 h -1.11995 v -2.78638 a 2.0665906,2.0664509 0 0 1 -1.50661,-1.98645 v -1.75982 h 1.14663 v 1.75982 a 0.93329894,0.93323592 0 0 0 1.86659,0 v -1.75982 z"
     id="path86"
     inkscape:connector-curvature="0"
     style="stroke-width:1" />
  <path
     d="m 134.29751,336.02782 h 2.43992 v 1.11988 h -3.66653 v -0.55994 a 3.9998526,3.9995825 0 0 1 0,-0.55994 3.3465434,3.3463174 0 0 1 1.61327,-1.98647 c 0.97329,-0.75992 1.13329,-1.03988 1.13329,-1.50649 a 0.78663768,0.78658456 0 0 0 -1.57327,0 h -1.1333 a 1.91993,1.9198005 0 0 1 3.83986,0 c 0,1.07987 -0.6533,1.67981 -1.57327,2.39975 a 3.1332178,3.1330063 0 0 0 -1.07997,1.09321 z"
     id="path88"
     inkscape:connector-curvature="0"
     style="stroke-width:1" />
  <path
     d="m 132.33759,380.11655 v 1.75982 a 2.0532576,2.053119 0 0 1 -1.50662,2.02645 v 2.78637 h -1.13328 v -2.78637 a 2.0665906,2.0664509 0 0 1 -1.49328,-1.98645 v -1.75983 h 1.14663 v 1.75983 a 0.93329894,0.93323592 0 1 0 1.86659,0 v -1.75983 z"
     id="path90"
     inkscape:connector-curvature="0"
     style="stroke-width:1" />
  <path
     d="m 136.91075,380.11655 v 6.53265 h -1.13328 v -2.86637 a 1.9199292,1.9197997 0 0 1 -2.66658,-1.74649 v -1.91979 h 1.1333 v 1.91979 a 0.78663768,0.78658456 0 0 0 0.78663,0.7866 0.77330483,0.77325262 0 0 0 0.78664,-0.7866 v -1.91979 z"
     id="path92"
     inkscape:connector-curvature="0"
     style="stroke-width:1" />
  <path
     d="m 95.032297,330.86836 v 1.75982 a 2.0665906,2.0664509 0 0 1 -1.493279,1.94646 v 2.78637 h -1.133287 v -2.78637 a 2.0665906,2.0664509 0 0 1 -1.493279,-1.98646 v -1.75981 h 1.106626 v 1.75981 a 0.94663178,0.94656786 0 1 0 1.879931,0 v -1.75981 z"
     id="path94"
     inkscape:connector-curvature="0"
     style="stroke-width:1" />
  <path
     d="m 97.445537,331.97491 v 5.4261 h -1.119951 v -5.39944 h -0.546655 v -1.13321 h 0.559981 a 1.1199587,1.119883 0 0 1 1.106625,1.10655 z"
     id="path96"
     inkscape:connector-curvature="0"
     style="stroke-width:1" />
  <path
     class="cls-1"
     d="m 74.899703,388.51567 a 0.6666421,0.66659709 0 0 1 -0.666639,-0.66658 v -86.33767 a 0.67997494,0.67992903 0 0 1 0.666639,-0.6666 0.6666421,0.66659709 0 0 1 0.666648,0.6666 v 86.39099 a 0.6666421,0.66659709 0 0 1 -0.666648,0.61326 z"
     id="path98"
     inkscape:connector-curvature="0"
     style="fill:#ffffff;stroke-width:1" />
  <path
     class="cls-1"
     d="m 78.552908,109.81143 v 2.53308 a 2.9465581,2.9463592 0 0 1 -2.133255,2.82636 v 3.99959 h -1.613272 v -3.99959 a 2.9465581,2.9463592 0 0 1 -2.146591,-2.82636 v -2.53308 h 1.613272 v 2.53308 a 1.3332842,1.3331942 0 0 0 2.666564,0 v -2.53308 z"
     id="path100"
     inkscape:connector-curvature="0"
     style="fill:#ffffff;stroke-width:1" />
  <path
     class="cls-1"
     d="m 48.020698,187.72331 -1.333287,-2.30643 1.079964,-0.6666 1.45328,2.23976 z"
     id="path102"
     inkscape:connector-curvature="0"
     style="fill:#ffffff;stroke-width:1" />
  <polygon
     class="cls-1"
     points="36.93,140.31 36.85,140.31 36.81,140.29 35.75,138.65 35.83,138.59 35.87,138.63 36.93,140.27 36.92,140.28 "
     id="polygon104"
     style="fill:#ffffff;stroke-width:0.75005299"
     transform="matrix(1.3332842,0,0,1.3331941,0.02246528,-0.05709637)" />
  <path
     class="cls-1"
     d="m 18.928435,187.01672 v 0 l -0.373319,-0.25332 v 0 l 1.493278,-2.22643 v 0 l 0.333319,0.22664 v 0 z m 32.492135,-1.62651 -1.666606,-2.07977 v 0 a 25.105741,25.104046 0 0 0 1.906594,-1.69317 v 0 0 l 1.813272,1.85314 v 0 0.0666 H 53.3405 c -0.639977,0.61328 -1.333287,1.23988 -2.079921,1.83982 z m -35.092039,-0.26663 v 0 a 23.719126,23.717525 0 0 1 -2.079924,-1.89314 v 0 l 1.773268,-1.97313 v 0 a 23.759124,23.75752 0 0 0 1.813267,1.6665 v 0 l 0.09333,0.11999 v 0 z m 39.145224,-3.5863 -2.119919,-1.75982 v 0 c 0.533309,-0.63993 1.053291,-1.33319 1.533276,-2.02645 v -0.0666 h 0.06663 l 2.146581,1.45319 v 0 c -0.533308,0.77325 -1.093289,1.53317 -1.693268,2.23977 z m -43.091746,-0.37329 v -0.0666 c -0.586644,-0.73327 -1.146623,-1.50651 -1.653271,-2.26643 v -0.0666 l 2.146587,-1.50651 v 0 a 25.3324,25.330689 0 0 0 1.506612,2.05311 v 0 0 z m 46.184961,-4.30622 -2.333245,-1.26653 v 0 c 0.399989,-0.74659 0.773307,-1.51985 1.09329,-2.2931 v 0 0 l 2.399914,1.01322 v 0 a 26.305697,26.303921 0 0 1 -1.213283,2.54641 z m -49.3315106,-0.3733 v -0.0801 a 25.839048,25.837303 0 0 1 -1.1732903,-2.5464 v 0 l 2.4665759,-0.98656 v 0 a 22.905823,22.904275 0 0 0 1.066628,2.31976 v 0 0 z m 51.4514396,-4.78616 -2.559906,-0.75993 v 0 c 0.239987,-0.79991 0.439977,-1.62649 0.613315,-2.4664 v 0 0 l 2.54657,0.49329 v 0 a 25.025744,25.024054 0 0 1 -0.679975,2.74637 z M 7.1688681,171.29835 v -0.08 c -0.2533234,-0.89324 -0.4666499,-1.81314 -0.6399765,-2.74638 v 0 h 0.1599936 l 2.4799104,-0.54661 v 0 c 0.1599936,0.85325 0.3466532,1.67982 0.5733118,2.47974 v 0.18665 z m 54.6646539,-5.07947 -2.666573,-0.25332 v 0 a 22.665831,22.664301 0 0 0 0.120003,-2.34641 v -0.26664 h 2.586568 v 0 a 1.3332842,1.3331942 0 0 1 0,0.22665 c 0,0.85324 0,1.73314 -0.119993,2.66638 z M 6.2355693,165.77892 v -0.08 c 0,-0.70659 -0.079996,-1.42652 -0.079996,-2.14644 v -0.71993 h 2.6665689 v 0.65326 c 0,0.65327 0,1.33321 0,1.94647 v 0.0935 z m 52.9180537,-4.86615 v 0 c -0.09336,-0.82659 -0.226662,-1.67983 -0.399989,-2.50641 v 0 0 l 2.54657,-0.54661 v 0.08 c 0.186663,0.90657 0.333329,1.83981 0.439987,2.78639 v 0 z M 8.982135,160.51281 6.3155671,160.11284 a 27.82564,27.823762 0 0 1 0.4933149,-2.7597 v 0 l 2.599904,0.5866 v 0.0666 a 23.919118,23.917503 0 0 0 -0.439983,2.50641 z m 49.131522,-4.58619 v 0 c -0.239987,-0.75991 -0.533309,-1.53317 -0.853302,-2.27976 v 0 l -0.06663,-0.14665 v 0 l 2.386579,-1.03989 v 0 c 0.386653,0.87991 0.706646,1.7598 0.999967,2.66638 v 0 z M 10.115427,155.54 v 0 l -2.466576,-0.83992 v -0.13331 0 c 0.2933234,-0.86659 0.6266436,-1.71983 0.9999628,-2.54641 v 0 l 2.4399102,1.10655 v 0 c -0.333321,0.7466 -0.639976,1.54651 -0.919967,2.37309 z m 46.038302,-4.25289 v -0.0666 c -0.413315,-0.73326 -0.866638,-1.45319 -1.333286,-2.14644 v 0 l 2.173253,-1.53319 v 0 c 0.519982,0.74659 1.013303,1.53319 1.466616,2.34643 h 0.213326 z m -43.998377,-0.35997 v 0 l -2.25325,-1.33319 v 0 l -0.1199957,-0.0934 H 9.968766 a 27.505653,27.503795 0 0 1 1.506611,-2.31976 v 0 l 2.159921,1.55984 v 0 a 25.23907,25.237366 0 0 0 -1.333285,2.13311 z m 41.07848,-3.79959 v 0 c -0.546645,-0.62662 -1.133287,-1.23988 -1.733266,-1.82648 h -0.253323 l 0.226661,-0.11999 1.7866,-1.89314 v 0 h 0.09336 -0.06663 a 26.479024,26.477236 0 0 1 1.879932,1.98646 v 0 z m -38.065259,-0.23999 -0.119995,-0.10665 -1.946594,-1.71982 v 0 -0.0934 0 c 0.599977,-0.66661 1.239954,-1.3332 1.919928,-1.9598 v 0 l 1.813267,1.9598 v 0 a 24.879083,24.877403 0 0 0 -1.759935,1.7998 z m 34.412063,-3.26632 v 0 c -0.666638,-0.50661 -1.333286,-0.9999 -2.079921,-1.45319 v 0 0 l 1.333287,-2.19977 h 0.06663 c 0.773306,0.49328 1.546613,1.0399 2.306583,1.61317 v 0 z m -30.665533,-0.11999 -1.719937,-2.23976 v 0 c 0.74664,-0.55994 1.533277,-1.09323 2.34658,-1.5865 v 0 l 1.333288,2.29308 v 0 a 23.679127,23.677528 0 0 0 -2.079927,1.41319 z m 26.439021,-2.5464 h -0.06663 c -0.746634,-0.35996 -1.51994,-0.7066 -2.319909,-1.01324 v -0.08 l 0.906636,-2.43975 v 0 a 25.679054,25.677319 0 0 1 2.586569,1.11989 h 0.06663 z m -22.145845,-0.19998 h -0.06663 l -1.119962,-2.33309 h 0.06663 c 0.879974,-0.41329 1.746602,-0.77325 2.666574,-1.07989 v 0 l 0.906626,2.50641 h -0.06663 c -0.773296,0.27997 -1.559938,0.59995 -2.34658,0.97324 z m 17.412696,-1.59982 h -0.06663 a 24.759087,24.757416 0 0 0 -2.533244,-0.55995 h -0.06663 v 0 l 0.466649,-2.6664 v 0 c 0.919972,0.14666 1.839934,0.34664 2.746569,0.57329 h 0.06663 z m -12.666201,-0.0935 v 0 l -0.613315,-2.51969 v 0 c 0.946634,-0.22665 1.866596,-0.39997 2.773232,-0.53329 h 0.06663 l 0.373317,2.6664 h -0.06663 c -0.82664,0.11998 -1.666606,0.27997 -2.493246,0.47996 z m 7.679718,-0.70659 h -0.06663 c -0.799978,0 -1.559948,0 -2.47991,0 v 0 h -0.146666 l -0.106657,-2.66639 h 0.08 c 0.786633,0 1.813262,0 2.799894,0 l 0.06663,0.0666 z"
     id="path106"
     inkscape:connector-curvature="0"
     style="fill:#ffffff;stroke-width:1" />
  <path
     class="cls-1"
     d="m 20.021728,187.72331 c -0.399985,-0.23999 -0.79997,-0.47995 -1.186623,-0.73327 l 1.43995,-2.23976 1.079954,0.6666 z"
     id="path108"
     inkscape:connector-curvature="0"
     style="fill:#ffffff;stroke-width:1" />
  <path
     class="cls-1"
     d="m 131.13764,187.72331 -1.3333,-2.30643 c 0.37333,-0.21331 0.73331,-0.43995 1.07997,-0.6666 l 1.45328,2.23976 c -0.32,0.25332 -0.78663,0.49328 -1.19995,0.73327 z"
     id="path110"
     inkscape:connector-curvature="0"
     style="fill:#ffffff;stroke-width:1" />
  <polygon
     class="cls-1"
     points="98.14,138.49 99.27,140.23 99.42,140.31 99.21,140.31 99.17,140.29 98.11,138.65 98.14,138.63 "
     id="polygon112"
     style="fill:#ffffff;stroke-width:0.75005299"
     transform="matrix(1.3332842,0,0,1.3331941,0.02246528,-0.05709637)" />
  <path
     class="cls-1"
     d="m 102.08537,187.01672 v 0 l -0.27999,-0.18666 -0.14666,-0.0934 1.49328,-2.22644 v 0 l 0.29332,0.19999 0.0933,0.0666 z m 32.49214,-1.65317 h -0.08 l -1.59993,-1.99979 v 0 c 0.66664,-0.54661 1.33329,-1.1199 1.89327,-1.69316 v 0 0 l 1.82659,1.85314 v 0 0 h -0.13333 c -0.63997,0.6266 -1.33328,1.22654 -2.02659,1.79981 l 0.0667,0.0666 z m -35.105362,-0.23997 v 0 a 25.3324,25.330689 0 0 1 -2.119943,-1.94647 v 0 l 1.893278,-1.86646 v 0 a 23.199145,23.197579 0 0 0 1.879927,1.71981 v 0 0.0666 z m 39.211882,-3.5863 -2.10659,-1.75982 v 0 c 0.5333,-0.63993 1.03995,-1.33319 1.53326,-2.02645 v 0 0 l 2.14659,1.45318 v 0 a 26.159036,26.157269 0 0 1 -1.66659,2.22644 z m -43.105089,-0.37329 v -0.0666 c -0.586642,-0.73327 -1.146623,-1.49318 -1.65327,-2.26643 v -0.0666 l 2.093257,-1.50651 v 0 a 23.092482,23.090923 0 0 0 1.493279,2.05311 v 0 z m 46.198299,-4.30622 -2.34658,-1.26653 v 0 c 0.39998,-0.74659 0.77331,-1.51985 1.09329,-2.2931 h 0.08 v 0 l 2.3999,0.9999 v 0.08 a 27.638982,27.637115 0 0 1 -1.21328,2.53307 z m -49.331511,-0.3733 v 0 c -0.426651,-0.82657 -0.826641,-1.69315 -1.173296,-2.55973 v -0.0933 h 0.08 l 2.399915,-0.94657 v 0 a 24.345769,24.344126 0 0 0 1.066627,2.30643 v 0.0666 0 z m 51.438101,-4.78616 -2.54657,-0.75993 v 0 c 0.23998,-0.81325 0.45332,-1.63981 0.6133,-2.4664 v 0 0 l 2.54658,0.49329 v 0 a 25.025744,25.024054 0 0 1 -0.67997,2.74637 z m -53.518033,-0.39996 v -0.08 c -0.253323,-0.90658 -0.466649,-1.82648 -0.639966,-2.74638 v 0 l 2.666564,-0.46662 v 0 c 0.159991,0.85325 0.346655,1.67982 0.573316,2.47974 v 0 0 h -0.08 z m 54.597993,-5.07947 -2.66656,-0.25332 v 0 c 0,-0.77324 0.10665,-1.55983 0.10665,-2.34641 v -0.26664 h 2.66658 v 0.2933 q 0,1.3332 -0.12001,2.66639 z m -55.611286,-0.42662 v -0.0935 c 0,-0.70659 -0.08,-1.42652 -0.08,-2.14644 v -0.71993 h 2.666574 v 0.65326 c 0,0.65327 0,1.33321 0,1.94647 v 0.0934 z m 52.944726,-4.87949 v 0 c -0.0933,-0.83992 -0.22666,-1.69317 -0.39999,-2.50641 v -0.0934 l 2.5999,-0.5466 v 0 c 0.18667,0.93323 0.33332,1.85314 0.43999,2.78638 v 0 0 z m -50.278152,-0.39996 -2.559907,-0.39997 a 25.892379,25.890632 0 0 1 0.479975,-2.7597 v 0 l 2.666574,0.5866 v 0.0666 a 23.892453,23.890839 0 0 0 -0.439987,2.43974 v 0 z m 49.251522,-4.58619 v 0 a 22.905823,22.904275 0 0 0 -0.8933,-2.37308 v 0 0 l 2.37324,-1.03989 0.08,0.15998 v 0 c 0.35999,0.82658 0.66663,1.69314 0.94663,2.5464 v 0 z M 93.179027,155.54 v 0 l -2.493236,-0.79992 v -0.0801 c 0.306657,-0.89324 0.653312,-1.77314 1.026629,-2.66639 v 0 l 2.439913,1.10656 v 0 a 22.23918,22.237679 0 0 0 -0.933298,2.35975 z m 46.091633,-4.25289 v -0.0666 c -0.39998,-0.71992 -0.85329,-1.43985 -1.33328,-2.13312 h -0.12 l 2.25326,-1.57316 v 0 a 27.865639,27.863758 0 0 1 1.5066,2.39974 v 0 0 z m -43.998376,-0.35997 v 0 l -2.239913,-1.33319 v 0 -0.0934 c 0.453313,-0.77326 0.946634,-1.54652 1.493279,-2.30643 v -0.10666 l 2.213251,1.59984 v 0 c -0.493311,0.69326 -0.95997,1.41318 -1.333287,2.13311 z m 41.078486,-3.79959 v 0 a 24.945747,24.944062 0 0 0 -1.7466,-1.83982 v 0 0 l 1.7866,-1.8798 v 0 c 0.66665,0.63993 1.33329,1.33319 1.93327,2.03979 v 0 z M 98.218843,146.8209 v 0 l -1.959927,-1.74648 v 0 a 27.998968,27.997078 0 0 1 1.973263,-2.01313 v 0 l 1.813271,1.9598 v 0 c -0.626645,0.58661 -1.226618,1.19988 -1.773273,1.81314 z m 34.478737,-3.19966 v 0 c -0.66664,-0.50661 -1.33329,-0.9999 -2.07992,-1.45319 v 0 0 l 1.33327,-2.19977 v 0 a 27.345659,27.343812 0 0 1 2.30659,1.59984 v 0 z m -30.78554,-0.23998 -1.55994,-2.11977 v 0 a 26.532356,26.530564 0 0 1 2.33325,-1.59984 v 0 l 1.33328,2.27976 v 0 a 25.3324,25.330689 0 0 0 -2.10659,1.42652 z m 26.50569,-2.45307 v 0 c -0.7733,-0.37329 -1.5466,-0.71994 -2.33324,-1.01324 v -0.08 l 0.91997,-2.4264 v 0 c 0.8933,0.33329 1.75993,0.71991 2.58657,1.11987 v 0 z m -22.15918,-0.18665 v 0 l -1.11996,-2.34642 v 0 c 0.87996,-0.4133 1.74661,-0.77326 2.66656,-1.07989 v 0 0 l 0.87998,2.43973 v 0 c -0.78664,0.27998 -1.58661,0.61329 -2.34658,0.97324 z m 17.42602,-1.61317 v 0 a 21.332547,21.331107 0 0 0 -2.49323,-0.51994 h -0.08 l 0.42665,-2.6664 v 0 c 0.91996,0.14665 1.85327,0.34665 2.7599,0.57329 v 0 z m -12.66619,-0.0934 v 0 l -0.62665,-2.53307 h 0.08 c 0.8933,-0.2133 1.8266,-0.39996 2.75989,-0.53327 v 0 l 0.37333,2.66639 v 0 c -0.8533,0.11998 -1.69327,0.2933 -2.49325,0.47994 z m 7.67972,-0.70659 v 0 c -0.77332,0 -1.58661,0 -2.47991,0 h -0.2 v 0 l -0.10667,-2.6664 h 0.10667 a 27.785643,27.783767 0 0 1 2.79989,0 v 0 z"
     id="path114"
     inkscape:connector-curvature="0"
     style="fill:#ffffff;stroke-width:1" />
  <path
     class="cls-1"
     d="m 103.232,187.72331 c -0.41332,-0.23999 -0.81331,-0.47995 -1.19996,-0.73327 l 1.45328,-2.23976 c 0.34665,0.22665 0.70664,0.45329 1.07996,0.6666 z"
     id="path116"
     inkscape:connector-curvature="0"
     style="fill:#ffffff;stroke-width:1" />
  <path
     class="cls-1"
     d="m 48.020698,274.6609 -1.333287,-2.30643 1.079964,-0.65327 1.45328,2.23977 z"
     id="path118"
     inkscape:connector-curvature="0"
     style="fill:#ffffff;stroke-width:1" />
  <polygon
     class="cls-1"
     points="35.77,203.85 35.77,203.71 36.92,205.48 36.85,205.54 36.8,205.49 35.75,203.86 "
     id="polygon120"
     style="fill:#ffffff;stroke-width:0.75005299"
     transform="matrix(1.3332842,0,0,1.3331941,0.02246528,-0.05709637)" />
  <path
     class="cls-1"
     d="m 18.928435,273.96763 v 0 0 0 l -0.373319,-0.23997 v 0 l 1.479945,-2.21311 h 0.06666 l 0.333326,0.21332 v 0 z m 32.505471,-1.65316 v 0 l -1.626608,-2.03978 v 0 a 25.065743,25.06405 0 0 0 1.893258,-1.67983 v 0 0 l 1.826607,1.86647 v 0 c -0.666648,0.63994 -1.333287,1.2532 -2.053259,1.82649 v 0 z m -35.105375,-0.2533 v 0 a 24.58576,24.584101 0 0 1 -2.026592,-1.85314 l -0.06666,0.0666 v -0.15999 l 1.786601,-1.9198 v 0 q 0.8933,0.89324 1.879931,1.71983 v 0 0.0666 z m 39.09189,-3.62629 -2.066585,-1.71982 v 0 c 0.533309,-0.63994 1.039955,-1.3332 1.51994,-2.02645 v -0.10667 l 2.253249,1.51984 v 0.08 c -0.519983,0.75992 -1.093289,1.51984 -1.693268,2.23976 z m -43.038412,-0.3333 v 0 a 26.759014,26.757207 0 0 1 -1.69327,-2.33309 v 0 l 2.239917,-1.45318 v 0 c 0.479983,0.71991 0.986631,1.3332 1.506612,2.05311 v 0 z m 46.091639,-4.11956 v -0.22665 l -2.253259,-1.17322 v 0 c 0.399989,-0.73325 0.759981,-1.5065 1.0933,-2.29309 h 0.133329 v 0 l 2.359907,0.97323 v 0 a 28.132297,28.130396 0 0 1 -1.213283,2.55974 z M 9.3554551,263.43539 v 0 A 26.665684,26.663883 0 0 1 8.2088308,260.91566 V 260.809 l 2.4665742,-0.98655 v 0.0666 c 0.306657,0.75991 0.653311,1.51982 1.02663,2.23976 v 0 0.18665 z m 51.4381019,-4.78616 -2.559906,-0.77325 v -0.0666 c 0.239997,-0.78659 0.439987,-1.61316 0.613314,-2.45308 l 0.13333,-0.0666 v 0 l 2.493236,0.47995 v 0 a 25.585724,25.583996 0 0 1 -0.679974,2.73304 z M 7.2621989,258.23594 v -0.08 a 23.919118,23.917503 0 0 1 -0.6399775,-2.73306 v -0.08 l 2.5599071,-0.45329 v 0.0666 c 0.1466607,0.82659 0.3466532,1.65316 0.5733118,2.46641 v 0.08 0 z m 54.6646551,-5.07947 -2.666574,-0.23998 v -0.0666 a 23.5058,23.504213 0 0 0 0.119994,-2.35974 0.75997199,0.75992068 0 0 0 0,-0.17333 v -0.08 h 2.666574 v 0.0666 a 1.2266215,1.2265387 0 0 1 0,0.2133 q 0,1.33321 -0.119994,2.59973 z M 6.3289001,252.72984 v -0.0666 c 0,-0.73325 -0.079996,-1.45318 -0.079996,-2.1731 v -0.70659 H 8.915472 v 0.65326 c 0,0.65325 0,1.33319 0,1.95979 v 0 0 z m 52.8113869,-4.81282 v 0 c -0.09336,-0.81325 -0.213326,-1.63983 -0.386653,-2.45308 v -0.11999 0 l 2.54657,-0.53328 v 0 0.11999 c 0.186663,0.87992 0.319993,1.79982 0.426651,2.66639 v 0.0666 z M 8.982135,247.53039 h -0.079996 l -2.5732381,-0.38663 c 0.1199947,-0.91989 0.2799893,-1.85314 0.4799819,-2.77304 v -0.0666 l 2.599905,0.59993 v 0 a 20.812566,20.811162 0 0 0 -0.439983,2.49308 z m 49.144858,-4.55953 v -0.0666 a 24.559095,24.557437 0 0 0 -0.8933,-2.37309 v -0.08 l 2.453238,-1.06655 v 0.08 c 0.373318,0.85325 0.693311,1.74648 0.986632,2.66639 v 0 z M 10.03543,242.57091 v 0 l -2.4532428,-0.82658 v 0 a 24.71909,24.717419 0 0 1 1.0266287,-2.6664 h 0.079996 v 0 l 2.3732451,1.06657 v 0 c -0.33332,0.75992 -0.653308,1.55984 -0.919965,2.35975 z m 46.091638,-4.25289 v 0 a 23.305808,23.304233 0 0 0 -1.333287,-2.14644 v 0 0 L 56.9137,234.6784 v 0 c 0.519983,0.74659 1.026629,1.5465 1.493278,2.37308 v 0.0666 z m -43.998382,-0.34663 -2.306582,-1.3332 v 0 a 27.292328,27.290485 0 0 1 1.519945,-2.34642 v -0.10666 l 2.213251,1.59984 v 0 a 23.265809,23.264239 0 0 0 -1.333284,2.13312 z m 41.09182,-3.81293 v 0 a 24.119111,24.117482 0 0 0 -1.706604,-1.79982 v 0 l -0.119994,-0.08 1.866596,-1.9598 0.19999,0.15997 v 0 c 0.62664,0.61328 1.239955,1.25322 1.799935,1.90648 h 0.146666 z m -38.13193,-0.29331 v 0 l -1.946594,-1.71982 v -0.0666 c 0.61331,-0.67992 1.333285,-1.3332 1.946594,-1.98646 v -0.13332 l 1.893264,1.95979 v 0 a 22.665831,22.664301 0 0 0 -1.773268,1.81316 z m 34.49206,-3.27966 v 0 a 24.559095,24.557437 0 0 0 -2.079921,-1.45318 v 0 l 1.413283,-2.23977 h 0.06663 c 0.799968,0.50662 1.573274,1.05323 2.306583,1.61318 v 0 z m -30.758863,-0.23998 v 0 l -1.573276,-2.07978 v 0 -0.18665 l 0.09333,0.13332 a 25.892379,25.890632 0 0 1 2.266583,-1.53317 v 0 l 1.333282,2.27976 v 0 a 22.452507,22.450989 0 0 0 -2.066587,1.39986 z m 26.532351,-2.42641 v 0 a 25.212404,25.210702 0 0 0 -2.333245,-1.01323 h -0.07999 v -0.08 l 0.906636,-2.42642 v 0 0 a 24.58576,24.584101 0 0 1 2.573242,1.11989 l 0.266649,0.11999 h -0.253323 z m -22.159181,-0.17331 v 0 l -1.119952,-2.34642 h 0.08 a 25.039077,25.037387 0 0 1 2.586568,-1.0799 v 0 l 0.906636,2.50642 h -0.06663 a 23.572464,23.570873 0 0 0 -2.34658,0.97324 z m 17.426022,-1.61316 h -0.06663 a 21.545873,21.544419 0 0 0 -2.4799,-0.53328 v 0 h -0.06663 l 0.399979,-2.57308 h 0.06663 c 0.946634,0.14666 1.866595,0.34665 2.759905,0.57329 h 0.06663 z m -12.679527,-0.10666 -0.653313,-2.58639 h 0.08 c 0.919972,-0.22665 1.839934,-0.39997 2.759896,-0.53329 h 0.06663 l 0.373317,2.6664 h -0.06663 a 24.705757,24.704088 0 0 0 -2.4799,0.47995 z m 7.693054,-0.70659 h -0.06663 c -0.773306,0 -1.599946,0 -2.47991,0 v 0 h -0.146666 l -0.159991,-2.73306 h 0.133329 c 0.813305,0 1.85326,0 2.74656,0 l 0.06663,0.0666 z"
     id="path122"
     inkscape:connector-curvature="0"
     style="fill:#ffffff;stroke-width:1" />
  <path
     class="cls-1"
     d="m 20.021728,274.6609 c -0.399985,-0.22664 -0.79997,-0.46663 -1.186623,-0.71993 l 1.43995,-2.23977 c 0.359982,0.22664 0.719973,0.45329 1.09329,0.66659 z"
     id="path124"
     inkscape:connector-curvature="0"
     style="fill:#ffffff;stroke-width:1" />
  <path
     class="cls-1"
     d="m 131.13764,274.67422 -1.3333,-2.31975 c 0.37333,-0.21331 0.73331,-0.42663 1.07997,-0.65327 l 1.45328,2.23977 c -0.32,0.2533 -0.78663,0.49329 -1.19995,0.73325 z"
     id="path126"
     inkscape:connector-curvature="0"
     style="fill:#ffffff;stroke-width:1" />
  <polygon
     class="cls-1"
     points="98.24,203.83 98.24,203.86 99.33,205.52 99.21,205.52 99.17,205.5 98.11,203.87 "
     id="polygon128"
     style="fill:#ffffff;stroke-width:0.75005299"
     transform="matrix(1.3332842,0,0,1.3331941,0.02246528,-0.05709637)" />
  <path
     class="cls-1"
     d="m 102.08537,273.96763 v 0 l -0.37332,-0.23997 v -0.08 0 l 1.45328,-2.15979 0.16,0.10665 0.22666,0.14667 v 0 z m 32.49214,-1.65316 h -0.08 l -1.59993,-2.01313 v 0 a 23.545799,23.544209 0 0 0 1.89327,-1.67981 v 0 0 l 1.82659,1.86646 v 0 0.0666 h -0.13333 c -0.65331,0.63993 -1.33328,1.23988 -2.03992,1.81314 v 0 z M 99.472148,272.0745 v -0.0666 a 26.839011,26.837199 0 0 1 -2.039937,-1.86648 h -0.213325 l 1.973263,-1.94645 v 0 a 22.665831,22.664301 0 0 0 1.879931,1.70648 v 0 0.0934 z m 39.091882,-3.63962 -2.03993,-1.71982 v 0 c 0.50665,-0.61328 1.0133,-1.3332 1.49328,-1.98646 l -0.11999,-0.08 h 0.11999 v -0.0934 l 2.30658,1.5465 v 0.0801 a 25.932378,25.930626 0 0 1 -1.69327,2.23976 z m -43.038422,-0.3333 v 0 a 25.3324,25.330689 0 0 1 -1.653271,-2.26643 v 0 0 l 2.146591,-1.5865 v 0.0666 c 0.453313,0.67992 0.946634,1.3332 1.493279,2.02645 h 0.159992 z m 46.104972,-4.11956 v -0.22665 l -2.25325,-1.21322 v 0 c 0.39999,-0.74658 0.77331,-1.51984 1.0933,-2.29309 h 0.08 l 2.41326,0.99989 v 0 a 28.132297,28.130396 0 0 1 -1.2133,2.55974 z m -49.184851,-0.54663 v -0.08 c -0.426651,-0.81325 -0.813305,-1.66649 -1.173296,-2.5464 v 0 0 l 2.413251,-0.95995 v 0.0666 a 24.345769,24.344126 0 0 0 1.066627,2.30643 v 0.0666 h -0.08 z m 51.331441,-4.41287 v -0.43995 l -2.43991,-0.73326 v -0.0666 a 24.692423,24.690756 0 0 0 0.6133,-2.46643 v 0 0 l 2.54658,0.4933 v 0 a 24.799086,24.797411 0 0 1 -0.67997,2.73305 z m -53.411373,-0.78658 v -0.0666 c -0.253323,-0.90657 -0.466649,-1.83979 -0.639966,-2.74637 v 0 l 2.666564,-0.46662 v 0.0666 c 0.159991,0.83992 0.346655,1.66649 0.573316,2.46642 v 0 0.0666 z m 54.478003,-4.98615 v -0.10665 l -2.53325,-0.22665 v -0.0666 c 0,-0.77325 0.10667,-1.57317 0.10667,-2.35974 v -0.26664 h 2.66656 v 0.27997 c 0,0.85323 0,1.70648 -0.11999,2.53306 h 0.0933 z m -55.491296,-0.51995 v -0.08 c 0,-0.70659 -0.08,-1.43984 -0.08,-2.15976 v -0.70659 h 2.666574 v 0.65326 c 0,0.65325 0,1.33319 0,1.95979 v 0.0801 z m 52.944726,-4.81282 v 0 c -0.0933,-0.83992 -0.22666,-1.67983 -0.39999,-2.5064 v -0.15999 l 2.5999,-0.54661 v 0 c 0.18667,0.91991 0.33332,1.85314 0.43999,2.78637 v 0 0.0666 z m -50.184821,-0.38663 -2.666574,-0.3333 v -0.11999 q 0.186664,-1.33318 0.479985,-2.66638 v -0.0666 l 2.666564,0.59993 v 0 a 25.399064,25.39735 0 0 0 -0.439977,2.50642 z m 49.158191,-4.55953 v -0.0666 c -0.25334,-0.79992 -0.54666,-1.57316 -0.86664,-2.31976 v 0 -0.13332 h 0.08 l 2.35991,-1.02656 0.08,0.14665 v 0 c 0.35999,0.83991 0.66664,1.69315 0.94662,2.5464 v 0 z m -47.998241,-0.3733 h -0.08 l -2.506572,-0.91989 v -0.08 c 0.293321,-0.86658 0.639976,-1.73315 1.026629,-2.5864 v -0.0935 l 2.466575,1.10656 v 0 a 22.159183,22.157687 0 0 0 -0.933298,2.35975 z m 46.038311,-4.27954 v 0 a 23.159146,23.157583 0 0 0 -1.33329,-2.15977 v -0.23998 l 2.03993,-1.46652 v 0 a 25.745718,25.743979 0 0 1 1.50661,2.38642 v 0.0801 0 z m -43.998378,-0.35996 v 0 l -2.213261,-1.33319 -0.479975,-0.12 h 0.506647 c 0.466649,-0.79991 0.973296,-1.58649 1.506615,-2.31976 v 0 l 2.159917,1.55984 v 0 a 25.412397,25.410682 0 0 0 -1.333287,2.13312 z m 41.118488,-3.78628 v 0 a 24.945747,24.944062 0 0 0 -1.74661,-1.8398 h -0.0667 v 0 l 1.7866,-1.87981 v 0 c 0.67997,0.65326 1.33328,1.3332 1.93325,2.02645 v 0 z m -38.118605,-0.30663 h -0.06673 l -1.933255,-1.71982 v -0.0666 a 27.998968,27.997078 0 0 1 1.973253,-1.9998 v 0 l 1.839937,1.83981 v 0 c -0.613303,0.57328 -1.213286,1.17322 -1.759941,1.78649 z m 34.412075,-3.27966 v 0 c -0.65331,-0.50662 -1.3333,-0.99989 -2.07993,-1.45318 h -0.0667 v -0.0666 l 1.33328,-2.18643 v 0 a 27.185665,27.18383 0 0 1 2.30658,1.61317 v 0 z m -30.75887,-0.23998 v 0 0 l -1.55995,-2.06644 v 0 a 23.892453,23.890839 0 0 1 2.27992,-1.69317 v 0 l 1.33328,2.27977 v 0 a 21.652536,21.651073 0 0 0 -2.10659,1.42651 z m 26.47901,-2.42641 v 0 a 23.999115,23.997495 0 0 0 -2.27991,-0.98656 l -0.10666,-0.10665 0.91997,-2.43975 v 0 h 0.10666 v 0 c 0.82664,0.31996 1.6666,0.67992 2.50658,1.09322 h 0.0933 z m -22.10584,-0.19997 v 0 0 l -1.2133,-2.46641 v 0 -0.17332 l 0.08,0.13333 c 0.83997,-0.38664 1.66661,-0.73327 2.49324,-1.02657 v 0 0 0 l 0.87997,2.45308 v 0 a 24.132444,24.130814 0 0 0 -2.23992,1.05322 z m 17.33269,-1.5865 v 0 a 23.759124,23.75752 0 0 0 -2.49324,-0.53328 v 0 -0.08 l 0.41332,-2.57307 v 0 c 0.91997,0.14665 1.83993,0.3333 2.7599,0.57328 h 0.0667 z m -12.62621,-0.11999 v -0.0666 0 l -0.62664,-2.5064 v 0 c 0.91998,-0.22665 1.85326,-0.39997 2.75991,-0.53329 v 0 l 0.37332,2.6664 v 0 c -0.83997,0.11998 -1.67995,0.27997 -2.49324,0.47995 z m 7.63972,-0.75992 v 0 c -0.91996,0 -1.61326,0 -2.54657,0 v 0 0 l -0.21332,-2.6664 v 0 c 0.95997,0 1.85327,0 2.81323,0 v 0 z"
     id="path130"
     inkscape:connector-curvature="0"
     style="fill:#ffffff;stroke-width:1" />
  <path
     class="cls-1"
     d="m 103.21866,274.6609 c -0.39998,-0.22664 -0.79997,-0.46663 -1.18662,-0.71993 l 1.45328,-2.23977 c 0.34665,0.22664 0.70664,0.45329 1.07996,0.66659 z"
     id="path132"
     inkscape:connector-curvature="0"
     style="fill:#ffffff;stroke-width:1" />
  <path
     class="cls-1"
     d="m 116.39151,199.92204 h 2.78657 v 1.33319 h -4.18652 v -0.63994 a 3.4798718,3.4796367 0 0 1 0,-0.63993 c 0.15999,-0.89325 0.71997,-1.46652 1.73327,-2.26643 1.0133,-0.79991 1.33328,-1.18655 1.33328,-1.71982 a 0.90663325,0.90657203 0 0 0 -0.90662,-0.87991 0.87996757,0.87990815 0 0 0 -0.89331,0.87991 h -1.33328 a 2.1865861,2.1864384 0 1 1 4.37317,0 c 0,1.23987 -0.7333,1.9198 -1.7866,2.66638 a 3.5998673,3.5996242 0 0 0 -1.11996,1.26655 z"
     id="path134"
     inkscape:connector-curvature="0"
     style="fill:#ffffff;stroke-width:1" />
  <path
     class="cls-1"
     d="m 35.581158,284.85983 a 2.1865861,2.1864384 0 0 1 -2.106593,3.65295 2.2132517,2.2131024 0 0 1 -1.626608,-2.11978 h 1.333287 a 0.89330041,0.8932401 0 1 0 0.8933,-0.89324 h -0.466649 v -1.3332 h 0.466649 a 0.89330041,0.8932401 0 0 0 0.82664,-0.54661 0.89330041,0.8932401 0 0 0 -1.173295,-1.1732 0.89330041,0.8932401 0 0 0 -0.546645,0.82657 h -1.333287 a 2.1865861,2.1864384 0 1 1 3.733201,1.54651 z"
     id="path136"
     inkscape:connector-curvature="0"
     style="fill:#ffffff;stroke-width:1" />
  <path
     class="cls-1"
     d="m 119.36474,281.12688 v 7.45255 h -1.33329 v -3.33298 a 2.1732532,2.1731065 0 0 1 -2.09326,-0.15999 2.199919,2.1997704 0 0 1 -0.99996,-1.82647 v -2.18643 h 1.33328 v 2.18643 a 0.90663325,0.90657203 0 0 0 1.79994,0 v -2.18643 z"
     id="path138"
     inkscape:connector-curvature="0"
     style="fill:#ffffff;stroke-width:1" />
  <path
     class="cls-1"
     d="m 34.994506,194.98922 v 6.18601 h -1.333277 v -6.15935 h -0.573317 v -1.3332 h 0.639977 a 1.3332842,1.3331942 0 0 1 1.266617,1.30654 z"
     id="path140"
     inkscape:connector-curvature="0"
     style="fill:#ffffff;stroke-width:1" />
  <path
     class="cls-1"
     d="m 77.632936,220.63986 a 2.9598908,2.9596911 0 0 1 0.919972,2.14645 v 2.46641 h -1.613272 v -2.51974 a 1.333287,1.3331971 0 0 0 -2.666574,0 v 2.51974 H 72.65979 v -2.51974 a 2.9598908,2.9596911 0 0 1 0.919962,-2.14645 2.9065596,2.9063633 0 0 1 -0.919962,-2.1331 v -2.51973 h 1.613272 v 2.51973 a 1.3332842,1.3331942 0 0 0 0.666639,1.15987 1.3332842,1.3331942 0 0 0 1.333287,0 1.3332842,1.3331942 0 0 0 0.666648,-1.15987 v -2.51973 h 1.613272 v 2.51973 a 2.9065596,2.9063633 0 0 1 -0.919972,2.18643 z"
     id="path142"
     inkscape:connector-curvature="0"
     style="fill:#ffffff;stroke-width:1" />
  <ellipse
     class="cls-4"
     cx="75.606346"
     cy="129.38274"
     id="circle144"
     style="fill:#a5a5a5;stroke-width:1"
     rx="5.6664577"
     ry="5.6660757" />
  <ellipse
     class="cls-4"
     cx="75.606346"
     cy="206.8546"
     id="circle146"
     style="fill:#a5a5a5;stroke-width:1"
     rx="5.6664577"
     ry="5.6660757" />
  <path
     class="cls-2"
     d="m 54.967108,104.58532 a 41.251813,41.249027 0 1 1 41.411802,0 l -2.013252,-3.45298 a 37.331957,37.329437 0 1 0 -37.398624,0 z"
     id="path148"
     inkscape:connector-curvature="0"
     style="fill:#ffc300;stroke-width:1" />
  <path
     class="cls-2"
     d="M 132.25759,392.79522 H 18.928435 a 16.239407,16.23831 0 0 0 0,32.47661 H 132.25759 a 16.239407,16.23831 0 1 0 0,-32.47661 z"
     id="path150"
     inkscape:connector-curvature="0"
     style="fill:#ffc300;stroke-width:1" />
  <rect
     class="cls-2"
     x="98.415909"
     y="62.05518"
     width="6.1195679"
     height="6.1195679"
     transform="matrix(0.70713065,0.70708291,-0.70713065,0.70708291,0,0)"
     id="rect152"
     style="fill:#ffc300;stroke-width:1" />
  <rect
     class="cls-2"
     x="92.297523"
     y="55.938435"
     width="6.1195679"
     height="6.1195679"
     transform="matrix(0.70713065,0.70708291,-0.70713065,0.70708291,0,0)"
     id="rect154"
     style="fill:#ffc300;stroke-width:1" />
  <rect
     class="cls-2"
     x="104.53268"
     y="55.936783"
     width="6.1195679"
     height="6.1195679"
     transform="matrix(0.70713065,0.70708291,-0.70713065,0.70708291,0,0)"
     id="rect156"
     style="fill:#ffc300;stroke-width:1" />
  <rect
     class="cls-2"
     x="98.414261"
     y="49.820053"
     width="6.1195679"
     height="6.1195679"
     transform="matrix(0.70713065,0.70708291,-0.70713065,0.70708291,0,0)"
     id="rect158"
     style="fill:#ffc300;stroke-width:1" />
  <rect
     class="cls-2"
     x="159.99254"
     y="0.47524393"
     width="6.1195679"
     height="6.1195679"
     transform="matrix(0.70713065,0.70708291,-0.70713065,0.70708291,0,0)"
     id="rect160"
     style="fill:#ffc300;stroke-width:1" />
  <rect
     class="cls-2"
     x="153.87413"
     y="-5.6415029"
     width="6.1195679"
     height="6.1195679"
     transform="matrix(0.70713065,0.70708291,-0.70713065,0.70708291,0,0)"
     id="rect162"
     style="fill:#ffc300;stroke-width:1" />
  <rect
     class="cls-2"
     x="166.10925"
     y="-5.6431513"
     width="6.1195679"
     height="6.1195679"
     transform="matrix(0.70713065,0.70708291,-0.70713065,0.70708291,0,0)"
     id="rect164"
     style="fill:#ffc300;stroke-width:1" />
  <rect
     class="cls-2"
     x="159.99088"
     y="-11.759897"
     width="6.1195679"
     height="6.1195679"
     transform="matrix(0.70713065,0.70708291,-0.70713065,0.70708291,0,0)"
     id="rect166"
     style="fill:#ffc300;stroke-width:1" />
  <path
     class="cls-1"
     d="m 17.035173,433.05768 a 2.3332473,2.3330898 0 0 1 0.733305,1.70649 v 2.01313 h -1.333284 v -2.01313 a 1.0666276,1.0665555 0 0 0 -2.133255,0 v 2.01313 h -1.333284 v -2.01313 a 2.3332473,2.3330898 0 0 1 0.733306,-1.70649 2.3865787,2.3864175 0 0 1 -0.733306,-1.7198 v -2.01313 h 1.333284 v 2.01313 a 1.0532945,1.0532234 0 0 0 0.519982,0.93323 1.1066259,1.1065512 0 0 0 1.079959,0 1.0666274,1.0665553 0 0 0 0.533314,-0.93323 v -2.01313 h 1.333284 v 2.01313 a 2.3865787,2.3864175 0 0 1 -0.733305,1.7198 z"
     id="path168"
     inkscape:connector-curvature="0"
     style="fill:#ffffff;stroke-width:1" />
  <path
     class="cls-1"
     d="m 22.034993,432.52442 v 1.07988 h -1.173295 v 1.15987 H 19.79507 v -1.15987 h -1.106626 v -1.07988 h 1.159957 v -1.15987 h 1.066631 v 1.15987 z"
     id="path170"
     inkscape:connector-curvature="0"
     style="fill:#ffffff;stroke-width:1" />
  <path
     class="cls-1"
     d="m 54.833778,433.05768 a 2.3332473,2.3330898 0 0 1 0.733309,1.70649 v 2.01313 H 54.2338 v -2.01313 a 1.0666276,1.0665555 0 0 0 -2.133255,0 v 2.01313 h -1.333287 v -2.01313 a 2.2932489,2.293094 0 0 1 0.733308,-1.70649 2.3332473,2.3330898 0 0 1 -0.733308,-1.7198 v -2.01313 h 1.333287 v 2.01313 a 1.0666274,1.0665553 0 0 0 0.533318,0.93323 1.0799602,1.0798872 0 0 0 1.066628,0 1.0666274,1.0665553 0 0 0 0.533309,-0.93323 v -2.01313 h 1.333287 v 2.01313 a 2.3865787,2.3864175 0 0 1 -0.733309,1.7198 z"
     id="path172"
     inkscape:connector-curvature="0"
     style="fill:#ffffff;stroke-width:1" />
  <path
     class="cls-1"
     d="m 56.420389,433.6043 v -1.07988 h 3.399872 v 1.07988 z"
     id="path174"
     inkscape:connector-curvature="0"
     style="fill:#ffffff;stroke-width:1" />
  <path
     class="cls-1"
     d="m 95.48562,429.32475 v 2.01313 a 2.3465802,2.3464218 0 0 1 -1.706604,2.26642 v 3.173 h -1.333287 v -3.173 a 2.3465802,2.3464218 0 0 1 -1.706605,-2.26642 v -2.01313 h 1.333287 v 2.01313 a 1.0532945,1.0532234 0 0 0 1.053292,1.06655 1.0666274,1.0665553 0 0 0 1.079954,-1.06655 v -2.01313 z"
     id="path176"
     inkscape:connector-curvature="0"
     style="fill:#ffffff;stroke-width:1" />
  <path
     class="cls-1"
     d="m 128.96438,433.05768 a 2.3332473,2.3330898 0 0 1 0.73331,1.70649 v 2.01313 h -1.33328 v -2.01313 a 1.066635,1.0665629 0 0 0 -2.13327,0 v 2.01313 h -1.33327 v -2.01313 a 2.3332473,2.3330898 0 0 1 0.73329,-1.70649 2.3865787,2.3864175 0 0 1 -0.73329,-1.7198 v -2.01313 h 1.33327 v 2.01313 a 1.0666274,1.0665553 0 0 0 0.53331,0.93323 1.0799602,1.0798872 0 0 0 1.06664,0 1.0666274,1.0665553 0 0 0 0.53332,-0.93323 v -2.01313 h 1.33328 v 2.01313 a 2.3865787,2.3864175 0 0 1 -0.73331,1.7198 z"
     id="path178"
     inkscape:connector-curvature="0"
     style="fill:#ffffff;stroke-width:1" />
  <path
     class="cls-1"
     d="m 133.9642,432.52442 v 1.07988 h -1.15996 v 1.15987 h -1.07997 v -1.15987 h -1.15996 v -1.07988 h 1.15996 v -1.15987 h 1.07997 v 1.15987 z"
     id="path180"
     inkscape:connector-curvature="0"
     style="fill:#ffffff;stroke-width:1" />
  <path
     class="cls-1"
     d="m 139.524,429.32475 v 2.01313 a 2.3465802,2.3464218 0 0 1 -1.70662,2.26642 v 3.173 h -1.33328 v -3.173 a 2.3465802,2.3464218 0 0 1 -1.7066,-2.26642 v -2.01313 h 1.33329 v 2.01313 a 1.0666274,1.0665553 0 0 0 2.13324,0 v -2.01313 z"
     id="path182"
     inkscape:connector-curvature="0"
     style="fill:#ffffff;stroke-width:1" />
  <polygon
     class="cls-2"
     points="56.47,359.16 52.1,359.16 54.18,361.24 58.55,361.24 "
     id="polygon184"
     style="fill:#ffc300;stroke-width:0.75005299"
     transform="matrix(1.3332842,0,0,1.3331941,0.02246528,-0.05709637)" />
  <polygon
     class="cls-2"
     points="64.23,361.24 62.15,359.16 57.78,359.16 59.86,361.24 "
     id="polygon186"
     style="fill:#ffc300;stroke-width:0.75005299"
     transform="matrix(1.3332842,0,0,1.3331941,0.02246528,-0.05709637)" />
  <path
     class="cls-2"
     d="m 83.766042,477.89302 2.773232,2.77303 v -9.97229 a 5.8664504,5.8660543 0 0 0 -1.733266,-4.15957 l -1.439945,-1.43985 a 6.3197671,6.3193404 0 0 1 0.399979,2.19977 z"
     id="path188"
     inkscape:connector-curvature="0"
     style="fill:#ffc300;stroke-width:1" />
  <path
     class="cls-2"
     d="m 81.246144,463.89447 a 5.2398069,5.239453 0 0 0 -3.999861,-1.83981 h -3.37321 a 5.3331368,5.3327767 0 0 0 -5.333138,5.26612 v 10.23893 h 6.413102 v -9.33235 a 0.61331073,0.61326932 0 0 1 1.226619,0 v 9.33235 h 6.346431 v -10.23893 a 5.2264741,5.2261212 0 0 0 -1.279943,-3.42631 z"
     id="path190"
     inkscape:connector-curvature="0"
     style="fill:#ffc300;stroke-width:1" />
  <polygon
     class="cls-5"
     points="106.68,4.39 104.48,6.58 104.48,8.78 106.68,6.58 "
     id="polygon192"
     style="fill:#ffffff;stroke:#211915;stroke-width:0.10500741px;stroke-miterlimit:10"
     transform="matrix(1.3332842,0,0,1.3331941,0.02246528,-0.05709637)" />
  <polygon
     class="cls-5"
     points="104.48,8.78 102.29,10.97 102.29,13.16 104.48,10.97 "
     id="polygon194"
     style="fill:#ffffff;stroke:#211915;stroke-width:0.10500741px;stroke-miterlimit:10"
     transform="matrix(1.3332842,0,0,1.3331941,0.02246528,-0.05709637)" />
  <polygon
     class="cls-5"
     points="104.48,8.78 102.29,6.58 100.1,6.58 102.29,8.78 "
     id="polygon196"
     style="fill:#ffffff;stroke:#211915;stroke-width:0.10500741px;stroke-miterlimit:10"
     transform="matrix(1.3332842,0,0,1.3331941,0.02246528,-0.05709637)" />
  <polygon
     class="cls-6"
     points="104.48,6.58 102.29,4.39 102.29,6.58 104.48,8.78 "
     id="polygon198"
     style="fill:#ffc300;stroke:#211915;stroke-width:0.10500741px;stroke-miterlimit:10"
     transform="matrix(1.3332842,0,0,1.3331941,0.02246528,-0.05709637)" />
  <polygon
     class="cls-6"
     points="108.87,6.58 106.68,6.58 104.48,8.78 106.68,8.78 "
     id="polygon200"
     style="fill:#ffc300;stroke:#211915;stroke-width:0.10500741px;stroke-miterlimit:10"
     transform="matrix(1.3332842,0,0,1.3331941,0.02246528,-0.05709637)" />
  <polygon
     class="cls-6"
     points="104.48,8.78 102.29,8.78 100.1,10.97 102.29,10.97 "
     id="polygon202"
     style="fill:#ffc300;stroke:#211915;stroke-width:0.10500741px;stroke-miterlimit:10"
     transform="matrix(1.3332842,0,0,1.3331941,0.02246528,-0.05709637)" />
  <polygon
     class="cls-5"
     points="108.87,10.97 106.68,8.78 104.48,8.78 106.68,10.97 "
     id="polygon204"
     style="fill:#ffffff;stroke:#211915;stroke-width:0.10500741px;stroke-miterlimit:10"
     transform="matrix(1.3332842,0,0,1.3331941,0.02246528,-0.05709637)" />
  <polygon
     class="cls-6"
     points="106.68,10.97 104.48,8.78 104.48,10.97 106.68,13.16 "
     id="polygon206"
     style="fill:#ffc300;stroke:#211915;stroke-width:0.10500741px;stroke-miterlimit:10"
     transform="matrix(1.3332842,0,0,1.3331941,0.02246528,-0.05709637)" />
  <path
     d="m 130.05768,480.07945 h -11.73291 a 5.8664504,5.8660543 0 1 1 0,-11.71878 h 11.73291 a 5.8664504,5.8660543 0 1 1 0,11.71878 z"
     id="path208"
     inkscape:connector-curvature="0"
     style="stroke-width:1" />
  <path
     d="m 135.92412,474.2134 a 5.8664504,5.8660543 0 0 1 -5.86644,5.86605 h -11.73291 a 5.8664504,5.8660543 0 1 1 0,-11.71878 h 11.73291 a 5.8664504,5.8660543 0 0 1 5.86644,5.85273 z"
     id="path210"
     inkscape:connector-curvature="0"
     style="stroke-width:1" />
  <path
     d="M 32.901259,17.141105 H 21.168355 a 5.8664504,5.8660543 0 1 1 0,-11.7187754 h 11.732904 a 5.8664504,5.8660543 0 1 1 0,11.7187754 z"
     id="path212"
     inkscape:connector-curvature="0"
     style="stroke-width:1" />
  <path
     d="m 38.767705,11.275055 a 5.8664504,5.8660543 0 0 1 -5.866446,5.86605 H 21.168355 a 5.8664504,5.8660543 0 1 1 0,-11.7187754 h 11.732904 a 5.8664504,5.8660543 0 0 1 5.866446,5.8527254 z"
     id="path214"
     inkscape:connector-curvature="0"
     style="stroke-width:1" />
</svg>
