<?xml version="1.0" encoding="UTF-8" standalone="no"?>
<svg
   xmlns:dc="http://purl.org/dc/elements/1.1/"
   xmlns:cc="http://creativecommons.org/ns#"
   xmlns:rdf="http://www.w3.org/1999/02/22-rdf-syntax-ns#"
   xmlns:svg="http://www.w3.org/2000/svg"
   xmlns="http://www.w3.org/2000/svg"
   height="128.5mm"
   width="40mm"
   version="1.1"
   viewBox="0 0 151.18109 485.66925"
   data-name="Capa 1"
   id="Capa_1">
  <metadata
     id="metadata578">
    <rdf:RDF>
      <cc:Work
         rdf:about="">
        <dc:format>image/svg+xml</dc:format>
        <dc:type
           rdf:resource="http://purl.org/dc/dcmitype/StillImage" />
        <dc:title>ONA V3 Capas</dc:title>
      </cc:Work>
    </rdf:RDF>
  </metadata>
  <defs
     id="defs321">
    <style
       id="style314">.cls-1,.cls-7{fill:#040006;}.cls-2,.cls-5{fill:#fff;}.cls-3{fill:#ffc300;}.cls-4{fill:#a2a2a2;}.cls-5{stroke:#080409;stroke-width:0.02835px;}.cls-5,.cls-7{stroke-miterlimit:10;}.cls-6{fill:url(#Nueva_muestra_de_degradado_12);}.cls-7{stroke:#040006;stroke-width:0.70866px;}.cls-8{fill:#080409;}</style>
    <radialGradient
       gradientTransform="matrix(1.3333331,0,0,1.3331515,0.17628206,-0.00901602)"
       gradientUnits="userSpaceOnUse"
       r="9.7086"
       cy="192.20398"
       cx="56.798241"
       id="Nueva_muestra_de_degradado_12">
      <stop
         id="stop316"
         stop-color="#fff"
         offset="0" />
      <stop
         id="stop318"
         stop-color="#a9a8af"
         offset="1" />
    </radialGradient>
  </defs>
  <title
     id="title323">ONA V3 Capas</title>
  <rect
     style="fill:#040006;stroke-width:1.3332423"
     y="-0.0090116533"
     x="0.17628108"
     id="rect325"
     height="485.60309"
     width="151.18108"
     class="cls-1" />
  <rect
     style="fill:#040006;stroke-width:1.3332423"
     x="0.17628108"
     id="rect327"
     height="485.60309"
     width="151.18108"
     y="0.057192419"
     class="cls-1" />
  <rect
     style="fill:#ffffff;stroke-width:1.3332423"
     id="rect329"
     ry="5.8574681"
     rx="5.8582654"
     height="11.714936"
     width="23.454062"
     y="468.39954"
     x="112.61721"
     class="cls-2" />
  <rect
     style="fill:#ffffff;stroke-width:1.3332423"
     id="rect331"
     ry="5.8574681"
     rx="5.8582654"
     height="11.714936"
     width="23.454062"
     y="5.4705524"
     x="15.462371"
     class="cls-2" />
  <path
     style="fill:#ffffff;stroke-width:1.3332423"
     id="path333"
     d="m 132.43851,456.31008 c -4.7264,0 -4.7264,3.02319 -9.45287,3.02319 -4.72233,0 -4.72233,-3.02319 -9.44467,-3.02319 -4.72493,0 -4.72493,3.02319 -9.44986,3.02319 -4.723719,0 -4.723719,-3.02319 -9.44734,-3.02319 -4.723626,0 -4.723639,3.02319 -9.447265,3.02319 -4.723625,0 -4.723545,-3.02319 -9.447184,-3.02319 -4.721599,0 -4.721599,3.02319 -9.443198,3.02319 -4.724679,0 -4.724679,-3.02319 -9.449452,-3.02319 -4.723999,0 -4.723999,3.02319 -9.447918,3.02319 -4.723466,0 -4.723466,-3.02319 -9.446945,-3.02319 -4.723479,0 -4.723305,3.02319 -9.446665,3.02319 -4.724119,0 -4.724119,-3.02319 -9.448158,-3.02319 -4.723305,0 -4.723305,3.02319 -9.4466654,3.02319 -4.7219985,0 -4.7219985,-3.02319 -9.44399754,-3.02319 v 29.28401 H 151.35738 v -29.28401 c -4.72975,0 -4.72975,3.02319 -9.4594,3.02319 -4.72965,0 -4.72973,-3.02319 -9.45947,-3.02319 z"
     class="cls-2" />
  <path
     style="fill:#ffffff;stroke-width:1.3332423"
     id="path335"
     d="m 102.83307,15.672965 a 4.1890791,4.1885088 0 0 1 -1.64321,-1.553828 4.2319991,4.2314229 0 0 1 -0.59505,-2.225603 4.2304525,4.2298765 0 0 1 0.59505,-2.2256033 4.1844791,4.1839094 0 0 1 1.64321,-1.553828 5.1942123,5.1935051 0 0 1 4.70964,0 4.2836791,4.2830959 0 0 1 0,7.5588623 5.1995723,5.1988643 0 0 1 -4.70964,0 z m 3.70185,-1.434044 a 2.4540795,2.4537454 0 0 0 0.94267,-0.953644 3.0101994,3.0097895 0 0 0 0,-2.783473 2.4600928,2.4597579 0 0 0 -0.94267,-0.9543103 2.8124128,2.8120298 0 0 0 -2.6875,0 2.4567462,2.4564117 0 0 0 -0.9414,0.9543103 2.9999994,2.9995909 0 0 0 0,2.783473 2.4507462,2.4504125 0 0 0 0.9414,0.953644 2.8077061,2.8073238 0 0 0 2.6875,0 z"
     class="cls-2" />
  <path
     style="fill:#ffffff;stroke-width:1.3332423"
     id="path337"
     d="m 118.95547,7.6942397 v 8.3985483 h -1.59635 l -4.1888,-5.099558 v 5.099558 h -1.91928 V 7.6942397 h 1.60808 l 4.1758,5.0989183 V 7.6942397 Z"
     class="cls-2" />
  <path
     style="fill:#ffffff;stroke-width:1.3332423"
     id="path339"
     d="m 126.48025,14.292953 h -3.90108 l -0.74349,1.799835 h -1.99219 l 3.74349,-8.3985883 h 1.92057 l 3.75651,8.3985883 h -2.04036 z m -0.61334,-1.475718 -1.33066,-3.2157093 -1.332,3.2157093 z"
     class="cls-2" />
  <path
     style="fill:#ffc300;stroke-width:1.3332423"
     id="path341"
     d="M 33.205676,3.07723 H 21.171825 a 8.2519983,8.2508748 0 0 0 0,16.501656 h 12.033851 a 8.2519983,8.2508748 0 1 0 0,-16.501656 z M 33.058129,17.185972 H 21.320585 a 5.8582788,5.8574812 0 1 1 0,-11.7149493 h 11.737544 a 5.8582788,5.8574812 0 0 1 0,11.7149493 z"
     class="cls-3" />
  <path
     style="fill:#ffc300;stroke-width:1.3332423"
     id="path343"
     d="m 130.3605,465.99303 h -12.03385 a 8.2519983,8.2508748 0 0 0 0,16.50165 h 12.03385 a 8.2519983,8.2508748 0 1 0 0,-16.50165 z m -0.14755,14.10883 h -11.73754 a 5.8582788,5.8574812 0 1 1 0,-11.71495 h 11.73754 a 5.8582788,5.8574812 0 0 1 0,11.71495 z"
     class="cls-3" />
  <path
     style="fill:#ffffff;stroke-width:1.3332423"
     id="path345"
     d="m 14.059013,332.4325 a 0.78582651,0.78571951 0 0 0 0.6862,1.18082 h 2.088546 v 1.12875 H 14.745213 A 1.9056263,1.9053668 0 0 1 13.95876,334.5741 v 2.86939 h -1.128907 v -4.61657 a 1.9177063,1.9174452 0 0 1 1.91536,-1.9151 h 2.088546 v 1.13005 h -2.088546 a 0.78367984,0.78357314 0 0 0 -0.6862,0.39063 z"
     class="cls-2" />
  <path
     style="fill:#ffffff;stroke-width:1.3332423"
     id="path347"
     d="m 24.660571,332.86864 v 4.56708 h -1.1302 v -4.56708 a 0.8346665,0.83455285 0 0 0 -1.669333,0 v 4.56708 h -1.128906 v -4.56708 a 0.83529316,0.83517944 0 0 0 -1.670573,0 v 4.56708 h -1.128894 v -5.38993 h -0.539053 v -1.12875 h 0.5638 a 1.1053331,1.1051826 0 0 1 0.805987,0.34891 1.9587863,1.9585196 0 0 1 2.532559,0.22653 1.9639996,1.9637322 0 0 1 3.364573,1.37612 z"
     class="cls-2" />
  <path
     style="fill:#ffffff;stroke-width:1.3332423"
     id="path349"
     d="m 54.679445,333.07434 v 2.1872 a 2.1725329,2.1722371 0 0 1 -4.345052,0 v -2.1872 a 2.1725329,2.1722371 0 0 1 4.345052,0 z m -1.1302,0 a 1.0423198,1.0421779 0 1 0 -2.084639,0 v 2.1872 a 1.0423198,1.0421779 0 1 0 2.084639,0 z"
     class="cls-2" />
  <path
     style="fill:#ffffff;stroke-width:1.3332423"
     id="path351"
     d="m 58.542724,335.25894 h 1.128907 a 2.1718796,2.1715839 0 1 1 -4.343746,0 v -2.1885 a 2.1718796,2.1715839 0 1 1 4.343746,0 h -1.128907 a 1.0429731,1.0428311 0 1 0 -2.085933,0 v 2.1885 a 1.0429731,1.0428311 0 0 0 2.085933,0 z"
     class="cls-2" />
  <path
     style="fill:#ffffff;stroke-width:1.3332423"
     id="path353"
     d="m 64.004963,330.90145 v 1.13006 H 62.68075 v 5.40161 h -1.128906 v -5.40161 h -1.324213 v -1.13006 z"
     class="cls-2" />
  <path
     style="fill:#ffffff;stroke-width:1.3332423"
     id="path355"
     d="m 88.717198,335.6391 a 1.9148929,1.9146322 0 0 1 -1.984373,1.80443 1.9691996,1.9689315 0 0 1 -1.946666,-1.25243 l 1.07552,-0.40879 a 0.8278265,0.82771379 0 0 0 0.871093,0.51165 0.77357317,0.77346785 0 0 0 0.834666,-0.70564 c 0.0065,-0.14711 0.02735,-0.59628 -1.02084,-0.9556 -1.537759,-0.52728 -1.825519,-1.42949 -1.796866,-2.09347 a 1.9149063,1.9146456 0 0 1 1.984373,-1.80444 1.9712396,1.9709712 0 0 1 1.94792,1.25244 l -1.07552,0.40749 a 0.8291465,0.82903361 0 0 0 -0.8724,-0.51034 0.77357317,0.77346785 0 0 0 -0.834666,0.70563 c -0.0065,0.14712 -0.02604,0.59627 1.020839,0.95559 1.537813,0.52728 1.825573,1.4295 1.79692,2.09348 z"
     class="cls-2" />
  <path
     style="fill:#ffffff;stroke-width:1.3332423"
     id="path357"
     d="m 93.59093,330.90406 v 1.76799 a 2.0691729,2.0688912 0 0 1 -1.499999,1.98541 v 2.77829 h -1.128933 v -2.77829 a 2.0691596,2.0688779 0 0 1 -1.5,-1.98541 v -1.76799 h 1.128933 v 1.76799 a 0.93489314,0.93476585 0 0 0 1.869786,0 v -1.76669 z"
     class="cls-2" />
  <path
     style="fill:#ffffff;stroke-width:1.3332423"
     id="path359"
     d="m 98.833081,332.97799 v 4.45773 h -1.128898 v -4.45773 a 0.94478647,0.94465784 0 1 0 -1.889333,0 v 4.45773 h -1.128907 v -5.38993 h -0.540346 v -1.12875 h 0.565106 a 1.1041864,1.1040361 0 0 1 0.834667,0.38146 2.0729596,2.0726773 0 0 1 3.287741,1.67945 z"
     class="cls-2" />
  <path
     style="fill:#ffffff;stroke-width:1.3332423"
     id="path361"
     d="m 102.79402,335.25894 h 1.1289 a 2.1718796,2.1715839 0 1 1 -4.343739,0 v -2.1885 a 2.1718796,2.1715839 0 1 1 4.343739,0 h -1.1289 a 1.0429731,1.0428311 0 1 0 -2.08593,0 v 2.1885 a 1.0429731,1.0428311 0 0 0 2.08593,0 z"
     class="cls-2" />
  <path
     style="fill:#ffffff;stroke-width:1.3332423"
     id="path363"
     d="m 129.23281,330.90276 a 1.9153729,1.9151122 0 1 1 0,3.83021 h -0.78646 v 2.70015 h -1.1289 v -5.40161 h -0.49219 v -1.13006 h 2.40755 z m 0.78516,1.9138 a 0.78521317,0.78510626 0 0 0 -0.78516,-0.78505 h -0.78646 v 1.5714 h 0.78646 a 0.78547984,0.78537289 0 0 0 0.78516,-0.78635 z"
     class="cls-2" />
  <path
     style="fill:#ffffff;stroke-width:1.3332423"
     id="path365"
     d="m 138.4151,330.90536 v 4.571 a 1.9579463,1.9576797 0 0 1 -3.35416,1.37481 1.9582663,1.9579996 0 0 1 -3.35417,-1.37481 v -4.571 h 1.1289 v 4.571 a 0.83008,0.82996698 0 1 0 1.66016,0 v -4.571 h 1.1302 v 4.571 a 0.83008,0.82996698 0 1 0 1.66016,0 v -4.571 z"
     class="cls-2" />
  <path
     style="fill:#ffffff;stroke-width:1.3332423"
     id="path367"
     d="m 89.751051,380.48975 v 5.42636 h -1.1302 v -5.40292 h -0.540373 v -1.12875 h 0.56512 a 1.1086264,1.1084755 0 0 1 1.105453,1.10531 z"
     class="cls-2" />
  <path
     style="fill:#ffffff;stroke-width:1.3332423"
     id="path369"
     d="m 99.713291,384.78604 h 2.443989 v 1.12875 h -3.660139 v -0.56503 a 3.0365327,3.0361193 0 0 1 0.0495,-0.56372 3.339306,3.3388513 0 0 1 1.516929,-1.98151 c 0.97136,-0.76161 1.13542,-1.04412 1.13542,-1.50499 a 0.78649317,0.78638609 0 0 0 -1.572919,0 h -1.12891 a 1.9153729,1.9151122 0 1 1 3.830659,0 c 0,1.08057 -0.64973,1.67424 -1.56639,2.3929 a 3.1606794,3.160249 0 0 0 -1.048119,1.0936 z"
     class="cls-2" />
  <path
     style="fill:#ffffff;stroke-width:1.3332423"
     id="path371"
     d="m 72.626708,113.9981 v 2.81211 a 2.7916661,2.791286 0 1 1 -5.583332,0 v -2.81211 a 2.7916661,2.791286 0 0 1 5.583332,0 z m -1.451813,0 a 1.3405064,1.3403239 0 1 0 -2.681,0 v 2.81211 a 1.3405064,1.3403239 0 0 0 2.681,0 z"
     class="cls-2" />
  <path
     style="fill:#ffffff;stroke-width:1.3332423"
     id="path373"
     d="m 77.593507,116.8063 h 1.451826 a 2.7913461,2.790966 0 1 1 -5.582665,0 v -2.81211 a 2.7913461,2.790966 0 1 1 5.582665,0 h -1.451826 a 1.3395197,1.3393373 0 1 0 -2.679039,0 v 2.81211 a 1.3395197,1.3393373 0 1 0 2.679039,0 z"
     class="cls-2" />
  <path
     style="fill:#ffffff;stroke-width:1.3332423"
     id="path375"
     d="m 84.615639,111.20551 v 1.45162 h -1.70052 v 6.94439 h -1.451826 v -6.94439 H 79.76148 v -1.45162 z"
     class="cls-2" />
  <path
     style="fill:#ffc300;stroke-width:1.3332423"
     id="path377"
     d="M 132.42081,392.83194 H 19.112839 a 16.238931,16.23672 0 0 0 0,32.47344 H 132.42081 a 16.238931,16.23672 0 0 0 0,-32.47344 z"
     class="cls-3" />
  <path
     style="fill:#ffc300;stroke-width:1.3332423"
     id="path379"
     d="M 132.42031,376.65043 H 19.073985 a 16.711623,16.709348 0 0 1 0,-33.41862 H 132.42031 a 16.711585,16.70931 0 1 1 0,33.41862 z M 19.073985,344.17699 a 15.76633,15.764183 0 0 0 0,31.52826 H 132.42031 a 15.766277,15.76413 0 1 0 0,-31.52826 z"
     class="cls-3" />
  <path
     style="fill:#ffffff;stroke-width:1.3332423"
     id="path381"
     d="m 67.536269,220.22254 a 0.89717315,0.897051 0 0 0 0.783853,1.34747 h 2.38412 v 1.2889 h -2.384173 a 2.1502396,2.1499468 0 0 1 -0.897133,-0.1927 v 3.27689 h -1.289067 v -5.27011 a 2.1883462,2.1880483 0 0 1 2.1862,-2.1859 h 2.384119 v 1.28889 h -2.384119 a 0.89887982,0.89875743 0 0 0 -0.7838,0.44656 z"
     class="cls-2" />
  <path
     style="fill:#ffffff;stroke-width:1.3332423"
     id="path383"
     d="m 73.411214,219.79682 v 4.86392 h 0.559894 v 1.28889 h -2.407546 v -1.28889 h 0.558586 v -4.86392 h -0.558586 v -1.29019 h 0.558586 v -0.0133 h 1.289066 v 0.0133 h 0.559894 v 1.29019 z"
     class="cls-2" />
  <path
     style="fill:#ffffff;stroke-width:1.3332423"
     id="path385"
     d="m 79.963293,220.84486 v 5.09045 H 78.67424 v -5.09045 a 1.0782664,1.0781196 0 1 0 -2.156253,0 v 5.09045 h -1.289066 v -6.15411 h -0.61588 v -1.28887 h 0.644533 a 1.2573331,1.2571619 0 0 1 0.951813,0.43483 2.3666662,2.366344 0 0 1 3.753906,1.9177 z"
     class="cls-2" />
  <path
     style="fill:#ffffff;stroke-width:1.3332423"
     id="path387"
     d="m 82.110439,220.673 a 0.89634648,0.89622444 0 0 0 0.897134,0.89701 h 2.384106 v 1.29019 h -2.384106 a 2.1717596,2.1714639 0 0 1 -0.897134,-0.19399 v 1.091 a 0.89801315,0.89789088 0 0 0 0.897134,0.89702 h 2.384106 v 1.28888 h -2.384106 a 2.1883329,2.1880349 0 0 1 -2.1862,-2.1859 V 220.673 a 2.1883462,2.1880483 0 0 1 2.1862,-2.1859 h 2.384106 v 1.28889 h -2.384106 a 0.89717315,0.897051 0 0 0 -0.897134,0.89701 z"
     class="cls-2" />
  <path
     style="fill:#ffffff;stroke-width:1.3332423"
     id="path389"
     d="m 91.476264,205.2005 0.05333,-0.0404 c 0.666667,-0.53315 1.305987,-1.10663 1.906253,-1.67947 l 0.04036,-0.0533 0.05333,0.0397 1.826986,1.85324 -0.05333,0.0533 a 26.230928,26.227357 0 0 1 -2.080733,1.8396 z m -33.413326,1.81291 -0.0664,-0.0533 c -0.72,-0.59952 -1.413413,-1.2264 -2.08008,-1.89297 l -0.04037,-0.0397 1.893239,-1.87996 0.05333,0.0533 c 0.600253,0.59953 1.226559,1.17301 1.866533,1.70615 l 0.06705,0.0533 z m 37.039712,-5.34561 0.04036,-0.0533 a 24.375902,24.372583 0 0 0 1.532546,-2.02639 l 0.04037,-0.0533 0.0664,0.0267 2.147135,1.45292 -0.0404,0.0664 a 25.925328,25.921798 0 0 1 -1.679695,2.22691 z m -40.999992,1.38587 -0.03972,-0.0664 a 26.526861,26.52325 0 0 1 -1.653639,-2.26661 l -0.01307,-0.0795 0.02667,-0.0137 2.173173,-1.42623 0.04037,0.0533 a 25.217075,25.213641 0 0 0 1.49284,2.05305 l 0.04036,0.0533 -0.04036,0.0527 z m 46.187482,-4.27941 -0.0533,-0.0533 -2.279998,-1.23942 0.03907,-0.0533 c 0.386669,-0.73297 0.760409,-1.5063 1.093749,-2.2933 l 0.0794,-0.0533 v 0.0137 l 2.414059,0.99987 -0.0404,0.0533 a 23.458142,23.454948 0 0 1 -1.21353,2.54653 z m -49.267561,-0.38662 -0.03972,-0.093 a 27.591754,27.587998 0 0 1 -1.160146,-2.54652 l -0.02667,-0.0527 2.480466,-0.98685 0.02667,0.0533 a 23.090062,23.086918 0 0 0 1.026666,2.25295 v 0 l 0.05273,0.11985 -0.05273,0.0404 z m 51.440731,-4.7858 -2.546859,-0.77333 0.0131,-0.0664 a 22.858969,22.855856 0 0 0 0.613329,-2.46647 l 0.0807,-0.0664 2.55989,0.50644 -0.0143,0.0664 c -0.1862,0.91979 -0.41276,1.84024 -0.67968,2.73335 z m -53.520157,-0.41336 -0.02667,-0.0801 c -0.253253,-0.90613 -0.4668,-1.82592 -0.62696,-2.74572 l -0.01307,-0.067 2.626292,-0.45306 0.01368,0.0533 c 0.14648,0.83973 0.333334,1.65278 0.546227,2.41309 h 0.02667 l -0.03972,0.15948 z m 54.612607,-5.07938 -2.66666,-0.23956 0.0143,-0.067 c 0.0664,-0.79938 0.10547,-1.5994 0.10547,-2.35968 l 0.0677,-0.26625 2.59894,-0.0137 v 0.27996 q 0,1.3006 -0.11979,2.5999 z m -55.612634,-0.42638 v -0.0931 c -0.06707,-0.70693 -0.09375,-1.42688 -0.09375,-2.14684 0,-0.21286 0.01367,-0.42638 0.01367,-0.63991 v -0.0664 l 0.0664,-0.0137 2.600267,0.067 v 0.0664 c 0,0.18682 -0.01367,0.38662 -0.01367,0.58651 0,0.65355 0.02667,1.30649 0.08007,1.9464 l -0.0664,0.0937 z m 52.932924,-4.87954 -0.0131,-0.0664 a 24.005142,24.001873 0 0 0 -0.38667,-2.50616 l -0.0131,-0.0671 0.0533,-0.0267 2.54557,-0.53312 0.0143,0.067 a 24.972715,24.969315 0 0 1 0.44009,2.78608 h -0.0533 v 0.0664 z m -50.160138,-0.39974 h -0.07943 l -2.58724,-0.32027 0.01367,-0.0664 c 0.1198,-0.93346 0.266933,-1.83959 0.4668,-2.706 l 0.14648,-0.12039 v 0.0137 l 2.479826,0.55981 -0.01307,0.0664 a 22.414662,22.41161 0 0 0 -0.42708,2.50682 z m 49.134099,-4.55928 -0.0143,-0.0533 q -0.39844,-1.24007 -0.87891,-2.35968 l 2.399749,-1.15999 0.0664,0.16013 v 0 a 26.934168,26.930501 0 0 1 0.94666,2.54653 l 0.026,0.0664 z m -48.054019,-0.37364 -2.519533,-0.83974 0.01307,-0.0664 a 26.855821,26.852165 0 0 1 1.040373,-2.62659 l 0.02604,-0.0664 2.42708,1.10662 -0.02667,0.0664 a 24.814555,24.811176 0 0 0 -0.933586,2.35967 z m 46.054017,-4.2657 -0.02733,-0.0671 c -0.41276,-0.71991 -0.865893,-1.45294 -1.359386,-2.1462 l -0.02733,-0.0533 0.04036,-0.0533 2.132808,-1.49329 0.0404,0.0533 a 26.486995,26.483388 0 0 1 1.493499,2.40006 l 0.0404,0.0533 z m -43.986964,-0.34695 -2.293626,-1.33315 0.01368,-0.0133 h -0.01368 l 0.02667,-0.13345 0.04037,0.0133 c 0.466147,-0.78635 0.973333,-1.55968 1.506506,-2.29266 l 0.119787,-0.16012 v 0.17314 l 2.067066,1.49329 -0.04037,0.0533 c -0.49348,0.70694 -0.959627,1.42625 -1.37304,2.13318 z m 41.106765,-3.81261 -0.05333,-0.0533 c -0.559893,-0.6529 -1.147133,-1.26675 -1.7474,-1.83959 l -0.02604,-0.0136 v -0.0133 l -0.02735,-0.0136 1.826827,-1.9464 0.106773,0.0937 v 0 c 0.666667,0.63992 1.29296,1.30649 1.893226,1.99973 l 0.04036,0.0533 z m -38.080072,-0.27996 -0.05333,-0.0267 v 0 l -0.06705,-0.0267 -1.932946,-1.73283 0.02667,-0.0404 v -0.0931 l 0.0664,0.0397 a 24.447088,24.44376 0 0 1 1.919933,-1.97307 l 0.05333,-0.0397 1.800133,1.95937 -0.03971,0.0404 a 24.194542,24.191248 0 0 0 -1.746746,1.7732 h 0.01307 l -0.03971,0.0267 z m 34.413406,-3.22612 -0.05333,-0.0404 c -0.653653,-0.50645 -1.333333,-0.9732 -2.027346,-1.41322 v 0 l -0.106774,-0.0664 v -0.0267 l 1.40104,-2.23992 0.265627,0.14711 h -0.01307 c 0.733066,0.46673 1.440093,0.9732 2.119786,1.5063 l -0.01307,0.11972 z m -30.707034,-0.27997 -0.05333,-0.0404 -0.03971,0.0404 -1.573573,-2.07979 0.06707,-0.0533 c 0.733067,-0.55982 1.519533,-1.07993 2.319653,-1.57334 l 0.06641,-0.0267 1.373693,2.27969 -0.05333,0.0267 c -0.70648,0.42704 -1.41352,0.90675 -2.10688,1.4269 z m 26.427088,-2.41308 -0.05333,-0.0267 a 21.387569,21.384657 0 0 0 -2.333333,-1.01353 l -0.06641,-0.0397 0.932293,-2.49314 0.06771,0.0267 c 0.878906,0.33329 1.746093,0.70695 2.585946,1.11965 l 0.05333,0.0404 z m -22.160155,-0.17315 -0.04036,-0.0671 -1.1198,-2.35968 0.08008,-0.0133 a 25.311781,25.308335 0 0 1 2.586586,-1.07993 l 0.06641,-0.0267 0.893879,2.50616 -0.05333,0.0267 c -0.826826,0.29359 -1.613333,0.62688 -2.347013,0.97321 z m 17.440103,-1.62663 -0.06641,-0.0133 q -1.240213,-0.31996 -2.480466,-0.5198 l -0.0664,-0.0136 -0.01433,-0.0664 0.414067,-2.57321 0.132813,0.0267 a 26.157981,26.15442 0 0 1 2.694013,0.57348 l 0.0664,0.0133 z m -12.639997,-0.10679 -0.06707,-0.0533 -0.626293,-2.51919 0.0664,-0.0137 a 25.449421,25.445956 0 0 1 2.773439,-0.5468 h 0.0664 l 0.373707,2.63964 h -0.06705 c -0.839853,0.12039 -1.666666,0.27997 -2.493492,0.4804 z m 7.639998,-0.69324 -0.06707,-0.0133 c -0.800119,-0.0404 -1.599599,-0.0404 -2.466786,-0.0136 v 0 l -0.159506,-0.0664 -0.106774,-2.5999 h 0.08008 a 27.895101,27.891303 0 0 1 2.813146,0.0267 h 0.06641 z"
     class="cls-2" />
  <polygon
     transform="matrix(1.3333331,0,0,1.3331515,0.17628206,-0.00901602)"
     style="fill:#ffc300"
     id="polygon391"
     points="54.176,361.237 58.547,361.237 56.469,359.159 52.096,359.159 "
     class="cls-3" />
  <polygon
     transform="matrix(1.3333331,0,0,1.3331515,0.17628206,-0.00901602)"
     style="fill:#ffc300"
     id="polygon393"
     points="57.781,359.159 59.859,361.237 64.229,361.237 62.151,359.159 "
     class="cls-3" />
  <path
     style="fill:#ffc300;stroke-width:1.3332423"
     id="path395"
     d="m 83.918412,477.92972 2.771706,2.77141 v -9.97767 a 5.8830388,5.8822378 0 0 0 -1.723159,-4.15943 l -1.442813,-1.44275 a 6.458412,6.4575327 0 0 1 0.394266,2.20791 z"
     class="cls-3" />
  <path
     style="fill:#ffc300;stroke-width:1.3332423"
     id="path397"
     d="m 81.40796,463.90638 a 5.2546656,5.2539502 0 0 0 -3.993786,-1.84096 h -3.38252 a 5.2737189,5.2730009 0 0 0 -5.267719,5.26372 v 10.2382 h 6.342199 v -9.31006 a 0.61834654,0.61826235 0 0 1 1.23668,0 v 9.31006 h 6.338932 v -10.2382 a 5.2354923,5.2347794 0 0 0 -1.273786,-3.42276 z"
     class="cls-3" />
  <path
     style="fill:#a2a2a2;stroke-width:1.3332423"
     id="path399"
     d="m 130.21091,480.11627 h -11.73332 a 5.8599988,5.859201 0 1 1 0,-11.7184 h 11.73332 a 5.8599988,5.859201 0 1 1 0,11.7184 z"
     class="cls-4" />
  <path
     style="fill:#040006;stroke-width:1.3332423"
     id="path401"
     d="m 136.07746,474.25038 a 5.8667988,5.866 0 0 1 -5.86667,5.86587 h -11.73332 a 5.8599988,5.859201 0 1 1 0,-11.7184 h 11.73332 a 5.8639988,5.8632004 0 0 1 5.86667,5.85253 z"
     class="cls-1" />
  <path
     style="fill:#a2a2a2;stroke-width:1.3332423"
     id="path403"
     d="M 33.056103,17.187305 H 21.322705 a 5.8599988,5.859201 0 1 1 0,-11.7184023 h 11.733398 a 5.8599988,5.859201 0 1 1 0,11.7184023 z"
     class="cls-4" />
  <path
     style="fill:#040006;stroke-width:1.3332423"
     id="path405"
     d="m 38.922715,11.321345 a 5.8668121,5.8660134 0 0 1 -5.866666,5.865867 H 21.322705 a 5.8599988,5.859201 0 1 1 0,-11.7184023 h 11.733398 a 5.8639988,5.8632004 0 0 1 5.866612,5.8525353 z"
     class="cls-1" />
  <path
     style="fill:#ffffff;stroke:#080409;stroke-width:0.03779742px;stroke-miterlimit:10"
     id="path407"
     d="m 52.861779,436.1513 a 0.63635987,0.63627323 0 0 1 -0.464694,-1.07272 l 4.008213,-4.26591 a 0.63590654,0.63581996 0 0 1 0.464707,-0.20084 v 0 a 0.63587987,0.63579329 0 0 1 0.464693,0.20084 l 4.006372,4.26591 a 0.6372132,0.63712645 0 1 1 -0.929333,0.87188 l -3.541679,-3.77166 -3.543533,3.77166 a 0.63635987,0.63627323 0 0 1 -0.464746,0.20084 z"
     class="cls-5" />
  <path
     style="fill:#ffffff;stroke:#080409;stroke-width:0.03779742px;stroke-miterlimit:10"
     id="path409"
     d="m 91.152824,437.13879 a 0.6372132,0.63712645 0 0 1 -0.40176,-1.13103 l 6.203999,-5.03132 a 0.63702654,0.6369398 0 0 1 1.038666,0.49426 v 5.03131 a 0.63687987,0.63679316 0 1 1 -1.273746,0 v -3.69483 l -5.165332,4.18908 a 0.63534654,0.63526003 0 0 1 -0.401827,0.14253 z"
     class="cls-5" />
  <path
     style="fill:#ffffff;stroke:#080409;stroke-width:0.03779742px;stroke-miterlimit:10"
     id="path411"
     d="m 23.052744,436.62055 c -1.418159,0 -2.034666,-1.4559 -2.578959,-2.74058 -0.40916,-0.96628 -0.831266,-1.96496 -1.407053,-1.96496 -0.572067,0 -0.996,0.99868 -1.403333,1.96404 -0.544307,1.28468 -1.159,2.7415 -2.57712,2.7415 a 0.63687987,0.63679316 0 0 1 0,-1.27357 c 0.57208,0 0.996,-0.99868 1.403347,-1.96404 0.544306,-1.28468 1.15896,-2.7415 2.577106,-2.7415 1.42,0 2.03652,1.45682 2.580813,2.74242 0.40916,0.96444 0.831266,1.96312 1.405199,1.96312 a 0.63687987,0.63679316 0 0 1 0,1.27357 z"
     class="cls-5" />
  <path
     style="fill:#ffffff;stroke:#080409;stroke-width:0.03779742px;stroke-miterlimit:10"
     id="path413"
     d="m 136.23758,437.1721 h -2.9932 a 0.63682654,0.63673983 0 0 1 -0.63687,-0.63677 v -4.46029 h -2.79048 v 4.46029 a 0.63687987,0.63679316 0 0 1 -1.27374,0 v -5.09707 a 0.63683987,0.63675316 0 0 1 0.63686,-0.63679 h 4.06424 a 0.6368532,0.63676649 0 0 1 0.63688,0.63679 v 4.46027 h 2.35631 a 0.63687987,0.63679316 0 1 1 0,1.27357 z"
     class="cls-5" />
  <path
     style="fill:#ffffff;stroke-width:1.3332423"
     id="path415"
     d="m 128.76537,380.48975 v 5.42636 h -1.13022 v -5.40292 h -0.54036 v -1.12875 h 0.56511 a 1.1086398,1.1084888 0 0 1 1.10547,1.10531 z"
     class="cls-2" />
  <path
     style="fill:#ffffff;stroke-width:1.3332423"
     id="path417"
     d="m 140.10261,379.38443 v 6.53166 h -1.12891 v -2.86935 a 1.9151063,1.9148455 0 0 1 -2.70183,-1.74715 v -1.91511 h 1.12891 v 1.91511 a 0.78646651,0.78635943 0 0 0 1.57292,0 v -1.91511 z"
     class="cls-2" />
  <path
     style="fill:#ffffff;stroke-width:1.3332423"
     id="path419"
     d="m 119.47892,272.82084 a 1.9153729,1.9151122 0 1 1 0,3.83021 h -0.78515 v 2.70015 h -1.13021 v -5.40158 h -0.49088 v -1.13006 h 2.40624 z m 0.78646,1.9138 a 0.78549317,0.78538623 0 0 0 -0.78646,-0.78505 h -0.78515 v 1.5714 h 0.78515 a 0.78575984,0.78565286 0 0 0 0.78645,-0.78635 z"
     class="cls-2" />
  <path
     style="fill:#ffffff;stroke-width:1.3332423"
     id="path421"
     d="m 128.66379,272.82344 v 4.57104 a 1.9589996,1.9587329 0 0 1 -3.35546,1.37481 1.9582529,1.9579863 0 0 1 -3.35416,-1.37481 v -4.57099 h 1.12891 v 4.57099 a 0.8307265,0.83061339 0 1 0 1.66145,0 v -4.57099 h 1.1289 v 4.57099 a 0.83008,0.82996698 0 1 0 1.66016,0 v -4.57099 z"
     class="cls-2" />
  <path
     style="fill:#ffc300;stroke-width:1.3332423"
     id="path423"
     d="m 138.94505,136.64084 -3.55734,1.62412 -0.40233,-0.87943 3.55859,-1.62413 a 0.71553657,0.71543915 0 0 0 -0.59375,-1.30191 l -3.55867,1.62478 -0.40233,-0.88008 3.55989,-1.62414 a 0.71469903,0.71460172 0 0 0 -0.59114,-1.30125 l -3.5612,1.62413 -0.40235,-0.87944 4.20313,-1.91641 -0.19272,-0.4218 0.87891,-0.40099 0.19923,0.44003 a 0.94254647,0.94241814 0 0 1 0.0156,0.75121 1.6818397,1.6816107 0 0 1 0.72525,2.05505 1.6816663,1.6814374 0 0 1 0.12107,3.11024 z"
     class="cls-3" />
  <path
     style="fill:#ffc300;stroke-width:1.3332423"
     id="path425"
     d="m 139.08437,141.53861 -1.86979,0.12238 a 1.8620574,1.8618038 0 0 1 -0.24349,-3.71564 l 1.87109,-0.12171 a 1.861693,1.8614395 0 1 1 0.24219,3.71498 z m -0.0612,-0.96667 a 0.89319982,0.89307821 0 0 0 -0.1172,-1.7823 l -1.8711,0.12238 a 0.89319982,0.89307821 0 1 0 0.1172,1.7823 z"
     class="cls-3" />
  <path
     style="fill:#ffc300;stroke-width:1.3332423"
     id="path427"
     d="m 138.27318,146.12392 -1.96355,-0.42768 a 1.7948396,1.7945953 0 0 1 -1.37109,-2.13121 l 0.37891,-1.74391 4.52213,0.98294 0.0899,-0.41139 0.94399,0.20503 -0.46743,2.15531 a 1.7946663,1.794422 0 0 1 -2.1328,1.37091 z m 0.20703,-0.94583 a 0.82443983,0.82432758 0 0 0 0.98046,-0.63143 l 0.17318,-0.79677 -3.57552,-0.77788 -0.17318,0.79807 a 0.82555983,0.82544743 0 0 0 0.63022,0.98164 z"
     class="cls-3" />
  <path
     style="fill:#ffc300;stroke-width:1.3332423"
     id="path429"
     d="m 137.59349,147.95765 a 0.67342653,0.67333484 0 0 0 -0.91146,0.27537 l -0.84636,1.57725 -0.85286,-0.45762 0.84636,-1.57727 a 1.673213,1.6729852 0 0 1 0.44666,-0.52659 l -0.72133,-0.38661 a 0.67502653,0.67493462 0 0 0 -0.91145,0.27536 l -0.84766,1.57856 -0.85286,-0.45762 0.84505,-1.57921 a 1.6457063,1.6454823 0 0 1 2.224,-0.66983 l 2.04036,1.09554 a 1.6424663,1.6422427 0 0 1 0.67057,2.22237 l -0.84636,1.57725 -0.85156,-0.45762 0.84376,-1.57726 a 0.67199986,0.67190837 0 0 0 -0.27486,-0.91207 z"
     class="cls-3" />
  <path
     style="fill:#ffffff;stroke-width:1.3332423"
     id="path431"
     d="m 120.64037,114.34505 -1.77866,5.59234 h -1.01563 l -1.78,-5.59234 h 1.01563 l 1.27213,3.99812 1.27213,-3.99812 z"
     class="cls-2" />
  <path
     style="fill:#ffffff;stroke-width:1.3332423"
     id="path433"
     d="m 123.79532,118.07306 h 0.96614 a 1.8593863,1.8591331 0 1 1 -3.71876,0 v -1.87345 a 1.8593863,1.8591331 0 0 1 3.71876,0 h -0.96614 a 0.89323982,0.8931182 0 0 0 -1.78647,0 v 1.87345 a 0.89323982,0.8931182 0 0 0 1.78647,0 z"
     class="cls-2" />
  <path
     style="fill:#ffffff;stroke-width:1.3332423"
     id="path435"
     d="m 129.0427,116.20288 v 1.87278 a 1.86,1.8597468 0 1 1 -3.72,0 v -1.87278 a 1.86,1.8597468 0 1 1 3.72,0 z m -0.96744,0 a 0.89258648,0.89246496 0 1 0 -1.78516,0 v 1.87278 a 0.89258648,0.89246496 0 1 0 1.78516,0 z"
     class="cls-2" />
  <path
     style="fill:#ffffff;stroke-width:1.3332423"
     id="path437"
     d="m 120.11693,167.27988 v 0.96667 h -3.23308 v -5.59233 H 117.85 v 4.62566 z"
     class="cls-2" />
  <path
     style="fill:#ffffff;stroke-width:1.3332423"
     id="path439"
     d="m 121.80833,163.95157 a 0.67286653,0.67277492 0 0 0 0.58724,1.01092 h 1.78907 v 0.96667 h -1.78907 a 1.6257197,1.6254983 0 0 1 -0.67317,-0.14451 v 2.45734 h -0.96615 v -3.95258 a 1.6421063,1.6418828 0 0 1 1.63932,-1.63977 h 1.78907 v 0.96666 h -1.78907 a 0.6709332,0.67084185 0 0 0 -0.58724,0.33527 z"
     class="cls-2" />
  <path
     style="fill:#ffffff;stroke-width:1.3332423"
     id="path441"
     d="m 128.46718,164.50097 v 1.8728 a 1.86,1.8597468 0 1 1 -3.72,0 v -1.8728 a 1.86,1.8597468 0 1 1 3.72,0 z m -0.96745,0 a 0.892575,0.89245348 0 1 0 -1.78515,0 v 1.8728 a 0.892575,0.89245348 0 1 0 1.78515,0 z"
     class="cls-2" />
  <path
     style="fill:#ffc300;stroke-width:1.3332423"
     id="path443"
     d="m 122.63646,159.10913 a 0.62335987,0.623275 0 0 1 -0.6237,-0.62362 v -4.05347 a 0.62370654,0.62362162 0 1 1 1.2474,0 v 4.05347 a 0.62334654,0.62326167 0 0 1 -0.6237,0.62362 z"
     class="cls-3" />
  <path
     style="fill:#ffc300;stroke-width:1.3332423"
     id="path445"
     d="m 122.63646,127.70456 a 0.62337321,0.62328833 0 0 1 -0.6237,-0.62362 v -4.05278 a 0.62370654,0.62362162 0 1 1 1.2474,0 v 4.05278 a 0.62335987,0.623275 0 0 1 -0.6237,0.62362 z"
     class="cls-3" />
  <path
     style="fill:#ffc300;stroke-width:1.3332423"
     id="path447"
     d="m 131.33698,130.8278 a 0.62133321,0.62124861 0 0 1 -0.39713,-0.14255 13.052957,13.05118 0 0 0 -16.60417,-0.001 0.62385347,0.62376853 0 1 1 -0.79427,-0.96211 14.30169,14.299743 0 0 1 18.1927,0.001 0.62342654,0.62334166 0 0 1 -0.39713,1.10466 z"
     class="cls-3" />
  <path
     style="fill:#ffc300;stroke-width:1.3332423"
     id="path449"
     d="m 122.63646,155.05565 a 14.32225,14.3203 0 0 1 -9.09635,-3.26519 0.62385321,0.62376827 0 1 1 0.79426,-0.96211 13.054664,13.052887 0 0 0 16.88412,-0.23628 0.62383987,0.62375494 0 1 1 0.8203,0.93996 14.29449,14.292544 0 0 1 -9.40233,3.52362 z"
     class="cls-3" />
  <path
     style="fill:#ffffff;stroke-width:1.3332423"
     id="path451"
     d="m 27.044037,119.08464 v 0.96666 h -3.233093 v -5.59233 h 0.966147 v 4.62567 z"
     class="cls-2" />
  <path
     style="fill:#ffffff;stroke-width:1.3332423"
     id="path453"
     d="m 29.068783,115.4367 v 3.64794 h 0.419267 v 0.96666 h -1.804693 v -0.96666 h 0.41928 v -3.64794 h -0.41928 v -0.96667 h 0.41928 v -0.0107 h 0.966146 v 0.0107 h 0.419267 v 0.96667 z"
     class="cls-2" />
  <path
     style="fill:#ffffff;stroke-width:1.3332423"
     id="path455"
     d="m 33.984143,116.2237 v 3.81653 h -0.967454 v -3.81653 a 0.80869317,0.80858306 0 1 0 -1.617186,0 v 3.81653 h -0.966146 v -4.61459 h -0.46224 v -0.96733 h 0.48308 a 0.94447981,0.94435121 0 0 1 0.714839,0.32679 1.7743996,1.774158 0 0 1 2.815107,1.4386 z"
     class="cls-2" />
  <path
     style="fill:#ffffff;stroke-width:1.3332423"
     id="path457"
     d="m 24.049251,164.16443 a 0.67363986,0.67354814 0 0 0 0.673173,0.67308 h 1.789066 v 0.96667 h -1.789066 a 1.6257197,1.6254983 0 0 1 -0.673173,-0.14451 v 0.81759 a 0.67490653,0.67481464 0 0 0 0.673173,0.6731 h 1.789066 v 0.96665 h -1.789066 a 1.6408263,1.6406029 0 0 1 -1.63932,-1.63978 v -2.31283 a 1.641333,1.6411095 0 0 1 1.63932,-1.63977 h 1.789066 v 0.96666 h -1.789066 a 0.67363986,0.67354814 0 0 0 -0.673173,0.67314 z"
     class="cls-2" />
  <path
     style="fill:#ffffff;stroke-width:1.3332423"
     id="path459"
     d="m 30.133877,165.31402 a 1.7556396,1.7554006 0 0 1 0.553333,1.28302 v 1.51346 h -0.966147 v -1.51346 a 0.80015984,0.80005089 0 0 0 -1.600253,0 v 1.51346 h -0.966146 v -1.51346 a 1.7556396,1.7554006 0 0 1 0.553333,-1.28302 1.7546663,1.7544274 0 0 1 -0.553333,-1.28304 v -1.51283 h 0.966146 v 1.5128 a 0.80015984,0.80005089 0 1 0 1.600253,0 v -1.5128 h 0.966147 v 1.5128 a 1.7546663,1.7544274 0 0 1 -0.553333,1.28307 z"
     class="cls-2" />
  <path
     style="fill:#ffffff;stroke-width:1.3332423"
     id="path461"
     d="m 34.870862,164.15596 a 1.6402797,1.6400563 0 0 1 -1.640626,1.63978 h -0.673173 v 2.31285 h -0.96612 v -4.62568 H 31.17037 v -0.96667 h 2.059893 a 1.6402797,1.6400563 0 0 1 1.640599,1.63972 z m -0.967453,0 a 0.67279986,0.67270826 0 0 0 -0.673173,-0.67308 h -0.673173 v 1.34618 h 0.673173 a 0.6728132,0.67272159 0 0 0 0.673173,-0.6731 z"
     class="cls-2" />
  <path
     style="fill:#ffc300;stroke-width:1.3332423"
     id="path463"
     d="m 28.90081,159.03101 a 0.62375987,0.62367495 0 0 1 -0.623693,-0.62361 v -4.03461 a 0.62369321,0.62360829 0 1 1 1.247386,0 v 4.03461 a 0.62375987,0.62367495 0 0 1 -0.623693,0.62361 z"
     class="cls-3" />
  <path
     style="fill:#ffc300;stroke-width:1.3332423"
     id="path465"
     d="m 12.842213,145.40461 a 0.67302653,0.6729349 0 0 0 0.842453,-0.81108 l -0.42572,-1.7367 0.940107,-0.23044 0.425787,1.73739 a 1.6295063,1.6292845 0 0 1 0.01823,0.68676 l 2.387999,-0.58392 0.230467,0.93998 -3.839853,0.93933 a 1.640413,1.6401897 0 0 1 -1.98176,-1.20167 l -0.425786,-1.73673 0.9388,-0.23045 0.425786,1.7374 a 0.6695332,0.66944204 0 0 0 0.463493,0.49013 z"
     class="cls-3" />
  <path
     style="fill:#ffc300;stroke-width:1.3332423"
     id="path467"
     d="m 13.04144,135.80242 3.887999,0.46087 -0.113333,0.96145 -3.889333,-0.46087 a 0.71531112,0.71521373 0 1 0 -0.169266,1.42038 l 3.889332,0.46218 -0.114587,0.96146 -3.887999,-0.46218 a 0.71599985,0.71590237 0 0 0 -0.169333,1.42168 l 3.889332,0.46087 -0.113333,0.96015 -4.588532,-0.54484 -0.05467,0.45958 -0.960934,-0.11386 0.056,-0.47974 a 0.93815981,0.93803208 0 0 1 0.378907,-0.64901 1.681773,1.681544 0 0 1 0.449227,-2.13447 1.682133,1.681904 0 0 1 1.510413,-2.72363 z"
     class="cls-3" />
  <path
     style="fill:#ffc300;stroke-width:1.3332423"
     id="path469"
     d="m 28.90081,127.77421 a 0.62375987,0.62367495 0 0 1 -0.623693,-0.62361 v -4.03396 a 0.62369321,0.62360829 0 1 1 1.247386,0 v 4.03396 a 0.62375987,0.62367495 0 0 1 -0.623693,0.62361 z"
     class="cls-3" />
  <path
     style="fill:#ffc300;stroke-width:1.3332423"
     id="path471"
     d="m 17.805759,133.49609 a 0.62371987,0.62363495 0 0 1 -0.50716,-0.98554 14.238517,14.236578 0 0 1 20.658196,-2.73271 0.62385321,0.62376827 0 0 1 -0.794266,0.96211 12.990757,12.988989 0 0 0 -18.848304,2.49446 0.62281321,0.62272841 0 0 1 -0.508466,0.26168 z"
     class="cls-3" />
  <path
     style="fill:#ffc300;stroke-width:1.3332423"
     id="path473"
     d="m 28.90081,154.99641 a 14.203757,14.201823 0 0 1 -11.930331,-6.46397 0.6236991,0.62361418 0 1 1 1.044266,-0.68219 12.992237,12.990468 0 0 0 19.148437,2.93319 0.62385321,0.62376827 0 0 1 0.794266,0.96211 14.25641,14.254469 0 0 1 -9.056638,3.25086 z"
     class="cls-3" />
  <path
     style="fill:#ffffff;stroke-width:1.3332423"
     id="path475"
     d="m 23.834398,274.35058 a 0.78583984,0.78573285 0 0 0 0.686199,1.18082 h 2.088547 v 1.12875 h -2.088547 a 1.9004796,1.9002209 0 0 1 -0.785799,-0.16797 v 2.86941 h -1.12956 v -4.61656 a 1.9177329,1.9174718 0 0 1 1.915359,-1.91511 h 2.088547 v 1.13006 h -2.088547 a 0.78367984,0.78357314 0 0 0 -0.686199,0.3906 z"
     class="cls-2" />
  <path
     style="fill:#ffffff;stroke-width:1.3332423"
     id="path477"
     d="m 34.435969,274.78672 v 4.56708 h -1.128906 v -4.56708 a 0.83496,0.83484632 0 0 0 -1.66992,0 v 4.56708 h -1.12956 v -4.56708 a 0.8346665,0.83455285 0 0 0 -1.669333,0 v 4.56708 h -1.129547 v -5.38993 h -0.539719 v -1.12877 h 0.564453 a 1.1028264,1.1026763 0 0 1 0.805333,0.34892 1.9604796,1.9602127 0 0 1 2.533866,0.22652 1.9630263,1.962759 0 0 1 3.36328,1.37612 z"
     class="cls-2" />
  <path
     style="fill:#ffc300;stroke-width:1.3332423"
     id="path479"
     d="m 28.904063,183.42612 a 2.8349594,2.8345734 0 1 0 2.834667,2.83428 2.8376928,2.8373064 0 0 0 -2.834667,-2.83428 z"
     class="cls-3" />
  <path
     style="fill:#ffc300;stroke-width:1.3332423"
     id="path481"
     d="m 122.55052,183.42612 a 2.8349594,2.8345734 0 1 0 2.83466,2.83428 2.8369994,2.8366132 0 0 0 -2.83466,-2.83428 z"
     class="cls-3" />
  <path
     style="fill:#ffc300;stroke-width:1.3332423"
     id="path483"
     d="m 48.75562,220.93859 a 0.62266654,0.62258176 0 0 1 -0.35612,-0.11198 47.869724,47.863206 0 0 1 -20.233717,-34.00968 0.62419987,0.62411489 0 0 1 1.24088,-0.1367 46.621097,46.61475 0 0 0 19.706383,33.12308 0.62373321,0.62364828 0 0 1 -0.357426,1.13527 z"
     class="cls-3" />
  <path
     style="fill:#ffc300;stroke-width:1.3332423"
     id="path485"
     d="m 102.7771,220.93859 a 0.62373321,0.62364828 0 0 1 -0.35678,-1.13527 46.625324,46.618976 0 0 0 19.70312,-33.08858 0.62355169,0.62346679 0 1 1 1.23958,0.1367 47.868897,47.862379 0 0 1 -20.22916,33.97518 0.62162654,0.6215419 0 0 1 -0.35676,0.11199 z"
     class="cls-3" />
  <ellipse
     ry="1.1896644"
     rx="1.1898264"
     style="fill:#ffc300;stroke-width:1.3332423"
     id="circle487"
     cy="271.43948"
     cx="76.085098"
     class="cls-3" />
  <ellipse
     ry="1.1896644"
     rx="1.1898264"
     style="fill:#ffc300;stroke-width:1.3332423"
     id="circle489"
     cy="249.33316"
     cx="63.168434"
     class="cls-3" />
  <ellipse
     ry="1.1896644"
     rx="1.1898264"
     style="fill:#ffc300;stroke-width:1.3332423"
     id="circle491"
     cy="249.11938"
     cx="88.365204"
     class="cls-3" />
  <path
     style="fill:#ffc300;stroke-width:1.3332423"
     id="path493"
     d="m 75.785601,252.21037 a 7.0497186,7.0487587 0 0 1 -3.99284,-1.35399 0.66162938,0.6615393 0 0 1 0.7448,-1.0936 5.2426656,5.2419518 0 0 0 6.619786,-0.0885 0.66116604,0.66107602 0 1 1 0.765626,1.07799 7.1156785,7.1147097 0 0 1 -4.137372,1.45813 z"
     class="cls-3" />
  <path
     style="fill:#ffc300;stroke-width:1.3332423"
     id="path495"
     d="m 80.012773,263.54216 c -0.01823,0 -0.03645,-0.001 -0.05467,-0.003 a 0.6608132,0.66072323 0 0 1 -0.605466,-0.71214 c 0.298173,-3.65445 1.91536,-5.91977 4.808586,-6.73475 a 0.66158653,0.66149646 0 1 1 0.359373,1.27325 c -2.371093,0.66791 -3.595053,2.43718 -3.850253,5.56826 a 0.6606532,0.66056325 0 0 1 -0.657573,0.60805 z"
     class="cls-3" />
  <path
     style="fill:#ffc300;stroke-width:1.3332423"
     id="path497"
     d="m 71.829841,263.21668 a 0.66123986,0.66114984 0 0 1 -0.657559,-0.59497 c -0.317054,-3.16233 -1.36,-4.63478 -3.718746,-5.25319 a 0.66086865,0.66077867 0 1 1 0.334666,-1.27849 c 3.67252,0.96081 4.436839,3.77423 4.700519,6.39887 a 0.6613332,0.66124316 0 0 1 -0.592453,0.7239 0.56867988,0.56860246 0 0 1 -0.06643,0.004 z"
     class="cls-3" />
  <path
     style="fill:url(#Nueva_muestra_de_degradado_12);stroke-width:1.3332423"
     id="path499"
     d="m 89.329758,257.54012 c 0,-0.04 -0.01333,-0.08 -0.01333,-0.11998 a 3.5316526,3.5311718 0 0 0 -0.02667,-0.37328 4.5302391,4.5296223 0 0 0 -0.106667,-0.58659 c -0.02667,-0.14665 -0.06667,-0.27996 -0.106666,-0.42661 -0.05333,-0.14671 -0.106667,-0.27996 -0.173334,-0.42661 l -0.05333,-0.14664 c -0.05333,-0.11999 -0.106667,-0.23997 -0.16,-0.34662 -0.01333,-0.0133 -0.02667,-0.0267 -0.02667,-0.04 -0.01333,-0.0267 -0.02667,-0.04 -0.04,-0.0667 a 4.6240791,4.6234495 0 0 0 -0.466666,-0.70657 c -0.05333,-0.08 -0.12,-0.13331 -0.173334,-0.19997 a 0.63151987,0.63143389 0 0 1 -0.133333,-0.13331 l -0.05333,-0.0533 a 2.2691729,2.2688639 0 0 0 -0.253333,-0.2533 4.4715591,4.4709503 0 0 0 -0.386667,-0.31996 4.8140923,4.8134369 0 0 0 -0.426667,-0.29329 c -0.12,-0.08 -0.24,-0.14665 -0.36,-0.2133 -0.173333,-0.08 -0.359999,-0.15998 -0.599999,-0.2533 l -0.09333,-0.04 a 1.1729064,1.1727467 0 0 0 -0.2,-0.0666 0.6448932,0.6448054 0 0 1 -0.09333,-0.04 c -0.01333,0 -0.02667,-0.0133 -0.05333,-0.0133 a 1.9026663,1.9024072 0 0 0 -0.293334,-0.0533 c -0.05333,-0.0133 -0.12,-0.0133 -0.173333,-0.0267 -0.05333,-0.0133 -0.106667,-0.0267 -0.173333,-0.04 -0.05333,-0.0133 -0.12,-0.0267 -0.173333,-0.04 h -0.12 a 0.8189465,0.818835 0 0 0 -0.173334,-0.0133 l -0.173333,-0.0133 h -0.48 l 0.146667,-0.27996 a 6.3825854,6.3817164 0 0 0 0.346666,-0.67991 0.1446533,0.14463361 0 0 1 0.01333,-0.0667 0.82799983,0.8278871 0 0 0 0.04,-0.13331 c 0.0132,-0.0533 0.02667,-0.0933 0.04,-0.14665 a 7.2535852,7.2525976 0 0 0 0.213333,-0.81322 0.47126657,0.47120241 0 0 1 0.01333,-0.08 5.3930789,5.3923446 0 0 0 -2.239999,-5.23929 0.27782661,0.27778878 0 0 0 -0.08,-0.0533 l -0.09333,-0.0533 a 6.1869987,6.1861564 0 0 0 -0.959999,-0.5066 0.91777315,0.91764819 0 0 1 -0.106667,-0.04 0.24690662,0.246873 0 0 1 -0.09333,-0.0267 c -0.133334,-0.0533 -0.28,-0.0933 -0.413334,-0.13332 l -0.2,-0.04 -0.09333,-0.0267 c -0.133333,-0.0267 -0.24,-0.0533 -0.333333,-0.0666 -0.09333,-0.0133 -0.173333,-0.0133 -0.253333,-0.0267 h -0.05333 a 2.8115328,2.81115 0 0 0 -0.3466,-0.0267 h -0.28 c -0.12,0.0133 -0.24,0.0133 -0.36,0.0267 a 1.8053996,1.8051538 0 0 0 -0.266666,0.0267 c -0.12,0.0267 -0.253253,0.04 -0.373333,0.0666 -0.08,0.0267 -0.173334,0.04 -0.253334,0.0667 l -0.08,0.0133 c -0.04,0.0133 -0.06667,0.0133 -0.106666,0.0267 -0.01333,0.0133 -0.04,0.0133 -0.06667,0.0267 a 0.10178665,0.10177279 0 0 1 -0.06667,0.0267 c -0.146666,0.0533 -0.28,0.10665 -0.426666,0.15998 l -0.06667,0.0267 c -0.06667,0.04 -0.146667,0.0667 -0.226666,0.10666 -0.09327,0.0533 -0.1866,0.10651 -0.293334,0.15997 l -0.05333,0.04 c -0.04,0.0267 -0.08,0.04 -0.12,0.0667 -0.05333,0.0267 -0.09333,0.0533 -0.146667,0.08 l -0.09333,0.0667 -0.106667,-0.0667 a 5.6749322,5.6741595 0 0 0 -1.186666,-0.55992 0.12018664,0.12017028 0 0 1 -0.06667,-0.0133 6.552212,6.5513199 0 0 0 -0.973333,-0.2133 l -0.146667,-0.0133 a 4.2941725,4.2935878 0 0 0 -1.013333,0 l -0.146666,0.0133 a 5.0681456,5.0674556 0 0 0 -1.013333,0.2133 l -0.24,0.08 a 2.4155328,2.415204 0 0 0 -0.28,0.10665 l -0.16,0.08 a 0.40014658,0.4000921 0 0 1 -0.146667,0.08 0.49078657,0.49071974 0 0 1 -0.146733,0.0667 c -0.04,0.0267 -0.09327,0.04 -0.133334,0.0666 a 0.92657314,0.92644699 0 0 0 -0.119999,0.08 0.72807985,0.72798072 0 0 0 -0.106667,0.08 c -0.106667,0.0667 -0.2,0.13332 -0.293333,0.19997 -0.173334,0.13332 -0.333334,0.26664 -0.493334,0.41328 l -0.05333,0.0533 c -0.06667,0.08 -0.146667,0.14664 -0.213333,0.22663 -0.12,0.13332 -0.226667,0.27997 -0.3466,0.42661 l -0.09333,0.13332 c -0.05333,0.0666 -0.12,0.14664 -0.173334,0.22663 -0.04,0.08 -0.08,0.15998 -0.12,0.2533 l -0.06667,0.13332 a 5.081439,5.0807471 0 0 0 -0.36,0.87988 l -0.02667,0.08 c -0.04,0.13331 -0.08,0.25329 -0.106667,0.37328 -0.02667,0.13331 -0.05333,0.26663 -0.06667,0.38661 l -0.01333,0.0533 a 4.2864925,4.2859088 0 0 0 -0.04,0.57325 1.755573,1.7553339 0 0 0 0,0.37329 4.3262124,4.3256234 0 0 0 0.06667,0.6799 l 0.0132,0.0933 c 0.01333,0.08 0.02667,0.14665 0.04,0.21331 a 0.26038661,0.26035116 0 0 1 0.01333,0.0933 0.14499997,0.14498023 0 0 1 0.01333,0.0667 1.9020263,1.9017673 0 0 0 0.106666,0.29329 c 0.02667,0.0533 0.04,0.10665 0.06667,0.15998 l 0.04,0.15998 c 0.02667,0.0667 0.04,0.11998 0.06667,0.18664 l 0.01333,0.04 a 0.29174661,0.29170689 0 0 1 0.04,0.0667 c 0.02667,0.04 0.04,0.08 0.06667,0.11998 l 0.09333,0.18664 a 2.1523329,2.1520398 0 0 0 0.133333,0.23997 l 0.173334,0.29329 h -0.4 a 5.1413323,5.1406323 0 0 0 -0.8,0.0533 c -0.0132,0 -0.02667,0.0133 -0.05333,0.0133 a 0.39081325,0.39076004 0 0 0 -0.12,0.0267 c -0.04,0.0133 -0.09333,0.0267 -0.133333,0.04 a 5.8108921,5.810101 0 0 0 -0.853333,0.22664 c -0.02667,0.0133 -0.05333,0.0133 -0.08,0.0267 a 5.4115189,5.4107821 0 0 0 -3.413333,4.55938 v 0.22663 a 6.4285853,6.4277101 0 0 0 0.04,1.05319 q 0.02,0.11999 0.04,0.19998 l 0.04,0.19997 a 1.1334131,1.1332588 0 0 0 0.05333,0.22663 1.4138797,1.4136872 0 0 0 0.08,0.2533 l 0.01333,0.0667 c 0.04,0.13332 0.08,0.2133 0.106667,0.30662 0.04,0.08 0.06667,0.15998 0.106666,0.23997 0.06667,0.14665 0.12,0.2533 0.173254,0.34662 0.04,0.08 0.09333,0.15998 0.133333,0.23997 0.06667,0.10665 0.146667,0.2133 0.213333,0.31996 0.05333,0.0666 0.09333,0.11998 0.146733,0.18664 a 2.9329461,2.9325467 0 0 0 0.266667,0.30662 1.9933329,1.9930615 0 0 0 0.146667,0.17331 l 0.08,0.0667 a 0.34933326,0.3492857 0 0 0 0.06667,0.08 c 0.02667,0.0133 0.04,0.04 0.06667,0.0533 0.01333,0.0133 0.04,0.0267 0.06667,0.0533 0.106666,0.0933 0.213333,0.17331 0.32,0.2533 l 0.05333,0.04 a 1.4483464,1.4481492 0 0 0 0.226667,0.17331 1.5695997,1.569386 0 0 0 0.253333,0.14672 l 0.06667,0.04 0.12,0.08 a 1.0035465,1.0034098 0 0 1 0.16,0.0933 l 0.106667,0.0533 v 0.11998 a 5.3537322,5.3530033 0 0 0 0.106667,1.30649 c 0.01333,0.0267 0.01333,0.0533 0.02667,0.0667 a 6.4373987,6.4365222 0 0 0 0.293334,0.94653 l 0.02667,0.0533 a 0.22533329,0.22530261 0 0 1 0.02667,0.0667 6.0683854,6.0675592 0 0 0 0.506667,0.89321 l 0.09333,0.11998 a 6.2620254,6.2611728 0 0 0 0.68,0.7599 l 0.2,0.17331 0.24,0.19997 a 1.857573,1.85732 0 0 0 0.213333,0.13332 c 0.05333,0.0267 0.09327,0.0533 0.146667,0.08 a 0.72903985,0.72894059 0 0 0 0.106666,0.08 0.35210659,0.35205865 0 0 0 0.08,0.0667 c 0.01333,0.0133 0.04,0.0133 0.06667,0.0267 l 0.08,0.04 a 0.4942799,0.4942126 0 0 0 0.146666,0.0667 l 0.05333,0.0267 a 3.5406659,3.5401839 0 0 0 0.533333,0.22664 2.1271196,2.12683 0 0 0 0.266667,0.0933 c 0.16,0.04 0.306666,0.08 0.466666,0.10665 l 0.106667,0.0267 0.24,0.04 c 0.06667,0.0133 0.146666,0.0133 0.226666,0.0267 l 0.24,0.0133 a 5.5870789,5.5863182 0 0 0 2.293333,-0.37328 l 0.08,-0.0267 a 4.6307991,4.6301686 0 0 0 0.893333,-0.46661 0.78642651,0.78631943 0 0 0 0.08,-0.0533 6.2790387,6.2781838 0 0 0 0.68,-0.55993 c 0.02667,-0.0133 0.04,-0.0267 0.06667,-0.04 l 0.173333,0.0933 -0.133333,-0.13332 0.04,-0.04 c 0.186666,-0.19997 0.346666,-0.38661 0.493333,-0.57326 a 0.80987983,0.80976957 0 0 1 0.06673,-0.10651 c 0.02667,-0.04 0.05333,-0.0933 0.08,-0.13332 l 0.12,-0.18664 c 0.04,-0.0667 0.09333,-0.11998 0.133334,-0.19997 l 0.146666,-0.27997 0.173334,0.27997 c 0.106666,0.17331 0.226666,0.34662 0.346666,0.50659 0.0132,0.0267 0.02667,0.04 0.04,0.0667 l 0.05333,0.0667 a 5.3007056,5.2999839 0 0 0 0.666667,0.69324 l 0.16,0.14664 a 0.35721326,0.35716463 0 0 1 0.08,0.0667 5.3826656,5.3819327 0 0 0 3.346599,1.14658 3.278666,3.2782196 0 0 0 0.346667,-0.0267 1.0294665,1.0293263 0 0 1 0.2,-0.0267 l 0.12,-0.0133 a 2.6054128,2.6050581 0 0 0 0.320066,-0.04 2.8448928,2.8445054 0 0 0 0.453334,-0.11999 4.7414257,4.7407801 0 0 0 0.613333,-0.19997 c 0.04,-0.0133 0.09333,-0.0267 0.133333,-0.04 0.02667,-0.0133 0.06667,-0.0267 0.09333,-0.04 0.02667,-0.0133 0.04,-0.0267 0.05333,-0.0267 a 0.33293327,0.33288794 0 0 1 0.09333,-0.0533 5.8461855,5.8453895 0 0 0 0.906667,-0.55999 l 0.06667,-0.0533 a 4.867479,4.8668163 0 0 0 0.786667,-0.78656 l 0.08,-0.08 a 7.0293319,7.0283748 0 0 0 0.586666,-0.90655 c 0.02667,-0.0667 0.05333,-0.10665 0.08,-0.17331 a 4.7958257,4.7951727 0 0 0 0.346667,-0.98653 0.18933329,0.18930752 0 0 0 0.02667,-0.08 0.33773326,0.33768728 0 0 0 0.02667,-0.0933 0.16911997,0.16909694 0 0 1 0.01333,-0.08 c 0.02667,-0.14664 0.05333,-0.27996 0.06667,-0.4266 l 0.01333,-0.10666 c 0.01333,-0.0666 0.01333,-0.14671 0.02667,-0.2133 v -0.70657 l -0.01333,-0.13332 0.12,-0.0533 a 0.10097331,0.10095956 0 0 1 0.05333,-0.0267 5.4614922,5.4607486 0 0 0 0.68,-0.45327 c 0.02667,-0.0133 0.04,-0.0267 0.06667,-0.04 l 0.05333,-0.04 c 0.01333,-0.0133 0.02667,-0.04 0.05333,-0.0533 l 0.08,-0.0533 a 0.57947988,0.57940098 0 0 1 0.09333,-0.08 c 0.04,-0.04 0.06667,-0.08 0.106666,-0.11998 0.04,-0.04 0.06667,-0.08 0.1066,-0.11998 a 4.7077857,4.7071447 0 0 0 0.44,-0.49327 3.306306,3.3058558 0 0 0 0.253333,-0.34662 c 0.133334,-0.2133 0.253334,-0.41328 0.346667,-0.59992 0.05333,-0.13331 0.106667,-0.2533 0.16,-0.38661 a 3.7394659,3.7389568 0 0 0 0.213333,-0.65325 4.5066657,4.5060522 0 0 0 0.106667,-0.45327 0.47258657,0.47252223 0 0 1 0.02667,-0.13331 0.58606655,0.58598675 0 0 0 0.02667,-0.13332 1.0011065,1.0009702 0 0 0 0,-0.19997 v -0.15998 c 0.01333,-0.0533 0.01333,-0.10665 0.02667,-0.14665 0,-0.0533 0.01333,-0.10665 0.01333,-0.15997 a 0.36854659,0.36849641 0 0 0 -0.01333,-0.12012 z m -14.199997,5.85247 a 4.7440657,4.7434198 0 0 1 -0.09327,0.69324 l -0.04,0.11998 -0.01333,0.0667 c -0.05333,0.15998 -0.106667,0.31996 -0.173333,0.47994 -0.02667,0.0666 -0.05333,0.11998 -0.08,0.18664 -0.06667,0.14664 -0.16,0.30662 -0.253334,0.4666 l -0.04,0.04 a 0.58266655,0.58258722 0 0 1 -0.05333,0.0933 l -0.16,0.19998 -0.09333,0.10665 c -0.1066,0.11998 -0.2,0.22664 -0.306667,0.33329 a 0.73919985,0.73909921 0 0 1 -0.106667,0.08 l -0.04,0.04 a 3.3585726,3.3581154 0 0 1 -0.466666,0.33329 0.75434651,0.75424381 0 0 1 -0.173333,0.10665 2.6243995,2.6240421 0 0 1 -0.48,0.21331 l -0.05333,0.0267 c -0.05333,0.0267 -0.106666,0.04 -0.16,0.0667 -0.16,0.0533 -0.333333,0.08 -0.493333,0.11998 l -0.08,0.0133 a 0.47909324,0.47902801 0 0 1 -0.146666,0.0267 3.6446526,3.6441564 0 0 1 -0.546667,0.04 1.9676796,1.9674117 0 0 1 -0.28,-0.0133 l -0.08,-0.0133 a 4.2529191,4.2523401 0 0 1 -0.519933,-0.0667 c -0.05333,-0.0133 -0.106667,-0.04 -0.173333,-0.0533 l -0.05333,-0.0133 a 4.0134125,4.0128661 0 0 1 -0.48,-0.17331 1.1806131,1.1804523 0 0 1 -0.226666,-0.10665 2.0739329,2.0736505 0 0 1 -0.373334,-0.21331 c -0.12,-0.0933 -0.24,-0.17331 -0.36,-0.26663 a 3.9394659,3.9389295 0 0 1 -0.346666,-0.31995 2.5249995,2.5246557 0 0 1 -0.253333,-0.27996 4.2653325,4.2647517 0 0 1 -0.28,-0.39995 c -0.06667,-0.10665 -0.12,-0.19997 -0.173334,-0.30662 -0.06667,-0.14665 -0.133333,-0.2933 -0.1866,-0.43994 -0.04,-0.11999 -0.08008,-0.23997 -0.12,-0.37329 a 3.5343993,3.5339181 0 0 1 -0.12,-0.65324 l -0.02667,-0.23997 0.24,0.0267 a 2.8124128,2.8120298 0 0 0 0.346666,0.0267 h 0.09333 a 6.0021188,6.0013016 0 0 0 1.013333,-0.04 0.71137319,0.71127633 0 0 0 0.6,-0.79989 0.70486652,0.70477055 0 0 0 -0.8,-0.59992 3.7785192,3.7780048 0 0 1 -1.026667,0.0133 l -0.253333,-0.0267 0.09333,-0.22663 a 3.6830259,3.6825245 0 0 1 0.506667,-0.89321 0.76697318,0.76686875 0 0 0 0.133333,-0.53327 0.71466652,0.71456922 0 0 0 -0.813333,-0.59991 0.68351986,0.6834268 0 0 0 -0.453333,0.27996 5.0043856,5.0037043 0 0 0 -0.4,0.62658 3.6643459,3.663847 0 0 0 -0.306667,0.65324 l -0.09333,0.21331 -0.186667,-0.11999 a 4.7300657,4.7294217 0 0 1 -0.613333,-0.49326 3.7302126,3.7297047 0 0 1 -0.373333,-0.45327 c -0.02667,-0.0267 -0.04,-0.0533 -0.06667,-0.08 a 1.4272264,1.4270321 0 0 1 -0.12,-0.14672 3.9650525,3.9645127 0 0 1 -0.626666,-1.66644 v -0.0666 a 4.9379857,4.9373133 0 0 1 -0.02667,-0.77323 4.0916525,4.0910954 0 0 1 2.586666,-3.49286 c 0.16,-0.0533 0.32,-0.0933 0.480067,-0.13331 l 0.133333,-0.04 c 0.08,-0.0133 0.146667,-0.04 0.226667,-0.0533 a 4.8374123,4.8367537 0 0 1 0.773333,-0.04 c 0.06667,0.0133 0.133333,0.0133 0.2,0.0267 h 0.06667 a 3.4836126,3.4831383 0 0 1 0.559999,0.10665 2.2226662,2.2223636 0 0 1 0.253334,0.0666 4.4994791,4.4988665 0 0 1 0.76,0.31996 l 1.346666,0.7199 a 7.2656385,7.2646493 0 0 1 3.866666,6.47912 z m 0.746666,-8.77207 a 7.5763584,7.5753269 0 0 1 -3.826666,-1.03986 l -1.413333,-0.82655 a 5.0986656,5.0979714 0 0 1 -0.546666,-0.42661 l -0.106667,-0.10665 -0.02667,-0.04 a 3.126226,3.1258004 0 0 1 -0.346667,-0.38661 0.66978653,0.66969534 0 0 1 -0.106667,-0.15998 3.3232793,3.3228268 0 0 1 -0.28,-0.4666 c -0.04,-0.0667 -0.06667,-0.10665 -0.08,-0.13332 l -0.08,-0.23996 -0.05333,-0.14665 a 2.4845195,2.4841812 0 0 1 -0.133333,-0.41328 c -0.01333,-0.04 -0.01333,-0.0933 -0.02667,-0.13331 l -0.01333,-0.0667 c -0.02667,-0.19997 -0.04,-0.37328 -0.05333,-0.54659 v -0.22664 a 3.2017193,3.2012834 0 0 1 0.04,-0.49326 l 0.01333,-0.08 c 0.01333,-0.0533 0.02667,-0.11999 0.04,-0.18665 0.02667,-0.14664 0.08008,-0.29329 0.12,-0.45327 l 0.02667,-0.08 a 0.75453318,0.75443045 0 0 0 0.05333,-0.15997 5.3657322,5.3650017 0 0 1 0.32,-0.61325 0.73675985,0.73665954 0 0 1 0.09333,-0.11999 l 0.04,-0.0666 c 0.09333,-0.11999 0.2,-0.26664 0.32,-0.39995 l 0.12,-0.11998 0.05333,-0.04 a 4.5259857,4.5253695 0 0 1 0.386667,-0.34662 c 0.06667,-0.04 0.133333,-0.0933 0.2,-0.13331 a 3.3655326,3.3650744 0 0 1 0.293333,-0.17331 4.0759992,4.0754442 0 0 1 0.68,-0.27996 l 0.08,-0.0267 a 1.1297998,1.1296459 0 0 1 0.226666,-0.0667 3.9893325,3.9887894 0 0 1 0.813334,-0.11998 h 0.12 a 4.5104391,4.509825 0 0 1 0.799999,0.08 l 0.16,0.04 a 4.5801057,4.5794821 0 0 1 0.759934,0.2533 l 0.213333,0.10666 -0.146667,0.18664 a 5.1348923,5.1341932 0 0 0 -0.706666,1.26649 0.70233319,0.70223757 0 0 0 0.4,0.91988 0.67466653,0.67457467 0 0 0 0.533333,-0.0133 0.63110654,0.63102061 0 0 0 0.373333,-0.38661 4.1910525,4.1904819 0 0 1 0.506667,-0.89321 l 0.146733,-0.19997 0.146667,0.18664 a 4.6578524,4.6572182 0 0 1 0.533333,0.89321 0.70483986,0.70474389 0 0 0 0.6534,0.42661 0.23466662,0.23463467 0 0 0 0.08,-0.0133 l 0.08,-0.0267 a 0.14479997,0.14478026 0 0 0 0.06667,-0.0133 h 0.05333 a 0.73585318,0.735753 0 0 0 0.36,-0.37328 l 0.02667,-0.04 a 0.65246653,0.6523777 0 0 0 0.02667,-0.19997 l 0.01333,-0.0667 a 0.59866654,0.59858503 0 0 0 -0.06667,-0.2533 c -0.04,-0.0933 -0.09333,-0.18664 -0.133334,-0.27996 l -0.06667,-0.10665 a 5.125199,5.1245011 0 0 0 -0.546667,-0.86655 l -0.146667,-0.18664 0.213334,-0.0933 a 3.5242526,3.5237728 0 0 1 0.72,-0.27996 2.4730928,2.4727561 0 0 1 0.599999,-0.10665 c 0.02667,-0.0133 0.05333,-0.0133 0.08,-0.0267 0.06667,0 0.12,-0.0133 0.186667,-0.0133 a 3.9476925,3.947155 0 0 1 1.76,0.27996 l 0.06667,0.04 a 4.1884258,4.1878555 0 0 1 0.68,0.35995 3.9455725,3.9450353 0 0 1 1.573333,4.55938 l -0.01333,0.08 c -0.01333,0.0533 -0.04,0.11998 -0.05333,0.17331 a 3.7111059,3.7106006 0 0 1 -0.373334,0.7199 l -0.08,0.11998 -0.05333,0.0533 a 2.1840796,2.1837822 0 0 1 -0.386667,0.4666 1.0685064,1.068361 0 0 1 -0.173333,0.17331 3.8048126,3.8042945 0 0 1 -0.64,0.47994 l -1.173333,0.73323 a 7.4909718,7.4899519 0 0 1 -4.000106,1.15984 z m 12.026665,3.23956 a 4.3835324,4.3829356 0 0 1 -0.04,0.4666 c -0.02667,0.15998 -0.06667,0.31996 -0.106667,0.47994 -0.04,0.11998 -0.08,0.23996 -0.12,0.34662 a 2.6765995,2.676235 0 0 1 -0.213333,0.43994 c -0.05333,0.10665 -0.106667,0.2133 -0.173334,0.31995 -0.09333,0.11999 -0.186666,0.2533 -0.28,0.35995 -0.09333,0.10665 -0.173333,0.19998 -0.266666,0.2933 a 4.1481192,4.1475544 0 0 1 -0.506667,0.43994 l -0.2,0.13331 -0.09333,-0.2133 a 5.1963456,5.1956381 0 0 0 -0.746667,-1.25317 0.69643986,0.69634504 0 0 0 -0.466666,-0.26663 0.72533318,0.72523443 0 0 0 -0.52,0.14665 0.75831984,0.7582166 0 0 0 -0.266667,0.48 0.72525318,0.72515444 0 0 0 0.146667,0.51986 3.7837859,3.7832707 0 0 1 0.533333,0.87988 l 0.09333,0.22664 -0.24,0.04 a 4.4096391,4.4090387 0 0 1 -1.026667,0.0133 0.70647986,0.70638367 0 0 0 -0.786666,0.61325 0.71646652,0.71636897 0 0 0 0.626666,0.78656 4.8309723,4.8303146 0 0 0 1.453333,-0.0267 l 0.226667,-0.0267 -0.01333,0.2267 a 4.0322525,4.0317035 0 0 1 -0.12,0.77316 4.5099857,4.5093717 0 0 1 -0.199999,0.5466 0.24666662,0.24663303 0 0 0 -0.02667,0.0933 0.69029319,0.69019921 0 0 1 -0.08,0.17331 3.9419059,3.9413692 0 0 1 -1.133333,1.38647 4.3129324,4.3123452 0 0 1 -0.706667,0.43994 4.1758391,4.1752706 0 0 1 -1.786666,0.41328 c -0.146733,0 -0.306667,-0.0133 -0.453333,-0.0267 a 3.9541192,3.9535808 0 0 1 -2.08,-0.89321 5.2914656,5.2907451 0 0 1 -0.4,-0.37329 0.35694659,0.35689799 0 0 0 -0.06667,-0.08 0.76314651,0.76304261 0 0 1 -0.146734,-0.14664 4.0837992,4.0832431 0 0 1 -0.426586,-0.66658 1.570933,1.5707191 0 0 1 -0.06667,-0.14665 l -0.02667,-0.0666 a 3.2081993,3.2077625 0 0 1 -0.213333,-0.55993 l -0.01333,-0.0533 c -0.01333,-0.0667 -0.02667,-0.11999 -0.04,-0.18664 A 4.8500123,4.849352 0 0 1 76.8231,263.08593 l -0.02667,-0.78656 a 8.4616383,8.4604862 0 0 1 4.293333,-7.67895 l 0.92,-0.51993 a 3.6682259,3.6677265 0 0 1 0.84,-0.31996 l 0.12,-0.04 a 4.1228125,4.1222512 0 0 1 0.879999,-0.0933 h 0.05333 a 4.3843858,4.3837888 0 0 1 0.879999,0.10665 l 0.09327,0.0267 c 0.06667,0.0133 0.133333,0.0267 0.186667,0.04 a 0.55725322,0.55717735 0 0 1 0.133333,0.0533 l 0.06667,0.0133 c 0.186666,0.0666 0.333333,0.14671 0.48,0.2133 0.08,0.04 0.16,0.0933 0.226666,0.13332 a 3.6655059,3.6650069 0 0 1 0.373334,0.2533 2.1001462,2.0998603 0 0 1 0.239999,0.19997 3.172746,3.172314 0 0 1 0.293334,0.30662 l 0.06667,0.0667 c 0.05333,0.0533 0.09333,0.10665 0.146667,0.15998 a 5.1595189,5.1588165 0 0 1 0.36,0.57325 c 0.04,0.0667 0.06667,0.14665 0.106667,0.22664 l 0.02667,0.0667 c 0.05333,0.14664 0.106667,0.26663 0.146667,0.38661 a 1.1119998,1.1118484 0 0 1 0.05333,0.19997 l 0.02667,0.08 c 0.02667,0.15998 0.06667,0.30663 0.08,0.46661 0.01333,0.08 0.01333,0.17331 0.02667,0.26663 a 3.4908793,3.490404 0 0 1 -0.01333,0.37327 z"
     class="cls-6" />
  <path
     style="fill:#ffffff;stroke-width:1.3332423"
     id="path501"
     d="m 16.602226,263.2839 -0.04643,-0.0589 a 14.838317,14.836297 0 0 1 -1.25961,-1.74305 l -0.03343,-0.058 1.690399,-1.05153 0.03343,0.058 a 13.915197,13.913303 0 0 0 1.114267,1.50972 l 0.03512,0.0444 v 0 l -0.0017,0.0136 -0.04667,0.048 z m 23.933049,-0.11119 -0.06719,-0.008 -1.483053,-1.24683 0.03375,-0.0496 a 13.988957,13.987053 0 0 0 1.068959,-1.46513 l -0.01293,-10e-4 0.07915,-0.0977 0.06557,0.0213 1.633333,1.01043 -0.03408,0.0627 a 16.424383,16.422147 0 0 1 -1.25436,1.75156 z m -26.209329,-3.49152 -0.03181,-0.0709 a 17.256196,17.253847 0 0 1 -0.755706,-2.01596 l -0.02851,-0.0973 0.09303,0.012 1.842773,-0.54899 0.0176,0.0691 a 13.120864,13.119078 0 0 0 0.639506,1.75936 l 0.02383,0.0299 -0.06291,0.0728 z m 28.460075,-0.11012 -1.834573,-0.80729 0.03536,-0.0625 a 13.88141,13.879521 0 0 0 0.636213,-1.76127 l 0.07413,-0.0576 0.01421,0.001 1.832319,0.60496 a 13.272677,13.27087 0 0 1 -0.736426,2.01706 z m -29.696408,-3.98122 -0.01429,-0.0956 a 18.798249,18.79569 0 0 1 -0.164107,-2.12963 l -0.0046,-0.0681 2.004653,-0.0177 0.0047,0.0675 a 13.542051,13.540207 0 0 0 0.136254,1.81709 l -0.002,0.12105 -0.04337,0.0215 z m 30.880608,-0.11651 -1.979613,-0.28748 0.0083,-0.0665 a 1.478213,1.4780118 0 0 0 0.04267,-0.23609 c 0.06292,-0.50317 0.08901,-1.03719 0.102187,-1.57282 l 0.002,-0.12052 0.0692,-0.0183 1.920919,0.012 0.0029,0.081 a 14.881557,14.879531 0 0 1 -0.112693,1.86672 2.0179729,2.0176982 0 0 1 -0.04765,0.27614 z m -29.017328,-3.92261 -1.910347,-0.30638 a 14.45029,14.448323 0 0 1 0.413987,-2.12492 l 0.0065,-0.0523 1.937333,0.51049 -0.02124,0.0649 a 15.256384,15.254306 0 0 0 -0.352,1.84993 l -0.133067,-0.0167 z m 27.085101,-0.0805 -0.01752,-0.0697 a 12.657624,12.655901 0 0 0 -0.375693,-1.83331 l -0.0029,-0.0811 1.892839,-0.52962 0.04465,0.0732 a 15.71345,15.711311 0 0 1 0.415093,2.05342 z m -26.069715,-3.52788 -0.06589,-0.008 -1.788226,-0.7477 0.03569,-0.0756 a 15.671023,15.66889 0 0 1 0.964306,-1.90853 l 0.01,-0.0795 1.7518,1.039 -0.03239,0.0491 a 12.645717,12.643996 0 0 0 -0.85568,1.68002 z m 25.083355,-0.0756 -0.02059,-0.0557 a 12.705971,12.704241 0 0 0 -0.866267,-1.667 l -0.0096,-0.0281 0.05031,-0.0874 1.629186,-0.99227 0.04473,0.0725 a 13.827744,13.825861 0 0 1 0.984159,1.91004 l 0.03343,0.058 z m -23.216355,-3.14365 -0.06259,-0.0347 -1.490973,-1.19404 0.04667,-0.048 a 18.31289,18.310396 0 0 1 1.462533,-1.59045 l 0.05959,-0.0464 1.361933,1.45998 -0.04533,0.0481 a 12.627411,12.625692 0 0 0 -1.227134,1.32397 m 21.19897,0.0307 -0.048,-0.0467 a 13.493424,13.491587 0 0 0 -1.264294,-1.38021 l -0.03836,-0.0185 0.03909,-0.10266 1.304253,-1.395 0.04635,0.0596 a 14.807997,14.805981 0 0 1 1.46924,1.56721 l 0.04635,0.0596 z m -18.579797,-2.49711 -0.06088,-0.0483 -1.120239,-1.57737 0.0596,-0.0464 a 18.325956,18.323461 0 0 1 1.833812,-1.12806 l 0.05791,-0.0328 0.934814,1.76937 -0.07081,0.0312 a 12.963544,12.961779 0 0 0 -1.56,0.97402 z m 6.999999,-2.5782 -0.02752,-0.0726 -0.153027,-1.92855 0.07493,-0.009 a 18.328436,18.325941 0 0 1 2.152893,-0.0285 l 0.06652,0.001 -0.104613,1.99839 -0.07679,-0.009 a 12.963037,12.961272 0 0 0 -1.8388,0.0367 z m 8.875918,2.52062 -0.06257,-0.0347 a 11.622664,11.621082 0 0 0 -1.597893,-0.9791 l -0.0642,-0.0219 0.03699,-0.0755 0.886534,-1.71686 0.06259,0.0347 a 18.271876,18.269389 0 0 1 1.835293,1.11636 l 0.06259,0.0347 z m -11.015891,-4.10477 -0.04207,0.0216 0.388533,1.83558 -0.05467,0.007 a 15.039384,15.037336 0 0 0 -1.726799,0.48215 l -0.14172,0.0629 -0.03344,-0.058 -0.6584,-1.82863 0.05628,-0.0199 a 16.266437,16.264222 0 0 1 2.021239,-0.58048 m 7.902546,2.45278 -0.0642,-0.0219 a 12.605331,12.603615 0 0 0 -1.805506,-0.49401 l -0.056,-0.0877 0.384586,-1.90032 0.0784,0.0236 a 15.757037,15.754891 0 0 1 2.065333,0.56718 l 0.09303,0.012 -0.04991,0.0739 z"
     class="cls-2" />
  <path
     style="fill:#ffc300;stroke-width:1.3332423"
     id="path503"
     d="m 38.988475,264.72821 -0.05333,0.0533 a 18.476863,18.474347 0 0 1 -1.666667,1.37315 l -0.02667,0.0133 -0.06641,-0.0267 -1.106773,-1.58645 0.03972,-0.04 a 12.953051,12.951287 0 0 0 1.414053,-1.14651 l 0.09311,-0.0666 0.05333,0.0267 z"
     class="cls-3" />
  <path
     style="fill:#ffc300;stroke-width:1.3332423"
     id="path505"
     d="m 20.868692,264.67488 v 0.0133 l -0.04036,0.0667 -1.146494,1.54646 -0.0664,-0.04 a 15.073597,15.071545 0 0 1 -1.626959,-1.41314 l -0.03971,-0.04 1.386666,-1.41314 0.05333,0.04 a 12.609651,12.607934 0 0 0 1.439453,1.21317 z"
     class="cls-3" />
  <path
     style="fill:#ffffff;stroke-width:1.3332423"
     id="path507"
     d="m 111.03555,263.2839 -0.0464,-0.0589 a 14.838197,14.836177 0 0 1 -1.2596,-1.74305 l -0.0334,-0.058 1.6904,-1.05153 0.0334,0.058 a 13.91333,13.911436 0 0 0 1.11425,1.50972 l 0.0351,0.0444 v 0 l -0.002,0.0136 -0.0467,0.048 z m 23.93304,-0.11119 -0.0672,-0.008 -1.48306,-1.24683 0.0338,-0.0496 a 13.98693,13.985026 0 0 0 1.06894,-1.46513 l -0.0133,-10e-4 0.0791,-0.0977 0.0656,0.0213 1.63333,1.01043 -0.0341,0.0627 a 16.426263,16.424027 0 0 1 -1.25436,1.75156 z m -26.20932,-3.49152 -0.0318,-0.0709 a 17.260996,17.258646 0 0 1 -0.75571,-2.01596 l -0.0285,-0.0973 0.093,0.012 1.84276,-0.54899 0.0176,0.0691 a 13.117184,13.115398 0 0 0 0.63951,1.75936 l 0.0238,0.0299 -0.0629,0.0728 z m 28.46007,-0.11012 -1.83459,-0.80729 0.0353,-0.0625 a 13.883357,13.881467 0 0 0 0.6362,-1.76127 l 0.0741,-0.0576 0.0143,0.001 1.83232,0.60496 a 13.271251,13.269444 0 0 1 -0.73643,2.01706 z m -29.69642,-3.98122 -0.0143,-0.0956 a 18.798183,18.795623 0 0 1 -0.16412,-2.12963 l -0.005,-0.0681 2.00467,-0.0177 0.005,0.0675 a 13.544264,13.54242 0 0 0 0.13626,1.81709 l -0.002,0.12105 -0.0434,0.0215 z m 30.88061,-0.11651 -1.97963,-0.28748 0.008,-0.0665 a 1.478213,1.4780118 0 0 0 0.0427,-0.23609 c 0.0629,-0.50317 0.0891,-1.03719 0.10213,-1.57282 l 0.001,-0.12052 0.0692,-0.0183 1.92094,0.012 0.003,0.081 a 14.881544,14.879517 0 0 1 -0.11266,1.86672 2.0199996,2.0197246 0 0 1 -0.0476,0.27614 z m -29.01741,-3.92261 -1.91033,-0.30638 a 14.448544,14.446577 0 0 1 0.41398,-2.12492 l 0.007,-0.0523 1.93734,0.51049 -0.0212,0.0649 a 15.25373,15.251653 0 0 0 -0.352,1.84993 l -0.13308,-0.0167 z m 27.08511,-0.0805 -0.0175,-0.0697 a 12.661184,12.65946 0 0 0 -0.3757,-1.83331 l -0.003,-0.0811 1.89282,-0.52962 0.0447,0.0732 a 15.711317,15.709178 0 0 1 0.41511,2.05342 z m -26.06964,-3.52788 -0.0659,-0.008 -1.78824,-0.7477 0.0357,-0.0756 a 15.67485,15.672716 0 0 1 0.9643,-1.90853 l 0.01,-0.0795 1.75182,1.039 -0.0324,0.0491 a 12.644184,12.642463 0 0 0 -0.8557,1.68002 z m 25.08335,-0.0756 -0.0207,-0.0557 a 12.705904,12.704174 0 0 0 -0.86625,-1.667 l -0.009,-0.0281 0.0503,-0.0874 1.6292,-0.99227 0.0448,0.0725 a 13.827677,13.825795 0 0 1 0.98415,1.91004 l 0.0335,0.058 z m -23.21634,-3.14365 -0.0626,-0.0347 -1.49097,-1.19404 0.0467,-0.048 a 18.31501,18.312516 0 0 1 1.46253,-1.59045 l 0.0596,-0.0464 1.36192,1.45998 -0.0453,0.0481 a 12.630277,12.628558 0 0 0 -1.22713,1.32397 m 21.19903,0.0305 -0.048,-0.0467 a 13.493531,13.491693 0 0 0 -1.26431,-1.38022 l -0.0384,-0.0185 0.0391,-0.10265 1.30426,-1.39501 0.0464,0.0596 a 14.80941,14.807394 0 0 1 1.46924,1.56722 l 0.0464,0.0596 z m -18.57978,-2.49712 -0.0609,-0.0483 -1.12023,-1.57737 0.0596,-0.0464 a 18.327663,18.325168 0 0 1 1.83383,-1.12806 l 0.0579,-0.0328 0.93483,1.76938 -0.0708,0.0312 a 12.963544,12.961779 0 0 0 -1.56,0.97402 z m 6.99999,-2.57819 -0.0275,-0.0727 -0.15301,-1.92855 0.0749,-0.009 a 18.32841,18.325914 0 0 1 2.1529,-0.0285 l 0.0665,0.001 -0.10463,1.9984 -0.0768,-0.009 a 12.963037,12.961272 0 0 0 -1.8388,0.0367 z m 8.87593,2.52062 -0.0626,-0.0347 a 11.622664,11.621082 0 0 0 -1.5979,-0.97909 l -0.0642,-0.0219 0.037,-0.0755 0.88653,-1.71686 0.0626,0.0347 a 18.273556,18.271068 0 0 1 1.83531,1.11637 l 0.0626,0.0347 z m -11.0159,-4.10478 -0.0421,0.0216 0.38854,1.83558 -0.0547,0.007 a 15.039597,15.037549 0 0 0 -1.72681,0.48215 l -0.14172,0.0629 -0.0334,-0.058 -0.6584,-1.82863 0.0563,-0.0199 a 16.26625,16.264035 0 0 1 2.02123,-0.58048 m 7.90255,2.45278 -0.0642,-0.0219 a 12.605517,12.603801 0 0 0 -1.80552,-0.49401 l -0.056,-0.0877 0.38459,-1.90031 0.0784,0.0236 a 15.75761,15.755465 0 0 1 2.06534,0.56717 l 0.093,0.012 -0.0499,0.0739 z"
     class="cls-2" />
  <path
     style="fill:#ffc300;stroke-width:1.3332423"
     id="path509"
     d="m 133.41554,264.72821 -0.0404,0.0533 a 18.57025,18.567721 0 0 1 -1.66667,1.37315 l -0.0397,0.0133 -0.0671,-0.0267 -1.10676,-1.58645 0.0533,-0.04 a 14.318784,14.316834 0 0 0 1.4134,-1.14651 l 0.0801,-0.0666 0.0664,0.0267 z"
     class="cls-3" />
  <path
     style="fill:#ffc300;stroke-width:1.3332423"
     id="path511"
     d="m 115.30877,264.68821 -0.0404,0.0667 -1.16014,1.54646 -0.0527,-0.04 a 13.920877,13.918982 0 0 1 -1.62696,-1.41314 l -0.0533,-0.04 1.39974,-1.41314 0.0404,0.04 a 13.853037,13.851151 0 0 0 1.44011,1.21317 l 0.0397,0.0267 z"
     class="cls-3" />
  <path
     style="fill:#ffc300;stroke-width:1.3332423"
     id="path513"
     d="m 103.71092,35.913138 a 5.3844389,5.3837058 0 0 0 -2.53319,2.81295 41.039992,41.034404 0 0 0 -10.013332,-5.839204 5.3487056,5.3479773 0 0 0 1.226879,-3.386205 c 0,-0.06666 -0.01367,-0.133315 -0.01367,-0.199972 a 45.400484,45.394303 0 0 1 11.333313,6.612431 z"
     class="cls-3" />
  <path
     style="fill:#ffc300;stroke-width:1.3332423"
     id="path515"
     d="m 81.617799,29.500679 a 5.4142522,5.4135151 0 0 0 0.08008,0.799891 41.450152,41.444508 0 0 0 -5.933585,-0.426542 42.426018,42.420242 0 0 0 -5.706385,0.399946 6.1970521,6.1962083 0 0 0 0.09311,-0.866549 5.3337989,5.3330727 0 0 0 -0.839853,-2.839612 44.133738,44.127729 0 0 1 13.159837,0.02666 5.3875856,5.386852 0 0 0 -0.8532,2.906203 z"
     class="cls-3" />
  <path
     style="fill:#ffc300;stroke-width:1.3332423"
     id="path517"
     d="m 117.43092,54.537305 c -0.0801,0 -0.14649,-0.0267 -0.23991,-0.0267 a 5.3691722,5.3684412 0 0 0 -3.34666,1.19983 41.004512,40.998929 0 0 0 -5.7601,-10.01196 5.3946656,5.3939311 0 0 0 2.84016,-2.50633 44.499018,44.492959 0 0 1 6.50651,11.34512 z"
     class="cls-3" />
  <path
     style="fill:#ffc300;stroke-width:1.3332423"
     id="path519"
     d="m 60.59111,32.793604 a 40.860605,40.855042 0 0 0 -10.093411,5.839203 5.3987989,5.3980638 0 0 0 -2.519866,-2.826281 44.572524,44.566456 0 0 1 11.413411,-6.599033 1.0038931,1.0037564 0 0 0 -0.02667,0.199972 5.3971189,5.3963841 0 0 0 1.226533,3.386139 z"
     class="cls-3" />
  <path
     style="fill:#ffc300;stroke-width:1.3332423"
     id="path521"
     d="m 120.52437,70.841725 a 45.568284,45.56208 0 0 1 -0.49317,6.63909 9.2081848,9.2069311 0 0 0 -3.70667,-0.7599 40.701125,40.695583 0 0 0 0.42644,-5.87919 41.558005,41.552347 0 0 0 -0.4,-5.63923 5.9803188,5.9795045 0 0 0 0.84018,0.08 5.2424123,5.2416985 0 0 0 2.86685,-0.83988 44.099778,44.093773 0 0 1 0.46637,6.39913 z"
     class="cls-3" />
  <path
     style="fill:#ffc300;stroke-width:1.3332423"
     id="path523"
     d="m 35.217742,76.760915 a 5.2365456,5.2358326 0 0 0 -0.786773,-0.08 5.3399989,5.3392719 0 0 0 -2.919919,0.87988 44.795177,44.789079 0 0 1 -0.50652,-6.71908 46.834497,46.82812 0 0 1 0.46648,-6.45246 5.3222122,5.3214876 0 0 0 2.840159,0.82656 4.805919,4.8052647 0 0 0 0.879893,-0.0933 40.688512,40.682972 0 0 0 -0.413413,5.71922 41.252138,41.246522 0 0 0 0.440093,5.91912 z"
     class="cls-3" />
  <path
     style="fill:#ffc300;stroke-width:1.3332423"
     id="path525"
     d="m 43.551074,45.565145 a 41.190232,41.184623 0 0 0 -5.840159,10.10529 5.3688389,5.3681079 0 0 0 -3.399746,-1.23984 c -0.06667,0 -0.120106,0.0267 -0.18684,0.0267 a 44.803604,44.797504 0 0 1 6.600252,-11.41186 5.3912789,5.3905449 0 0 0 2.826493,2.51974 z"
     class="cls-3" />
  <path
     style="fill:#040006;stroke:#040006;stroke-width:0.94481552px;stroke-miterlimit:10"
     id="path527"
     d="m 39.697888,59.829875 a 5.3865056,5.3857722 0 0 1 -4.506826,5.29261 4.805919,4.8052647 0 0 1 -0.879893,0.0933 5.3222122,5.3214876 0 0 1 -2.840159,-0.82655 5.3687722,5.3680413 0 0 1 2.653333,-9.93198 c 0.06667,0 0.120106,-0.0267 0.186839,-0.0267 a 5.4477856,5.4470438 0 0 1 5.386666,5.39926 z"
     class="cls-7" />
  <path
     style="fill:#040006;stroke:#040006;stroke-width:0.94481552px;stroke-miterlimit:10"
     id="path529"
     d="m 50.857726,40.552475 a 5.3888389,5.3881052 0 0 1 -5.386666,5.38594 5.1295456,5.1288472 0 0 1 -1.919933,-0.37329 5.3912789,5.3905449 0 0 1 -2.826492,-2.51965 5.2479989,5.2472844 0 0 1 -0.640294,-2.493 5.3867456,5.3860121 0 0 1 10.773438,0 z"
     class="cls-7" />
  <path
     style="fill:#040006;stroke:#040006;stroke-width:0.94481552px;stroke-miterlimit:10"
     id="path531"
     d="m 70.151015,29.407345 a 6.1970521,6.1962083 0 0 1 -0.09311,0.866549 5.3847189,5.3839858 0 0 1 -10.693332,-0.866549 1.0038931,1.0037564 0 0 1 0.02667,-0.199972 5.3828389,5.382106 0 0 1 10.759772,0.199972 z"
     class="cls-7" />
  <path
     style="fill:#040006;stroke:#040006;stroke-width:0.94481552px;stroke-miterlimit:10"
     id="path533"
     d="M 92.391237,29.500679 A 5.3757989,5.375067 0 0 1 81.697906,30.30057 5.3732389,5.3725073 0 1 1 92.377597,29.300707 c 0,0.06666 0.01364,0.133328 0.01364,0.199972 z"
     class="cls-7" />
  <path
     style="fill:#040006;stroke:#040006;stroke-width:0.94481552px;stroke-miterlimit:10"
     id="path535"
     d="m 111.57775,40.672505 a 5.4685322,5.4677877 0 0 1 -3.49348,5.02598 5.2535723,5.252857 0 0 1 -1.89323,0.35995 5.4002256,5.3994903 0 0 1 -5.39999,-5.38593 5.4610122,5.4602687 0 0 1 5.39999,-5.385935 5.3973322,5.3965974 0 0 1 5.38671,5.385935 z"
     class="cls-7" />
  <path
     style="fill:#040006;stroke:#040006;stroke-width:0.94481552px;stroke-miterlimit:10"
     id="path537"
     d="m 122.59109,59.896525 a 5.3664789,5.3657482 0 0 1 -2.5332,4.54604 5.2424123,5.2416985 0 0 1 -2.86685,0.83989 5.9803188,5.9795045 0 0 1 -0.84017,-0.08 5.3831189,5.382386 0 0 1 0.84017,-10.69188 c 0.0934,0 0.15983,0.0267 0.23991,0.0267 a 5.3739056,5.3731739 0 0 1 5.16014,5.35927 z"
     class="cls-7" />
  <path
     style="fill:#ffc300;stroke-width:1.3332423"
     id="path539"
     d="m 43.656527,96.225053 c -0.840293,0.7178 -2.093519,1.87867 -2.804159,2.552379 a 44.796244,44.790145 0 0 1 -3.811639,-5.556749 46.83387,46.827494 0 0 1 -2.83632,-5.814608 5.3224256,5.3217009 0 0 0 2.871333,-0.7108 4.806399,4.8057446 0 0 0 0.714146,-0.52231 40.690178,40.684638 0 0 0 2.514027,5.15378 41.250658,41.245042 0 0 0 3.352612,4.898308 z"
     class="cls-3" />
  <path
     style="fill:#ffc300;stroke-width:1.3332423"
     id="path541"
     d="m 107.89875,96.225053 c 0.78068,0.69619 2.00524,1.81806 2.80414,2.552379 a 44.796324,44.790225 0 0 0 3.81166,-5.556749 46.83763,46.831253 0 0 0 2.83637,-5.814608 13.189171,13.187375 0 0 1 -3.58548,-1.23316 40.691992,40.686451 0 0 1 -2.51403,5.15377 41.253805,41.248188 0 0 1 -3.35266,4.898368 z"
     class="cls-3" />
  <path
     style="fill:#040006;stroke:#040006;stroke-width:0.94481552px;stroke-miterlimit:10"
     id="path543"
     d="m 39.817688,82.080175 a 5.3381856,5.3374588 0 0 1 -2.026666,4.15943 5.2487189,5.2480043 0 0 1 -3.36,1.2265 c -0.08008,0 -0.146493,-0.0267 -0.226559,-0.0267 a 5.3830922,5.3823593 0 0 1 0.226559,-10.75853 5.2365456,5.2358326 0 0 1 0.786774,0.08 5.3851989,5.3844657 0 0 1 4.599892,5.31927 z"
     class="cls-7" />
  <path
     style="fill:#040006;stroke:#040006;stroke-width:0.94481552px;stroke-miterlimit:10"
     id="path545"
     d="m 122.55105,82.026885 a 5.3930922,5.392358 0 0 1 -5.20018,5.37261 c -0.0664,0 -0.1198,0.0133 -0.18652,0.0133 a 5.3790656,5.3783332 0 0 1 -0.83986,-10.69188 5.7893321,5.7885439 0 0 1 0.83986,-0.08 5.2758523,5.2751339 0 0 1 2.86685,0.83989 5.3374389,5.3367122 0 0 1 2.51985,4.54604 z"
     class="cls-7" />
  <path
     style="fill:#ffc300;stroke-width:1.3332423"
     id="path547"
     d="m 35.144556,57.665375 v 5.42592 h -1.119787 v -5.41259 h -0.54688 v -1.11985 h 0.559894 a 1.1038264,1.1036762 0 0 1 1.106773,1.10652 z"
     class="cls-3" />
  <path
     style="fill:#ffc300;stroke-width:1.3332423"
     id="path549"
     d="m 34.433329,78.807805 a 1.7757463,1.7755045 0 0 0 -0.653333,0.11999 1.8948663,1.8946083 0 0 0 -1.253573,1.78642 v 2.73296 a 1.9036529,1.9033938 0 0 0 1.906906,1.89308 1.9248263,1.9245642 0 0 0 1.75976,-1.18651 2.0165329,2.0162584 0 0 0 0.133466,-0.70657 v -2.73296 a 1.9033863,1.9031271 0 0 0 -1.893226,-1.90641 z m 0.773107,4.63937 a 0.78915984,0.78905239 0 0 1 -0.773107,0.7599 0.77199984,0.77189473 0 0 1 -0.77344,-0.70657 v -2.78629 a 0.74799985,0.74789801 0 0 1 0.91992,-0.7599 v 0.0133 a 0.54118656,0.54111287 0 0 1 0.239907,0.0667 0.79393317,0.79382508 0 0 1 0.386666,0.67991 z"
     class="cls-3" />
  <path
     style="fill:#ffc300;stroke-width:1.3332423"
     id="path551"
     d="m 47.213607,42.628085 v 1.11985 h -3.653626 v -0.55992 a 2.6809595,2.6805944 0 0 1 0.04,-0.55993 3.3471993,3.3467436 0 0 1 1.520173,-1.98639 c 0.973333,-0.7599 1.133146,-1.03986 1.133146,-1.506463 a 0.76291984,0.76281597 0 0 0 -0.653333,-0.759896 0.45234657,0.45228499 0 0 0 -0.133147,-0.01333 0.7942665,0.79415836 0 0 0 -0.786773,0.773228 h -1.12012 a 1.9064396,1.90618 0 0 1 1.906893,-1.906407 1.8519996,1.8517475 0 0 1 0.866547,0.213305 1.8771196,1.876864 0 0 1 1.053333,1.693102 c 0,1.079851 -0.653333,1.679771 -1.573253,2.399671 a 3.136786,3.1363589 0 0 0 -1.04,1.09318 z"
     class="cls-3" />
  <path
     style="fill:#ffc300;stroke-width:1.3332423"
     id="path553"
     d="m 66.114936,29.407932 a 1.8869996,1.8867427 0 0 1 0.45312,1.946401 1.833933,1.8336833 0 0 1 -0.159827,0.373283 1.9023463,1.9020873 0 0 1 -2.146813,0.87988 1.673333,1.6731052 0 0 1 -0.559893,-0.266564 h -0.01333 a 1.9066663,1.9064067 0 0 1 -0.8532,-1.58645 h 1.133146 a 0.78761317,0.78750594 0 0 0 0.480147,0.733233 0.80369317,0.80358374 0 0 0 0.866533,-0.17331 0.78207984,0.78197336 0 0 0 0.173173,-0.853217 0.81375983,0.81364904 0 0 0 -0.733066,-0.493266 H 64.34151 v -1.119847 h 0.413426 a 0.77170651,0.77160144 0 0 0 0.653333,-0.359951 1.1263331,1.1261798 0 0 0 0.07975,-0.133315 0.78198651,0.78188004 0 0 0 -0.173173,-0.853217 0.78595984,0.78585283 0 0 0 -1.346667,0.559924 h -1.133146 a 1.9199329,1.9196715 0 1 1 3.839853,0 0.11991998,0.11990365 0 0 1 -0.01333,0.06666 1.8091996,1.8089533 0 0 1 -0.546613,1.279759 z"
     class="cls-3" />
  <path
     style="fill:#ffc300;stroke-width:1.3332423"
     id="path555"
     d="m 118.96723,78.757065 v 0.57333 a 3.9515859,3.9510478 0 0 1 -0.04,0.55992 6.1915454,6.1907024 0 0 1 -0.94667,2.35968 c -0.0801,0.14664 -0.17351,0.30662 -0.25327,0.45327 a 4.1891325,4.1885621 0 0 0 -0.60025,2.02639 v 0.55992 h -1.13315 v -0.55992 a 4.2304391,4.2298632 0 0 1 0.25327,-1.46647 8.4239983,8.4228513 0 0 1 0.6,-1.30649 c 0.0533,-0.0933 0.10677,-0.17331 0.16015,-0.26663 a 5.7987588,5.7979693 0 0 0 0.77344,-1.79975 h -2.41347 v -1.13318 z"
     class="cls-3" />
  <path
     style="fill:#ffc300;stroke-width:1.3332423"
     id="path557"
     d="m 118.90367,60.396955 a 1.8851863,1.8849296 0 0 0 -1.70639,-1.06652 1.9873996,1.987129 0 0 0 -0.78679,0.17331 v -0.9732 a 0.77333317,0.77322788 0 0 1 1.54656,0 h 1.13345 a 1.9417463,1.9414819 0 0 0 -0.95999,-1.65311 1.9430796,1.942815 0 0 0 -1.9069,0 1.4405064,1.4403102 0 0 0 -0.32,0.23997 1.8888663,1.8886091 0 0 0 -0.62666,1.41314 v 2.73296 a 1.8740663,1.8738111 0 0 0 0.37333,1.10652 1.9121196,1.9118593 0 0 0 1.55991,0.79989 1.9628796,1.9626123 0 0 0 1.53352,-0.78656 1.8655996,1.8653456 0 0 0 0.37333,-1.13318 1.8375196,1.8372694 0 0 0 -0.21337,-0.85322 z m -1.70639,1.63978 a 0.78666711,0.78656 0 1 1 0,-1.57312 0.78799984,0.78789255 0 0 1 0.78645,0.78656 0.7968665,0.79675801 0 0 1 -0.78645,0.78661 z"
     class="cls-3" />
  <path
     style="fill:#ffc300;stroke-width:1.3332423"
     id="path559"
     d="m 105.41188,38.535781 v 1.106514 h 0.77312 a 1.8369196,1.8366695 0 0 1 0.97333,0.26663 1.8787329,1.8784772 0 0 1 0.89355,1.30649 c 0.0133,0.0133 0.0133,0.0133 0.0133,0.0267 a 2.1867729,2.1864752 0 0 1 0.0267,0.30663 v 0.45327 a 1.9164663,1.9162053 0 0 1 -1.84016,1.93307 h -0.13315 v -0.0133 a 1.8783329,1.8780772 0 0 1 -1.84016,-1.87975 h 1.13346 a 0.77367984,0.7735745 0 0 0 0.77312,0.77323 h 0.0267 a 0.7961065,0.79599811 0 0 0 0.74674,-0.81322 v -0.45327 a 0.77386651,0.77376114 0 0 0 -0.77344,-0.77323 h -1.90653 v -3.359542 h 3.81347 v 1.119848 z"
     class="cls-3" />
  <path
     style="fill:#ffc300;stroke-width:1.3332423"
     id="path561"
     d="m 88.924638,26.229659 v 6.532442 h -1.133466 v -2.866276 a 1.9156929,1.9154321 0 0 1 -2.706387,-1.746428 v -1.919738 h 1.133147 v 1.959733 a 0.78019984,0.78009361 0 0 0 0.786786,0.746564 0.79647984,0.79637139 0 0 0 0.626667,-0.306624 0.82765316,0.82754048 0 0 0 0.159827,-0.479935 v -1.919738 z"
     class="cls-3" />
  <path
     style="fill:#ffc300;stroke-width:1.3332423"
     id="path563"
     d="m 143.59942,11.781976 v -0.753951 a 1.8935063,1.8932485 0 0 0 1.65949,-2.9558233 4.4511324,4.4505264 0 0 0 -2.03333,-1.816739 6.0426654,6.0418427 0 0 0 -3.49407,-0.449072 5.6538788,5.6531091 0 0 0 -4.07365,8.3403823 5.8410121,5.8402169 0 0 0 7.80256,2.291368 3.8453325,3.844809 0 0 0 1.88498,-1.875971 1.8790529,1.8787971 0 0 0 -1.74598,-2.780194 z"
     class="cls-3" />
  <path
     style="fill:#080409;stroke-width:1.3332423"
     id="path565"
     d="m 144.21166,11.026106 h -2.69626 l 1.53684,-1.5369243 a 0.63866654,0.63857958 0 0 0 0.106,0.02133 0.6593732,0.65928342 0 1 0 -0.65968,-0.659283 0.60893321,0.6088503 0 0 0 0.0212,0.104652 l -1.53685,1.5367913 V 8.3244607 a 0.6482532,0.64816494 0 0 0 0.28289,-0.526595 0.65938653,0.65929676 0 0 0 -1.31875,0 0.6476932,0.64760502 0 0 0 0.28229,0.526595 v 2.1682113 l -1.53683,-1.5368443 a 0.60893321,0.6088503 0 0 0 0.0212,-0.104653 0.6593732,0.65928342 0 1 0 -0.65968,0.659284 0.63915987,0.63907285 0 0 0 0.106,-0.02133 l 1.53683,1.5369243 h -2.16924 a 0.6481732,0.64808495 0 0 0 -0.52701,-0.282628 0.65937328,0.6592835 0 0 0 0,1.318567 0.64842653,0.64833825 0 0 0 0.52701,-0.282482 h 2.16863 l -1.53682,1.536698 a 0.62007987,0.61999545 0 0 0 -0.10546,-0.0212 0.6593732,0.65928342 0 1 0 0.65968,0.659284 0.61147987,0.61139662 0 0 0 -0.0212,-0.105052 l 1.53682,-1.536911 v 2.168718 a 0.64771987,0.64763168 0 0 0 -0.28229,0.526595 0.65938653,0.65929676 0 0 0 1.31876,0 0.64827987,0.6481916 0 0 0 -0.2829,-0.526595 v -2.168665 l 1.53682,1.536911 a 0.67787986,0.67778757 0 0 0 -0.0212,0.105052 0.65938653,0.65929676 0 1 0 0.65968,-0.659283 0.61966654,0.61958217 0 0 0 -0.10534,0.0212 l -1.53682,-1.536697 h 2.69565 a 0.37678659,0.37673529 0 1 0 0,-0.753457 z"
     class="cls-8" />
  <polygon
     transform="matrix(1.3333331,0,0,1.3331515,0.17628206,-0.00901602)"
     style="fill:#ffc300"
     id="polygon567"
     points="71.717,284.766 71.717,288.772 72.977,288.772 72.977,289.481 71.008,289.481 71.008,285.475 68.933,285.475 68.933,289.481 68.224,289.481 68.224,284.766 "
     class="cls-3" />
  <polygon
     transform="matrix(1.3333331,0,0,1.3331515,0.17628206,-0.00901602)"
     style="fill:#ffc300"
     id="polygon569"
     points="101.025,284.766 101.025,288.772 102.284,288.772 102.284,289.481 100.316,289.481 100.316,285.475 98.189,285.475 98.189,289.481 97.48,289.481 97.48,284.766 "
     class="cls-3" />
  <path
     style="fill:#ffffff;stroke-width:1.3332423"
     id="path571"
     d="m 22.438571,385.89656 a 0.56822655,0.56814919 0 0 1 -0.298173,-0.0847 l -2.4362,-1.51021 a 0.56586655,0.56578951 0 0 1 -0.268226,-0.48171 v -1.92031 l -3.830733,3.83148 a 0.56715988,0.56708266 0 1 1 -0.80208,-0.80197 l 4.798826,-4.79883 a 0.56745322,0.56737596 0 0 1 0.968093,0.40099 v 2.97355 l 2.168,1.34357 a 0.56666655,0.5665894 0 0 1 -0.29948,1.04804 z"
     class="cls-2" />
  <path
     style="fill:#ffffff;stroke-width:1.3332423"
     id="path573"
     d="m 53.027752,385.89656 a 0.56641322,0.5663361 0 0 1 -0.40104,-0.96732 l 4.798186,-4.79882 a 0.56745322,0.56737596 0 0 1 0.968093,0.40098 v 1.95156 h 1.869146 a 0.56695988,0.56688269 0 0 1 0.567053,0.56634 v 2.28093 a 0.56706655,0.56698934 0 0 1 -1.134119,0 v -1.71461 h -1.869133 a 0.56695988,0.56688269 0 0 1 -0.567067,-0.56632 v -1.14959 l -3.830066,3.83148 a 0.56471988,0.564643 0 0 1 -0.401053,0.16537 z"
     class="cls-2" />
</svg>
