<?xml version="1.0" encoding="UTF-8" standalone="no"?>
<svg
   xmlns:dc="http://purl.org/dc/elements/1.1/"
   xmlns:cc="http://creativecommons.org/ns#"
   xmlns:rdf="http://www.w3.org/1999/02/22-rdf-syntax-ns#"
   xmlns:svg="http://www.w3.org/2000/svg"
   xmlns="http://www.w3.org/2000/svg"
   xmlns:sodipodi="http://sodipodi.sourceforge.net/DTD/sodipodi-0.dtd"
   xmlns:inkscape="http://www.inkscape.org/namespaces/inkscape"
   id="Capa_1"
   data-name="Capa 1"
   viewBox="0 0 188.97639 485.66928"
   version="1.1"
   sodipodi:docname="QUART.svg"
   width="50mm"
   height="128.5mm"
   inkscape:version="0.92.2 5c3e80d, 2017-08-06">
  <metadata
     id="metadata248">
    <rdf:RDF>
      <cc:Work
         rdf:about="">
        <dc:format>image/svg+xml</dc:format>
        <dc:type
           rdf:resource="http://purl.org/dc/dcmitype/StillImage" />
        <dc:title>QUART VCV Rack</dc:title>
      </cc:Work>
    </rdf:RDF>
  </metadata>
  <sodipodi:namedview
     pagecolor="#ffffff"
     bordercolor="#666666"
     borderopacity="1"
     objecttolerance="10"
     gridtolerance="10"
     guidetolerance="10"
     inkscape:pageopacity="0"
     inkscape:pageshadow="2"
     inkscape:window-width="1118"
     inkscape:window-height="799"
     id="namedview246"
     showgrid="false"
     units="mm"
     inkscape:zoom="3.6651135"
     inkscape:cx="38.123857"
     inkscape:cy="476.79527"
     inkscape:window-x="0"
     inkscape:window-y="0"
     inkscape:window-maximized="0"
     inkscape:current-layer="Capa_1" />
  <defs
     id="defs4">
    <style
       id="style2">.cls-1,.cls-5{fill:none;stroke:#000;stroke-miterlimit:10;}.cls-1{stroke-width:0.28px;}.cls-2{fill:#fff;}.cls-3{fill:#ffc300;}.cls-4{fill:#a5a5a5;}.cls-5{stroke-width:0.5px;}</style>
  </defs>
  <title
     id="title6">QUART VCV Rack</title>
  <rect
     width="188.97566"
     height="485.67267"
     id="rect8"
     x="0.16796224"
     y="0.23458372"
     style="stroke-width:1" />
  <circle
     class="cls-1"
     cx="94.66246"
     cy="35.19503"
     r="6.0534081"
     id="circle10"
     style="fill:none;stroke:#000000;stroke-width:0.28px;stroke-miterlimit:10" />
  <path
     class="cls-2"
     d="m 167.86336,80.355581 v 0 l -0.10667,-0.0933 -1.48001,-2.01336 v 0 c 0.68,-0.49334 1.33335,-1.02668 1.92002,-1.56002 v 0 0 l 1.73335,1.92002 v 0 a 25.946987,25.946987 0 0 1 -1.97335,1.62669 z m -33.33374,-0.24 h -0.0667 c -0.70668,-0.53334 -1.41335,-1.13335 -2.09336,-1.76002 v 0 l 1.80002,-1.94669 v 0 c 0.60001,0.56 1.22668,1.08001 1.85336,1.56002 l 0.10667,0.08 z m 37.40046,-3.40004 h -0.08 l -1.89336,-1.81336 v 0 c 0.54667,-0.60001 1.08001,-1.24001 1.58669,-1.90669 v 0 0 l 2.06669,1.54669 v 0 a 26.386993,26.386993 0 0 1 -1.72002,2.08002 z m -41.41385,-0.30667 v 0 a 26.933666,26.933666 0 0 1 -1.72002,-2.1467 v 0 l 2.04003,-1.65335 v 0 c 0.46667,0.64001 0.98668,1.33335 1.54668,1.93336 v 0 0 z m 44.69389,-4.00005 -2.25336,-1.33335 v 0 a 24.226966,24.226966 0 0 0 1.17335,-2.17336 v 0 h 0.0667 l 2.33337,1.10668 v 0 a 26.666996,26.666996 0 0 1 -1.33335,2.42669 z m -47.92059,-0.37334 v -0.08 c -0.45334,-0.78668 -0.89335,-1.60002 -1.33335,-2.4267 v -0.0933 h 0.0933 l 2.33336,-1.08002 v 0 c 0.34668,0.74668 0.73335,1.48002 1.14669,2.20003 v 0 0 z m 50.30729,-4.54672 -2.49337,-0.90668 v -0.0667 c 0.28001,-0.77334 0.52001,-1.56002 0.73334,-2.36003 v -0.0667 0 l 2.49337,0.64001 v 0 a 26.226991,26.226991 0 0 1 -0.81335,2.6667 z m -52.62732,-0.44001 v -0.0933 a 27.200336,27.200336 0 0 1 -0.76001,-2.6667 v 0 l 2.57337,-0.61334 v 0 a 23.413622,23.413622 0 0 0 0.69334,2.38669 v 0.0667 0 z m 53.974,-4.88006 -2.6667,-0.4 v 0 a 22.080273,22.080273 0 0 0 0.25334,-2.40003 v -0.14667 l 2.6667,0.21333 c 0,0.93335 -0.14667,1.85336 -0.28001,2.6667 z m -55.26735,-0.44 v -0.0933 a 25.213645,25.213645 0 0 1 -0.22667,-2.6667 v 0 h 0.0667 l 2.57336,-0.0933 v 0 c 0,0.82667 0.10667,1.65335 0.21334,2.46669 v 0.0933 z m 52.92065,-4.8934 v -0.0667 a 22.546945,22.546945 0 0 0 -0.22667,-2.48003 v 0 h 0.0667 l 2.5467,-0.36 v 0 c 0.12,0.88001 0.2,1.77335 0.24,2.6667 v 0.13333 h -0.13333 z m -50.54729,-0.41334 -2.57336,-0.18667 c 0,-0.90667 0.16,-1.82668 0.29333,-2.6667 v -0.0667 l 2.6667,0.41334 v 0 c -0.13333,0.82667 -0.22667,1.65335 -0.28,2.46669 z m 49.88062,-4.49339 v -0.0667 a 23.573624,23.573624 0 0 0 -0.70668,-2.37337 v 0 0 l 2.44003,-0.86667 v 0.08 a 26.18699,26.18699 0 0 1 0.77335,2.57336 v 0.10667 z m -49.09394,-0.4 v 0 l -2.53337,-0.62667 v 0 -0.12001 c 0.22667,-0.82667 0.48001,-1.66668 0.78668,-2.49336 l 0.16,-0.10667 v 0 l 2.37337,0.88001 v 0 a 23.293621,23.293621 0 0 0 -0.78668,2.40003 z m 47.41392,-4.26672 v 0 c -0.34667,-0.74668 -0.73334,-1.48002 -1.14668,-2.20003 v 0 l 2.28003,-1.33335 v 0.08 c 0.45333,0.77335 0.88001,1.58669 1.33335,2.41337 v 0 z m -48.05393,-1.52002 v -0.0667 c 0.40001,-0.81334 0.84001,-1.62668 1.33335,-2.41336 v 0 l 2.25336,1.33335 v 0 c -0.42667,0.70668 -0.81334,1.41335 -1.16001,2.13336 z m 23.38696,-1.33335 a 0.06666749,0.06666749 0 0 1 0,-0.0667 c 0,0 0.13333,0 0.13333,0 z m 22.20027,-1.41335 v 0 c -0.46667,-0.64001 -0.98668,-1.33335 -1.50668,-1.86669 l -0.0933,-0.10667 v 0 l 1.98669,-1.826686 v 0 a 26.333659,26.333659 0 0 1 1.73336,2.133356 v 0 z m -40.6405,-0.33334 v 0 l -2.05336,-1.56002 v 0 -0.0667 c 0.54667,-0.72001 1.13335,-1.41335 1.74669,-2.080029 v 0 l 1.94669,1.800019 v 0 a 22.586946,22.586946 0 0 0 -1.54669,1.84003 v 0 z m 37.33379,-3.360038 v 0 c -0.61334,-0.560007 -1.24001,-1.080013 -1.85335,-1.560019 l -0.10667,-0.106668 1.57335,-2.080026 v 0 l 0.0933,0.08 a 24.773639,24.773639 0 0 1 2.06669,1.720021 v 0 z m -34.00042,-0.280004 v 0 l -1.70668,-1.920023 v 0 a 27.307004,27.307004 0 0 1 2.13336,-1.720022 v 0 l 1.56001,2.13336 v 0 c -0.66667,0.49334 -1.33335,1.013346 -1.93335,1.560019 z m 30.05371,-2.666699 v 0 a 22.840282,22.840282 0 0 0 -2.1867,-1.186682 v 0 -0.06667 l 1.13335,-2.320029 v 0 c 0.82668,0.400005 1.64002,0.840011 2.41336,1.33335 v 0 z m -26.05366,-0.213336 v 0 l -1.33335,-2.213361 v 0 a 24.880307,24.880307 0 0 1 2.44003,-1.33335 v 0 l 1.10668,2.40003 v 0 c -0.73334,0.346671 -1.48001,0.733342 -2.20002,1.160014 z m 21.6936,-1.986691 v 0 a 20.000247,20.000247 0 0 0 -2.34669,-0.733343 h -0.0933 l 0.65335,-2.546698 h 0.0667 c 0.86668,0.22667 1.74669,0.49334 2.6667,0.813343 v 0 z m -17.09354,-0.146669 v 0 l -0.84001,-2.413363 v 0 c 0.85334,-0.293337 1.74669,-0.546673 2.6667,-0.760009 v 0 l 0.61334,2.573365 v 0 a 22.666947,22.666947 0 0 0 -2.3467,0.680008 z m 12.32015,-1.093347 h -0.0667 c -0.82667,-0.133335 -1.65335,-0.213336 -2.46669,-0.26667 l -0.08,-0.06667 0.22667,-2.573365 c 0.88001,0 1.80002,0.146668 2.6667,0.293337 v 0 z m -7.48009,-0.08 h -0.0933 l -0.34667,-2.546698 h 0.08 c 0.86668,-0.120001 1.76003,-0.200002 2.6667,-0.240003 v 0 l 0.08,0.106668 0.0933,2.533365 v 0 c -0.81334,0 -1.64002,0.106668 -2.4667,0.213336 z"
     id="path12"
     inkscape:connector-curvature="0"
     style="fill:#ffffff;stroke-width:1" />
  <path
     class="cls-3"
     d="m 24.008256,82.022271 a 27.907011,27.907011 0 1 1 27.920345,0 l -1.33335,-2.3067 a 25.253645,25.253645 0 1 0 -25.240311,0 z"
     id="path14"
     inkscape:connector-curvature="0"
     style="fill:#ffc300;stroke-width:1" />
  <path
     class="cls-2"
     d="m 33.315038,90.382371 a 1.8800232,1.8800232 0 0 1 0.560007,1.33335 v 1.92003 h -1.133348 v -1.90669 a 0.78667638,0.78667638 0 0 0 -0.760009,-0.78668 h -0.813343 v 2.6667 h -1.133348 v -5.3734 h -0.53334 v -1.13335 h 2.40003 a 1.9200237,1.9200237 0 0 1 1.33335,3.26671 z m -1.33335,-0.57334 a 0.80000988,0.80000988 0 0 0 0.760009,-0.80001 0.78667638,0.78667638 0 0 0 -0.786676,-0.76001 h -0.786676 v 1.56002 z"
     id="path16"
     inkscape:connector-curvature="0"
     style="fill:#ffffff;stroke-width:1" />
  <path
     class="cls-2"
     d="m 36.235074,88.235681 v 4.25339 h 0.49334 v 1.13334 h -2.106693 v -1.13334 h 0.493339 v -4.25339 h -0.493339 v -1.13335 h 2.106693 v 1.13335 z"
     id="path18"
     inkscape:connector-curvature="0"
     style="fill:#ffffff;stroke-width:1" />
  <path
     class="cls-2"
     d="m 41.501806,91.849061 a 2.0533587,2.0533587 0 0 1 -3.933382,0.54667 l 1.06668,-0.4 a 0.85334387,0.85334387 0 0 0 0.880011,0.50667 0.76000939,0.76000939 0 0 0 0.826676,-0.70668 c 0,-0.14667 0,-0.58667 -1.013345,-0.94667 -1.533353,-0.53334 -1.82669,-1.44002 -1.800023,-2.09336 a 1.9200237,1.9200237 0 0 1 1.933358,-1.85336 1.9733577,1.9733577 0 0 1 1.94669,1.25335 l -1.080013,0.41334 a 0.80000988,0.80000988 0 0 0 -0.866677,-0.50668 0.78667638,0.78667638 0 0 0 -0.840011,0.69335 c 0,0.14666 0,0.6 1.02668,0.96001 1.533352,0.57334 1.853356,1.46668 1.853356,2.13336 z"
     id="path20"
     inkscape:connector-curvature="0"
     style="fill:#ffffff;stroke-width:1" />
  <path
     class="cls-2"
     d="m 43.315162,89.035691 a 0.78667638,0.78667638 0 0 0 0.786676,0.78668 h 2.093359 v 1.08001 h -2.026692 a 1.8266892,1.8266892 0 0 1 -0.786676,-0.17334 v 0.96002 a 0.80000988,0.80000988 0 0 0 0.786676,0.78667 h 2.09336 v 1.12002 h -2.09336 a 1.9066902,1.9066902 0 0 1 -1.90669,-1.90669 v -2.6667 a 1.9066902,1.9066902 0 0 1 1.90669,-1.89336 h 2.09336 v 1.10668 h -2.09336 a 0.80000988,0.80000988 0 0 0 -0.853343,0.80001 z"
     id="path22"
     inkscape:connector-curvature="0"
     style="fill:#ffffff;stroke-width:1" />
  <path
     class="cls-2"
     d="m 143.51639,88.649021 a 0.78667638,0.78667638 0 0 0 0.69335,1.17335 h 2.09336 v 1.08001 h -2.13336 a 1.8266892,1.8266892 0 0 1 -0.78668,-0.17334 v 2.88004 h -1.13335 v -4.57339 a 1.9200237,1.9200237 0 0 1 1.92003,-1.90669 h 2.09336 v 1.10668 h -2.09336 a 0.80000988,0.80000988 0 0 0 -0.65335,0.41334 z"
     id="path24"
     inkscape:connector-curvature="0"
     style="fill:#ffffff;stroke-width:1" />
  <path
     class="cls-2"
     d="m 151.38316,89.289031 v 4.36005 h -1.13335 v -2.32003 h -2.08002 v 2.33336 h -1.12002 v -4.37338 a 2.1733602,2.1733602 0 0 1 4.33339,0 z m -1.13335,0.92001 v -0.92001 a 1.0400128,1.0400128 0 1 0 -2.08002,0 v 0.92001 z"
     id="path26"
     inkscape:connector-curvature="0"
     style="fill:#ffffff;stroke-width:1" />
  <path
     class="cls-2"
     d="m 155.90321,92.529071 v 1.13334 h -3.73337 v -6.53341 h 1.13334 v 5.3334 z"
     id="path28"
     inkscape:connector-curvature="0"
     style="fill:#ffffff;stroke-width:1" />
  <path
     class="cls-2"
     d="m 160.40994,92.529071 v 1.13334 h -3.77338 v -6.53341 h 1.13334 v 5.3334 z"
     id="path30"
     inkscape:connector-curvature="0"
     style="fill:#ffffff;stroke-width:1" />
  <path
     class="cls-3"
     d="m 107.19595,73.728831 a 3.0133705,3.0133705 0 0 0 -2.96004,2.3867 h -7.800092 a 1.8666897,1.8666897 0 0 0 -3.520044,0 h -6.493413 a 4.3467203,4.3467203 0 1 0 0,1.33335 h 6.493413 a 1.8800232,1.8800232 0 0 0 3.520044,0 h 7.800092 a 3.0400375,3.0400375 0 1 0 2.96004,-3.70671 z"
     id="path32"
     inkscape:connector-curvature="0"
     style="fill:#ffc300;stroke-width:1" />
  <circle
     class="cls-4"
     cx="94.66246"
     cy="35.19503"
     r="6.0534081"
     id="circle34"
     style="fill:#a5a5a5;stroke-width:1" />
  <path
     d="m 95.609141,32.661661 v 6.240077 h -1.33335 v -6.21341 H 93.66245 v -1.33335 h 0.640008 a 1.3333498,1.3333498 0 0 1 1.306683,1.306683 z"
     id="path36"
     inkscape:connector-curvature="0"
     style="stroke-width:1" />
  <path
     class="cls-3"
     d="m 94.662462,29.154951 a 6.0534081,6.0534081 0 1 1 -6.053408,6.040074 6.0400746,6.0400746 0 0 1 6.053408,-6.040074 m 0,-1.33335 a 7.3867579,7.3867579 0 1 0 7.373418,7.373424 7.3867579,7.3867579 0 0 0 -7.373418,-7.373424 z"
     id="path38"
     inkscape:connector-curvature="0"
     style="fill:#ffc300;stroke-width:1" />
  <circle
     class="cls-1"
     cx="94.66246"
     cy="273.30463"
     r="6.0534081"
     id="circle40"
     style="fill:none;stroke:#000000;stroke-width:0.28px;stroke-miterlimit:10" />
  <path
     class="cls-2"
     d="m 167.86336,318.46518 v 0 l -0.10667,-0.0933 -1.48001,-2.01336 v 0 c 0.68,-0.49334 1.33335,-1.02668 1.92002,-1.56002 v 0 0 l 1.73335,1.92003 v 0 a 25.946987,25.946987 0 0 1 -2.06669,1.68002 z m -33.33374,-0.24001 h -0.0667 c -0.70668,-0.53334 -1.41335,-1.13334 -2.09336,-1.76002 v 0 l 1.80002,-1.94669 v 0 c 0.60001,0.56001 1.22668,1.08001 1.85336,1.56002 l 0.10667,0.08 z m 37.40046,-3.40004 h -0.08 l -1.88002,-1.72002 v 0 c 0.54667,-0.60001 1.08001,-1.24002 1.58668,-1.90669 v -0.0667 0 l 2.06669,1.54669 v 0 a 26.386993,26.386993 0 0 1 -1.72002,2.08002 z m -41.41385,-0.30667 v 0 a 26.933666,26.933666 0 0 1 -1.72002,-2.14669 v 0 l 2.04003,-1.65336 v 0 c 0.46667,0.64001 0.98668,1.33335 1.54668,1.93336 v 0 0 z m 44.69389,-4.00005 -2.25336,-1.33335 v 0 a 24.226966,24.226966 0 0 0 1.17335,-2.17336 v 0 h 0.0667 l 2.33337,1.10668 v 0.0667 a 26.666996,26.666996 0 0 1 -1.33335,2.4267 z m -47.92059,-0.37334 v -0.08 c -0.45334,-0.78667 -0.89335,-1.60002 -1.33335,-2.42669 v -0.0933 h 0.0933 l 2.33336,-1.08001 v 0 c 0.34668,0.74667 0.73335,1.48002 1.14669,2.20003 v 0 0 z m 50.29395,-4.57339 -2.49336,-0.90667 v 0 c 0.28,-0.77335 0.52,-1.56002 0.73334,-2.36003 v -0.0667 0 l 2.49336,0.64001 v 0 a 26.226991,26.226991 0 0 1 -0.81334,2.6667 z m -52.61398,-0.41333 v -0.0933 a 27.200336,27.200336 0 0 1 -0.76001,-2.6667 v -0.0667 l 2.57337,-0.61334 v 0.0667 a 23.413622,23.413622 0 0 0 0.69334,2.3867 v 0.0667 0 z m 53.974,-4.92007 -2.6667,-0.4 v 0 a 22.080273,22.080273 0 0 0 0.25334,-2.40003 v -0.14667 l 2.6667,0.21334 c 0,0.93334 -0.14667,1.85335 -0.28001,2.6667 z m -55.26735,-0.44 v -0.0933 a 25.213645,25.213645 0 0 1 -0.22667,-2.6667 v -0.0667 h 0.0667 l 2.57336,-0.0933 v 0.0667 c 0,0.82668 0.10667,1.65335 0.21334,2.4667 v 0.0933 z m 52.92065,-4.89339 v 0 a 22.546945,22.546945 0 0 0 -0.22667,-2.48004 v -0.0667 h 0.0667 l 2.5467,-0.36001 v 0.0667 c 0.12,0.88001 0.2,1.77336 0.24,2.6667 v 0.13333 h -0.13333 z m -50.54729,-0.41334 -2.57336,-0.24001 c 0,-0.90667 0.16,-1.82669 0.29333,-2.6667 v -0.0667 l 2.6667,0.41334 v 0.0667 c -0.13333,0.82668 -0.22667,1.65336 -0.28,2.4667 z m 49.88062,-4.49339 v 0 a 23.573624,23.573624 0 0 0 -0.70668,-2.37336 v -0.0667 0 l 2.44003,-0.86668 v 0.08 a 26.18699,26.18699 0 0 1 0.77335,2.57337 v 0.12 z m -49.09394,-0.36001 v 0 l -2.5067,-0.65334 v 0 -0.12 c 0.22667,-0.82668 0.48001,-1.66669 0.78668,-2.49336 l 0.16,-0.10667 v 0 l 2.37336,0.88001 v 0 a 23.293621,23.293621 0 0 0 -0.81334,2.4267 z m 47.41392,-4.26672 v 0 c -0.34667,-0.74667 -0.73334,-1.48001 -1.14668,-2.20002 v 0 l 2.28003,-1.33335 v 0.08 c 0.45333,0.77334 0.88001,1.58668 1.33335,2.41336 v 0 z m -48.09393,-1.52001 v -0.0667 c 0.40001,-0.81335 0.84001,-1.62669 1.33335,-2.41337 v 0 l 2.25336,1.33335 v 0 c -0.42667,0.70668 -0.81334,1.41336 -1.16001,2.13336 z m 23.38696,-1.33335 a 0.06666749,0.06666749 0 0 1 0,-0.0667 c 0,0 0.13333,0 0.13333,0 a 0,0 0 0 0 -0.0933,0.0667 z m 22.20027,-1.41336 v 0 c -0.46667,-0.64 -0.98668,-1.33335 -1.50669,-1.86668 l -0.0933,-0.10667 v 0 l 2.02669,-1.82669 v 0 a 26.333659,26.333659 0 0 1 1.73336,2.13336 v 0 z m -40.6405,-0.33333 v 0 l -2.05336,-1.56002 v 0 0 c 0.54667,-0.72001 1.13335,-1.41335 1.74669,-2.08003 v 0 l 1.94669,1.80002 v 0 a 22.586946,22.586946 0 0 0 -1.54669,1.84003 v 0 z m 37.33379,-3.36004 v 0 c -0.61334,-0.56001 -1.24001,-1.08002 -1.85335,-1.56002 l -0.10667,-0.10667 1.57335,-2.08003 v 0 l 0.0933,0.08 a 24.773639,24.773639 0 0 1 2.06669,1.72003 v 0 z m -34.00042,-0.28001 v 0 l -1.70668,-1.92002 v 0 a 27.307004,27.307004 0 0 1 2.13335,-1.72002 v 0 l 1.56002,2.13336 v 0 c -0.66667,0.49334 -1.33335,1.01334 -1.93335,1.56002 z m 30.05371,-2.6667 v 0 a 22.840282,22.840282 0 0 0 -2.1867,-1.18668 v 0 0 l 1.13335,-2.32003 v 0 c 0.82668,0.40001 1.64002,0.84001 2.41336,1.33335 v 0 z m -26.05366,-0.21333 v 0 l -1.33335,-2.21336 v 0 a 24.880307,24.880307 0 0 1 2.44003,-1.33335 v 0 l 1.10668,2.40003 v 0 c -0.73334,0.34667 -1.48002,0.73334 -2.20002,1.16001 z m 21.7336,-2.01336 v 0 a 20.000247,20.000247 0 0 0 -2.34669,-0.73334 h -0.0933 l 0.65335,-2.5467 h 0.0667 c 0.86668,0.22667 1.74669,0.49334 2.6667,0.81334 v 0 z m -17.09354,-0.14667 v 0 l -0.84001,-2.41336 v 0 c 0.85334,-0.29334 1.74669,-0.54668 2.6667,-0.76001 v 0 l 0.61334,2.57336 v 0 a 22.666947,22.666947 0 0 0 -2.3467,0.68001 z m 12.32015,-1.09335 h -0.0667 c -0.82667,-0.13333 -1.65335,-0.21333 -2.46669,-0.26667 h -0.08 l 0.22667,-2.57336 c 0.88001,0 1.80002,0.14667 2.6667,0.29334 v 0 z m -7.48009,-0.08 h -0.0933 l -0.34667,-2.5467 h 0.08 c 0.86668,-0.12 1.76003,-0.2 2.6667,-0.24 v 0 l 0.08,0.10667 0.0933,2.53336 v 0 c -0.81334,0 -1.64002,0.10667 -2.4667,0.21334 z"
     id="path42"
     inkscape:connector-curvature="0"
     style="fill:#ffffff;stroke-width:1" />
  <path
     class="cls-3"
     d="m 24.008256,320.1452 a 27.907011,27.907011 0 1 1 27.920345,0 l -1.33335,-2.3067 a 25.253645,25.253645 0 1 0 -25.240311,0 z"
     id="path44"
     inkscape:connector-curvature="0"
     style="fill:#ffc300;stroke-width:1" />
  <path
     class="cls-2"
     d="m 33.315038,328.49197 a 1.8933567,1.8933567 0 0 1 0.560007,1.33335 v 1.92002 h -1.133348 v -1.90669 a 0.78667638,0.78667638 0 0 0 -0.760009,-0.78668 h -0.813343 v 2.6667 h -1.133348 v -5.3334 h -0.53334 v -1.13334 h 2.40003 a 1.9333572,1.9333572 0 0 1 1.920024,1.92002 1.8933567,1.8933567 0 0 1 -0.506673,1.32002 z m -1.33335,-0.56001 a 0.80000988,0.80000988 0 0 0 0.760009,-0.80001 0.80000988,0.80000988 0 0 0 -0.786676,-0.77334 h -0.786676 v 1.56002 h 0.813343 z"
     id="path46"
     inkscape:connector-curvature="0"
     style="fill:#ffffff;stroke-width:1" />
  <path
     class="cls-2"
     d="m 36.235074,326.38527 v 4.25339 h 0.49334 v 1.13335 h -2.106693 v -1.13335 h 0.493339 v -4.25339 h -0.493339 v -1.13334 h 2.106693 v 1.13334 z"
     id="path48"
     inkscape:connector-curvature="0"
     style="fill:#ffffff;stroke-width:1" />
  <path
     class="cls-2"
     d="m 41.501806,329.95865 a 1.9200237,1.9200237 0 0 1 -1.986691,1.81336 1.9600242,1.9600242 0 0 1 -1.946691,-1.25335 l 1.06668,-0.41334 a 0.84001037,0.84001037 0 0 0 0.880011,0.52001 0.77334288,0.77334288 0 0 0 0.826676,-0.70668 c 0,-0.14667 0,-0.60001 -1.013345,-0.96001 -1.533353,-0.53334 -1.82669,-1.42669 -1.800023,-2.09336 a 1.9200237,1.9200237 0 0 1 1.986692,-1.80002 1.9600242,1.9600242 0 0 1 1.94669,1.24001 l -1.080013,0.41334 a 0.81334338,0.81334338 0 0 0 -0.866677,-0.50667 0.78667638,0.78667638 0 0 0 -0.840011,0.70667 c 0,0.14667 0,0.58668 1.02668,0.94668 1.480018,0.53334 1.800022,1.44002 1.800022,2.09336 z"
     id="path50"
     inkscape:connector-curvature="0"
     style="fill:#ffffff;stroke-width:1" />
  <path
     class="cls-2"
     d="m 43.315162,327.14528 a 0.78667638,0.78667638 0 0 0 0.786676,0.78668 h 2.093359 v 1.13335 h -2.026692 a 2.0266917,2.0266917 0 0 1 -0.786676,-0.16 v 0.94667 a 0.78667638,0.78667638 0 0 0 0.786676,0.78668 h 2.09336 v 1.13335 h -2.09336 a 1.9200237,1.9200237 0 0 1 -1.90669,-1.92003 v -2.6667 a 1.9066902,1.9066902 0 0 1 1.90669,-1.94669 h 2.09336 v 1.13335 h -2.09336 a 0.78667638,0.78667638 0 0 0 -0.853343,0.77334 z"
     id="path52"
     inkscape:connector-curvature="0"
     style="fill:#ffffff;stroke-width:1" />
  <path
     class="cls-2"
     d="m 143.51639,326.75861 a 0.82667688,0.82667688 0 0 0 0,0.78668 0.78667638,0.78667638 0 0 0 0.69335,0.38667 h 2.09336 v 1.13335 h -2.13336 a 2.0266917,2.0266917 0 0 1 -0.78668,-0.16 v 2.8667 h -1.13335 v -4.62673 a 1.9200237,1.9200237 0 0 1 1.92003,-1.90669 h 2.09336 v 1.13335 h -2.09336 a 0.78667638,0.78667638 0 0 0 -0.65335,0.38667 z"
     id="path54"
     inkscape:connector-curvature="0"
     style="fill:#ffffff;stroke-width:1" />
  <path
     class="cls-2"
     d="m 151.38316,327.41195 v 4.34672 h -1.13335 v -2.32003 h -2.08002 v 2.33337 h -1.12002 v -4.36006 a 2.1733602,2.1733602 0 1 1 4.33339,0 z m -1.13335,0.90668 v -0.90668 a 1.0400128,1.0400128 0 0 0 -2.08002,0 v 0.90668 z"
     id="path56"
     inkscape:connector-curvature="0"
     style="fill:#ffffff;stroke-width:1" />
  <path
     class="cls-2"
     d="m 155.90321,330.63866 v 1.13335 h -3.73337 v -6.53342 h 1.13334 v 5.40007 z"
     id="path58"
     inkscape:connector-curvature="0"
     style="fill:#ffffff;stroke-width:1" />
  <path
     class="cls-2"
     d="m 160.40994,330.63866 v 1.13335 h -3.77338 v -6.53342 h 1.13334 v 5.40007 z"
     id="path60"
     inkscape:connector-curvature="0"
     style="fill:#ffffff;stroke-width:1" />
  <path
     class="cls-3"
     d="m 107.19595,311.83843 a 3.026704,3.026704 0 0 0 -2.96004,2.38669 h -7.800092 a 1.8800232,1.8800232 0 0 0 -3.520044,0 h -6.493413 a 4.3467203,4.3467203 0 1 0 0,1.33335 h 6.493413 a 1.8800232,1.8800232 0 0 0 3.520044,0 h 7.800092 a 3.0400375,3.0400375 0 1 0 2.96004,-3.70671 z"
     id="path62"
     inkscape:connector-curvature="0"
     style="fill:#ffc300;stroke-width:1" />
  <circle
     class="cls-4"
     cx="94.66246"
     cy="273.30463"
     r="6.0534081"
     id="circle64"
     style="fill:#a5a5a5;stroke-width:1" />
  <path
     d="m 96.849156,269.57124 v 7.45342 h -1.33335 v -3.28004 a 2.2000272,2.2000272 0 0 1 -2.013358,-0.17333 2.1600267,2.1600267 0 0 1 -0.986679,-1.84002 v -2.16003 h 1.33335 v 2.17336 a 0.90667786,0.90667786 0 1 0 1.800022,0 v -2.17336 z"
     id="path66"
     inkscape:connector-curvature="0"
     style="stroke-width:1" />
  <path
     class="cls-3"
     d="m 94.662462,267.26454 a 6.0534081,6.0534081 0 1 1 -6.053408,6.04008 6.0400746,6.0400746 0 0 1 6.053408,-6.04008 m 0,-1.33335 a 7.3867579,7.3867579 0 1 0 7.373418,7.37343 7.3867579,7.3867579 0 0 0 -7.373418,-7.37343 z"
     id="path68"
     inkscape:connector-curvature="0"
     style="fill:#ffc300;stroke-width:1" />
  <circle
     class="cls-1"
     cx="94.66246"
     cy="114.56935"
     r="6.0534081"
     id="circle70"
     style="fill:none;stroke:#000000;stroke-width:0.28px;stroke-miterlimit:10" />
  <path
     class="cls-2"
     d="m 167.86336,159.71655 v 0 l -0.10667,-0.0933 -1.48001,-2.05335 v 0 c 0.68,-0.49334 1.33335,-1.02668 1.92002,-1.56002 v 0 0 l 1.73335,1.92002 v 0 a 25.946987,25.946987 0 0 1 -2.06669,1.68002 z m -33.33374,-0.24 h -0.0667 c -0.70668,-0.53334 -1.41335,-1.13335 -2.09336,-1.76003 v 0 l 1.80002,-1.94669 v 0 c 0.60001,0.56001 1.22668,1.08002 1.85336,1.56002 l 0.10667,0.0933 z m 37.40046,-3.40005 h -0.08 l -1.88002,-1.72002 v 0 c 0.54667,-0.6 1.08001,-1.24001 1.58668,-1.90669 v 0 0 l 2.06669,1.54669 v 0 a 26.386993,26.386993 0 0 1 -1.72002,2.08002 z m -41.41385,-0.30667 v 0 a 26.933666,26.933666 0 0 1 -1.78668,-2.20002 v 0 l 2.10669,-1.60002 v 0 c 0.46667,0.64 0.98668,1.33335 1.54668,1.93335 v 0 0 z m 44.69389,-4.00005 -2.25336,-1.33335 v 0 a 24.226966,24.226966 0 0 0 1.17335,-2.17336 v 0 h 0.0667 l 2.33337,1.10668 v 0 a 26.666996,26.666996 0 0 1 -1.33335,2.4267 z m -47.92059,-0.37333 v -0.08 c -0.45334,-0.78668 -0.89335,-1.60002 -1.33335,-2.4267 v -0.0933 h 0.0933 l 2.33336,-1.08001 v 0 c 0.34668,0.74668 0.73335,1.48002 1.14669,2.20003 v 0 0 z m 50.30729,-4.54673 -2.49337,-0.90667 v -0.0667 c 0.28001,-0.77334 0.52001,-1.56002 0.73334,-2.36003 v 0 0 l 2.49337,0.64001 v 0 a 26.226991,26.226991 0 0 1 -0.81335,2.6667 z m -52.61399,-0.41334 v -0.0933 a 27.200336,27.200336 0 0 1 -0.76001,-2.6667 v 0 l 2.57337,-0.61334 v 0 a 23.413622,23.413622 0 0 0 0.69334,2.3867 v 0 0 z m 53.96067,-4.86672 -2.6667,-0.40001 v 0 a 22.080273,22.080273 0 0 0 0.25334,-2.40003 v -0.14666 l 2.6667,0.21333 c 0,0.93335 -0.14667,1.85336 -0.28001,2.6667 z m -55.26735,-0.44001 v -0.0933 a 25.213645,25.213645 0 0 1 -0.22667,-2.6667 v 0 h 0.0667 l 2.57336,-0.0933 v 0 c 0,0.82668 0.10667,1.65336 0.21334,2.4667 v 0.0933 z m 52.92065,-4.89339 v 0 a 22.546945,22.546945 0 0 0 -0.22667,-2.48003 v 0 h 0.0667 l 2.5467,-0.35999 v 0 c 0.12,0.87999 0.2,1.77334 0.24,2.66668 v 0.13334 h -0.13333 z m -50.54729,-0.41334 -2.57336,-0.24 c 0,-0.90668 0.16,-1.82669 0.29333,-2.66669 v 0 l 2.6667,0.41334 v 0 c -0.13333,0.82666 -0.22667,1.65334 -0.28,2.46668 z m 49.88062,-4.49337 v -0.0667 a 23.573624,23.573624 0 0 0 -0.70668,-2.37337 v 0 0 l 2.44003,-0.86667 v 0.08 a 26.18699,26.18699 0 0 1 0.77335,2.57336 v 0.12001 z m -49.09394,-0.42668 v 0 l -2.5067,-0.65334 v 0 -0.12 c 0.22667,-0.82668 0.48001,-1.66669 0.78668,-2.49336 l 0.16,-0.10667 v 0 l 2.37336,0.88001 v 0 a 23.293621,23.293621 0 0 0 -0.81334,2.41336 z m 47.41392,-4.26672 v 0 c -0.34667,-0.74667 -0.73334,-1.48001 -1.14668,-2.20002 v 0 l 2.28003,-1.33335 v 0.08 c 0.45333,0.77334 0.88001,1.58668 1.33335,2.41336 v 0 z m -48.05393,-1.53335 v -0.0667 c 0.40001,-0.81334 0.84001,-1.62668 1.33335,-2.41336 v 0 l 2.25336,1.33335 v 0 c -0.42667,0.70668 -0.81334,1.41335 -1.16001,2.13336 z m 23.38696,-1.33335 a 0.06666749,0.06666749 0 0 1 0,-0.0667 c 0,0 0.13333,0 0.13333,0 z m 22.20027,-1.41335 v 0 c -0.46667,-0.64001 -0.98668,-1.33335 -1.50668,-1.86669 l -0.0933,-0.10667 v 0 l 1.98669,-1.82669 v 0 a 26.333659,26.333659 0 0 1 1.73336,2.13336 v 0 z m -40.6405,-0.33334 v 0 l -2.05336,-1.56002 v 0 0 c 0.54667,-0.72 1.13335,-1.41335 1.74669,-2.08002 v 0 l 1.94669,1.80002 v 0 a 22.586946,22.586946 0 0 0 -1.54669,1.84002 v 0 z m 37.33379,-3.36004 v 0 c -0.61334,-0.56 -1.24001,-1.08001 -1.85335,-1.56002 l -0.10667,-0.0933 1.54668,-2.10669 v 0 h 0.10667 a 24.773639,24.773639 0 0 1 2.06669,1.72002 v 0 z m -34.00042,-0.28 v 0 l -1.70668,-1.92003 v 0 a 27.307004,27.307004 0 0 1 2.13336,-1.72002 v 0 l 1.56001,2.13336 v 0 c -0.66667,0.49334 -1.33335,1.01335 -1.93335,1.56002 z m 30.05371,-2.6667 v 0 a 22.840282,22.840282 0 0 0 -2.1867,-1.18668 v 0 0 l 1.13335,-2.32003 v 0 c 0.82668,0.4 1.64002,0.84001 2.41336,1.33335 v 0 z m -26.05366,-0.21334 v 0 l -1.33335,-2.21336 v 0 a 24.880307,24.880307 0 0 1 2.44003,-1.33335 v 0 l 1.10668,2.40003 v 0 c -0.73334,0.34667 -1.48001,0.73334 -2.20002,1.16002 z m 21.6936,-1.93335 v 0 a 20.000247,20.000247 0 0 0 -2.34669,-0.73335 h -0.0933 l 0.65335,-2.56003 h 0.0667 c 0.86668,0.22667 1.74669,0.49334 2.6667,0.81335 v 0 z m -17.09354,-0.14667 v 0 l -0.97335,-2.52003 v 0 c 0.85335,-0.29334 1.74669,-0.54668 2.6667,-0.76001 v 0 l 0.73335,2.49336 v 0 a 22.666947,22.666947 0 0 0 -2.3467,0.68001 z m 12.32015,-1.09335 h -0.0667 c -0.82667,-0.13333 -1.65335,-0.21334 -2.46669,-0.26667 h -0.08 l 0.22667,-2.57336 c 0.88001,0 1.80002,0.14666 2.6667,0.29333 v 0 z m -7.54676,-0.0933 h -0.0933 l -0.34667,-2.6667 h 0.08 c 0.86667,-0.12001 1.76002,-0.20001 2.6667,-0.24001 v 0 l 0.08,0.10667 0.0933,2.53337 v 0 c -0.81334,0 -1.64002,0.10666 -2.46669,0.21333 z"
     id="path72"
     inkscape:connector-curvature="0"
     style="fill:#ffffff;stroke-width:1" />
  <path
     class="cls-3"
     d="m 24.008256,161.39657 a 27.907011,27.907011 0 1 1 27.920345,0 l -1.33335,-2.3067 a 25.253645,25.253645 0 1 0 -25.240311,0 z"
     id="path74"
     inkscape:connector-curvature="0"
     style="fill:#ffc300;stroke-width:1" />
  <path
     class="cls-2"
     d="m 33.315038,169.74334 a 1.9333572,1.9333572 0 0 1 0.560007,1.33335 v 1.92002 h -1.133348 v -1.92002 a 0.78667638,0.78667638 0 0 0 -0.760009,-0.78668 h -0.813343 v 2.6667 h -1.133348 v -5.4134 h -0.53334 v -1.12001 h 2.40003 a 1.9200237,1.9200237 0 0 1 1.920024,1.90669 1.8800232,1.8800232 0 0 1 -0.506673,1.41335 z m -1.33335,-0.56001 a 0.78667638,0.78667638 0 0 0 0,-1.57335 h -0.786676 v 1.57335 h 0.813343 z"
     id="path76"
     inkscape:connector-curvature="0"
     style="fill:#ffffff;stroke-width:1" />
  <path
     class="cls-2"
     d="m 36.235074,167.63665 v 4.26672 h 0.49334 v 1.13334 h -2.106693 v -1.13334 h 0.493339 v -4.26672 h -0.493339 v -1.12002 h 2.106693 v 1.12002 z"
     id="path78"
     inkscape:connector-curvature="0"
     style="fill:#ffffff;stroke-width:1" />
  <path
     class="cls-2"
     d="m 41.501806,171.22336 a 1.9200237,1.9200237 0 0 1 -1.986691,1.80002 1.9600242,1.9600242 0 0 1 -1.946691,-1.25335 l 1.06668,-0.4 a 0.85334387,0.85334387 0 0 0 0.880011,0.50667 0.76000939,0.76000939 0 0 0 0.826676,-0.70668 c 0,-0.14666 0,-0.6 -1.013345,-0.96001 -1.533353,-0.52 -1.82669,-1.42668 -1.800023,-2.09336 a 1.9200237,1.9200237 0 0 1 1.986692,-1.80002 1.9733577,1.9733577 0 0 1 1.94669,1.25335 l -1.080013,0.41334 a 0.81334338,0.81334338 0 0 0 -0.866677,-0.52001 0.78667638,0.78667638 0 0 0 -0.840011,0.70668 c 0,0.14667 0,0.6 1.02668,0.96001 1.480018,0.52 1.800022,1.42668 1.800022,2.09336 z"
     id="path80"
     inkscape:connector-curvature="0"
     style="fill:#ffffff;stroke-width:1" />
  <path
     class="cls-2"
     d="m 43.315162,168.40999 a 0.78667638,0.78667638 0 0 0 0.786676,0.78668 h 2.093359 v 1.13334 h -2.026692 a 2.0400252,2.0400252 0 0 1 -0.786676,-0.17333 v 0.96001 a 0.80000988,0.80000988 0 0 0 0.786676,0.78668 h 2.09336 v 1.12001 h -2.09336 a 1.9066902,1.9066902 0 0 1 -1.90669,-1.90669 v -2.6667 a 1.9200237,1.9200237 0 0 1 1.90669,-1.96002 h 2.09336 v 1.13334 h -2.09336 a 0.78667638,0.78667638 0 0 0 -0.853343,0.78668 z"
     id="path82"
     inkscape:connector-curvature="0"
     style="fill:#ffffff;stroke-width:1" />
  <path
     class="cls-2"
     d="m 143.51639,168.00998 a 0.85334387,0.85334387 0 0 0 0,0.80001 0.81334338,0.81334338 0 0 0 0.69335,0.38668 h 2.09336 v 1.13334 h -2.13336 a 2.0400252,2.0400252 0 0 1 -0.78668,-0.17333 v 2.8667 h -1.13335 v -4.61339 a 1.9333572,1.9333572 0 0 1 1.92003,-1.92002 h 2.09336 v 1.13334 h -2.09336 a 0.81334338,0.81334338 0 0 0 -0.65335,0.38667 z"
     id="path84"
     inkscape:connector-curvature="0"
     style="fill:#ffffff;stroke-width:1" />
  <path
     class="cls-2"
     d="m 151.38316,168.66333 v 4.36005 h -1.13335 v -2.32003 h -2.08002 v 2.32003 h -1.12002 v -4.36005 a 2.1733602,2.1733602 0 1 1 4.33339,0 z m -1.13335,0.90667 v -0.90667 a 1.0400128,1.0400128 0 1 0 -2.08002,0 V 169.57 Z"
     id="path86"
     inkscape:connector-curvature="0"
     style="fill:#ffffff;stroke-width:1" />
  <path
     class="cls-2"
     d="m 155.90321,171.90337 v 1.13334 h -3.73337 v -6.53341 h 1.13334 v 5.3334 z"
     id="path88"
     inkscape:connector-curvature="0"
     style="fill:#ffffff;stroke-width:1" />
  <path
     class="cls-2"
     d="m 160.40994,171.90337 v 1.13334 h -3.77338 v -6.53341 h 1.13334 v 5.3334 z"
     id="path90"
     inkscape:connector-curvature="0"
     style="fill:#ffffff;stroke-width:1" />
  <path
     class="cls-3"
     d="m 107.19595,153.0898 a 3.026704,3.026704 0 0 0 -2.96004,2.3867 h -7.800092 a 1.8800232,1.8800232 0 0 0 -3.520044,0 h -6.493413 a 4.3467203,4.3467203 0 1 0 0,1.33335 h 6.493413 a 1.8800232,1.8800232 0 0 0 3.520044,0 h 7.800092 a 3.0400375,3.0400375 0 0 0 6.01341,-0.66668 3.053371,3.053371 0 0 0 -3.05337,-3.05337 z"
     id="path92"
     inkscape:connector-curvature="0"
     style="fill:#ffc300;stroke-width:1" />
  <circle
     class="cls-4"
     cx="94.66246"
     cy="114.56935"
     r="6.0534081"
     id="circle94"
     style="fill:#a5a5a5;stroke-width:1" />
  <path
     d="m 93.862452,116.9427 h 2.786702 v 1.33335 h -4.173385 v -0.70667 a 2.6666996,2.6666996 0 0 1 0,-0.64001 3.7467129,3.7467129 0 0 1 1.733354,-2.2667 c 1.106681,-0.86667 1.33335,-1.18668 1.33335,-1.72002 a 0.90667786,0.90667786 0 0 0 -0.893344,-0.89334 0.92001136,0.92001136 0 0 0 -0.906678,0.89334 h -1.33335 a 2.186694,2.186694 0 1 1 4.373388,0 c 0,1.24002 -0.746676,1.90669 -1.800023,2.6667 a 3.6000445,3.6000445 0 0 0 -1.120014,1.33335 z"
     id="path96"
     inkscape:connector-curvature="0"
     style="stroke-width:1" />
  <path
     class="cls-3"
     d="m 94.662462,108.51593 a 6.0534081,6.0534081 0 1 1 -6.053408,6.05341 6.0400746,6.0400746 0 0 1 6.053408,-6.05341 m 0,-1.33335 a 7.3867579,7.3867579 0 1 0 7.373418,7.38676 7.4000914,7.4000914 0 0 0 -7.373418,-7.38676 z"
     id="path98"
     inkscape:connector-curvature="0"
     style="fill:#ffc300;stroke-width:1" />
  <circle
     class="cls-1"
     cx="94.66246"
     cy="193.94365"
     r="6.0534081"
     id="circle100"
     style="fill:none;stroke:#000000;stroke-width:0.28px;stroke-miterlimit:10" />
  <path
     class="cls-2"
     d="m 167.86336,239.09086 v 0 l -0.10667,-0.0933 -1.48001,-2.01336 v 0 c 0.68,-0.49334 1.33335,-1.02668 1.92002,-1.56002 v 0 0 l 1.73335,1.92002 v 0 a 25.946987,25.946987 0 0 1 -2.06669,1.68003 z m -33.33374,-0.24 h -0.0667 c -0.70668,-0.53334 -1.41335,-1.13335 -2.09336,-1.76002 v 0 l 1.80002,-1.94669 v 0 c 0.60001,0.56 1.22668,1.08001 1.85336,1.56002 l 0.10667,0.08 z m 37.40046,-3.40004 h -0.08 l -1.88002,-1.72002 v 0 c 0.54667,-0.60001 1.08001,-1.24002 1.58668,-1.90669 v -0.0667 0 l 2.06669,1.54668 v 0 a 26.386993,26.386993 0 0 1 -1.72002,2.08003 z m -41.41385,-0.30667 v 0 a 26.933666,26.933666 0 0 1 -1.72002,-2.1467 v 0 l 2.04003,-1.65335 v 0 c 0.46667,0.64001 0.98668,1.33335 1.54668,1.93336 v 0 0 z m 44.69389,-4.00005 -2.25336,-1.33335 v 0 a 24.226966,24.226966 0 0 0 1.17335,-2.17336 v 0 h 0.0667 l 2.33337,1.10668 v 0.0667 a 26.666996,26.666996 0 0 1 -1.33335,2.42669 z m -47.92059,-0.37334 v -0.08 c -0.45334,-0.78668 -0.89335,-1.60002 -1.33335,-2.4267 v -0.0933 h 0.0933 l 2.33336,-1.08002 v 0 c 0.34668,0.74668 0.73335,1.48002 1.14669,2.20003 v 0 0 z m 50.30729,-4.54672 -2.49337,-0.90668 v 0 c 0.28001,-0.77334 0.52001,-1.56002 0.73334,-2.36003 v -0.0667 0 l 2.49337,0.64001 v 0 a 26.226991,26.226991 0 0 1 -0.81335,2.6667 z m -52.61399,-0.41334 v -0.0933 a 27.200336,27.200336 0 0 1 -0.76001,-2.6667 v -0.0667 l 2.57337,-0.61334 v 0 a 23.413622,23.413622 0 0 0 0.69334,2.38669 v 0.0667 0 z m 53.974,-4.88006 -2.6667,-0.40001 v 0 a 22.080273,22.080273 0 0 0 0.25334,-2.40003 v -0.14666 l 2.6667,0.21333 c 0,0.93335 -0.14667,1.85336 -0.28,2.6667 z m -55.26735,-0.44001 v -0.0933 a 25.213645,25.213645 0 0 1 -0.22667,-2.6667 v -0.16 h 0.0667 l 2.57337,-0.0933 v 0.0933 c 0,0.82667 0.10666,1.65335 0.21333,2.46669 v 0.0933 z m 52.92066,-4.89339 v -0.0667 a 22.546945,22.546945 0 0 0 -0.22667,-2.48003 v -0.0667 h 0.0667 l 2.54669,-0.36 v 0.0667 c 0.12,0.88001 0.20001,1.77335 0.24001,2.6667 v 0.13333 h -0.13334 z m -50.54729,-0.41334 -2.5867,-0.28 c 0,-0.90668 0.16,-1.82669 0.29333,-2.6667 v -0.0667 l 2.6667,0.41334 v 0.0667 c -0.13333,0.82667 -0.22667,1.65335 -0.28,2.46669 z m 49.88061,-4.49339 v 0 a 23.573624,23.573624 0 0 0 -0.70667,-2.37336 v -0.0667 0 l 2.44003,-0.86668 v 0.08 a 26.18699,26.18699 0 0 1 0.77334,2.57336 v 0.12 z m -49.10727,-0.42667 v 0 l -2.53337,-0.69334 v 0 -0.12 c 0.22667,-0.82668 0.48001,-1.66669 0.78668,-2.49337 l 0.16,-0.10667 v 0 l 2.37337,0.88002 v 0 a 23.293621,23.293621 0 0 0 -0.74668,2.36002 z m 47.41392,-4.26672 v 0 c -0.34667,-0.74668 -0.73334,-1.48002 -1.14668,-2.20003 v 0 l 2.28003,-1.33335 v 0.08 c 0.45333,0.77335 0.88001,1.58669 1.33335,2.41337 v 0 z m -48.09393,-1.52002 v -0.0667 c 0.40001,-0.81334 0.84001,-1.62668 1.33335,-2.41336 v 0 l 2.25336,1.33335 v 0 c -0.42667,0.70668 -0.81334,1.41335 -1.16001,2.13336 z m 23.38696,-1.33335 a 0.06666749,0.06666749 0 0 1 0,-0.0667 c 0,0 0.13333,0 0.13333,0 a 0,0 0 0 0 -0.0933,0.0667 z m 22.20027,-1.41335 v 0 c -0.46667,-0.64001 -0.98668,-1.33335 -1.50669,-1.86669 l -0.0933,-0.10667 v 0 l 1.92002,-1.72002 v 0 a 26.333659,26.333659 0 0 1 1.73336,2.13336 v 0 z m -40.6405,-0.33334 v 0 l -2.05336,-1.56002 v 0 0 c 0.54667,-0.72 1.13335,-1.41335 1.74669,-2.08002 v 0 l 1.94669,1.80002 v 0 a 22.586946,22.586946 0 0 0 -1.54669,1.84002 v 0 z m 37.33379,-3.36004 v 0 c -0.61334,-0.56 -1.24001,-1.08001 -1.85335,-1.56002 l -0.10667,-0.0933 1.57335,-2.09336 v 0 l 0.0933,0.08 a 24.773639,24.773639 0 0 1 2.06669,1.72002 v 0 z m -34.00042,-0.28 v 0 L 132.7296,195.837 v 0 a 27.307004,27.307004 0 0 1 2.13335,-1.72003 v 0 l 1.56002,2.13336 v 0 c -0.66667,0.49334 -1.33335,1.01335 -1.93335,1.56002 z m 30.05371,-2.6667 v 0 a 22.840282,22.840282 0 0 0 -2.1867,-1.18668 v 0 0 l 1.13335,-2.32003 v 0 c 0.82668,0.4 1.64002,0.84001 2.41336,1.33335 v 0 z M 138.503,194.90365 v 0 l -1.33335,-2.21336 v 0 a 24.880307,24.880307 0 0 1 2.44003,-1.33335 v 0 l 1.10668,2.40003 v 0 c -0.73334,0.34667 -1.48002,0.73334 -2.20003,1.16001 z m 21.60027,-1.94669 v 0 a 20.000247,20.000247 0 0 0 -2.3467,-0.73334 h -0.0933 l 0.65334,-2.56003 h 0.0667 c 0.86667,0.22666 1.74668,0.49333 2.66669,0.81334 v 0 z m -17.09355,-0.14667 v 0 l -0.84001,-2.41336 v 0 c 0.85335,-0.29334 1.74669,-0.54668 2.6667,-0.76001 v 0 l 0.61334,2.57336 v 0 a 22.666947,22.666947 0 0 0 -2.34669,0.68001 z m 12.32015,-1.09335 h -0.0667 c -0.82668,-0.13333 -1.65336,-0.21333 -2.4667,-0.26667 h -0.08 l 0.22667,-2.57336 c 0.88001,0 1.80002,0.14667 2.6667,0.29334 v 0 z m -7.48009,-0.08 h -0.0933 l -0.34667,-2.54669 h 0.08 c 0.86667,-0.12001 1.76002,-0.20001 2.6667,-0.24001 v 0 l 0.08,0.10667 0.0933,2.53336 v 0 c -0.81334,0 -1.64002,0.10667 -2.46669,0.21334 z"
     id="path102"
     inkscape:connector-curvature="0"
     style="fill:#ffffff;stroke-width:1" />
  <path
     class="cls-3"
     d="m 24.008256,240.77088 a 27.907011,27.907011 0 1 1 27.920345,0 l -1.33335,-2.30669 a 25.253645,25.253645 0 1 0 -25.240311,0 z"
     id="path104"
     inkscape:connector-curvature="0"
     style="fill:#ffc300;stroke-width:1" />
  <path
     class="cls-2"
     d="m 33.315038,249.11765 a 1.8933567,1.8933567 0 0 1 0.560007,1.33335 v 1.92003 H 32.741697 V 250.451 a 0.80000988,0.80000988 0 0 0 -0.760009,-0.78667 h -0.813343 v 2.6667 h -1.133348 v -5.40007 h -0.53334 v -1.13335 h 2.40003 a 1.9333572,1.9333572 0 0 1 1.920024,1.92003 1.8933567,1.8933567 0 0 1 -0.506673,1.40001 z m -1.33335,-0.56 a 0.78668,0.78668 0 0 0 0,-1.57336 h -0.786676 v 1.57336 h 0.813343 z"
     id="path106"
     inkscape:connector-curvature="0"
     style="fill:#ffffff;stroke-width:1" />
  <path
     class="cls-2"
     d="m 36.235074,247.01096 v 4.26672 h 0.49334 v 1.12001 h -2.106693 v -1.12001 h 0.493339 v -4.26672 h -0.493339 v -1.13335 h 2.106693 v 1.13335 z"
     id="path108"
     inkscape:connector-curvature="0"
     style="fill:#ffffff;stroke-width:1" />
  <path
     class="cls-2"
     d="m 41.501806,250.59767 a 1.9200237,1.9200237 0 0 1 -1.986691,1.80002 1.9600242,1.9600242 0 0 1 -1.946691,-1.25335 l 1.06668,-0.4 a 0.85334387,0.85334387 0 0 0 0.880011,0.50667 0.76000939,0.76000939 0 0 0 0.826676,-0.70667 c 0,-0.14667 0,-0.60001 -1.013345,-0.96001 -1.533353,-0.52001 -1.82669,-1.42669 -1.800023,-2.09336 a 1.9200237,1.9200237 0 0 1 1.986692,-1.80003 1.9733577,1.9733577 0 0 1 1.94669,1.25335 l -1.080013,0.40001 a 0.81334338,0.81334338 0 0 0 -0.866677,-0.50668 0.78667638,0.78667638 0 0 0 -0.840011,0.70668 c 0,0.14667 0,0.60001 1.02668,0.96001 1.480018,0.52001 1.800022,1.42669 1.800022,2.09336 z"
     id="path110"
     inkscape:connector-curvature="0"
     style="fill:#ffffff;stroke-width:1" />
  <path
     class="cls-2"
     d="m 43.315162,247.7843 a 0.80000988,0.80000988 0 0 0 0.786676,0.78668 h 2.093359 v 1.12001 h -2.026692 a 2.0266917,2.0266917 0 0 1 -0.786676,-0.16 v 0.94668 a 0.78667638,0.78667638 0 0 0 0.786676,0.78668 h 2.09336 v 1.13334 h -2.09336 a 1.9066902,1.9066902 0 0 1 -1.90669,-1.92002 v -2.6667 a 1.9066902,1.9066902 0 0 1 1.90669,-1.94669 h 2.09336 v 1.13335 h -2.09336 a 0.78667638,0.78667638 0 0 0 -0.853343,0.78667 z"
     id="path112"
     inkscape:connector-curvature="0"
     style="fill:#ffffff;stroke-width:1" />
  <path
     class="cls-2"
     d="m 143.51639,247.3843 a 0.82667688,0.82667688 0 0 0 0,0.78667 0.80000988,0.80000988 0 0 0 0.69335,0.40001 h 2.09336 v 1.12001 h -2.13336 a 2.0266917,2.0266917 0 0 1 -0.78668,-0.16 v 2.8667 h -1.13335 v -4.61339 a 1.9200237,1.9200237 0 0 1 1.92003,-1.92002 h 2.09336 v 1.13335 h -2.09336 a 0.81334338,0.81334338 0 0 0 -0.65335,0.38667 z"
     id="path114"
     inkscape:connector-curvature="0"
     style="fill:#ffffff;stroke-width:1" />
  <path
     class="cls-2"
     d="m 151.38316,248.03764 v 4.36005 h -1.13335 v -2.32003 h -2.08002 v 2.32003 h -1.12002 v -4.36005 a 2.1733602,2.1733602 0 1 1 4.33339,0 z m -1.13335,0.90668 v -0.90668 a 1.0400128,1.0400128 0 0 0 -2.08002,0 v 0.90668 z"
     id="path116"
     inkscape:connector-curvature="0"
     style="fill:#ffffff;stroke-width:1" />
  <path
     class="cls-2"
     d="m 155.90321,251.27768 v 1.12001 h -3.73337 v -6.52008 h 1.13334 v 5.40007 z"
     id="path118"
     inkscape:connector-curvature="0"
     style="fill:#ffffff;stroke-width:1" />
  <path
     class="cls-2"
     d="m 160.40994,251.27768 v 1.12001 h -3.77338 v -6.52008 h 1.13334 v 5.40007 z"
     id="path120"
     inkscape:connector-curvature="0"
     style="fill:#ffffff;stroke-width:1" />
  <path
     class="cls-3"
     d="m 107.19595,232.46411 a 3.026704,3.026704 0 0 0 -2.96004,2.44003 h -7.800092 a 1.8800232,1.8800232 0 0 0 -3.520044,0 h -6.493413 a 4.3600538,4.3600538 0 1 0 0,1.33335 h 6.493413 a 1.8800232,1.8800232 0 0 0 3.520044,0 h 7.800092 a 3.0400375,3.0400375 0 0 0 6.01341,-0.65334 3.053371,3.053371 0 0 0 -3.05337,-3.12004 z"
     id="path122"
     inkscape:connector-curvature="0"
     style="fill:#ffc300;stroke-width:1" />
  <circle
     class="cls-4"
     cx="94.66246"
     cy="193.94365"
     r="6.0534081"
     id="circle124"
     style="fill:#a5a5a5;stroke-width:1" />
  <path
     d="m 96.169148,193.86364 a 2.1733602,2.1733602 0 0 1 0.333337,2.6667 2.1733602,2.1733602 0 0 1 -4.000049,-1.09335 h 1.333349 a 0.90667786,0.90667786 0 0 0 0.560007,0.82668 0.88001087,0.88001087 0 0 0 0.973346,-0.18667 0.93334486,0.93334486 0 0 0 0.200002,-0.98668 0.90667786,0.90667786 0 0 0 -0.826677,-0.54667 h -0.480006 v -1.33335 h 0.480006 a 0.90667786,0.90667786 0 0 0 0.826677,-0.54668 0.92001136,0.92001136 0 0 0 -0.200002,-0.98668 0.90667786,0.90667786 0 0 0 -1.533353,0.64001 h -1.333349 a 2.1866937,2.1866937 0 1 1 3.733379,1.53335 z"
     id="path126"
     inkscape:connector-curvature="0"
     style="stroke-width:1" />
  <path
     class="cls-3"
     d="m 94.662462,187.89023 a 6.0534081,6.0534081 0 1 1 -6.053408,6.05341 6.0400746,6.0400746 0 0 1 6.053408,-6.05341 m 0,-1.33335 a 7.3867579,7.3867579 0 1 0 7.373418,7.38676 7.3867579,7.3867579 0 0 0 -7.373418,-7.38676 z"
     id="path128"
     inkscape:connector-curvature="0"
     style="fill:#ffc300;stroke-width:1" />
  <circle
     class="cls-1"
     cx="26.621622"
     cy="360.23904"
     r="11.333473"
     id="circle130"
     style="fill:none;stroke:#000000;stroke-width:0.28px;stroke-miterlimit:10" />
  <circle
     class="cls-1"
     cx="71.982178"
     cy="360.23904"
     r="11.333473"
     id="circle132"
     style="fill:none;stroke:#000000;stroke-width:0.28px;stroke-miterlimit:10" />
  <circle
     class="cls-1"
     cx="117.3294"
     cy="360.23904"
     r="11.333473"
     id="circle134"
     style="fill:none;stroke:#000000;stroke-width:0.28px;stroke-miterlimit:10" />
  <circle
     class="cls-1"
     cx="71.982178"
     cy="409.37299"
     r="11.333473"
     id="circle136"
     style="fill:none;stroke:#000000;stroke-width:0.28px;stroke-miterlimit:10" />
  <circle
     class="cls-1"
     cx="117.3294"
     cy="409.37299"
     r="11.333473"
     id="circle138"
     style="fill:none;stroke:#000000;stroke-width:0.28px;stroke-miterlimit:10" />
  <circle
     class="cls-1"
     cx="26.621622"
     cy="409.37299"
     r="11.333473"
     id="circle140"
     style="fill:none;stroke:#000000;stroke-width:0.28px;stroke-miterlimit:10" />
  <circle
     class="cls-1"
     cx="162.68996"
     cy="360.23904"
     r="11.333473"
     id="circle142"
     style="fill:none;stroke:#000000;stroke-width:0.28px;stroke-miterlimit:10" />
  <circle
     class="cls-1"
     cx="162.68996"
     cy="409.37299"
     r="11.333473"
     id="circle144"
     style="fill:none;stroke:#000000;stroke-width:0.28px;stroke-miterlimit:10" />
  <circle
     class="cls-5"
     cx="26.621622"
     cy="360.23904"
     r="11.333473"
     id="circle146"
     style="fill:none;stroke:#000000;stroke-width:0.5px;stroke-miterlimit:10" />
  <circle
     class="cls-5"
     cx="71.982178"
     cy="360.23904"
     r="11.333473"
     id="circle148"
     style="fill:none;stroke:#000000;stroke-width:0.5px;stroke-miterlimit:10" />
  <circle
     class="cls-5"
     cx="117.3294"
     cy="360.23904"
     r="11.333473"
     id="circle150"
     style="fill:none;stroke:#000000;stroke-width:0.5px;stroke-miterlimit:10" />
  <circle
     class="cls-5"
     cx="71.982178"
     cy="409.37299"
     r="11.333473"
     id="circle152"
     style="fill:none;stroke:#000000;stroke-width:0.5px;stroke-miterlimit:10" />
  <circle
     class="cls-5"
     cx="117.3294"
     cy="409.37299"
     r="11.333473"
     id="circle154"
     style="fill:none;stroke:#000000;stroke-width:0.5px;stroke-miterlimit:10" />
  <circle
     class="cls-5"
     cx="26.621622"
     cy="409.37299"
     r="11.333473"
     id="circle156"
     style="fill:none;stroke:#000000;stroke-width:0.5px;stroke-miterlimit:10" />
  <circle
     class="cls-5"
     cx="162.68996"
     cy="360.23904"
     r="11.333473"
     id="circle158"
     style="fill:none;stroke:#000000;stroke-width:0.5px;stroke-miterlimit:10" />
  <circle
     class="cls-5"
     cx="162.68996"
     cy="409.37299"
     r="11.333473"
     id="circle160"
     style="fill:none;stroke:#000000;stroke-width:0.5px;stroke-miterlimit:10" />
  <path
     class="cls-2"
     d="m 27.581634,432.23991 v 6.20008 h -1.33335 v -6.20008 h -0.613341 v -1.33335 h 0.640008 a 1.3333498,1.3333498 0 0 1 1.306683,1.33335 z"
     id="path162"
     inkscape:connector-curvature="0"
     style="fill:#ffffff;stroke-width:1" />
  <path
     class="cls-2"
     d="m 71.182172,437.17331 h 2.786701 v 1.33335 h -4.173384 v -0.64001 a 3.50671,3.50671 0 0 1 0,-0.65334 3.8133804,3.8133804 0 0 1 1.733354,-2.25336 c 1.106681,-0.88001 1.33335,-1.20002 1.33335,-1.72002 a 0.8933445,0.8933445 0 0 0 -1.786689,0 h -1.333349 a 2.1866937,2.1866937 0 1 1 4.373387,0 c 0,1.22668 -0.746676,1.90669 -1.786689,2.6667 a 3.5467105,3.5467105 0 0 0 -1.146681,1.26668 z"
     id="path164"
     inkscape:connector-curvature="0"
     style="fill:#ffffff;stroke-width:1" />
  <path
     class="cls-2"
     d="m 118.83609,434.73328 a 2.1866937,2.1866937 0 1 1 -3.69338,1.50668 h 1.33335 a 0.90667786,0.90667786 0 0 0 0.56001,0.82668 0.88001087,0.88001087 0 0 0 0.97334,-0.2 0.88001087,0.88001087 0 0 0 -0.64,-1.52002 h -0.46668 v -1.33335 h 0.46668 a 0.89334437,0.89334437 0 0 0 0.84001,-0.56001 0.90667786,0.90667786 0 0 0 -1.17335,-1.17334 0.92001136,0.92001136 0 0 0 -0.56001,0.84001 h -1.33335 a 2.1866937,2.1866937 0 1 1 3.69338,1.61335 z"
     id="path166"
     inkscape:connector-curvature="0"
     style="fill:#ffffff;stroke-width:1" />
  <path
     class="cls-2"
     d="m 164.87666,431.01323 v 7.45343 h -1.33335 v -3.28004 a 2.1466932,2.1466932 0 0 1 -2.08003,-0.16 2.1733602,2.1733602 0 0 1 -1.00001,-1.82669 v -2.1867 h 1.33335 v 2.1867 a 0.893345,0.893345 0 0 0 1.78669,0 v -2.1867 z"
     id="path168"
     inkscape:connector-curvature="0"
     style="fill:#ffffff;stroke-width:1" />
  <rect
     class="cls-2"
     x="111.19599"
     y="376.79926"
     width="12.280151"
     height="12.280151"
     rx="6.1467428"
     ry="6.1467428"
     id="rect170"
     style="fill:#ffffff;stroke-width:1" />
  <path
     d="m 116.94273,379.98594 v 1.13334 h -1.33335 v 5.3334 h -1.13334 v -5.3334 h -1.33335 v -1.13334 z"
     id="path172"
     inkscape:connector-curvature="0"
     style="stroke-width:1" />
  <path
     d="m 120.76945,383.26598 a 1.9200237,1.9200237 0 0 1 -1.85336,3.20004 1.9200237,1.9200237 0 0 1 -1.41335,-1.85336 h 1.13335 a 0.77334288,0.77334288 0 0 0 0.48,0.72001 0.80000988,0.80000988 0 0 0 0.86668,-0.16 0.80000988,0.80000988 0 0 0 -0.56001,-1.33335 h -0.41333 v -1.13335 h 0.41333 a 0.77334288,0.77334288 0 0 0 0.72001,-0.48001 0.74667589,0.74667589 0 0 0 -0.16,-0.85334 0.80000988,0.80000988 0 0 0 -0.86668,-0.17334 0.77334288,0.77334288 0 0 0 -0.48,0.72001 h -1.13335 a 1.9200237,1.9200237 0 1 1 3.28004,1.33335 z"
     id="path174"
     inkscape:connector-curvature="0"
     style="stroke-width:1" />
  <rect
     class="cls-2"
     x="156.54321"
     y="376.79926"
     width="12.280151"
     height="12.280151"
     rx="6.1467428"
     ry="6.1467428"
     id="rect176"
     style="fill:#ffffff;stroke-width:1" />
  <path
     d="m 162.28996,379.98594 v 1.13334 h -1.33335 v 5.3334 h -1.13335 v -5.3334 h -1.33335 v -1.13334 z"
     id="path178"
     inkscape:connector-curvature="0"
     style="stroke-width:1" />
  <path
     d="m 166.67668,379.99927 v 6.53341 h -1.17335 v -2.88003 a 1.9200237,1.9200237 0 0 1 -2.6667,-1.74669 v -1.90669 h 1.13335 v 1.90669 a 0.77334288,0.77334288 0 0 0 0.78668,0.78668 0.78667638,0.78667638 0 0 0 0.78667,-0.78668 v -1.90669 z"
     id="path180"
     inkscape:connector-curvature="0"
     style="stroke-width:1" />
  <rect
     class="cls-2"
     x="65.835442"
     y="376.79926"
     width="12.280151"
     height="12.280151"
     rx="6.1467428"
     ry="6.1467428"
     id="rect182"
     style="fill:#ffffff;stroke-width:1" />
  <path
     d="m 71.582177,379.98594 v 1.13334 h -1.33335 v 5.3334 H 69.11548 v -5.3334 h -1.33335 v -1.13334 z"
     id="path184"
     inkscape:connector-curvature="0"
     style="stroke-width:1" />
  <path
     d="m 73.355533,385.39934 h 2.44003 v 1.13334 h -3.626712 v -0.57334 a 4.0000494,4.0000494 0 0 1 0,-0.56 3.4400425,3.4400425 0 0 1 1.520019,-1.9867 c 0.973345,-0.76 1.133347,-1.04001 1.133347,-1.50668 a 0.78667638,0.78667638 0 0 0 -1.560019,0 h -1.093347 a 1.9200237,1.9200237 0 0 1 3.826714,0 c 0,1.08001 -0.653341,1.68002 -1.560019,2.40003 a 3.0933715,3.0933715 0 0 0 -1.080013,1.09335 z"
     id="path186"
     inkscape:connector-curvature="0"
     style="stroke-width:1" />
  <rect
     class="cls-2"
     x="20.488213"
     y="376.79926"
     width="12.280151"
     height="12.280151"
     rx="6.1467428"
     ry="6.1467428"
     id="rect188"
     style="fill:#ffffff;stroke-width:1" />
  <path
     d="m 27.30163,379.98594 v 1.13334 h -1.33335 v 5.3334 h -1.120013 v -5.3334 h -1.33335 v -1.13334 z"
     id="path190"
     inkscape:connector-curvature="0"
     style="stroke-width:1" />
  <path
     d="m 29.501657,381.10595 v 5.42673 h -1.120013 v -5.4134 H 27.83497 v -1.12001 h 0.560007 a 1.1066803,1.1066803 0 0 1 1.10668,1.10668 z"
     id="path192"
     inkscape:connector-curvature="0"
     style="stroke-width:1" />
  <path
     class="cls-3"
     d="M 163.74331,393.07943 H 26.061615 a 16.253535,16.253535 0 1 0 0,32.50707 H 163.74331 a 16.253535,16.253535 0 1 0 0,-32.50707 z"
     id="path194"
     inkscape:connector-curvature="0"
     style="fill:#ffc300;stroke-width:1" />
  <path
     class="cls-1"
     d="M 32.488361,17.661476 H 20.754883 a 5.8667391,5.8667391 0 0 1 0,-11.7201447 h 11.733478 a 5.8667391,5.8667391 0 1 1 0,11.7201447 z"
     id="path196"
     inkscape:connector-curvature="0"
     style="fill:none;stroke:#000000;stroke-width:0.28px;stroke-miterlimit:10" />
  <path
     class="cls-1"
     d="M 32.488361,17.661476 H 20.754883 a 5.8667391,5.8667391 0 1 1 0,-11.7201447 h 11.733478 a 5.8667391,5.8667391 0 1 1 0,11.7201447 z"
     id="path198"
     inkscape:connector-curvature="0"
     style="fill:none;stroke:#000000;stroke-width:0.28px;stroke-miterlimit:10" />
  <path
     class="cls-1"
     d="m 38.3551,11.794736 a 5.8667391,5.8667391 0 0 1 -5.866739,5.86674 H 20.754883 a 5.8667391,5.8667391 0 1 1 0,-11.7201447 H 32.488361 A 5.8667391,5.8667391 0 0 1 38.3551,11.794736 Z"
     id="path200"
     inkscape:connector-curvature="0"
     style="fill:none;stroke:#000000;stroke-width:0.28px;stroke-miterlimit:10" />
  <path
     class="cls-3"
     d="M 32.635029,3.5413013 H 20.634881 a 8.2534355,8.2534355 0 0 0 0,16.5068707 h 12.000148 a 8.2534355,8.2534355 0 0 0 0,-16.5068707 z M 32.488361,17.661476 H 20.754883 a 5.8667391,5.8667391 0 0 1 0,-11.7201447 h 11.733478 a 5.8667391,5.8667391 0 1 1 0,11.7201447 z"
     id="path202"
     inkscape:connector-curvature="0"
     style="fill:#ffc300;stroke-width:1" />
  <path
     class="cls-2"
     d="m 130.83624,16.968134 a 2.6666996,2.6666996 0 0 1 -0.98668,0.760009 3.0933715,3.0933715 0 0 1 -1.33335,0.26667 3.560044,3.560044 0 0 1 -1.68002,-0.426672 7.0800874,7.0800874 0 0 1 -1.68002,-1.33335 4.6400573,4.6400573 0 0 1 -2.04003,-0.733342 4.0000494,4.0000494 0 0 1 -1.33335,-1.506685 4.3067199,4.3067199 0 0 1 -0.50667,-2.066693 4.1867184,4.1867184 0 0 1 2.24003,-3.7733787 4.8267263,4.8267263 0 0 1 2.36003,-0.573341 4.7467253,4.7467253 0 0 1 2.29336,0.506673 4.3333868,4.3333868 0 0 1 1.42668,6.3467447 4.2667194,4.2667194 0 0 1 -2.17336,1.533352 2.0800257,2.0800257 0 0 0 0.57334,0.453339 1.3333498,1.3333498 0 0 0 0.61334,0.133335 1.8133557,1.8133557 0 0 0 1.33335,-0.626674 z m -7.29342,-3.706713 a 2.4533636,2.4533636 0 0 0 0.93334,0.946679 2.7867011,2.7867011 0 0 0 2.6667,0 2.5733651,2.5733651 0 0 0 1.02668,-0.946679 2.8533686,2.8533686 0 0 0 0.33334,-1.33335 2.7733676,2.7733676 0 0 0 -0.33334,-1.333349 2.5200311,2.5200311 0 0 0 -1.00001,-1.0266797 2.8933691,2.8933691 0 0 0 -2.6667,0 2.4000296,2.4000296 0 0 0 -0.93335,0.9600117 2.7733676,2.7733676 0 0 0 -0.34667,1.33335 2.8667021,2.8667021 0 0 0 0.32001,1.400017 z"
     id="path204"
     inkscape:connector-curvature="0"
     style="fill:#ffffff;stroke-width:1" />
  <path
     class="cls-2"
     d="m 132.8096,15.208112 a 3.8267139,3.8267139 0 0 1 -1.00002,-2.840035 V 7.6613523 h 1.94669 v 4.6400567 c 0,1.493352 0.62668,2.253362 1.86669,2.253362 a 1.7733552,1.7733552 0 0 0 1.33335,-0.546674 2.5333646,2.5333646 0 0 0 0.54668,-1.706688 V 7.6613523 h 1.92002 v 4.7067247 a 3.8267139,3.8267139 0 0 1 -1.00001,2.840035 3.8400474,3.8400474 0 0 1 -2.81337,1.000012 3.7867134,3.7867134 0 0 1 -2.80003,-1.000012 z"
     id="path206"
     inkscape:connector-curvature="0"
     style="fill:#ffffff;stroke-width:1" />
  <path
     class="cls-2"
     d="m 146.68977,14.261434 h -3.85338 l -0.74668,1.800022 h -2.00002 l 3.74671,-8.4001037 h 1.92002 l 3.76005,8.4001037 h -2.04003 z m -0.61334,-1.466685 -1.33335,-3.2267067 -1.33335,3.2267067 z"
     id="path208"
     inkscape:connector-curvature="0"
     style="fill:#ffffff;stroke-width:1" />
  <path
     class="cls-2"
     d="m 155.70321,16.061456 -1.61335,-2.333362 h -1.80002 v 2.333362 h -1.93336 V 7.6613523 h 3.62671 a 4.8267263,4.8267263 0 0 1 1.94669,0.373338 3.0000371,3.0000371 0 0 1 1.33335,1.053346 2.9333696,2.9333696 0 0 1 0.44001,1.6266867 2.7467006,2.7467006 0 0 1 -1.73336,2.6667 l 1.89336,2.666699 z m -0.49334,-6.4934137 a 2.0400252,2.0400252 0 0 0 -1.33335,-0.373338 h -1.58668 v 3.0400377 h 1.58668 a 2.0400252,2.0400252 0 0 0 1.33335,-0.386672 1.3333498,1.3333498 0 0 0 0.45334,-1.080013 1.3333498,1.3333498 0 0 0 -0.45334,-1.2000147 z"
     id="path210"
     inkscape:connector-curvature="0"
     style="fill:#ffffff;stroke-width:1" />
  <path
     class="cls-2"
     d="m 160.79661,9.2480383 h -2.6667 V 7.6613523 H 165.45 v 1.586686 h -2.6667 v 6.8134177 h -1.93336 z"
     id="path212"
     inkscape:connector-curvature="0"
     style="fill:#ffffff;stroke-width:1" />
  <path
     class="cls-1"
     d="m 156.80989,468.70703 h 11.73348 a 5.8667391,5.8667391 0 1 1 0,11.72015 h -11.73348 a 5.8667391,5.8667391 0 0 1 0,-11.72015 z"
     id="path214"
     inkscape:connector-curvature="0"
     style="fill:none;stroke:#000000;stroke-width:0.28px;stroke-miterlimit:10" />
  <path
     class="cls-1"
     d="m 168.57004,480.41384 h -11.73348 a 5.8667391,5.8667391 0 1 1 0,-11.72014 h 11.73348 a 5.8667391,5.8667391 0 1 1 0,11.72014 z"
     id="path216"
     inkscape:connector-curvature="0"
     style="fill:none;stroke:#000000;stroke-width:0.28px;stroke-miterlimit:10" />
  <path
     class="cls-1"
     d="m 174.43678,474.5471 a 5.8667391,5.8667391 0 0 1 -5.86674,5.86674 h -11.73348 a 5.8667391,5.8667391 0 1 1 0,-11.72014 h 11.73348 a 5.8667391,5.8667391 0 0 1 5.86674,5.8534 z"
     id="path218"
     inkscape:connector-curvature="0"
     style="fill:none;stroke:#000000;stroke-width:0.28px;stroke-miterlimit:10" />
  <path
     class="cls-2"
     d="m 189.14363,456.62688 c -4.7334,0 -4.7334,3.01337 -9.45345,3.01337 -4.72006,0 -4.72006,-3.01337 -9.45346,-3.01337 -4.73339,0 -4.72005,3.01337 -9.44011,3.01337 -4.72006,0 -4.72006,-3.01337 -9.44012,-3.01337 -4.72006,0 -4.73339,3.01337 -9.46678,3.01337 -4.73339,0 -4.73339,-3.01337 -9.45345,-3.01337 -4.72006,0 -4.73339,3.01337 -9.45345,3.01337 -4.72006,0 -4.72006,-3.01337 -9.45345,-3.01337 -4.73339,0 -4.72006,3.01337 -9.44012,3.01337 -4.720053,0 -4.733386,-3.01337 -9.453445,-3.01337 -4.720058,0 -4.720058,3.01337 -9.440116,3.01337 -4.720059,0 -4.733392,-3.01337 -9.45345,-3.01337 -4.720059,0 -4.720059,3.01337 -9.440117,3.01337 -4.720058,0 -4.733392,-3.01337 -9.45345,-3.01337 -4.720058,0 -4.720058,3.01337 -9.45345,3.01337 -4.733392,0 -4.720058,-3.01337 -9.440117,-3.01337 -4.720058,0 -4.720058,3.01337 -9.45345,3.01337 -4.733392,0 -4.720058,-3.01337 -9.440116,-3.01337 -4.720059,0 -4.720059,3.01337 -9.4534505,3.01337 -4.733392,0 -4.720059,-3.01337 -9.44011698,-3.01337 v 29.3337 H 189.14363 Z"
     id="path220"
     inkscape:connector-curvature="0"
     style="fill:#ffffff;stroke-width:1" />
  <polygon
     class="cls-3"
     points="72.76,361.61 70.68,359.53 66.31,359.53 68.39,361.61 "
     id="polygon222"
     style="fill:#ffc300;stroke-width:0.74999076"
     transform="matrix(1.3333498,0,0,1.3333498,0.16796152,0.23459323)" />
  <polygon
     class="cls-3"
     points="74.07,361.61 78.44,361.61 76.36,359.53 71.99,359.53 "
     id="polygon224"
     style="fill:#ffc300;stroke-width:0.74999076"
     transform="matrix(1.3333498,0,0,1.3333498,0.16796152,0.23459323)" />
  <path
     class="cls-3"
     d="m 102.83589,478.74716 2.80004,2.8267 v -9.97346 a 5.8800726,5.8800726 0 0 0 -1.73336,-4.16005 l -1.44001,-1.44002 a 6.373412,6.373412 0 0 1 0.4,2.20003 z"
     id="path226"
     inkscape:connector-curvature="0"
     style="fill:#ffc300;stroke-width:1" />
  <path
     class="cls-3"
     d="m 100.34253,464.72032 a 5.2000642,5.2000642 0 0 0 -4.000047,-1.84003 h -3.373375 a 5.3333992,5.3333992 0 0 0 -5.266732,5.2534 v 10.24013 h 6.346745 v -9.33345 a 0.62667441,0.62667441 0 0 1 1.240016,0 v 9.33345 h 6.333403 v -10.24013 a 5.1733972,5.1733972 0 0 0 -1.28001,-3.41337 z"
     id="path228"
     inkscape:connector-curvature="0"
     style="fill:#ffc300;stroke-width:1" />
  <path
     class="cls-3"
     d="m 156.66322,482.82721 h 12.00015 a 8.2534353,8.2534353 0 0 0 0,-16.50687 h -12.00015 a 8.2534353,8.2534353 0 0 0 0,16.50687 z m 0.14667,-14.12018 h 11.73348 a 5.8667391,5.8667391 0 1 1 0,11.72015 h -11.73348 a 5.8667391,5.8667391 0 0 1 0,-11.72015 z"
     id="path230"
     inkscape:connector-curvature="0"
     style="fill:#ffc300;stroke-width:1" />
  <path
     d="m 168.57004,480.41384 h -11.73348 a 5.8667391,5.8667391 0 1 1 0,-11.72014 h 11.73348 a 5.8667391,5.8667391 0 1 1 0,11.72014 z"
     id="path232"
     inkscape:connector-curvature="0"
     style="stroke-width:1" />
  <g
     id="_Grupo_"
     data-name="&lt;Grupo&gt;"
     transform="matrix(1.3333498,0,0,1.3333498,0.16796152,0.23459323)"
     style="stroke-width:0.74999076">
    <polygon
       class="cls-3"
       points="128.31,5.87 128.8,6.85 129.65,8.56 129.64,8.59 128.31,11.25 127.41,11.25 127.41,10.06 128.46,10.06 128.46,9.15 127.41,9.15 127.41,7.97 128.46,7.97 128.46,7.06 127.41,7.06 127.41,5.87 "
       id="polygon234"
       style="fill:#ffc300;stroke-width:0.74999076" />
    <polygon
       class="cls-3"
       points="135.02,5.88 135.03,5.87 135.94,5.87 135.94,7.06 134.89,7.06 134.89,7.97 135.94,7.97 135.94,9.15 134.89,9.15 134.89,10.06 135.94,10.06 135.94,11.25 135.03,11.25 135.02,11.24 134.55,10.27 133.69,8.56 133.71,8.53 "
       id="polygon236"
       style="fill:#ffc300;stroke-width:0.74999076" />
    <polygon
       class="cls-3"
       points="129.96,11.43 131.67,10.58 134.34,11.91 134.36,11.92 134.36,12.82 133.17,12.82 133.17,11.77 132.26,11.77 132.26,12.82 131.08,12.82 131.08,11.77 130.17,11.77 130.17,12.82 128.98,12.82 128.98,11.92 129,11.91 "
       id="polygon238"
       style="fill:#ffc300;stroke-width:0.74999076" />
    <polygon
       class="cls-3"
       points="132.26,5.35 133.17,5.35 133.17,4.3 134.36,4.3 134.36,5.2 134.35,5.21 133.38,5.69 131.67,6.54 128.99,5.21 128.98,5.2 128.98,4.3 130.17,4.3 130.17,5.35 131.08,5.35 131.08,4.3 132.26,4.3 "
       id="polygon240"
       style="fill:#ffc300;stroke-width:0.74999076" />
  </g>
  <polygon
     class="cls-2"
     points="132.8,10.01 132.58,9.9 131.7,9.46 130.8,9.9 130.59,10.01 130.14,10.23 129.92,10.34 130.14,9.9 130.25,9.68 130.37,9.46 130.8,8.57 130.37,7.68 130.25,7.47 129.92,6.79 130.59,7.12 130.59,7.13 130.8,7.24 131.7,7.68 132.58,7.24 132.8,7.13 132.8,7.12 133.46,6.79 133.13,7.47 133.03,7.68 132.58,8.57 133.03,9.46 133.13,9.68 133.25,9.9 133.46,10.34 133.25,10.23 "
     id="polygon243"
     style="fill:#ffffff;stroke-width:0.74999076"
     transform="matrix(1.3333498,0,0,1.3333498,0.16796152,0.23459323)" />
</svg>
