<?xml version="1.0" encoding="UTF-8" standalone="no"?>
<svg
   xmlns:dc="http://purl.org/dc/elements/1.1/"
   xmlns:cc="http://creativecommons.org/ns#"
   xmlns:rdf="http://www.w3.org/1999/02/22-rdf-syntax-ns#"
   xmlns:svg="http://www.w3.org/2000/svg"
   xmlns="http://www.w3.org/2000/svg"
   xmlns:sodipodi="http://sodipodi.sourceforge.net/DTD/sodipodi-0.dtd"
   xmlns:inkscape="http://www.inkscape.org/namespaces/inkscape"
   viewBox="0 0 188.97639 485.66928"
   version="1.1"
   id="svg348"
   sodipodi:docname="SERRA Final-18.svg"
   width="50mm"
   height="128.5mm"
   inkscape:version="0.92.2 5c3e80d, 2017-08-06">
  <metadata
     id="metadata352">
    <rdf:RDF>
      <cc:Work
         rdf:about="">
        <dc:format>image/svg+xml</dc:format>
        <dc:type
           rdf:resource="http://purl.org/dc/dcmitype/StillImage" />
        <dc:title>SERRA Final</dc:title>
      </cc:Work>
    </rdf:RDF>
  </metadata>
  <sodipodi:namedview
     pagecolor="#ffffff"
     bordercolor="#666666"
     borderopacity="1"
     objecttolerance="10"
     gridtolerance="10"
     guidetolerance="10"
     inkscape:pageopacity="0"
     inkscape:pageshadow="2"
     inkscape:window-width="1402"
     inkscape:window-height="955"
     id="namedview350"
     showgrid="false"
     units="mm"
     inkscape:zoom="29.320908"
     inkscape:cx="-0.60244224"
     inkscape:cy="478.03901"
     inkscape:window-x="0"
     inkscape:window-y="0"
     inkscape:window-maximized="0"
     inkscape:current-layer="svg348" />
  <defs
     id="defs4">
    <style
       id="style2">.cls-1{fill:#010100;}.cls-2{fill:#ffcd00;}.cls-3{fill:#fff;}.cls-4{fill:#040006;}.cls-5{fill:none;stroke:#040006;stroke-miterlimit:10;stroke-width:0.28px;}.cls-6{fill:#a5a5a5;}.cls-7{fill:#a2a2a2;}</style>
  </defs>
  <title
     id="title6">SERRA Final</title>
  <g
     id="Capa_2"
     data-name="Capa 2"
     transform="matrix(1.3333548,0,0,1.3331941,0.0247435,-6.2413692e-4)">
    <rect
       class="cls-1"
       width="141.73"
       height="364.25"
       id="rect8"
       x="0"
       y="0"
       style="fill:#010100" />
  </g>
  <g
     id="Capa_1"
     data-name="Capa 1"
     transform="matrix(1.3333548,0,0,1.3331941,0.0247435,-6.2413692e-4)">
    <path
       class="cls-2"
       d="M 126.75,294.67 H 70.48 a 12.18,12.18 0 0 0 0,24.36 h 56.27 a 12.18,12.18 0 1 0 0,-24.36 z"
       id="path11"
       inkscape:connector-curvature="0"
       style="fill:#ffcd00" />
    <path
       class="cls-2"
       d="m 52.15,289.26 h 0.73 a 1.4,1.4 0 1 1 -2.79,0 v -1.4 a 1.4,1.4 0 1 1 2.79,0 h -0.73 a 0.67,0.67 0 1 0 -1.34,0 v 1.4 a 0.67,0.67 0 1 0 1.34,0 z"
       id="path13"
       inkscape:connector-curvature="0"
       style="fill:#ffcd00" />
    <path
       class="cls-2"
       d="m 56.61,286.47 -1.34,4.19 h -0.76 l -1.33,-4.19 h 0.76 l 1,3 1,-3 z"
       id="path15"
       inkscape:connector-curvature="0"
       style="fill:#ffcd00" />
    <path
       class="cls-2"
       d="m 59.67,287.21 v 2.73 H 60 v 0.73 h -1.37 v -0.73 h 0.31 v -2.73 h -0.31 v -0.73 H 60 v 0.73 z"
       id="path17"
       inkscape:connector-curvature="0"
       style="fill:#ffcd00" />
    <path
       class="cls-2"
       d="m 63.36,287.8 v 2.86 h -0.73 v -2.86 a 0.62,0.62 0 0 0 -0.3,-0.54 0.61,0.61 0 0 0 -0.91,0.54 v 2.86 h -0.73 v -3.46 h -0.34 v -0.73 h 0.36 a 0.69,0.69 0 0 1 0.53,0.25 1.23,1.23 0 0 1 0.78,-0.25 1.34,1.34 0 0 1 1.34,1.33 z"
       id="path19"
       inkscape:connector-curvature="0"
       style="fill:#ffcd00" />
    <path
       class="cls-3"
       d="m 94.35,12 a 3.43,3.43 0 0 1 -1.12,-0.52 l 0.49,-1.1 a 3.38,3.38 0 0 0 1,0.48 3.58,3.58 0 0 0 1.08,0.14 1.81,1.81 0 0 0 0.92,-0.19 0.55,0.55 0 0 0 0.3,-0.49 A 0.46,0.46 0 0 0 96.84,9.95 1.2,1.2 0 0 0 96.39,9.71 C 96.21,9.65 95.96,9.58 95.65,9.51 a 10.58,10.58 0 0 1 -1.18,-0.34 2,2 0 0 1 -0.79,-0.55 1.53,1.53 0 0 1 -0.32,-1 1.74,1.74 0 0 1 0.29,-1 2,2 0 0 1 0.9,-0.71 3.7,3.7 0 0 1 1.45,-0.24 5.15,5.15 0 0 1 1.18,0.14 3.69,3.69 0 0 1 1,0.42 L 97.73,7.34 A 3.53,3.53 0 0 0 96,6.84 a 1.62,1.62 0 0 0 -0.9,0.2 0.59,0.59 0 0 0 -0.3,0.52 0.51,0.51 0 0 0 0.34,0.48 5,5 0 0 0 1,0.31 c 0.48,0.12 0.88,0.23 1.18,0.34 a 2.06,2.06 0 0 1 0.79,0.54 1.45,1.45 0 0 1 0.33,1 1.75,1.75 0 0 1 -0.3,1 2.08,2.08 0 0 1 -0.91,0.71 3.74,3.74 0 0 1 -1.46,0.26 5,5 0 0 1 -1.42,-0.2 z"
       id="path21"
       inkscape:connector-curvature="0"
       style="fill:#ffffff" />
    <path
       class="cls-3"
       d="m 104.34,10.91 v 1.17 h -4.87 v -6.3 h 4.76 V 7 h -3.31 v 1.32 h 2.92 v 1.13 h -2.92 v 1.46 z"
       id="path23"
       inkscape:connector-curvature="0"
       style="fill:#ffffff" />
    <path
       class="cls-3"
       d="M 109.52,12.08 108.3,10.32 H 107 v 1.76 h -1.45 v -6.3 h 2.72 a 3.46,3.46 0 0 1 1.46,0.28 2.07,2.07 0 0 1 1.28,2 2,2 0 0 1 -1.3,2 l 1.42,2 z m -0.37,-4.83 a 1.53,1.53 0 0 0 -1,-0.28 H 107 v 2.19 h 1.19 a 1.47,1.47 0 0 0 1,-0.29 1,1 0 0 0 0.34,-0.81 1,1 0 0 0 -0.38,-0.81 z"
       id="path25"
       inkscape:connector-curvature="0"
       style="fill:#ffffff" />
    <path
       class="cls-3"
       d="m 116.13,12.08 -1.21,-1.76 h -1.34 v 1.76 h -1.46 v -6.3 h 2.73 a 3.41,3.41 0 0 1 1.45,0.28 2.13,2.13 0 0 1 1,0.79 2.19,2.19 0 0 1 0.33,1.21 2.2,2.2 0 0 1 -0.33,1.22 2.24,2.24 0 0 1 -1,0.77 l 1.41,2 z m -0.37,-4.83 a 1.5,1.5 0 0 0 -1,-0.28 h -1.19 v 2.19 h 1.19 a 1.45,1.45 0 0 0 1,-0.29 1,1 0 0 0 0.35,-0.81 1,1 0 0 0 -0.35,-0.81 z"
       id="path27"
       inkscape:connector-curvature="0"
       style="fill:#ffffff" />
    <path
       class="cls-3"
       d="M 122.89,10.73 H 120 l -0.56,1.35 h -1.49 l 2.81,-6.3 h 1.44 l 2.81,6.3 h -1.53 z m -0.46,-1.11 -1,-2.41 -1,2.41 z"
       id="path29"
       inkscape:connector-curvature="0"
       style="fill:#ffffff" />
    <path
       class="cls-2"
       d="m 126,98.22 a 1.22,1.22 0 0 1 -1.65,-0.48 1.27,1.27 0 0 1 0,-1.49 l 0.58,0.46 a 0.53,0.53 0 0 0 0,0.64 0.5,0.5 0 0 0 0.67,0.22 c 0.08,0 0.33,-0.18 0.17,-0.88 -0.22,-1 0.17,-1.48 0.55,-1.68 a 1.22,1.22 0 0 1 1.65,0.47 A 1.27,1.27 0 0 1 128,97 l -0.58,-0.45 a 0.55,0.55 0 0 0 0,-0.65 0.49,0.49 0 0 0 -0.66,-0.22 c -0.09,0 -0.34,0.19 -0.18,0.88 0.22,0.99 -0.17,1.44 -0.58,1.66 z"
       id="path31"
       inkscape:connector-curvature="0"
       style="fill:#ffcd00" />
    <path
       class="cls-2"
       d="m 128.62,100.46 a 1.24,1.24 0 0 1 -1.53,-0.83 l -0.14,-0.48 -1.66,0.49 -0.21,-0.69 3.32,-1 -0.09,-0.31 0.7,-0.2 0.44,1.48 a 1.24,1.24 0 0 1 -0.83,1.54 z m -0.2,-0.7 a 0.51,0.51 0 0 0 0.34,-0.62 l -0.15,-0.49 -1,0.29 0.15,0.48 a 0.5,0.5 0 0 0 0.66,0.34 z"
       id="path33"
       inkscape:connector-curvature="0"
       style="fill:#ffcd00" />
    <path
       class="cls-2"
       d="m 128.72,101.74 a 0.5,0.5 0 0 0 -0.49,0.52 l 0.05,1.34 h -0.73 v -1.34 a 1.13,1.13 0 0 1 0.09,-0.51 h -0.61 a 0.51,0.51 0 0 0 -0.49,0.53 v 1.33 h -0.72 v -1.34 a 1.24,1.24 0 0 1 1.19,-1.27 l 1.74,-0.06 a 1.24,1.24 0 0 1 1.25,1.26 v 1.34 h -0.73 v -1.34 a 0.5,0.5 0 0 0 -0.55,-0.46 z"
       id="path35"
       inkscape:connector-curvature="0"
       style="fill:#ffcd00" />
    <path
       class="cls-2"
       d="m 128.54,105 a 0.51,0.51 0 0 0 -0.61,0.38 l -0.3,1.3 -0.71,-0.17 0.31,-1.3 a 1.19,1.19 0 0 1 0.22,-0.47 l -0.6,-0.14 a 0.5,0.5 0 0 0 -0.6,0.38 l -0.31,1.3 -0.71,-0.17 0.31,-1.3 a 1.23,1.23 0 0 1 1.48,-0.91 l 1.69,0.39 a 1.23,1.23 0 0 1 0.91,1.48 l -0.31,1.31 -0.7,-0.17 0.31,-1.3 A 0.51,0.51 0 0 0 128.54,105 Z"
       id="path37"
       inkscape:connector-curvature="0"
       style="fill:#ffcd00" />
    <path
       class="cls-2"
       d="m 126.38,110 -1.31,-0.74 a 1.34,1.34 0 0 1 -0.53,-1.82 l 0.65,-1.17 3,1.68 0.15,-0.27 0.64,0.35 -0.81,1.44 a 1.35,1.35 0 0 1 -1.79,0.53 z m 0.36,-0.64 a 0.61,0.61 0 0 0 0.84,-0.24 l 0.3,-0.53 -2.4,-1.34 -0.3,0.54 a 0.61,0.61 0 0 0 0.24,0.84 z"
       id="path39"
       inkscape:connector-curvature="0"
       style="fill:#ffcd00" />
    <path
       class="cls-3"
       d="m 112.17,86 a 1.23,1.23 0 0 1 -1.27,1.16 1.26,1.26 0 0 1 -1.25,-0.81 l 0.69,-0.26 a 0.54,0.54 0 0 0 0.56,0.33 0.51,0.51 0 0 0 0.54,-0.46 c 0,-0.09 0,-0.38 -0.66,-0.61 -1,-0.34 -1.17,-0.92 -1.15,-1.34 a 1.23,1.23 0 0 1 1.27,-1.16 1.26,1.26 0 0 1 1.25,0.8 l -0.69,0.26 a 0.53,0.53 0 0 0 -0.56,-0.32 0.5,0.5 0 0 0 -0.54,0.45 c 0,0.09 0,0.38 0.66,0.61 0.98,0.29 1.17,0.87 1.15,1.35 z"
       id="path41"
       inkscape:connector-curvature="0"
       style="fill:#ffffff" />
    <path
       class="cls-3"
       d="m 115.08,86.38 v 0.73 h -2.42 v -4.2 h 0.72 v 3.47 z"
       id="path43"
       inkscape:connector-curvature="0"
       style="fill:#ffffff" />
    <path
       class="cls-3"
       d="m 118.29,84.3 v 1.4 a 1.4,1.4 0 1 1 -2.79,0 v -1.4 a 1.4,1.4 0 1 1 2.79,0 z m -0.73,0 a 0.67,0.67 0 0 0 -1.34,0 v 1.4 a 0.67,0.67 0 0 0 1.34,0 z"
       id="path45"
       inkscape:connector-curvature="0"
       style="fill:#ffffff" />
    <path
       class="cls-3"
       d="m 123,82.91 v 2.93 a 1.26,1.26 0 0 1 -2.16,0.89 1.26,1.26 0 0 1 -1.37,0.28 1.28,1.28 0 0 1 -0.78,-1.17 v -2.93 h 0.72 v 2.93 a 0.54,0.54 0 1 0 1.07,0 v -2.93 h 0.73 v 2.93 a 0.53,0.53 0 0 0 0.53,0.54 0.54,0.54 0 0 0 0.53,-0.54 v -2.93 z"
       id="path47"
       inkscape:connector-curvature="0"
       style="fill:#ffffff" />
    <path
       class="cls-3"
       d="m 111.34,120.12 a 0.5,0.5 0 0 0 0,0.5 0.48,0.48 0 0 0 0.44,0.25 h 1.35 v 0.73 h -1.35 a 1.25,1.25 0 0 1 -0.5,-0.11 v 1.84 h -0.73 v -3 a 1.24,1.24 0 0 1 1.23,-1.23 h 1.35 v 0.72 h -1.35 a 0.51,0.51 0 0 0 -0.44,0.3 z"
       id="path49"
       inkscape:connector-curvature="0"
       style="fill:#ffffff" />
    <path
       class="cls-3"
       d="m 116.39,120.53 v 2.8 h -0.72 v -1.49 h -1.34 v 1.49 h -0.72 v -2.8 a 1.39,1.39 0 0 1 2.78,0 z m -0.72,0.59 v -0.59 a 0.67,0.67 0 0 0 -1.34,0 v 0.59 z"
       id="path51"
       inkscape:connector-curvature="0"
       style="fill:#ffffff" />
    <path
       class="cls-3"
       d="m 119.42,122.18 a 1.22,1.22 0 0 1 -1.27,1.15 1.26,1.26 0 0 1 -1.25,-0.8 l 0.69,-0.26 a 0.53,0.53 0 0 0 0.56,0.33 0.5,0.5 0 0 0 0.53,-0.46 c 0,-0.09 0,-0.38 -0.65,-0.61 -1,-0.34 -1.17,-0.92 -1.16,-1.35 a 1.23,1.23 0 0 1 1.28,-1.15 1.26,1.26 0 0 1 1.25,0.8 l -0.69,0.26 a 0.54,0.54 0 0 0 -0.56,-0.33 0.5,0.5 0 0 0 -0.54,0.46 c 0,0.09 0,0.38 0.66,0.61 0.99,0.34 1.17,0.92 1.15,1.35 z"
       id="path53"
       inkscape:connector-curvature="0"
       style="fill:#ffffff" />
    <path
       class="cls-3"
       d="m 122.21,119.13 v 0.73 h -0.85 v 3.47 h -0.73 v -3.47 h -0.85 v -0.73 z"
       id="path55"
       inkscape:connector-curvature="0"
       style="fill:#ffffff" />
    <path
       class="cls-2"
       d="m 116.32,116.43 a 0.41,0.41 0 0 1 -0.41,-0.41 v -3 a 0.41,0.41 0 0 1 0.41,-0.42 0.42,0.42 0 0 1 0.42,0.42 v 3 a 0.41,0.41 0 0 1 -0.42,0.41 z"
       id="path57"
       inkscape:connector-curvature="0"
       style="fill:#ffcd00" />
    <path
       class="cls-2"
       d="m 116.32,92.88 a 0.41,0.41 0 0 1 -0.41,-0.42 v -3 a 0.41,0.41 0 0 1 0.41,-0.42 0.42,0.42 0 0 1 0.42,0.42 v 3 a 0.42,0.42 0 0 1 -0.42,0.42 z"
       id="path59"
       inkscape:connector-curvature="0"
       style="fill:#ffcd00" />
    <path
       class="cls-2"
       d="m 122.85,95.25 a 0.53,0.53 0 0 1 -0.29,-0.1 9.81,9.81 0 0 0 -12.48,0 0.44432533,0.44432533 0 0 1 -0.56,-0.69 10.68,10.68 0 0 1 13.61,0 0.45,0.45 0 0 1 0.06,0.63 0.46,0.46 0 0 1 -0.34,0.16 z"
       id="path61"
       inkscape:connector-curvature="0"
       style="fill:#ffcd00" />
    <path
       class="cls-2"
       d="m 116.32,113.42 a 10.78,10.78 0 0 1 -6.81,-2.44 0.45,0.45 0 0 1 -0.05,-0.63 0.43,0.43 0 0 1 0.62,-0.06 9.81,9.81 0 0 0 12.69,-0.18 0.45,0.45 0 0 1 0.63,0 0.44,0.44 0 0 1 0,0.63 10.71,10.71 0 0 1 -7.08,2.68 z"
       id="path63"
       inkscape:connector-curvature="0"
       style="fill:#ffcd00" />
    <path
       class="cls-3"
       d="m 21.3,84.24 v 2.86 h -0.72 v -2.86 a 0.63,0.63 0 0 0 -0.3,-0.54 0.61,0.61 0 0 0 -0.61,0 0.61,0.61 0 0 0 -0.3,0.54 V 87.1 H 18.64 V 83.64 H 18.3 v -0.73 h 0.36 a 0.69,0.69 0 0 1 0.53,0.25 1.3,1.3 0 0 1 0.78,-0.25 1.32,1.32 0 0 1 1.33,1.33 z"
       id="path65"
       inkscape:connector-curvature="0"
       style="fill:#ffffff" />
    <path
       class="cls-3"
       d="m 24.52,84.3 v 1.4 a 1.4,1.4 0 1 1 -2.79,0 v -1.4 a 1.4,1.4 0 1 1 2.79,0 z m -0.73,0 a 0.67,0.67 0 1 0 -1.34,0 v 1.4 a 0.67,0.67 0 0 0 1.34,0 z"
       id="path67"
       inkscape:connector-curvature="0"
       style="fill:#ffffff" />
    <path
       class="cls-3"
       d="m 27.23,85 a 1.23,1.23 0 0 1 0.36,0.87 V 87.1 H 26.86 V 85.87 A 0.51,0.51 0 0 0 26.38,85.36 H 25.86 V 87.1 H 25.13 V 83.63 H 24.82 V 82.9 h 1.54 a 1.23,1.23 0 0 1 0.87,2.1 z m -0.85,-0.36 a 0.5,0.5 0 0 0 0.48,-0.52 0.49,0.49 0 0 0 -0.5,-0.49 h -0.5 v 1 h 0.52 z"
       id="path69"
       inkscape:connector-curvature="0"
       style="fill:#ffffff" />
    <path
       class="cls-3"
       d="M 32.62,84.17 V 87.1 H 31.9 v -2.93 a 0.54,0.54 0 1 0 -1.08,0 V 87.1 H 30.1 v -2.93 a 0.54,0.54 0 1 0 -1.07,0 V 87.1 H 28.3 V 83.64 H 28 v -0.73 h 0.36 a 0.71,0.71 0 0 1 0.52,0.23 1.25,1.25 0 0 1 1.62,0.14 1.27,1.27 0 0 1 2.16,0.89 z"
       id="path71"
       inkscape:connector-curvature="0"
       style="fill:#ffffff" />
    <path
       class="cls-3"
       d="m 19.48,119.88 v 2.73 h 0.31 v 0.73 h -1.35 v -0.73 h 0.31 v -2.73 h -0.31 v -0.73 h 1.35 v 0.73 z"
       id="path73"
       inkscape:connector-curvature="0"
       style="fill:#ffffff" />
    <path
       class="cls-3"
       d="m 23.16,120.47 v 2.86 h -0.72 v -2.86 a 0.62,0.62 0 0 0 -0.3,-0.54 0.61,0.61 0 0 0 -0.91,0.54 v 2.86 H 20.5 v -3.46 h -0.35 v -0.73 h 0.37 a 0.69,0.69 0 0 1 0.53,0.25 1.31,1.31 0 0 1 0.78,-0.26 1.34,1.34 0 0 1 1.33,1.34 z"
       id="path75"
       inkscape:connector-curvature="0"
       style="fill:#ffffff" />
    <path
       class="cls-3"
       d="M 26.52,120.48 V 122 a 1.34,1.34 0 0 1 -1.34,1.34 h -1.34 v -3.47 h -0.31 v -0.72 h 1.65 a 1.34,1.34 0 0 1 1.34,1.33 z m -0.72,0 a 0.62,0.62 0 0 0 -0.62,-0.62 h -0.61 v 2.75 h 0.61 a 0.62,0.62 0 0 0 0.62,-0.62 z"
       id="path77"
       inkscape:connector-curvature="0"
       style="fill:#ffffff" />
    <path
       class="cls-3"
       d="m 27.73,120.37 a 0.5,0.5 0 0 0 0.51,0.5 h 1.34 v 0.73 h -1.34 a 1.26,1.26 0 0 1 -0.51,-0.11 v 0.61 a 0.51,0.51 0 0 0 0.51,0.51 h 1.34 v 0.72 H 28.24 A 1.23,1.23 0 0 1 27,122.1 v -1.73 a 1.23,1.23 0 0 1 1.23,-1.23 h 1.34 v 0.72 h -1.33 a 0.51,0.51 0 0 0 -0.51,0.51 z"
       id="path79"
       inkscape:connector-curvature="0"
       style="fill:#ffffff" />
    <path
       class="cls-3"
       d="m 32.72,120.36 a 1.23,1.23 0 0 1 -1.23,1.23 H 31 v 1.74 h -0.72 v -3.47 h -0.32 v -0.73 h 1.55 a 1.23,1.23 0 0 1 1.21,1.23 z m -0.73,0 a 0.5,0.5 0 0 0 -0.5,-0.5 H 31 v 1 h 0.51 a 0.51,0.51 0 0 0 0.49,-0.5 z"
       id="path81"
       inkscape:connector-curvature="0"
       style="fill:#ffffff" />
    <path
       class="cls-2"
       d="m 25.52,116.43 a 0.41,0.41 0 0 1 -0.41,-0.41 v -3 a 0.41,0.41 0 0 1 0.41,-0.42 0.42,0.42 0 0 1 0.42,0.42 v 3 a 0.41,0.41 0 0 1 -0.42,0.41 z"
       id="path83"
       inkscape:connector-curvature="0"
       style="fill:#ffcd00" />
    <path
       class="cls-2"
       d="m 25.52,92.88 a 0.41,0.41 0 0 1 -0.41,-0.42 v -3 a 0.41,0.41 0 0 1 0.41,-0.42 0.42,0.42 0 0 1 0.42,0.42 v 3 a 0.42,0.42 0 0 1 -0.42,0.42 z"
       id="path85"
       inkscape:connector-curvature="0"
       style="fill:#ffcd00" />
    <path
       class="cls-2"
       d="m 32.05,95.25 a 0.53,0.53 0 0 1 -0.29,-0.1 9.81,9.81 0 0 0 -12.48,0 0.45,0.45 0 1 1 -0.57,-0.69 10.69,10.69 0 0 1 13.62,0 0.45,0.45 0 0 1 0.06,0.63 0.46,0.46 0 0 1 -0.34,0.16 z"
       id="path87"
       inkscape:connector-curvature="0"
       style="fill:#ffcd00" />
    <path
       class="cls-2"
       d="m 25.52,113.42 a 10.76,10.76 0 0 1 -6.81,-2.42 0.46,0.46 0 0 1 -0.06,-0.63 0.45,0.45 0 0 1 0.63,-0.06 9.81,9.81 0 0 0 12.72,-0.2 0.45,0.45 0 0 1 0.59,0.67 10.71,10.71 0 0 1 -7.07,2.64 z"
       id="path89"
       inkscape:connector-curvature="0"
       style="fill:#ffcd00" />
    <path
       class="cls-2"
       d="m 15.35,107 -0.32,-0.65 a 1.4,1.4 0 0 1 1.24,2.5 l -1.26,0.62 a 1.4,1.4 0 0 1 -1.24,-2.5 l 0.32,0.65 a 0.68,0.68 0 0 0 -0.3,0.9 0.66,0.66 0 0 0 0.9,0.3 l 1.26,-0.62 a 0.66,0.66 0 0 0 0.3,-0.89 0.67,0.67 0 0 0 -0.9,-0.31 z"
       id="path91"
       inkscape:connector-curvature="0"
       style="fill:#ffcd00" />
    <path
       class="cls-2"
       d="m 11.64,103.25 4.35,0.65 0.13,0.76 -3.93,2 -0.13,-0.75 2.81,-1.42 -3.11,-0.49 z"
       id="path93"
       inkscape:connector-curvature="0"
       style="fill:#ffcd00" />
    <path
       class="cls-2"
       d="m 12.82,99.77 2.68,0.55 0.06,-0.3 0.71,0.14 -0.27,1.33 -0.71,-0.15 0.06,-0.31 -2.68,-0.55 -0.06,0.31 -0.71,-0.15 0.06,-0.3 v 0 l 0.15,-0.71 v 0 l 0.06,-0.3 0.71,0.14 z"
       id="path95"
       inkscape:connector-curvature="0"
       style="fill:#ffcd00" />
    <path
       class="cls-2"
       d="m 14.75,96.37 2.61,1.17 -0.3,0.66 -2.61,-1.2 a 0.61,0.61 0 0 0 -0.61,0.06 0.6,0.6 0 0 0 -0.25,0.55 0.61,0.61 0 0 0 0.36,0.5 l 2.61,1.17 -0.29,0.66 -3.16,-1.42 -0.14,0.32 -0.66,-0.3 0.15,-0.33 A 0.68,0.68 0 0 1 12.9,97.82 1.26,1.26 0 0 1 13,97 1.33,1.33 0 0 1 14.75,96.37 Z"
       id="path97"
       inkscape:connector-curvature="0"
       style="fill:#ffcd00" />
    <path
       class="cls-3"
       d="m 10.59,324.29 v 1.25 a 1.63,1.63 0 0 1 -3.25,0 v -1.65 a 1.61,1.61 0 0 1 1,-1.5 1.65,1.65 0 0 1 1.78,0.35 l -0.6,0.6 a 0.79,0.79 0 0 0 -0.85,-0.17 0.78,0.78 0 0 0 -0.49,0.72 v 1.65 a 0.79,0.79 0 0 0 1.57,0 v -0.4 H 9 v -0.85 z"
       id="path99"
       inkscape:connector-curvature="0"
       style="fill:#ffffff" />
    <path
       class="cls-3"
       d="m 14.4,323.89 v 3.27 h -0.84 v -1.74 H 12 v 1.74 h -0.85 v -3.27 a 1.63,1.63 0 0 1 3.25,0 z m -0.84,0.68 v -0.68 a 0.78,0.78 0 0 0 -1.56,0 v 0.68 z"
       id="path101"
       inkscape:connector-curvature="0"
       style="fill:#ffffff" />
    <path
       class="cls-3"
       d="m 17.65,322.26 v 0.85 h -1 v 4.05 H 15.8 v -4.05 h -1 v -0.85 z"
       id="path103"
       inkscape:connector-curvature="0"
       style="fill:#ffffff" />
    <path
       class="cls-3"
       d="m 18.91,323.7 a 0.59,0.59 0 0 0 0.59,0.59 h 1.57 v 0.85 H 19.5 a 1.37,1.37 0 0 1 -0.59,-0.13 v 0.72 a 0.6,0.6 0 0 0 0.59,0.59 h 1.57 v 0.84 H 19.5 a 1.43,1.43 0 0 1 -1.43,-1.43 v -2 a 1.43,1.43 0 0 1 1.43,-1.43 h 1.57 v 0.84 H 19.5 a 0.6,0.6 0 0 0 -0.59,0.56 z"
       id="path105"
       inkscape:connector-curvature="0"
       style="fill:#ffffff" />
    <path
       class="cls-3"
       d="m 125.26,288.36 a 1.44,1.44 0 0 1 -1.48,1.36 1.47,1.47 0 0 1 -1.46,-0.94 l 0.8,-0.31 a 0.64,0.64 0 0 0 0.66,0.38 0.57,0.57 0 0 0 0.62,-0.53 c 0,-0.11 0,-0.44 -0.76,-0.71 -1.16,-0.4 -1.37,-1.08 -1.35,-1.57 a 1.44,1.44 0 0 1 1.49,-1.36 1.49,1.49 0 0 1 1.46,0.94 l -0.81,0.31 a 0.61,0.61 0 0 0 -0.65,-0.38 0.58,0.58 0 0 0 -0.63,0.52 c 0,0.12 0,0.45 0.77,0.72 1.15,0.4 1.37,1.07 1.34,1.57 z"
       id="path107"
       inkscape:connector-curvature="0"
       style="fill:#ffffff" />
    <path
       class="cls-3"
       d="m 127,285.68 v 3.19 h 0.36 v 0.85 h -1.58 v -0.85 h 0.37 v -3.19 h -0.37 v -0.85 h 1.58 v 0.85 z"
       id="path109"
       inkscape:connector-curvature="0"
       style="fill:#ffffff" />
    <path
       class="cls-3"
       d="m 131.22,286.84 v 1.25 a 1.63,1.63 0 0 1 -3.26,0 v -1.65 a 1.63,1.63 0 0 1 1,-1.5 1.65,1.65 0 0 1 1.78,0.35 l -0.6,0.6 a 0.8,0.8 0 0 0 -0.86,-0.17 0.78,0.78 0 0 0 -0.48,0.72 v 1.65 a 0.78,0.78 0 0 0 0.78,0.78 0.79,0.79 0 0 0 0.79,-0.78 v -0.4 h -0.79 v -0.85 z"
       id="path111"
       inkscape:connector-curvature="0"
       style="fill:#ffffff" />
    <path
       class="cls-3"
       d="m 39,322.26 v 0.85 h -1 v 4.05 h -0.85 v -4.05 h -1 v -0.85 z"
       id="path113"
       inkscape:connector-curvature="0"
       style="fill:#ffffff" />
    <path
       class="cls-3"
       d="m 42.05,324.71 a 1.44,1.44 0 0 1 0.41,1 v 1.44 h -0.84 v -1.44 a 0.59,0.59 0 0 0 -0.57,-0.59 h -0.61 v 2 h -0.85 v -4.05 h -0.37 v -0.85 H 41 a 1.43,1.43 0 0 1 1.43,1.43 1.48,1.48 0 0 1 -0.38,1.06 z m -1,-0.43 a 0.6,0.6 0 0 0 0.57,-0.6 0.59,0.59 0 0 0 -0.59,-0.57 h -0.59 v 1.17 z"
       id="path115"
       inkscape:connector-curvature="0"
       style="fill:#ffffff" />
    <path
       class="cls-3"
       d="m 44.24,323.13 v 3.19 h 0.37 v 0.85 H 43 v -0.85 h 0.36 v -3.19 H 43 v -0.85 h 1.58 v 0.85 z"
       id="path117"
       inkscape:connector-curvature="0"
       style="fill:#ffffff" />
    <path
       class="cls-3"
       d="m 48.43,324.29 v 1.25 a 1.63,1.63 0 0 1 -3.26,0 v -1.65 a 1.61,1.61 0 0 1 1,-1.5 1.65,1.65 0 0 1 1.78,0.35 l -0.6,0.6 a 0.79,0.79 0 0 0 -1.34,0.55 v 1.65 a 0.79,0.79 0 0 0 0.79,0.78 0.78,0.78 0 0 0 0.78,-0.78 v -0.4 H 46.8 v -0.85 z"
       id="path119"
       inkscape:connector-curvature="0"
       style="fill:#ffffff" />
    <path
       class="cls-3"
       d="m 65.78,323.7 a 0.59,0.59 0 0 0 0.59,0.59 h 1.57 v 0.85 h -1.57 a 1.37,1.37 0 0 1 -0.59,-0.13 v 0.72 a 0.6,0.6 0 0 0 0.59,0.59 h 1.57 v 0.84 h -1.57 a 1.43,1.43 0 0 1 -1.43,-1.43 v -2 a 1.43,1.43 0 0 1 1.43,-1.43 h 1.57 v 0.84 h -1.57 a 0.6,0.6 0 0 0 -0.59,0.56 z"
       id="path121"
       inkscape:connector-curvature="0"
       style="fill:#ffffff" />
    <path
       class="cls-3"
       d="m 71.88,323.82 v 3.34 H 71 v -3.34 a 0.73,0.73 0 0 0 -0.35,-0.63 0.71,0.71 0 0 0 -0.72,0 0.73,0.73 0 0 0 -0.35,0.63 v 3.34 h -0.85 v -4 h -0.4 v -0.85 h 0.42 a 0.82,0.82 0 0 1 0.63,0.29 1.48,1.48 0 0 1 0.91,-0.3 1.57,1.57 0 0 1 1.59,1.52 z"
       id="path123"
       inkscape:connector-curvature="0"
       style="fill:#ffffff" />
    <path
       class="cls-3"
       d="m 76.23,322.26 -1.56,4.9 h -0.89 l -1.56,-4.9 h 0.89 l 1.12,3.5 1.11,-3.5 z"
       id="path125"
       inkscape:connector-curvature="0"
       style="fill:#ffffff" />
    <path
       class="cls-3"
       d="m 124.7,323.89 v 1.64 a 1.63,1.63 0 1 1 -3.26,0 v -1.64 a 1.63,1.63 0 0 1 3.26,0 z m -0.85,0 a 0.78,0.78 0 1 0 -1.56,0 v 1.64 a 0.78,0.78 0 1 0 1.56,0 z"
       id="path127"
       inkscape:connector-curvature="0"
       style="fill:#ffffff" />
    <path
       class="cls-3"
       d="m 128.65,326.31 v 0.85 h -0.42 a 0.8,0.8 0 0 1 -0.61,-0.28 1.55,1.55 0 0 1 -2.43,-1.27 v -3.35 H 126 v 3.35 a 0.7,0.7 0 0 0 0.7,0.7 0.71,0.71 0 0 0 0.7,-0.7 v -3.35 h 0.84 v 4.05 z"
       id="path129"
       inkscape:connector-curvature="0"
       style="fill:#ffffff" />
    <path
       class="cls-3"
       d="m 131.76,322.26 v 0.85 h -1 v 4.05 h -0.85 v -4.05 h -1 v -0.85 z"
       id="path131"
       inkscape:connector-curvature="0"
       style="fill:#ffffff" />
    <path
       class="cls-3"
       d="m 94.22,323.7 a 0.58,0.58 0 0 0 0.58,0.59 h 1.57 v 0.85 H 94.8 a 1.29,1.29 0 0 1 -0.58,-0.13 v 0.72 a 0.59,0.59 0 0 0 0.58,0.59 h 1.57 v 0.84 H 94.8 a 1.43,1.43 0 0 1 -1.43,-1.43 v -2 a 1.43,1.43 0 0 1 1.43,-1.43 h 1.57 v 0.84 H 94.8 a 0.59,0.59 0 0 0 -0.58,0.56 z"
       id="path133"
       inkscape:connector-curvature="0"
       style="fill:#ffffff" />
    <path
       class="cls-3"
       d="m 100.12,323.89 v 1.64 a 1.63,1.63 0 1 1 -3.26,0 v -1.64 a 1.63,1.63 0 0 1 3.26,0 z m -0.85,0 a 0.78,0.78 0 1 0 -1.56,0 v 1.64 a 0.78,0.78 0 1 0 1.56,0 z"
       id="path135"
       inkscape:connector-curvature="0"
       style="fill:#ffffff" />
    <path
       class="cls-3"
       d="m 103,325.53 h 0.84 a 1.63,1.63 0 0 1 -3.25,0 v -1.65 a 1.63,1.63 0 0 1 3.25,0 H 103 a 0.79,0.79 0 0 0 -1.57,0 v 1.65 a 0.79,0.79 0 0 0 1.57,0 z"
       id="path137"
       inkscape:connector-curvature="0"
       style="fill:#ffffff" />
    <rect
       class="cls-2"
       x="9.5600004"
       y="245.8"
       width="9.29"
       height="9.29"
       rx="4.6399999"
       ry="4.6399999"
       id="rect139"
       style="fill:#ffcd00" />
    <path
       class="cls-4"
       d="m 15.83,249.45 v 3.27 H 15 V 251 h -1.57 v 1.74 h -0.85 v -3.27 a 1.63,1.63 0 1 1 3.25,0 z m -0.85,0.68 v -0.68 a 0.78,0.78 0 1 0 -1.55,0 v 0.68 z"
       id="path141"
       inkscape:connector-curvature="0"
       style="fill:#040006" />
    <rect
       class="cls-2"
       x="37.700001"
       y="245.8"
       width="9.29"
       height="9.29"
       rx="4.6399999"
       ry="4.6399999"
       id="rect143"
       style="fill:#ffcd00" />
    <path
       class="cls-4"
       d="m 44,249.62 v 1.76 A 1.57,1.57 0 0 1 42.45,253 h -1.56 v -4 h -0.37 v -0.85 h 1.93 a 1.57,1.57 0 0 1 1.55,1.47 z m -0.85,0 a 0.72,0.72 0 0 0 -0.72,-0.72 h -0.71 v 3.2 h 0.71 a 0.72,0.72 0 0 0 0.72,-0.72 z"
       id="path145"
       inkscape:connector-curvature="0"
       style="fill:#040006" />
    <rect
       class="cls-2"
       x="65.839996"
       y="245.8"
       width="9.29"
       height="9.29"
       rx="4.6399999"
       ry="4.6399999"
       id="rect147"
       style="fill:#ffcd00" />
    <path
       class="cls-4"
       d="M 72,251.6 A 1.44,1.44 0 0 1 70.48,253 1.47,1.47 0 0 1 69,252 l 0.81,-0.31 a 0.61,0.61 0 0 0 0.65,0.39 0.57,0.57 0 0 0 0.62,-0.53 c 0,-0.11 0,-0.45 -0.76,-0.72 -1.15,-0.39 -1.37,-1.07 -1.35,-1.57 a 1.44,1.44 0 0 1 1.49,-1.35 1.48,1.48 0 0 1 1.46,0.94 l -0.81,0.3 a 0.61,0.61 0 0 0 -0.65,-0.38 0.59,0.59 0 0 0 -0.63,0.53 c 0,0.11 0,0.45 0.77,0.72 1.17,0.4 1.4,1.08 1.4,1.58 z"
       id="path149"
       inkscape:connector-curvature="0"
       style="fill:#040006" />
    <rect
       class="cls-2"
       x="93.970001"
       y="245.8"
       width="9.29"
       height="9.29"
       rx="4.6399999"
       ry="4.6399999"
       id="rect151"
       style="fill:#ffcd00" />
    <path
       class="cls-4"
       d="m 99.75,250.49 a 1.37,1.37 0 0 1 0.41,1 v 1.44 h -0.84 v -1.43 a 0.58,0.58 0 0 0 -0.57,-0.58 h -0.61 v 2 h -0.85 v -4.05 H 96.93 V 248 h 1.8 a 1.46,1.46 0 0 1 1.44,1.44 1.42,1.42 0 0 1 -0.42,1.05 z m -1,-0.42 a 0.59,0.59 0 0 0 0,-1.18 h -0.59 v 1.18 h 0.61 z"
       id="path153"
       inkscape:connector-curvature="0"
       style="fill:#040006" />
    <path
       class="cls-2"
       d="m 23.32,230.54 a 0.36,0.36 0 0 1 -0.35,-0.36 v -85 a 0.36,0.36 0 0 1 0.71,0 v 85 a 0.36,0.36 0 0 1 -0.36,0.36 z"
       id="path155"
       inkscape:connector-curvature="0"
       style="fill:#ffcd00" />
    <circle
       class="cls-2"
       cx="23.32"
       cy="145.23"
       r="1.09"
       id="circle157"
       style="fill:#ffcd00" />
    <path
       class="cls-2"
       d="m 23.32,146.68 a 1.45,1.45 0 1 1 1.44,-1.45 1.44,1.44 0 0 1 -1.44,1.45 z m 0,-2.18 a 0.74,0.74 0 1 0 0.74,0.73 0.74,0.74 0 0 0 -0.74,-0.73 z"
       id="path159"
       inkscape:connector-curvature="0"
       style="fill:#ffcd00" />
    <circle
       class="cls-2"
       cx="23.32"
       cy="230.17999"
       r="1.09"
       id="circle161"
       style="fill:#ffcd00" />
    <path
       class="cls-2"
       d="m 23.32,231.63 a 1.45,1.45 0 1 1 1.44,-1.45 1.44,1.44 0 0 1 -1.44,1.45 z m 0,-2.19 a 0.74,0.74 0 1 0 0.74,0.74 0.74,0.74 0 0 0 -0.74,-0.74 z"
       id="path163"
       inkscape:connector-curvature="0"
       style="fill:#ffcd00" />
    <path
       class="cls-2"
       d="m 51.52,230.54 a 0.36,0.36 0 0 1 -0.35,-0.36 v -85 a 0.36,0.36 0 0 1 0.71,0 v 85 a 0.36,0.36 0 0 1 -0.36,0.36 z"
       id="path165"
       inkscape:connector-curvature="0"
       style="fill:#ffcd00" />
    <circle
       class="cls-2"
       cx="51.52"
       cy="145.23"
       r="1.09"
       id="circle167"
       style="fill:#ffcd00" />
    <path
       class="cls-2"
       d="m 51.52,146.68 a 1.45,1.45 0 1 1 1.48,-1.45 1.45,1.45 0 0 1 -1.48,1.45 z m 0,-2.18 a 0.74,0.74 0 1 0 0.74,0.73 0.73,0.73 0 0 0 -0.74,-0.73 z"
       id="path169"
       inkscape:connector-curvature="0"
       style="fill:#ffcd00" />
    <circle
       class="cls-2"
       cx="51.52"
       cy="230.17999"
       r="1.09"
       id="circle171"
       style="fill:#ffcd00" />
    <path
       class="cls-2"
       d="m 51.52,231.63 a 1.45,1.45 0 1 1 1.48,-1.45 1.45,1.45 0 0 1 -1.48,1.45 z m 0,-2.19 a 0.74,0.74 0 1 0 0.74,0.74 0.74,0.74 0 0 0 -0.74,-0.74 z"
       id="path173"
       inkscape:connector-curvature="0"
       style="fill:#ffcd00" />
    <path
       class="cls-2"
       d="m 79.73,230.54 a 0.36,0.36 0 0 1 -0.36,-0.36 v -85 a 0.36,0.36 0 0 1 0.71,0 v 85 a 0.36,0.36 0 0 1 -0.35,0.36 z"
       id="path175"
       inkscape:connector-curvature="0"
       style="fill:#ffcd00" />
    <circle
       class="cls-2"
       cx="79.730003"
       cy="145.23"
       r="1.09"
       id="circle177"
       style="fill:#ffcd00" />
    <path
       class="cls-2"
       d="m 79.73,146.68 a 1.45,1.45 0 1 1 1.44,-1.45 1.45,1.45 0 0 1 -1.44,1.45 z m 0,-2.18 a 0.74,0.74 0 1 0 0.73,0.73 0.74,0.74 0 0 0 -0.73,-0.73 z"
       id="path179"
       inkscape:connector-curvature="0"
       style="fill:#ffcd00" />
    <circle
       class="cls-2"
       cx="79.730003"
       cy="230.17999"
       r="1.09"
       id="circle181"
       style="fill:#ffcd00" />
    <path
       class="cls-2"
       d="m 79.73,231.63 a 1.45,1.45 0 1 1 1.44,-1.45 1.45,1.45 0 0 1 -1.44,1.45 z m 0,-2.19 a 0.74,0.74 0 1 0 0,1.48 0.74,0.74 0 0 0 0,-1.48 z"
       id="path183"
       inkscape:connector-curvature="0"
       style="fill:#ffcd00" />
    <path
       class="cls-2"
       d="m 81.62,72.64 a 1.07,1.07 0 0 0 -1.3,0.19 l -7.51,-4.34 a 2.34,2.34 0 0 0 0.17,-0.88 2.26,2.26 0 0 0 -2,-2.24 v -8.69 a 1.07,1.07 0 0 0 0.81,-1 1.09,1.09 0 0 0 -2.18,0 1.06,1.06 0 0 0 0.81,1 v 8.69 a 2.26,2.26 0 0 0 -2,2.24 2.21,2.21 0 0 0 0.18,0.89 l -7.5,4.33 a 1.06,1.06 0 0 0 -1.29,-0.19 1.0908941,1.0908941 0 1 0 1.09,1.89 1.08,1.08 0 0 0 0.49,-1.21 L 68.92,69 a 2.24,2.24 0 0 0 3.6,0 L 80,73.32 a 1.06,1.06 0 0 0 0.49,1.21 1.0908941,1.0908941 0 0 0 1.09,-1.89 z"
       id="path185"
       inkscape:connector-curvature="0"
       style="fill:#ffcd00" />
    <path
       class="cls-2"
       d="m 107.93,230.54 a 0.36,0.36 0 0 1 -0.35,-0.36 v -85 a 0.36,0.36 0 0 1 0.71,0 v 85 a 0.36,0.36 0 0 1 -0.36,0.36 z"
       id="path187"
       inkscape:connector-curvature="0"
       style="fill:#ffcd00" />
    <circle
       class="cls-2"
       cx="107.93"
       cy="145.23"
       r="1.09"
       id="circle189"
       style="fill:#ffcd00" />
    <path
       class="cls-2"
       d="m 107.93,146.68 a 1.45,1.45 0 1 1 1.45,-1.45 1.45,1.45 0 0 1 -1.45,1.45 z m 0,-2.18 a 0.74,0.74 0 1 0 0.74,0.73 0.73,0.73 0 0 0 -0.74,-0.73 z"
       id="path191"
       inkscape:connector-curvature="0"
       style="fill:#ffcd00" />
    <circle
       class="cls-2"
       cx="107.93"
       cy="230.17999"
       r="1.09"
       id="circle193"
       style="fill:#ffcd00" />
    <path
       class="cls-2"
       d="m 107.93,231.63 a 1.45,1.45 0 1 1 1.45,-1.45 1.45,1.45 0 0 1 -1.45,1.45 z m 0,-2.19 a 0.74,0.74 0 1 0 0.74,0.74 0.74,0.74 0 0 0 -0.74,-0.74 z"
       id="path195"
       inkscape:connector-curvature="0"
       style="fill:#ffcd00" />
    <path
       class="cls-2"
       d="m 58.29,89.3 2.23,1.91 -0.47,0.55 -2.23,-1.9 a 0.52,0.52 0 0 0 -0.75,0.06 0.53,0.53 0 0 0 0.06,0.75 l 2.23,1.9 -0.47,0.55 -2.23,-1.9 A 0.54,0.54 0 1 0 56,92 l 2.23,1.9 -0.47,0.55 -2.63,-2.24 -0.22,0.26 -0.6,-0.47 0.24,-0.27 a 0.71,0.71 0 0 1 0.5,-0.25 1.27,1.27 0 0 1 1.17,-1.15 1.26,1.26 0 0 1 2.07,-1.07 z"
       id="path197"
       inkscape:connector-curvature="0"
       style="fill:#ffcd00" />
    <path
       class="cls-2"
       d="m 61.15,87.41 1.65,2.26 -0.58,0.43 -0.88,-1.2 -1.08,0.78 0.88,1.21 -0.58,0.43 -1.66,-2.26 a 1.4,1.4 0 0 1 2.25,-1.65 z m -0.24,0.9 -0.35,-0.47 a 0.67,0.67 0 1 0 -1.07,0.79 l 0.34,0.47 z"
       id="path199"
       inkscape:connector-curvature="0"
       style="fill:#ffcd00" />
    <path
       class="cls-2"
       d="m 64.17,85.83 1.24,2.59 -0.66,0.31 -1.23,-2.58 a 0.63,0.63 0 0 0 -0.5,-0.36 0.65,0.65 0 0 0 -0.56,0.27 0.61,0.61 0 0 0 0,0.61 l 1.24,2.58 -0.66,0.32 -1.49,-3.13 -0.31,0.15 -0.32,-0.65 0.33,-0.16 a 0.71,0.71 0 0 1 0.59,0 1.3,1.3 0 0 1 0.59,-0.57 1.35,1.35 0 0 1 1.74,0.62 z"
       id="path201"
       inkscape:connector-curvature="0"
       style="fill:#ffcd00" />
    <path
       class="cls-2"
       d="m 68.11,87 0.18,0.7 -0.35,0.09 a 0.66,0.66 0 0 1 -0.56,-0.1 1.33,1.33 0 0 1 -2.3,-0.51 l -0.73,-2.78 0.7,-0.19 0.73,2.78 A 0.63600314,0.63600314 0 0 0 67,86.63 l -0.74,-2.77 0.7,-0.19 0.84,3.33 z"
       id="path203"
       inkscape:connector-curvature="0"
       style="fill:#ffcd00" />
    <path
       class="cls-2"
       d="M 70.74,84.68 71,87.47 70.28,87.53 70.11,86 68.78,86.1 68.89,87.59 68.17,87.65 68,84.89 a 1.3939602,1.3939602 0 0 1 2.78,-0.21 z m -0.68,0.64 v -0.58 a 0.67,0.67 0 1 0 -1.33,0.1 v 0.58 z"
       id="path205"
       inkscape:connector-curvature="0"
       style="fill:#ffcd00" />
    <path
       class="cls-2"
       d="M 73.46,87 73.39,87.73 71,87.5 l 0.39,-4.18 0.72,0.06 -0.32,3.46 z"
       id="path207"
       inkscape:connector-curvature="0"
       style="fill:#ffcd00" />
    <path
       class="cls-2"
       d="m 78.17,86.63 -0.37,1 a 1.4021769,1.4021769 0 0 1 -2.62,-1 l 0.48,-1.32 a 1.41,1.41 0 0 1 1.26,-0.92 1.39,1.39 0 0 1 1.32,0.81 l -0.66,0.3 a 0.65,0.65 0 0 0 -0.63,-0.38 0.66,0.66 0 0 0 -0.6,0.44 l -0.49,1.32 a 0.69,0.69 0 0 0 0.4,0.86 0.68,0.68 0 0 0 0.86,-0.4 l 0.12,-0.32 -0.63,-0.23 0.25,-0.69 z"
       id="path209"
       inkscape:connector-curvature="0"
       style="fill:#ffcd00" />
    <path
       class="cls-2"
       d="M 81.16,88 79.73,90.42 79.11,90 79.87,88.71 78.72,88 78,89.32 77.33,89 78.76,86.59 a 1.3917705,1.3917705 0 1 1 2.4,1.41 z m -0.92,0.14 0.29,-0.51 a 0.66,0.66 0 0 0 -0.23,-0.91 0.68,0.68 0 0 0 -0.92,0.23 l -0.3,0.51 z"
       id="path211"
       inkscape:connector-curvature="0"
       style="fill:#ffcd00" />
    <path
       class="cls-2"
       d="m 84.21,88.66 -0.46,0.56 -0.66,-0.55 -2.23,2.67 -0.56,-0.47 2.24,-2.66 -0.66,-0.55 0.47,-0.56 z"
       id="path213"
       inkscape:connector-curvature="0"
       style="fill:#ffcd00" />
    <path
       class="cls-2"
       d="m 84.15,90.4 a 0.5,0.5 0 0 0 0,0.71 l 0.88,1 -0.54,0.47 -0.89,-1 a 1.11,1.11 0 0 1 -0.25,-0.45 l -0.46,0.41 a 0.51,0.51 0 0 0 0,0.71 l 0.88,1 -0.54,0.48 -0.89,-1 A 1.23,1.23 0 0 1 82.37,91 l 1.3,-1.15 a 1.24,1.24 0 0 1 1.74,0.12 l 0.89,1 -0.55,0.48 -0.88,-1 A 0.52,0.52 0 0 0 84.15,90.4 Z"
       id="path215"
       inkscape:connector-curvature="0"
       style="fill:#ffcd00" />
    <path
       class="cls-2"
       d="m 70.85,119.16 a 16.33,16.33 0 0 1 -15.07,-22.59 0.45,0.45 0 0 1 0.83,0.34 15.28,15.28 0 0 0 -1.14,7.09 15.44,15.44 0 1 0 29.25,-8 0.45,0.45 0 0 1 0.21,-0.6 0.44,0.44 0 0 1 0.59,0.2 16.34,16.34 0 0 1 -13.43,23.5 c -0.41,0.05 -0.83,0.06 -1.24,0.06 z"
       id="path217"
       inkscape:connector-curvature="0"
       style="fill:#ffcd00" />
    <path
       class="cls-5"
       d="m 117.48,351.35 h 8.8 a 4.4,4.4 0 1 1 0,8.79 h -8.8 a 4.4,4.4 0 0 1 0,-8.79 z"
       id="path219"
       inkscape:connector-curvature="0"
       style="fill:none;stroke:#040006;stroke-width:0.28px;stroke-miterlimit:10" />
    <path
       class="cls-5"
       d="m 126.3,360.13 h -8.8 a 4.4,4.4 0 1 1 0,-8.79 h 8.8 a 4.4,4.4 0 1 1 0,8.79 z"
       id="path221"
       inkscape:connector-curvature="0"
       style="fill:none;stroke:#040006;stroke-width:0.28px;stroke-miterlimit:10" />
    <path
       class="cls-5"
       d="m 130.7,355.73 a 4.4,4.4 0 0 1 -4.4,4.4 h -8.8 a 4.4,4.4 0 1 1 0,-8.79 h 8.8 a 4.4,4.4 0 0 1 4.4,4.39 z"
       id="path223"
       inkscape:connector-curvature="0"
       style="fill:none;stroke:#040006;stroke-width:0.28px;stroke-miterlimit:10" />
    <path
       class="cls-3"
       d="m 141.73,342.29 c -3.55,0 -3.55,2.26 -7.09,2.26 -3.54,0 -3.54,-2.26 -7.09,-2.26 -3.55,0 -3.54,2.26 -7.08,2.26 -3.54,0 -3.54,-2.26 -7.08,-2.26 -3.54,0 -3.55,2.26 -7.1,2.26 -3.55,0 -3.55,-2.26 -7.09,-2.26 -3.54,0 -3.55,2.26 -7.09,2.26 -3.54,0 -3.54,-2.26 -7.09,-2.26 -3.55,0 -3.54,2.26 -7.08,2.26 -3.54,0 -3.55,-2.26 -7.09,-2.26 -3.54,0 -3.54,2.26 -7.08,2.26 -3.54,0 -3.55,-2.26 -7.09,-2.26 -3.54,0 -3.54,2.26 -7.08,2.26 -3.54,0 -3.55,-2.26 -7.09,-2.26 -3.54,0 -3.54,2.26 -7.09,2.26 -3.55,0 -3.54,-2.26 -7.08,-2.26 -3.54,0 -3.54,2.26 -7.09,2.26 -3.55,0 -3.54,-2.26 -7.08,-2.26 -3.54,0 -3.54,2.26 -7.09,2.26 -3.55,0 -3.54,-2.26 -7.08,-2.26 v 22 h 141.73 z"
       id="path225"
       inkscape:connector-curvature="0"
       style="fill:#ffffff" />
    <polygon
       class="cls-2"
       points="68.39,361.61 72.76,361.61 70.68,359.53 66.31,359.53 "
       id="polygon227"
       style="fill:#ffcd00" />
    <polygon
       class="cls-2"
       points="71.99,359.53 74.07,361.61 78.44,361.61 76.36,359.53 "
       id="polygon229"
       style="fill:#ffcd00" />
    <path
       class="cls-2"
       d="m 77,358.88 2.1,2.12 v -7.48 a 4.41,4.41 0 0 0 -1.3,-3.12 l -1.08,-1.08 a 4.78,4.78 0 0 1 0.3,1.65 z"
       id="path231"
       inkscape:connector-curvature="0"
       style="fill:#ffcd00" />
    <path
       class="cls-2"
       d="m 75.13,348.36 a 3.9,3.9 0 0 0 -3,-1.38 H 69.6 a 4,4 0 0 0 -3.95,3.94 v 7.68 h 4.76 v -7 a 0.47,0.47 0 0 1 0.93,0 v 7 h 4.75 v -7.68 a 3.88,3.88 0 0 0 -0.96,-2.56 z"
       id="path233"
       inkscape:connector-curvature="0"
       style="fill:#ffcd00" />
    <path
       class="cls-2"
       d="m 117.37,361.94 h 9 a 6.19,6.19 0 0 0 0,-12.38 h -9 a 6.19,6.19 0 0 0 0,12.38 z m 0.11,-10.59 h 8.8 a 4.4,4.4 0 1 1 0,8.79 h -8.8 a 4.4,4.4 0 0 1 0,-8.79 z"
       id="path235"
       inkscape:connector-curvature="0"
       style="fill:#ffcd00" />
    <path
       class="cls-6"
       d="m 126.3,360.13 h -8.8 a 4.4,4.4 0 1 1 0,-8.79 h 8.8 a 4.4,4.4 0 1 1 0,8.79 z"
       id="path237"
       inkscape:connector-curvature="0"
       style="fill:#a5a5a5" />
    <path
       class="cls-1"
       d="m 130.7,355.73 a 4.4,4.4 0 0 1 -4.4,4.4 h -8.8 a 4.4,4.4 0 1 1 0,-8.79 h 8.8 a 4.4,4.4 0 0 1 4.4,4.39 z"
       id="path239"
       inkscape:connector-curvature="0"
       style="fill:#010100" />
    <rect
       class="cls-3"
       x="11.46"
       y="4.1100001"
       width="17.59"
       height="8.79"
       rx="4.3899999"
       ry="4.3899999"
       id="rect241"
       style="fill:#ffffff" />
    <path
       class="cls-2"
       d="m 24.77,2.31 h -9 a 6.19,6.19 0 0 0 0,12.38 h 9 a 6.19,6.19 0 1 0 0,-12.38 z M 24.66,12.9 h -8.8 a 4.4,4.4 0 1 1 0,-8.79 h 8.8 a 4.4,4.4 0 1 1 0,8.79 z"
       id="path243"
       inkscape:connector-curvature="0"
       style="fill:#ffcd00" />
    <path
       class="cls-7"
       d="m 24.66,12.9 h -8.8 a 4.4,4.4 0 1 1 0,-8.79 h 8.8 a 4.4,4.4 0 1 1 0,8.79 z"
       id="path245"
       inkscape:connector-curvature="0"
       style="fill:#a2a2a2" />
    <path
       class="cls-1"
       d="m 29.06,8.5 a 4.4,4.4 0 0 1 -4.4,4.4 h -8.8 a 4.4,4.4 0 1 1 0,-8.79 h 8.8 a 4.4,4.4 0 0 1 4.4,4.39 z"
       id="path247"
       inkscape:connector-curvature="0"
       style="fill:#010100" />
    <path
       class="cls-3"
       d="m 53,53.32 -1.81,-1 v 0 A 16.77,16.77 0 0 0 52,50.55 v 0 l 1.89,0.76 v 0.06 c -0.26,0.66 -0.57,1.32 -0.89,2 z m -37.8,0.22 v 0 a 20.57,20.57 0 0 1 -0.93,-2 v -0.07 h 0.07 l 1.83,-0.75 v 0.05 c 0.25,0.59 0.53,1.18 0.84,1.76 v 0 0 z m 39.41,-4.2 -2,-0.57 v -0.05 c 0.18,-0.63 0.32,-1.26 0.44,-1.89 v -0.06 l 2,0.36 v 0 c -0.13,0.7 -0.29,1.41 -0.49,2.11 z m -41.07,0.24 v -0.06 c -0.2,-0.68 -0.37,-1.38 -0.51,-2.09 v 0 L 15,47 v 0 c 0.13,0.63 0.28,1.25 0.46,1.86 v 0.09 0 z m 41.85,-4.47 v 0 l -2,-0.16 V 44.9 a 18,18 0 0 0 0.05,-1.81 v -0.2 h 2 v 0.21 q 0,1 -0.06,2 z m -42.67,0.25 v 0 c 0,-0.57 -0.09,-1.12 -0.09,-1.66 0,-0.16 0,-0.33 0,-0.49 v 0 h 2.05 v 0 a 3.23,3.23 0 0 0 0,0.44 c 0,0.49 0,1 0.08,1.51 v 0 H 14.7 Z m 40.56,-4.3 V 41.01 A 16.18,16.18 0 0 0 52.96,39.1 V 39 H 53 l 1.94,-0.44 v 0 c 0.16,0.71 0.28,1.42 0.37,2.14 v 0 z M 14.79,41.3 h -0.06 l -2,-0.28 c 0.08,-0.71 0.2,-1.42 0.34,-2.12 v 0 l 2,0.42 v 0.05 C 14.94,40 14.84,40.65 14.76,41.3 Z m 37.64,-4 v -0.05 a 18.32,18.32 0 0 0 -0.71,-1.81 v -0.06 l 1.86,-0.83 v 0.06 c 0.29,0.65 0.56,1.32 0.79,2 v 0.05 z m -36.9,0.22 v 0 L 13.64,36.9 v -0.06 c 0.23,-0.66 0.48,-1.35 0.77,-2 v 0 l 1.88,0.82 v 0 c -0.26,0.58 -0.49,1.19 -0.7,1.82 z m 35.33,-3.75 v -0.05 a 17.56,17.56 0 0 0 -1,-1.6 l -0.23,0.17 0.11,-0.16 h -0.13 l 1.86,-1.33 v 0.05 c 0.42,0.58 0.8,1.19 1.16,1.8 v 0.05 z m -33.75,0.19 -1.79,-1 v 0 a 17.17,17.17 0 0 1 1.16,-1.83 v 0 l 1.66,1.17 v 0 c -0.36,0.53 -0.71,1.09 -1,1.65 z m 31.48,-3.35 v 0 a 17.92,17.92 0 0 0 -1.36,-1.4 v 0 l 1.39,-1.5 v 0 a 18.45,18.45 0 0 1 1.51,1.55 v 0 z m -29.27,0.16 -1.55,-1.33 v 0 c 0.48,-0.54 1,-1.07 1.49,-1.56 v 0 l 1.41,1.49 v 0 c -0.47,0.45 -0.91,0.93 -1.34,1.41 z m 26.43,-2.82 v 0 a 17.33,17.33 0 0 0 -1.57,-1.07 v 0 L 44,26.77 v 0 L 45.1,25 v 0 c 0.61,0.38 1.22,0.8 1.78,1.23 v 0 z M 22.13,28 v 0 L 20.9,26.42 v 0 -0.1 l 0.06,0.06 a 17.19,17.19 0 0 1 1.73,-1.2 h 0.05 l 1.08,1.73 v 0 c -0.55,0.34 -1.09,0.72 -1.6,1.11 z m 20.29,-2.1 v 0 c -0.58,-0.28 -1.2,-0.53 -1.8,-0.76 V 25.08 L 41.3,23.2 v 0 c 0.7,0.26 1.36,0.54 2,0.84 v 0 z m -17,0.08 v 0 l -0.89,-1.79 v 0 c 0.65,-0.32 1.31,-0.6 2,-0.85 h 0.08 l 0.72,1.92 h -0.05 c -0.61,0.23 -1.22,0.49 -1.79,0.77 z M 38.76,24.57 H 38.71 C 38.09,24.42 37.44,24.29 36.8,24.19 l -0.05,-0.05 0.29,-2 h 0.05 a 20.9,20.9 0 0 1 2.12,0.41 v 0 z M 29,24.63 v -0.05 l -0.51,-1.93 h 0.05 a 21.54,21.54 0 0 1 2.12,-0.44 h 0.06 l 0.31,2 v 0 c -0.64,0.11 -1.29,0.24 -1.91,0.41 z"
       id="path249"
       inkscape:connector-curvature="0"
       style="fill:#ffffff" />
    <path
       class="cls-3"
       d="m 26.06,66.06 v 3.27 h -0.84 v -1.74 h -1.56 v 1.75 h -0.85 v -3.28 a 1.63,1.63 0 0 1 3.25,0 z m -0.84,0.68 v -0.68 a 0.78,0.78 0 1 0 -1.56,0 v 0.68 z"
       id="path251"
       inkscape:connector-curvature="0"
       style="fill:#ffffff" />
    <path
       class="cls-3"
       d="m 29.31,64.43 v 0.85 h -1 v 4 h -0.85 v -4 h -1 v -0.85 z"
       id="path253"
       inkscape:connector-curvature="0"
       style="fill:#ffffff" />
    <path
       class="cls-3"
       d="m 32.42,64.43 v 0.85 h -1 v 4 h -0.85 v -4 h -1 v -0.85 z"
       id="path255"
       inkscape:connector-curvature="0"
       style="fill:#ffffff" />
    <path
       class="cls-3"
       d="m 32.83,66.89 a 0.43,0.43 0 1 1 0.85,0 0.43,0.43 0 0 1 -0.85,0 z"
       id="path257"
       inkscape:connector-curvature="0"
       style="fill:#ffffff" />
    <path
       class="cls-3"
       d="m 38,64.43 -1.56,4.9 H 35.55 L 34,64.43 h 0.89 l 1.11,3.5 1.12,-3.5 z"
       id="path259"
       inkscape:connector-curvature="0"
       style="fill:#ffffff" />
    <path
       class="cls-3"
       d="m 39.23,65.87 a 0.59,0.59 0 0 0 0.59,0.59 h 1.57 v 0.85 h -1.57 a 1.37,1.37 0 0 1 -0.59,-0.13 v 0.72 a 0.6,0.6 0 0 0 0.59,0.59 h 1.57 v 0.85 H 39.82 A 1.44,1.44 0 0 1 38.39,67.9 v -2 a 1.43,1.43 0 0 1 1.43,-1.43 h 1.57 v 0.84 h -1.57 a 0.6,0.6 0 0 0 -0.59,0.56 z"
       id="path261"
       inkscape:connector-curvature="0"
       style="fill:#ffffff" />
    <path
       class="cls-3"
       d="m 44.63,66.88 a 1.42,1.42 0 0 1 0.42,1 v 1.44 H 44.2 V 67.89 A 0.59,0.59 0 0 0 43.63,67.3 H 43 v 2 h -0.84 v -4 h -0.37 v -0.85 h 1.8 a 1.44,1.44 0 0 1 1,2.45 z m -1,-0.43 a 0.59,0.59 0 0 0 0,-1.17 H 43 v 1.17 h 0.61 z"
       id="path263"
       inkscape:connector-curvature="0"
       style="fill:#ffffff" />
    <rect
       class="cls-2"
       x="32.799999"
       y="20.879999"
       width="2.27"
       height="3.1400001"
       id="rect265"
       style="fill:#ffcd00" />
    <path
       class="cls-2"
       d="m 16.35,58.33 v -1.11 h 3.51 v 1.11 z"
       id="path267"
       inkscape:connector-curvature="0"
       style="fill:#ffcd00" />
    <path
       class="cls-2"
       d="m 51.84,57.22 v 1.11 h -1.2 v 1.2 h -1.11 v -1.2 h -1.2 v -1.11 h 1.2 V 56 h 1.11 v 1.2 z"
       id="path269"
       inkscape:connector-curvature="0"
       style="fill:#ffcd00" />
    <path
       class="cls-3"
       d="m 126.68,53.32 -1.81,-1 v 0 a 16.77,16.77 0 0 0 0.81,-1.77 v 0 l 1.89,0.76 v 0.06 c -0.27,0.66 -0.58,1.32 -0.9,2 z m -37.8,0.22 v 0 a 20.57,20.57 0 0 1 -0.93,-2 V 51.47 H 88 l 1.83,-0.75 v 0.05 c 0.25,0.59 0.53,1.18 0.84,1.76 v 0 0 z m 39.41,-4.2 -2,-0.57 v -0.05 c 0.18,-0.63 0.32,-1.26 0.44,-1.89 v -0.06 l 2,0.36 v 0 c -0.13,0.7 -0.29,1.41 -0.49,2.11 z m -41.07,0.24 v -0.06 c -0.2,-0.68 -0.37,-1.38 -0.51,-2.09 v 0 l 2,-0.39 v 0 c 0.13,0.63 0.28,1.25 0.46,1.86 v 0.09 0 z m 41.85,-4.47 v 0 L 127,45 v -0.1 a 18,18 0 0 0 0,-1.81 v -0.2 h 2 v 0.21 q 0,1 -0.06,2 z M 86.4,45.36 v 0 c 0,-0.57 -0.09,-1.12 -0.09,-1.66 v -0.54 h 2 v 0 c 0,0.15 0,0.29 0,0.44 0,0.49 0,1 0.08,1.51 v 0 H 88.33 Z M 127,41.06 V 41 a 18.52,18.52 0 0 0 -0.33,-1.91 V 39 39 l 1.94,-0.44 v 0 c 0.16,0.71 0.28,1.42 0.37,2.14 v 0 z M 88.51,41.3 h -0.06 l -2,-0.28 c 0.08,-0.71 0.2,-1.42 0.34,-2.12 v 0 l 2,0.42 v 0.05 c -0.13,0.63 -0.23,1.28 -0.3,1.93 z m 37.65,-4 v -0.05 a 18.32,18.32 0 0 0 -0.71,-1.81 v -0.06 l 1.86,-0.83 v 0.06 c 0.29,0.65 0.56,1.32 0.79,2 v 0.05 z m -36.91,0.22 v 0 L 87.36,36.9 v -0.06 c 0.22,-0.66 0.47,-1.35 0.76,-2 v 0 L 90,35.66 v 0 c -0.26,0.58 -0.48,1.19 -0.7,1.82 z m 35.33,-3.75 v -0.05 a 17.56,17.56 0 0 0 -1,-1.6 l -0.23,0.17 0.11,-0.16 h -0.13 l 1.86,-1.33 v 0.05 c 0.42,0.58 0.8,1.19 1.16,1.8 v 0.05 z m -33.75,0.19 -1.79,-1 v 0 a 18.91,18.91 0 0 1 1.16,-1.83 v 0 l 1.66,1.17 v 0 c -0.36,0.53 -0.71,1.09 -1,1.65 z m 31.48,-3.35 v 0 a 17.92,17.92 0 0 0 -1.36,-1.4 v 0 l 1.39,-1.5 v 0 a 20.27,20.27 0 0 1 1.52,1.55 v 0 z M 93,30.74 91.46,29.41 v 0 c 0.48,-0.54 1,-1.07 1.49,-1.56 v 0 l 1.41,1.49 v 0 c -0.47,0.45 -0.91,0.93 -1.34,1.41 z m 26.43,-2.82 v 0 a 17.33,17.33 0 0 0 -1.57,-1.07 v 0 l -0.08,-0.06 v 0 l 1,-1.71 v 0 c 0.61,0.38 1.22,0.8 1.79,1.23 v 0 z M 95.83,28 v 0 l -1.22,-1.58 v 0 -0.1 l 0.06,0.06 a 17.19,17.19 0 0 1 1.73,-1.2 h 0.05 l 1.08,1.73 v 0 c -0.55,0.34 -1.09,0.72 -1.6,1.11 z m 20.29,-2.14 v 0 c -0.58,-0.28 -1.2,-0.53 -1.8,-0.76 V 25.04 L 115,23.16 v 0 c 0.7,0.26 1.36,0.54 2,0.84 v 0 z m -17,0.08 v 0 l -0.89,-1.79 v 0 c 0.65,-0.32 1.31,-0.6 2,-0.85 h 0.08 l 0.72,1.92 v 0 c -0.61,0.23 -1.21,0.49 -1.79,0.77 z m 13.34,-1.41 v 0 c -0.62,-0.15 -1.27,-0.28 -1.9,-0.38 V 24.1 l 0.28,-2 v 0 a 20.9,20.9 0 0 1 2.12,0.41 v 0 z m -9.74,0.06 v -0.05 l -0.51,-1.93 v 0 a 21.54,21.54 0 0 1 2.12,-0.44 h 0.06 l 0.31,2 h -0.05 c -0.64,0.11 -1.29,0.24 -1.91,0.41 z"
       id="path271"
       inkscape:connector-curvature="0"
       style="fill:#ffffff" />
    <path
       class="cls-3"
       d="m 100.6,66.06 v 1.64 a 1.63,1.63 0 1 1 -3.26,0 v -1.64 a 1.63,1.63 0 0 1 3.26,0 z m -0.85,0 a 0.78,0.78 0 0 0 -0.78,-0.78 0.79,0.79 0 0 0 -0.79,0.78 v 1.64 a 0.79,0.79 0 0 0 0.79,0.78 0.78,0.78 0 0 0 0.78,-0.78 z"
       id="path273"
       inkscape:connector-curvature="0"
       style="fill:#ffffff" />
    <path
       class="cls-3"
       d="m 102,65.58 a 0.57,0.57 0 0 0 0,0.59 0.58,0.58 0 0 0 0.51,0.29 h 1.57 v 0.85 h -1.57 a 1.37,1.37 0 0 1 -0.59,-0.13 v 2.16 h -0.85 v -3.47 a 1.44,1.44 0 0 1 1.44,-1.43 h 1.57 v 0.84 h -1.57 a 0.57,0.57 0 0 0 -0.51,0.3 z"
       id="path275"
       inkscape:connector-curvature="0"
       style="fill:#ffffff" />
    <path
       class="cls-3"
       d="m 105.57,65.58 a 0.57,0.57 0 0 0 0,0.59 0.58,0.58 0 0 0 0.51,0.29 h 1.57 v 0.85 h -1.57 a 1.37,1.37 0 0 1 -0.59,-0.13 v 2.16 h -0.84 v -3.47 a 1.43,1.43 0 0 1 1.43,-1.43 h 1.57 v 0.84 h -1.57 a 0.57,0.57 0 0 0 -0.51,0.3 z"
       id="path277"
       inkscape:connector-curvature="0"
       style="fill:#ffffff" />
    <path
       class="cls-3"
       d="m 111.19,68 a 1.45,1.45 0 0 1 -1.49,1.36 1.47,1.47 0 0 1 -1.46,-0.94 l 0.8,-0.31 a 0.64,0.64 0 0 0 0.66,0.38 0.57,0.57 0 0 0 0.62,-0.53 c 0,-0.11 0,-0.44 -0.76,-0.71 -1.16,-0.4 -1.37,-1.08 -1.35,-1.57 a 1.43,1.43 0 0 1 1.49,-1.36 1.48,1.48 0 0 1 1.46,0.94 l -0.81,0.31 a 0.6,0.6 0 0 0 -0.65,-0.38 0.59,0.59 0 0 0 -0.63,0.52 c 0,0.12 0,0.45 0.77,0.72 1.16,0.38 1.37,1.05 1.35,1.57 z"
       id="path279"
       inkscape:connector-curvature="0"
       style="fill:#ffffff" />
    <path
       class="cls-3"
       d="m 112.59,65.87 a 0.58,0.58 0 0 0 0.59,0.59 h 1.57 v 0.85 h -1.57 a 1.37,1.37 0 0 1 -0.59,-0.13 v 0.72 a 0.59,0.59 0 0 0 0.59,0.59 h 1.57 v 0.85 h -1.57 a 1.46,1.46 0 0 1 -1.44,-1.44 v -2 a 1.44,1.44 0 0 1 1.44,-1.43 h 1.57 v 0.84 h -1.57 a 0.59,0.59 0 0 0 -0.59,0.56 z"
       id="path281"
       inkscape:connector-curvature="0"
       style="fill:#ffffff" />
    <path
       class="cls-3"
       d="m 118,64.43 v 0.85 h -1 v 4 h -0.85 v -4 h -1 v -0.85 z"
       id="path283"
       inkscape:connector-curvature="0"
       style="fill:#ffffff" />
    <rect
       class="cls-2"
       x="106.5"
       y="20.879999"
       width="2.27"
       height="3.1400001"
       id="rect285"
       style="fill:#ffcd00" />
    <path
       class="cls-2"
       d="m 87.87,59.56 v -0.69 h 2.19 v 0.69 z"
       id="path287"
       inkscape:connector-curvature="0"
       style="fill:#ffcd00" />
    <path
       class="cls-2"
       d="m 91.78,57.65 v 0.81 h 0.57 a 1.4,1.4 0 0 1 1.4,1.4 v 0.34 a 1.4,1.4 0 0 1 -1.35,1.42 h -0.05 a 1.4,1.4 0 0 1 -1.4,-1.4 h 0.83 a 0.58,0.58 0 0 0 0.57,0.57 v 0 A 0.59,0.59 0 0 0 92.9,60.2 V 59.86 A 0.57,0.57 0 0 0 92.33,59.29 H 91 v -2.47 h 2.8 v 0.83 z"
       id="path289"
       inkscape:connector-curvature="0"
       style="fill:#ffcd00" />
    <path
       class="cls-2"
       d="m 123,58.87 v 0.69 h -0.75 v 0.75 h -0.7 v -0.75 h -0.75 v -0.69 h 0.75 v -0.75 h 0.7 v 0.75 z"
       id="path291"
       inkscape:connector-curvature="0"
       style="fill:#ffcd00" />
    <path
       class="cls-2"
       d="m 124.76,57.65 v 0.81 h 0.57 a 1.39,1.39 0 0 1 1.39,1.4 v 0.34 a 1.4,1.4 0 0 1 -1.34,1.42 h -0.06 a 1.4,1.4 0 0 1 -1.39,-1.4 h 0.83 a 0.58,0.58 0 0 0 0.16,0.4 0.58,0.58 0 0 0 0.41,0.17 v 0 a 0.58,0.58 0 0 0 0.54,-0.59 v -0.34 a 0.56,0.56 0 0 0 -0.56,-0.57 h -1.4 v -2.47 h 2.79 v 0.83 z"
       id="path293"
       inkscape:connector-curvature="0"
       style="fill:#ffcd00" />
    <path
       class="cls-2"
       d="M 62.76,292.4 H 50.69 a 3.89,3.89 0 0 1 0,-7.77 h 12.07 a 3.89,3.89 0 0 1 0,7.77 z m -12.07,-7.13 a 3.25,3.25 0 1 0 0,6.49 h 12.07 a 3.25,3.25 0 1 0 0,-6.49 z"
       id="path295"
       inkscape:connector-curvature="0"
       style="fill:#ffcd00" />
    <path
       class="cls-2"
       d="m 127.53,240.88 a 4,4 0 0 1 -4,-4 0.36,0.36 0 1 1 0.71,0 3.33,3.33 0 1 0 6.66,0 0.36,0.36 0 1 1 0.71,0 4,4 0 0 1 -4.08,4 z"
       id="path297"
       inkscape:connector-curvature="0"
       style="fill:#ffcd00" />
    <path
       class="cls-2"
       d="m 131.22,138.13 a 0.36,0.36 0 0 1 -0.36,-0.35 3.33,3.33 0 0 0 -6.66,0 0.36,0.36 0 0 1 -0.71,0 4.04,4.04 0 0 1 8.08,0 0.35,0.35 0 0 1 -0.35,0.35 z"
       id="path299"
       inkscape:connector-curvature="0"
       style="fill:#ffcd00" />
    <path
       class="cls-2"
       d="m 127.53,177 a 0.36,0.36 0 0 1 -0.35,-0.36 v -17.35 a 0.36,0.36 0 0 1 0.71,0 v 17.33 a 0.36,0.36 0 0 1 -0.36,0.38 z"
       id="path301"
       inkscape:connector-curvature="0"
       style="fill:#ffcd00" />
    <circle
       class="cls-2"
       cx="127.53"
       cy="159.28999"
       r="1.09"
       id="circle303"
       style="fill:#ffcd00" />
    <circle
       class="cls-2"
       cx="127.53"
       cy="176.62"
       r="1.09"
       id="circle305"
       style="fill:#ffcd00" />
    <path
       class="cls-2"
       d="m 127.53,217.43 a 0.35,0.35 0 0 1 -0.35,-0.35 v -18.34 a 0.36,0.36 0 0 1 0.71,0 v 18.34 a 0.36,0.36 0 0 1 -0.36,0.35 z"
       id="path307"
       inkscape:connector-curvature="0"
       style="fill:#ffcd00" />
    <circle
       class="cls-2"
       cx="127.53"
       cy="198.74001"
       r="1.09"
       id="circle309"
       style="fill:#ffcd00" />
    <circle
       class="cls-2"
       cx="127.53"
       cy="217.08"
       r="1.09"
       id="circle311"
       style="fill:#ffcd00" />
    <path
       class="cls-2"
       d="m 123.51,143.27 a 0.5,0.5 0 0 0 0.5,0.5 h 1.34 v 0.73 H 124 a 1.25,1.25 0 0 1 -0.5,-0.11 V 145 a 0.5,0.5 0 0 0 0.5,0.51 h 1.34 v 0.72 H 124 A 1.23,1.23 0 0 1 122.77,145 v -1.73 A 1.23,1.23 0 0 1 124,142 h 1.34 v 0.72 H 124 a 0.5,0.5 0 0 0 -0.49,0.55 z"
       id="path313"
       inkscape:connector-curvature="0"
       style="fill:#ffcd00" />
    <path
       class="cls-2"
       d="m 128.72,143.36 v 2.87 H 128 v -2.87 a 0.62,0.62 0 0 0 -0.3,-0.53 0.61,0.61 0 0 0 -0.61,0 0.6,0.6 0 0 0 -0.3,0.53 v 2.87 h -0.73 v -3.46 h -0.34 V 142 h 0.36 a 0.69,0.69 0 0 1 0.53,0.25 1.31,1.31 0 0 1 0.78,-0.26 1.33,1.33 0 0 1 1.33,1.37 z"
       id="path315"
       inkscape:connector-curvature="0"
       style="fill:#ffcd00" />
    <path
       class="cls-2"
       d="m 132.46,142 -1.34,4.2 h -0.76 L 129,142 h 0.76 l 1,3 1,-3 z"
       id="path317"
       inkscape:connector-curvature="0"
       style="fill:#ffcd00" />
    <path
       class="cls-2"
       d="m 123.76,182.16 a 0.5,0.5 0 0 0 0.5,0.51 h 1.34 v 0.72 h -1.34 a 1.25,1.25 0 0 1 -0.5,-0.11 v 0.62 a 0.5,0.5 0 0 0 0.5,0.5 h 1.34 v 0.73 h -1.34 A 1.24,1.24 0 0 1 123,183.9 v -1.74 a 1.23,1.23 0 0 1 1.23,-1.23 h 1.34 v 0.73 h -1.34 a 0.5,0.5 0 0 0 -0.47,0.5 z"
       id="path319"
       inkscape:connector-curvature="0"
       style="fill:#ffcd00" />
    <path
       class="cls-2"
       d="m 128.82,182.32 v 1.4 a 1.4,1.4 0 1 1 -2.79,0 v -1.4 a 1.4,1.4 0 0 1 1.39,-1.4 1.42,1.42 0 0 1 1.4,1.4 z m -0.73,0 a 0.67,0.67 0 0 0 -1.34,0 v 1.4 a 0.67,0.67 0 1 0 1.34,0 z"
       id="path321"
       inkscape:connector-curvature="0"
       style="fill:#ffcd00" />
    <path
       class="cls-2"
       d="m 131.3,183.72 h 0.7 a 1.4,1.4 0 1 1 -2.79,0 v -1.4 a 1.4,1.4 0 1 1 2.79,0 h -0.73 a 0.67,0.67 0 1 0 -1.34,0 v 1.4 a 0.67,0.67 0 1 0 1.34,0 z"
       id="path323"
       inkscape:connector-curvature="0"
       style="fill:#ffcd00" />
    <path
       class="cls-2"
       d="m 125.93,230.14 v 1.4 a 1.4,1.4 0 1 1 -2.79,0 v -1.4 a 1.4,1.4 0 1 1 2.79,0 z m -0.72,0 a 0.67,0.67 0 0 0 -1.34,0 v 1.4 a 0.67,0.67 0 0 0 1.34,0 z"
       id="path325"
       inkscape:connector-curvature="0"
       style="fill:#ffcd00" />
    <path
       class="cls-2"
       d="m 129.32,232.21 v 0.73 H 129 a 0.66,0.66 0 0 1 -0.51,-0.24 1.33,1.33 0 0 1 -2.09,-1.09 v -2.87 h 0.73 v 2.87 a 0.6,0.6 0 0 0 0.6,0.6 0.61,0.61 0 0 0 0.6,-0.6 v -2.87 H 129 v 3.47 z"
       id="path327"
       inkscape:connector-curvature="0"
       style="fill:#ffcd00" />
    <path
       class="cls-2"
       d="m 132,228.74 v 0.73 h -0.85 v 3.47 h -0.73 v -3.47 h -0.85 v -0.73 z"
       id="path329"
       inkscape:connector-curvature="0"
       style="fill:#ffcd00" />
    <circle
       class="cls-2"
       cx="127.53"
       cy="236.84"
       r="1.13"
       id="circle331"
       style="fill:#ffcd00" />
    <circle
       class="cls-2"
       cx="127.53"
       cy="137.78"
       r="1.13"
       id="circle333"
       style="fill:#ffcd00" />
    <path
       class="cls-2"
       d="m 45.13,288.89 h -2 a 0.38,0.38 0 1 1 0,-0.75 h 2 a 0.38,0.38 0 0 1 0,0.75 z m -4,0 h -2 a 0.38,0.38 0 1 1 0,-0.75 h 2 a 0.38,0.38 0 0 1 0,0.75 z m -4,0 h -2 a 0.38,0.38 0 1 1 0,-0.75 h 2 a 0.37,0.37 0 0 1 0.37,0.37 0.38,0.38 0 0 1 -0.37,0.38 z m -4,0 h -2 a 0.38,0.38 0 1 1 0,-0.75 h 2 a 0.38,0.38 0 0 1 0,0.75 z m -4,0 h -2 a 0.38,0.38 0 1 1 0,-0.75 h 2 a 0.37,0.37 0 0 1 0.37,0.37 0.38,0.38 0 0 1 -0.37,0.38 z m -4,0 h -2 a 0.38,0.38 0 1 1 0,-0.75 h 2 a 0.38,0.38 0 0 1 0,0.75 z m -4,0 h -2 a 0.38,0.38 0 0 1 -0.36,-0.38 0.38,0.38 0 0 1 0.38,-0.37 h 2 a 0.38,0.38 0 0 1 0,0.75 z m -3.94,-0.43 a 0.33,0.33 0 0 1 -0.15,0 5.31,5.31 0 0 1 -1.72,-1.21 v 0 0 a 0.36,0.36 0 0 1 0,-0.51 0.39,0.39 0 0 1 0.53,0 4.68,4.68 0 0 0 1.5,1.07 0.36,0.36 0 0 1 0.22,0.35 0.35,0.35 0 0 1 0,0.14 0.37,0.37 0 0 1 -0.38,0.16 z m -2.67,-2.83 a 0.37,0.37 0 0 1 -0.35,-0.25 5.2,5.2 0 0 1 -0.34,-1.87 0.38,0.38 0 1 1 0.75,0 4.63,4.63 0 0 0 0.29,1.61 0.32,0.32 0 0 1 0,0.13 0.36,0.36 0 0 1 -0.24,0.35 0.31,0.31 0 0 1 -0.11,0.03 z"
       id="path335"
       inkscape:connector-curvature="0"
       style="fill:#ffcd00" />
    <path
       class="cls-2"
       d="m 94.11,288.89 h -2 a 0.38,0.38 0 1 1 0,-0.75 h 2 a 0.38,0.38 0 0 1 0,0.75 z m -4,0 h -2 a 0.38,0.38 0 1 1 0,-0.75 h 2 a 0.38,0.38 0 0 1 0,0.75 z m -4,0 h -2 a 0.38,0.38 0 1 1 0,-0.75 h 2 a 0.38,0.38 0 1 1 0,0.75 z m -4,0 h -2 a 0.38,0.38 0 1 1 0,-0.75 h 2 a 0.38,0.38 0 0 1 0,0.75 z m -4,0 h -2 a 0.38,0.38 0 1 1 0,-0.75 h 2 a 0.38,0.38 0 0 1 0,0.75 z m -4,0 h -2 a 0.38,0.38 0 1 1 0,-0.75 h 2 a 0.38,0.38 0 0 1 0,0.75 z m -4,0 h -1.79 a 0.38,0.38 0 0 1 0,-0.75 h 1.79 a 0.38,0.38 0 0 1 0,0.75 z m 26,-0.34 a 0.37,0.37 0 0 1 -0.35,-0.24 0.4,0.4 0 0 1 0,-0.15 0.38,0.38 0 0 1 0.24,-0.34 4.57,4.57 0 0 0 1.54,-1 0.38,0.38 0 0 1 0.53,0 0.39,0.39 0 0 1 0.11,0.27 0.34,0.34 0 0 1 -0.12,0.26 5.07,5.07 0 0 1 -1.79,1.16 0.31,0.31 0 0 1 -0.2,0.04 z m 2.78,-2.72 a 0.32,0.32 0 0 1 -0.14,0 0.38,0.38 0 0 1 -0.23,-0.35 0.35,0.35 0 0 1 0,-0.14 4.63,4.63 0 0 0 0.36,-1.8 v 0 a 0.37,0.37 0 0 1 0.37,-0.36 0.38,0.38 0 0 1 0.38,0.38 5.34,5.34 0 0 1 -0.42,2.09 0.37,0.37 0 0 1 -0.36,0.18 z"
       id="path337"
       inkscape:connector-curvature="0"
       style="fill:#ffcd00" />
    <circle
       class="cls-1"
       cx="133.44"
       cy="8.5"
       r="4.1100001"
       id="circle339"
       style="fill:#010100" />
    <path
       class="cls-2"
       d="m 137.55,8.27 v 0.47 a 3.88,3.88 0 0 0 -3.87,3.87 h -0.47 A 3.88,3.88 0 0 0 129.34,8.74 V 8.27 a 3.88,3.88 0 0 0 3.87,-3.87 h 0.47 a 3.88,3.88 0 0 0 3.87,3.87 z m -4.11,2.93 a 4.41,4.41 0 0 1 2.7,-2.7 4.37,4.37 0 0 1 -2.7,-2.69 4.33,4.33 0 0 1 -2.69,2.69 4.37,4.37 0 0 1 2.69,2.7 z"
       id="path341"
       inkscape:connector-curvature="0"
       style="fill:#ffcd00" />
    <path
       class="cls-2"
       d="m 133.8,12.73 h -0.72 v -0.12 a 3.75,3.75 0 0 0 -3.74,-3.75 h -0.13 V 8.14 h 0.13 A 3.75,3.75 0 0 0 133.08,4.4 V 4.27 h 0.72 V 4.4 a 3.75,3.75 0 0 0 3.75,3.74 h 0.13 v 0.72 h -0.13 a 3.75,3.75 0 0 0 -3.75,3.75 z m -0.47,-0.25 h 0.23 a 4,4 0 0 1 3.87,-3.86 V 8.39 a 4,4 0 0 1 -3.87,-3.87 h -0.23 a 4,4 0 0 1 -3.87,3.87 v 0.23 a 4,4 0 0 1 3.87,3.86 z m 0.11,-0.9 -0.12,-0.34 a 4.24,4.24 0 0 0 -2.61,-2.62 l -0.34,-0.12 0.34,-0.11 a 4.24,4.24 0 0 0 2.61,-2.62 l 0.12,-0.34 0.12,0.34 a 4.26,4.26 0 0 0 2.62,2.62 l 0.34,0.11 -0.34,0.12 a 4.26,4.26 0 0 0 -2.62,2.62 z M 131.1,8.5 a 4.59,4.59 0 0 1 2.34,2.35 4.53,4.53 0 0 1 2.35,-2.35 4.51,4.51 0 0 1 -2.35,-2.34 4.53,4.53 0 0 1 -2.34,2.34 z"
       id="path343"
       inkscape:connector-curvature="0"
       style="fill:#ffcd00" />
    <path
       class="cls-2"
       d="m 29.55,306.36 -2,-1.15 a 0.57,0.57 0 0 0 -0.85,0.49 v 2.3 a 0.57,0.57 0 0 0 0.85,0.49 l 2,-1.15 a 0.56,0.56 0 0 0 0,-0.98 z"
       id="path345"
       inkscape:connector-curvature="0"
       style="fill:#ffcd00" />
  </g>
</svg>
