<svg xmlns="http://www.w3.org/2000/svg" width="40mm" height="128.5mm" viewBox="0 0 113.39 364.25">
  <title>ST MAR_V3.1</title>
  <g>
    <rect width="113.39" height="364.25" style="fill: #010100"/>
    <rect x="84.33" y="351.35" width="17.59" height="8.79" rx="4.39" ry="4.39" style="fill: #fff"/>
    <path d="M99.2,342.29c-3.55,0-3.55,2.26-7.09,2.26s-3.54-2.26-7.09-2.26-3.54,2.26-7.08,2.26-3.55-2.26-7.09-2.26-3.54,2.26-7.08,2.26-3.55-2.26-7.09-2.26-3.54,2.26-7.08,2.26-3.55-2.26-7.09-2.26-3.54,2.26-7.09,2.26-3.54-2.26-7.08-2.26-3.54,2.26-7.09,2.26-3.54-2.26-7.08-2.26-3.54,2.26-7.09,2.26S3.54,342.29,0,342.29v22H113.39v-22c-3.55,0-3.55,2.26-7.1,2.26S102.74,342.29,99.2,342.29Z" style="fill: #fff"/>
    <path d="M97.64,349.55h-9a6.19,6.19,0,0,0,0,12.38h9a6.19,6.19,0,0,0,0-12.38Zm-.11,10.58H88.72a4.4,4.4,0,0,1,0-8.79h8.81a4.4,4.4,0,0,1,0,8.79Z" style="fill: #ffcd00"/>
    <g>
      <path d="M97.53,360.14h-8.8a4.4,4.4,0,1,1,0-8.79h8.8a4.4,4.4,0,1,1,0,8.79Z" style="fill: #a2a2a2"/>
      <path d="M101.93,355.74a4.4,4.4,0,0,1-4.4,4.4h-8.8a4.4,4.4,0,1,1,0-8.79h8.8A4.4,4.4,0,0,1,101.93,355.74Z" style="fill: #010100"/>
    </g>
    <rect x="11.46" y="4.11" width="17.59" height="8.79" rx="4.39" ry="4.39" style="fill: #fff"/>
    <path d="M24.77,2.31h-9a6.19,6.19,0,0,0,0,12.38h9a6.19,6.19,0,1,0,0-12.38ZM24.66,12.9h-8.8a4.4,4.4,0,1,1,0-8.79h8.8a4.4,4.4,0,1,1,0,8.79Z" style="fill: #ffcd00"/>
    <g>
      <path d="M24.66,12.9h-8.8a4.4,4.4,0,1,1,0-8.79h8.8a4.4,4.4,0,1,1,0,8.79Z" style="fill: #a2a2a2"/>
      <path d="M29.06,8.5a4.4,4.4,0,0,1-4.4,4.4h-8.8a4.4,4.4,0,1,1,0-8.79h8.8A4.4,4.4,0,0,1,29.06,8.5Z" style="fill: #010100"/>
    </g>
    <g>
      <path d="M60.71,12a3.53,3.53,0,0,1-1.12-.52l.5-1.1a3.32,3.32,0,0,0,1,.48,3.64,3.64,0,0,0,1.12.18,1.73,1.73,0,0,0,.92-.19.54.54,0,0,0,.29-.49.45.45,0,0,0-.17-.37,1.37,1.37,0,0,0-.45-.24c-.18-.06-.43-.13-.74-.2a10,10,0,0,1-1.18-.34,1.89,1.89,0,0,1-.79-.55,1.48,1.48,0,0,1-.33-1,1.72,1.72,0,0,1,.3-1,2,2,0,0,1,.89-.71,3.75,3.75,0,0,1,1.47-.26,5.06,5.06,0,0,1,1.17.14,3.57,3.57,0,0,1,1,.42l-.45,1.1a3.59,3.59,0,0,0-1.74-.49,1.68,1.68,0,0,0-.91.2.6.6,0,0,0-.29.52.5.5,0,0,0,.34.48,4.79,4.79,0,0,0,1,.31c.48.12.87.23,1.18.34a2,2,0,0,1,.78.54,1.45,1.45,0,0,1,.33,1,1.75,1.75,0,0,1-.3,1,2,2,0,0,1-.9.71,3.79,3.79,0,0,1-1.47.26A5,5,0,0,1,60.71,12Z" style="fill: #fff"/>
      <path d="M67.05,7H65V5.78h5.49V7h-2v5.11H67.05Z" style="fill: #fff"/>
      <path d="M72,10.18a.89.89,0,0,1,1.25-1.27.81.81,0,0,1,.25.63.89.89,0,0,1-1.5.64Z" style="fill: #ffcd00"/>
      <path d="M81.75,12.08V8.3l-1.85,3.11h-.66l-1.84-3v3.7H76V5.78h1.21l2.35,3.91,2.33-3.91H83.1l0,6.3Z" style="fill: #fff"/>
      <path d="M88.76,10.73H85.84l-.56,1.35H83.79l2.8-6.3H88l2.82,6.3H89.32ZM88.3,9.62l-1-2.41-1,2.41Z" style="fill: #fff"/>
      <path d="M95.52,12.08l-1.21-1.76H93v1.76H91.51V5.78h2.72a3.46,3.46,0,0,1,1.46.28,2.13,2.13,0,0,1,1,.79A2.19,2.19,0,0,1,97,8.06a2.06,2.06,0,0,1-1.3,2l1.42,2Zm-.37-4.83a1.53,1.53,0,0,0-1-.28H93V9.16h1.18a1.47,1.47,0,0,0,1-.29,1,1,0,0,0,.35-.81A1,1,0,0,0,95.15,7.25Z" style="fill: #fff"/>
    </g>
    <g>
      <g>
        <path d="M98.39,230.18l0,0-1.24-1.54,0,0c.51-.41,1-.84,1.46-1.29l0,0,0,0,1.4,1.43h0l0,0H100a20.75,20.75,0,0,1-1.56,1.38l0,0Zm-27-.14V230c-.55-.46-1.08-.94-1.57-1.44l0,0L71.24,227l0,0c.45.46.94.9,1.43,1.31l.05.05L71.45,230h0Zm30.06-2.83-1.57-1.32,0,0a18.07,18.07,0,0,0,1.18-1.55l0,0,0,0,1.66,1.12,0,0c-.41.59-.84,1.17-1.3,1.73Zm-33-.26,0,0a20.12,20.12,0,0,1-1.28-1.75l0,0L68.8,224l0,0A18.65,18.65,0,0,0,70,225.62l0,0,0,0Zm35.43-3.29-1.8-1,0,0a16.76,16.76,0,0,0,.84-1.76l0,0,1.88.78,0,.06c-.27.66-.59,1.32-.92,1.94Zm-37.8-.29,0-.05c-.33-.63-.63-1.29-.9-2l0-.07h.07l1.84-.73,0,.05c.24.59.51,1.19.81,1.77l0,0,0,0Zm39.46-3.67-2-.59,0-.05c.19-.63.34-1.26.47-1.89v-.06l2,.39v.05c-.14.7-.31,1.41-.52,2.1Zm-41.07-.31,0-.06q-.28-1-.48-2.1v0l2-.36v.05c.12.63.26,1.25.43,1.86l0,.09,0,0Zm41.91-3.91h-.05l-2-.18v-.05a17.87,17.87,0,0,0,.08-1.81l0-.2h2v.21c0,.67,0,1.34-.09,2Zm-42.67-.32v0c0-.57-.07-1.13-.07-1.67,0-.16,0-.33,0-.49v0l2.05,0V213c0,.15,0,.29,0,.44,0,.49,0,1,.06,1.51V215h-.06Zm40.61-3.75v0a18.8,18.8,0,0,0-.3-1.92v-.06H104L106,209v0c.15.71.26,1.42.34,2.14v0Zm-38.49-.29h-.06l-2-.3c.09-.71.22-1.42.37-2.12l0-.05,2,.45v0c-.14.63-.25,1.28-.33,1.92Zm37.7-3.51v-.05c-.2-.61-.43-1.23-.69-1.82l0-.06,1.87-.81,0,.06c.28.65.54,1.33.76,2V207Zm-36.9-.29h0l-1.89-.64v-.06c.23-.66.49-1.34.79-2l0-.05,1.87.85,0,0c-.27.58-.5,1.19-.72,1.82ZM102,204.05l0-.05a17.48,17.48,0,0,0-1-1.61l-.24.17.12-.16-.13,0,1.87-1.31,0,.05c.41.59.79,1.2,1.14,1.82l0,.05Zm-33.75-.26-1.77-1,0,0a18.76,18.76,0,0,1,1.18-1.81l0,0,1.65,1.19,0,0c-.37.53-.73,1.08-1.06,1.64Zm31.53-2.93,0,0c-.42-.49-.87-1-1.34-1.41l-.05,0,1.41-1.48,0,0c.52.49,1,1,1.49,1.57l0,0Zm-29.27-.23L69,199.28l0,0c.48-.54,1-1.06,1.51-1.54l0,0L72,199.17l0,0c-.48.44-.93.91-1.36,1.39ZM97,198.17l0,0c-.49-.38-1-.75-1.55-1.09h0l-.08-.06v0l1.07-1.69,0,0c.61.39,1.21.81,1.77,1.25l0,0Zm-23.6-.2,0,0-1.2-1.59,0,0v-.1l.06.06A19,19,0,0,1,74,195.12l0,0,1.06,1.75,0,0A17.64,17.64,0,0,0,73.4,198Zm20.32-1.87,0,0c-.58-.29-1.19-.55-1.79-.78l0-.06.71-1.88,0,0c.69.26,1.35.55,2,.86l0,0Zm-17-.15,0,0-.86-1.8,0,0c.65-.31,1.31-.58,2-.82V193l.77,2.15,0,0c-.61.22-1.22.47-1.8.74Zm13.36-1.23h0c-.62-.16-1.27-.3-1.9-.4l0-.06.31-2h0a21,21,0,0,1,2.12.44l0,0Zm-9.74-.07v-.05l-.48-1.94h0a21.44,21.44,0,0,1,2.12-.41l.06,0,.28,2h0c-.64.1-1.29.22-1.91.38Z" style="fill: #fff"/>
        <path d="M86.22,192S85.59,192,85,192a11.38,11.38,0,0,0-1.17.06L84,194.1s.76,0,1,0l1,0Z" style="fill: #fff"/>
        <circle cx="85.04" cy="213.31" r="1.42" style="fill: red"/>
      </g>
      <g>
        <rect x="80.4" y="235.61" width="9.29" height="9.29" rx="4.64" ry="4.64" style="fill: #ffcd00"/>
        <path d="M86.09,240.2a1.48,1.48,0,0,1-1.44,2.47,1.48,1.48,0,0,1-1.09-1.43h.87a.6.6,0,0,0,.38.56.59.59,0,0,0,.66-.13.62.62,0,0,0,.13-.66.62.62,0,0,0-.56-.37h-.32v-.87H85a.61.61,0,1,0-.23-1.17.61.61,0,0,0-.38.56h-.87a1.48,1.48,0,1,1,2.53,1Z" style="fill: #040006"/>
      </g>
    </g>
    <g>
      <path d="M98.39,152.23l0,0-1.24-1.54,0,0c.51-.41,1-.84,1.46-1.29l0,0,0,0,1.4,1.43h0l0,.05H100a20.75,20.75,0,0,1-1.56,1.38l0,0Zm-27-.14V152c-.55-.46-1.08-.94-1.57-1.44l0,0,1.45-1.44,0,0c.45.46.94.9,1.43,1.31l.05,0-1.31,1.57h0Zm30.06-2.83-1.57-1.32,0,0a18.07,18.07,0,0,0,1.18-1.55l0,0,0,0,1.66,1.12,0,0c-.41.59-.84,1.17-1.3,1.73Zm-33-.26,0,0a20.12,20.12,0,0,1-1.28-1.75l0,0,1.71-1.12,0,0A18.65,18.65,0,0,0,70,147.67l0,0,0,0Zm35.43-3.29-1.8-1,0,0a16.76,16.76,0,0,0,.84-1.76l0-.05,1.88.78,0,.06c-.27.66-.59,1.32-.92,1.94Zm-37.8-.29,0,0c-.33-.63-.63-1.29-.9-2l0-.07h.07l1.84-.73,0,0c.24.59.51,1.19.81,1.77l0,0,0,0Zm39.46-3.67-2-.59,0,0c.19-.63.34-1.26.47-1.89v-.06l2,.39v0c-.14.7-.31,1.41-.52,2.1Zm-41.07-.31,0-.06q-.28-1-.48-2.1v-.05l2-.36v0c.12.63.26,1.25.43,1.86l0,.09,0,0Zm41.91-3.91h-.05l-2-.18v0a17.87,17.87,0,0,0,.08-1.81l0-.2h2v.21c0,.67,0,1.34-.09,2Zm-42.67-.32v-.05c0-.57-.07-1.13-.07-1.67,0-.16,0-.33,0-.49V135l2.05.05v.05c0,.15,0,.29,0,.44,0,.49,0,1,.06,1.51v.05h-.06Zm40.61-3.75v-.05a18.8,18.8,0,0,0-.3-1.92v-.06H104L106,131v.05c.15.71.26,1.42.34,2.14v.05Zm-38.49-.29h-.06l-2-.3c.09-.71.22-1.42.37-2.12l0-.05,2,.45v.05c-.14.63-.25,1.28-.33,1.92Zm37.7-3.51v0c-.2-.61-.43-1.23-.69-1.82l0-.06,1.87-.81,0,.06c.28.65.54,1.33.76,2v0Zm-36.9-.29h0l-1.89-.64v-.06c.23-.66.49-1.34.79-2l0,0,1.87.85,0,0c-.27.58-.5,1.19-.72,1.82ZM102,126.1l0,0a17.48,17.48,0,0,0-1-1.61l-.24.17.12-.16-.13,0,1.87-1.31,0,0c.41.59.79,1.2,1.14,1.82l0,0Zm-33.75-.26-1.77-1,0,0A18.76,18.76,0,0,1,67.68,123l0,0,1.65,1.19,0,0c-.37.53-.73,1.08-1.06,1.64Zm31.53-2.93,0,0c-.42-.49-.87-1-1.34-1.41l-.05,0,1.41-1.48,0,0c.52.49,1,1,1.49,1.57l0,0Zm-29.27-.23L69,121.33l0,0c.48-.54,1-1.06,1.51-1.54l0,0L72,121.22l0,0c-.48.44-.93.91-1.36,1.39ZM97,120.22l0,0c-.49-.38-1-.75-1.55-1.09h0l-.08-.06v0l1.07-1.69,0,0c.61.39,1.21.81,1.77,1.25l0,0Zm-23.6-.2,0,0-1.2-1.59,0,0v-.1l.06.06A19,19,0,0,1,74,117.17l0,0,1.06,1.75,0,0A17.64,17.64,0,0,0,73.4,120Zm20.32-1.87,0,0c-.58-.29-1.19-.55-1.79-.78l0-.06.71-1.88,0,0c.69.26,1.35.55,2,.86l0,0Zm-17-.15,0,0-.86-1.8,0,0c.65-.31,1.31-.58,2-.82v-.25l.77,2.15,0,0c-.61.22-1.22.47-1.8.74Zm13.36-1.23h0c-.62-.16-1.27-.3-1.9-.4l0-.06.31-2h0a21,21,0,0,1,2.12.44l0,0Zm-9.74-.07v0l-.48-1.94h0a21.44,21.44,0,0,1,2.12-.41l.06,0,.28,2h0c-.64.1-1.29.22-1.91.38Z" style="fill: #fff"/>
      <g>
        <rect x="80.4" y="158.03" width="9.29" height="9.29" rx="4.64" ry="4.64" style="fill: #ffcd00"/>
        <path d="M84.5,164.27h1.88v.87H83.56v-.44a2,2,0,0,1,0-.43,2.56,2.56,0,0,1,1.17-1.53c.75-.59.87-.81.87-1.16a.6.6,0,0,0-.6-.6.61.61,0,0,0-.61.6h-.87a1.48,1.48,0,0,1,3,0c0,.83-.51,1.29-1.21,1.84A2.34,2.34,0,0,0,84.5,164.27Z" style="fill: #040006"/>
      </g>
    </g>
    <path d="M86.22,113.81s-.63,0-1.18,0a11.71,11.71,0,0,0-1.18.06l.15,2.06s.77,0,1,0l1,0Z" style="fill: #fff"/>
    <g>
      <path d="M98.39,74.27l0,0L97.1,72.7l0,0c.51-.41,1-.84,1.46-1.29l0,0,0,0,1.4,1.43h0l0,0H100a20.75,20.75,0,0,1-1.56,1.38l0,0Zm-27-.14V74c-.55-.46-1.08-.94-1.57-1.44l0,0,1.45-1.44,0,0c.45.46.94.9,1.43,1.31l.05,0-1.31,1.57h0Zm30.06-2.83L99.88,70l0,0a18.07,18.07,0,0,0,1.18-1.55l0,0,0,0,1.66,1.12,0,0c-.41.59-.84,1.17-1.3,1.73Zm-33-.26,0,0a20.12,20.12,0,0,1-1.28-1.75l0,0L68.8,68.1l0,0A18.65,18.65,0,0,0,70,69.71l0,0,0,0Zm35.43-3.29-1.8-1,0,0a16.76,16.76,0,0,0,.84-1.76l0,0,1.88.78,0,.06c-.27.66-.59,1.32-.92,1.94Zm-37.8-.29,0,0c-.33-.63-.63-1.29-.9-2l0-.07h.07L67,64.65l0,0c.24.59.51,1.19.81,1.77l0,0,0,0Zm39.46-3.67-2-.59,0-.05c.19-.63.34-1.26.47-1.89V61.2l2,.39v0c-.14.7-.31,1.41-.52,2.1Zm-41.07-.31,0-.06q-.28-1-.48-2.1v0l2-.36V61c.12.63.26,1.25.43,1.86l0,.09,0,0Zm41.91-3.91h-.05l-2-.18v0a17.87,17.87,0,0,0,.08-1.81l0-.2h2v.21c0,.67,0,1.34-.09,2ZM63.7,59.25v0c0-.57-.07-1.13-.07-1.67,0-.16,0-.33,0-.49v0l2.05,0v.05c0,.15,0,.29,0,.44,0,.49,0,1,.06,1.51v.05h-.06Zm40.61-3.75v0a18.8,18.8,0,0,0-.3-1.92v-.06H104l1.95-.41v.05c.15.71.26,1.42.34,2.14v0Zm-38.49-.29h-.06l-2-.3c.09-.71.22-1.42.37-2.12l0-.05,2,.45v0c-.14.63-.25,1.28-.33,1.92Zm37.7-3.51v-.05c-.2-.61-.43-1.23-.69-1.82l0-.06,1.87-.81,0,.06c.28.65.54,1.33.76,2v0Zm-36.9-.29h0l-1.89-.64v-.06c.23-.66.49-1.34.79-2l0-.05,1.87.85,0,0c-.27.58-.5,1.19-.72,1.82ZM102,48.14l0,0a17.48,17.48,0,0,0-1-1.61l-.24.17.12-.16-.13,0,1.87-1.31,0,.05c.41.59.79,1.2,1.14,1.82l0,0Zm-33.75-.26-1.77-1,0,0A18.76,18.76,0,0,1,67.68,45l0,0,1.65,1.19,0,0c-.37.53-.73,1.08-1.06,1.64ZM99.77,45l0,0c-.42-.49-.87-1-1.34-1.41l-.05,0L99.76,42l0,0c.52.49,1,1,1.49,1.57l0,0ZM70.5,44.72,69,43.37l0,0c.48-.54,1-1.06,1.51-1.54l0,0L72,43.26l0,0c-.48.44-.93.91-1.36,1.39ZM97,42.26l0,0c-.49-.38-1-.75-1.55-1.09h0l-.08-.06v0l1.07-1.69,0,0c.61.39,1.21.81,1.77,1.25l0,0Zm-23.6-.2,0,0-1.2-1.59,0,0v-.1l.06.06A19,19,0,0,1,74,39.21l0,0,1.06,1.75,0,0a17.64,17.64,0,0,0-1.62,1.09Zm20.32-1.87,0,0c-.58-.29-1.19-.55-1.79-.78l0-.06.71-1.88,0,0c.69.26,1.35.55,2,.86l0,0Zm-17-.15,0,0-.86-1.8,0,0c.65-.31,1.31-.58,2-.82v-.25l.77,2.15,0,0c-.61.22-1.22.47-1.8.74Zm13.36-1.23h0c-.62-.16-1.27-.3-1.9-.4l0-.06.31-2h0a21,21,0,0,1,2.12.44l0,0Zm-9.74-.07v-.05l-.48-1.94h0A21.44,21.44,0,0,1,82,36.33l.06,0,.28,2h0c-.64.1-1.29.22-1.91.38Z" style="fill: #fff"/>
      <g>
        <rect x="80.4" y="79.42" width="9.29" height="9.29" rx="4.64" ry="4.64" style="fill: #ffcd00"/>
        <path d="M85.68,82.34v4.19h-.87V82.36h-.42v-.87h.44A.85.85,0,0,1,85.68,82.34Z" style="fill: #040006"/>
      </g>
    </g>
    <path d="M86.22,36.11s-.63,0-1.18,0a11.71,11.71,0,0,0-1.18.06L84,38.18s.77,0,1,0l1,0Z" style="fill: #fff"/>
    <g>
      <path d="M78.86,315.6V319H78V315.6a.63.63,0,1,0-1.25,0V319h-.85V315.6a.63.63,0,1,0-1.25,0V319h-.85v-4h-.4v-.85h.42a.8.8,0,0,1,.6.27,1.49,1.49,0,0,1,1.91.16,1.45,1.45,0,0,1,1-.44A1.48,1.48,0,0,1,78.86,315.6Z" style="fill: #fff"/>
      <path d="M82.67,315.76V319h-.85v-1.73H80.26V319h-.85v-3.27a1.63,1.63,0,1,1,3.26,0Zm-.85.68v-.68a.78.78,0,0,0-1.56,0v.68Z" style="fill: #fff"/>
      <path d="M86.2,317.68A1.44,1.44,0,0,1,84.71,319a1.47,1.47,0,0,1-1.46-.94l.81-.31a.61.61,0,0,0,.65.39.59.59,0,0,0,.63-.53c0-.11,0-.45-.77-.72-1.15-.39-1.37-1.07-1.35-1.57A1.44,1.44,0,0,1,84.71,314a1.48,1.48,0,0,1,1.46.94l-.81.3a.61.61,0,0,0-.65-.38.59.59,0,0,0-.63.53c0,.11,0,.44.77.71C86,316.5,86.22,317.18,86.2,317.68Z" style="fill: #fff"/>
      <path d="M89.45,314.12V315h-1v4h-.85v-4h-1v-.85Z" style="fill: #fff"/>
      <path d="M90.71,315.57a.59.59,0,0,0,.59.59h1.57V317H91.3a1.52,1.52,0,0,1-.59-.12v.71a.58.58,0,0,0,.59.59h1.57V319H91.3a1.44,1.44,0,0,1-1.44-1.44v-2a1.44,1.44,0,0,1,1.44-1.44h1.57V315H91.3A.58.58,0,0,0,90.71,315.57Z" style="fill: #fff"/>
      <path d="M96.11,316.57a1.42,1.42,0,0,1,.42,1V319h-.85v-1.44a.6.6,0,0,0-.57-.59H94.5v2h-.85v-4h-.36v-.85h1.8a1.45,1.45,0,0,1,1.44,1.44A1.42,1.42,0,0,1,96.11,316.57Zm-1-.42a.6.6,0,0,0,.57-.6.6.6,0,0,0-.59-.58H94.5v1.18h.61Z" style="fill: #fff"/>
    </g>
    <circle cx="85.04" cy="291.26" r="1.42" style="fill: red"/>
    <g>
      <path d="M98.39,308.13l0,0-1.24-1.54,0,0c.51-.41,1-.84,1.46-1.29l0,0,0,0,1.4,1.43h0l0,0H100a20.75,20.75,0,0,1-1.56,1.38l0,0Zm-27-.14v-.09c-.55-.46-1.08-.94-1.57-1.44l0,0L71.24,305l0,0c.45.46.94.9,1.43,1.31l.05.05L71.45,308h0Zm30.06-2.83-1.57-1.32,0,0a18.07,18.07,0,0,0,1.18-1.55l0,0,0,0,1.66,1.12,0,0c-.41.59-.84,1.17-1.3,1.73Zm-33-.26,0,0a20.12,20.12,0,0,1-1.28-1.75l0,0L68.8,302l0,0A18.65,18.65,0,0,0,70,303.57l0,0,0,0Zm35.43-3.29-1.8-1,0,0a16.76,16.76,0,0,0,.84-1.76l0-.05,1.88.78,0,.06c-.27.66-.59,1.32-.92,1.94Zm-37.8-.29,0-.05c-.33-.63-.63-1.29-.9-2l0-.07h.07l1.84-.73,0,.05c.24.59.51,1.19.81,1.77l0,0,0,0Zm39.46-3.67-2-.59,0-.05c.19-.63.34-1.26.47-1.89v-.06l2,.39v.05c-.14.7-.31,1.41-.52,2.1Zm-41.07-.31,0-.06q-.28-1-.48-2.1v-.05l2-.36v.05c.12.63.26,1.25.43,1.86l0,.09,0,0Zm41.91-3.91h-.05l-2-.18v-.05a17.87,17.87,0,0,0,.08-1.81l0-.2h2v.21c0,.67,0,1.34-.09,2Zm-42.67-.32v-.05c0-.57-.07-1.13-.07-1.67,0-.16,0-.33,0-.49v0l2.05,0V291c0,.15,0,.29,0,.44,0,.49,0,1,.06,1.51V293h-.06Zm40.61-3.75v-.05a18.8,18.8,0,0,0-.3-1.92v-.06H104l1.95-.41v0c.15.71.26,1.42.34,2.14v0Zm-38.49-.29h-.06l-2-.3c.09-.71.22-1.42.37-2.12l0-.05,2,.45v0c-.14.63-.25,1.28-.33,1.92Zm37.7-3.51v-.05c-.2-.61-.43-1.23-.69-1.82l0-.06,1.87-.81,0,.06c.28.65.54,1.33.76,2v.05Zm-36.9-.29h0l-1.89-.64v-.06c.23-.66.49-1.34.79-2l0-.05,1.87.85,0,0c-.27.58-.5,1.19-.72,1.82ZM102,282l0-.05a17.48,17.48,0,0,0-1-1.61l1.62-1.26,0,.05c.41.59.79,1.2,1.14,1.82l0,.05Zm-33.75-.26-1.77-1,0,0a18.76,18.76,0,0,1,1.18-1.81l0,0L69.36,280l0,0c-.37.53-.73,1.08-1.06,1.64Zm31.53-2.93,0,0c-.42-.49-.87-1-1.34-1.41l-.05-.05,1.41-1.48,0,0c.52.49,1,1,1.49,1.57l0,0Zm-29.27-.23L69,277.23l0,0c.48-.54,1-1.06,1.51-1.54l0,0L72,277.12l0,0c-.48.44-.93.91-1.36,1.39ZM97,276.12l0,0c-.49-.38-1-.75-1.55-1.09h0l-.08-.06v0l1.07-1.69,0,0c.61.39,1.21.81,1.77,1.25l0,0Zm-23.6-.2,0,0-1.2-1.59,0,0v-.1l.06.06A19,19,0,0,1,74,273.07l0,0,1.06,1.75,0,0a17.64,17.64,0,0,0-1.62,1.09Zm20.32-1.87,0,0c-.58-.29-1.19-.55-1.79-.78l0-.06.71-1.88,0,0c.69.26,1.35.55,2,.86l0,0Zm-17-.15,0,0-.86-1.8,0,0c.65-.31,1.31-.58,2-.82V271l.77,2.15,0,0c-.61.22-1.22.47-1.8.74Zm13.36-1.23h0c-.62-.16-1.27-.3-1.9-.4l0-.06.31-2h0a21,21,0,0,1,2.12.44l0,0Zm-9.74-.07v-.05l-.48-1.94h0a21.44,21.44,0,0,1,2.12-.41l.06,0,.28,2h0c-.64.1-1.29.22-1.91.38Z" style="fill: #ffcd00"/>
      <path d="M86.22,270s-.63-.05-1.18-.05a11.71,11.71,0,0,0-1.18.06L84,272s.77,0,1,0l1,0Z" style="fill: #ffcd00"/>
    </g>
    <path d="M42.53,294.67H14.16a12.18,12.18,0,0,0,0,24.36H42.53a12.18,12.18,0,1,0,0-24.36Z" style="fill: #ffcd00"/>
    <circle cx="14.22" cy="306.85" r="1.42" style="fill: red"/>
    <circle cx="42.53" cy="306.85" r="1.42" style="fill: red"/>
    <path d="M14.8,326.71v1H11.57v-5.59h1v4.63Z" style="fill: #fff"/>
    <path d="M43.82,324.86A1.63,1.63,0,0,1,44.3,326v1.64h-1V326a.67.67,0,0,0-.65-.67H42v2.31H41V323H40.6v-1h2.06a1.63,1.63,0,0,1,1.16,2.79Zm-1.14-.48a.68.68,0,0,0,0-1.35H42v1.35h.69Z" style="fill: #fff"/>
    <g>
      <g>
        <path d="M21.79,283.12a1.33,1.33,0,0,1-1.38,1.26,1.37,1.37,0,0,1-1.35-.87l.75-.29a.56.56,0,0,0,.6.36.53.53,0,0,0,.58-.49c0-.1,0-.42-.71-.67-1.07-.36-1.27-1-1.25-1.45a1.34,1.34,0,0,1,1.38-1.26,1.39,1.39,0,0,1,1.36.87l-.75.29a.57.57,0,0,0-.61-.36.55.55,0,0,0-.58.49c0,.1,0,.42.71.67C21.61,282,21.82,282.66,21.79,283.12Z" style="fill: #ffcd00"/>
        <path d="M23.44,280.63v3h.34v.78H22.31v-.78h.35v-3h-.35v-.78h1.47v.78Z" style="fill: #ffcd00"/>
        <path d="M27.33,281.71v1.16a1.52,1.52,0,0,1-3,0v-1.52a1.5,1.5,0,0,1,.94-1.4,1.48,1.48,0,0,1,1.64.33l-.55.55a.73.73,0,0,0-1.24.52v1.52a.73.73,0,0,0,1.45,0v-.37h-.72v-.79Z" style="fill: #ffcd00"/>
        <path d="M31,281.27v3.11h-.79v-3.11a.66.66,0,0,0-.32-.58.67.67,0,0,0-.67,0,.66.66,0,0,0-.32.58v3.11h-.79v-3.76h-.37v-.78h.39a.77.77,0,0,1,.58.26,1.43,1.43,0,0,1,.84-.27A1.44,1.44,0,0,1,31,281.27Z" style="fill: #ffcd00"/>
        <path d="M34.52,281.34v3h-.79v-1.62H32.28v1.62H31.5v-3a1.51,1.51,0,0,1,3,0Zm-.79.64v-.64a.72.72,0,0,0-.72-.72.73.73,0,0,0-.73.72V282Z" style="fill: #ffcd00"/>
        <path d="M37.66,283.6v.78H35v-4.54h.79v3.76Z" style="fill: #ffcd00"/>
      </g>
      <circle cx="11.32" cy="282.05" r="1.42" style="fill: red"/>
      <g>
        <path d="M24.87,270h.79a1.52,1.52,0,1,1-3,0v-1.52a1.52,1.52,0,0,1,3,0h-.79a.73.73,0,1,0-1.45,0V270a.73.73,0,1,0,1.45,0Z" style="fill: #ffcd00"/>
        <path d="M28.8,270.78v.79H26.18V267H27v3.76Z" style="fill: #ffcd00"/>
        <path d="M30.45,267.82v3h.34v.79H29.32v-.79h.34v-3h-.34V267h1.47v.79Z" style="fill: #ffcd00"/>
        <path d="M34.19,268.34a1.34,1.34,0,0,1-1.33,1.34h-.55v1.88h-.79V267.8h-.34V267h1.68A1.34,1.34,0,0,1,34.19,268.34Zm-.79,0a.54.54,0,0,0-.54-.54h-.55v1.09h.55A.54.54,0,0,0,33.4,268.34Z" style="fill: #ffcd00"/>
      </g>
      <circle cx="11.32" cy="269.29" r="1.42" style="fill: red"/>
      <circle cx="45.37" cy="269.29" r="1.42" style="fill: red"/>
      <circle cx="45.37" cy="282.05" r="1.42" style="fill: red"/>
    </g>
    <rect x="7.98" y="91.62" width="12.48" height="6.43" rx="3.22" ry="3.22" style="fill: #ffcd00"/>
    <path d="M29.55,40.53l-2-1.14a.56.56,0,0,0-.85.49v2.29a.56.56,0,0,0,.85.49l2-1.14A.57.57,0,0,0,29.55,40.53Z" style="fill: #ffcd00"/>
    <g>
      <path d="M52.27,76a.39.39,0,0,1-.38-.31,9.59,9.59,0,0,0-18.74,0,.38.38,0,0,1-.45.3.39.39,0,0,1-.3-.46,10.36,10.36,0,0,1,20.24,0,.39.39,0,0,1-.29.46Z" style="fill: #ffcd00"/>
      <path d="M44.63,87.86a.39.39,0,0,1-.38-.31.38.38,0,0,1,.3-.45,9.61,9.61,0,0,0,7.34-7.35.38.38,0,1,1,.75.16,10.35,10.35,0,0,1-7.93,7.94Z" style="fill: #ffcd00"/>
      <path d="M40.4,87.85h-.08a10.38,10.38,0,0,1-7.92-8,.38.38,0,0,1,.29-.46.39.39,0,0,1,.46.3,9.58,9.58,0,0,0,7.33,7.36.39.39,0,0,1,.3.46A.39.39,0,0,1,40.4,87.85Z" style="fill: #ffcd00"/>
    </g>
    <g>
      <rect x="9.57" y="53.95" width="9.29" height="9.29" rx="4.64" ry="4.64" style="fill: #fff"/>
      <path d="M15.63,60.21v.85H12.8v-4.9h.85v4.05Z" style="fill: #040006"/>
    </g>
    <g>
      <rect x="37.88" y="53.95" width="9.29" height="9.29" rx="4.64" ry="4.64" style="fill: #fff"/>
      <path d="M43.65,58.6a1.42,1.42,0,0,1,.42,1v1.44h-.85V59.61a.59.59,0,0,0-.57-.59H42v2h-.85V57h-.36v-.85h1.8a1.44,1.44,0,0,1,1,2.45Zm-1-.43a.59.59,0,0,0,0-1.17H42v1.17h.61Z" style="fill: #040006"/>
    </g>
    <g>
      <path d="M13,95.8h.81a1.56,1.56,0,1,1-3.12,0V94.23a1.56,1.56,0,1,1,3.12,0H13a.75.75,0,0,0-1.5,0V95.8a.75.75,0,0,0,1.5,0Z" style="fill: #040006"/>
      <path d="M18,92.68l-1.5,4.68h-.85l-1.49-4.68H15L16,96l1.07-3.35Z" style="fill: #040006"/>
    </g>
    <g>
      <path d="M40.64,93.94v3.42H39.8V93.94a.63.63,0,0,0-.63-.63.63.63,0,0,0-.63.63v3.42H37.7V93.94a.63.63,0,0,0-1.26,0v3.42H35.6v-4h-.41v-.85h.43a.87.87,0,0,1,.6.26,1.49,1.49,0,0,1,1.9.17,1.47,1.47,0,0,1,2.52,1Z" style="fill: #fff"/>
      <path d="M44.49,96.51v.85h-.43a.78.78,0,0,1-.6-.28A1.55,1.55,0,0,1,41,95.81V92.46h.85v3.35a.7.7,0,0,0,1.4,0V92.46h.85v4.05Z" style="fill: #fff"/>
      <path d="M47.42,92.46v.85h-1v4h-.84v-4h-1v-.85Z" style="fill: #fff"/>
      <path d="M48.51,93.9a.58.58,0,0,0,.59.59h1.56v.85H49.1a1.31,1.31,0,0,1-.59-.13v.72a.58.58,0,0,0,.59.59h1.56v.85H49.1a1.44,1.44,0,0,1-1.44-1.44v-2a1.43,1.43,0,0,1,1.44-1.43h1.56v.85H49.1A.58.58,0,0,0,48.51,93.9Z" style="fill: #fff"/>
    </g>
    <rect x="7.93" y="169.29" width="12.48" height="6.43" rx="3.22" ry="3.22" style="fill: #ffcd00"/>
    <path d="M29.55,118.2l-2-1.14a.56.56,0,0,0-.85.49v2.29a.56.56,0,0,0,.85.49l2-1.14A.57.57,0,0,0,29.55,118.2Z" style="fill: #ffcd00"/>
    <g>
      <path d="M52.27,153.65a.39.39,0,0,1-.38-.31,9.59,9.59,0,0,0-18.74,0,.38.38,0,0,1-.45.3.39.39,0,0,1-.3-.46,10.35,10.35,0,0,1,20.24,0,.39.39,0,0,1-.29.46Z" style="fill: #ffcd00"/>
      <path d="M44.63,165.53a.39.39,0,0,1-.08-.77,9.58,9.58,0,0,0,7.34-7.34.38.38,0,1,1,.75.16,10.35,10.35,0,0,1-7.93,7.94Z" style="fill: #ffcd00"/>
      <path d="M40.4,165.52h-.08a10.38,10.38,0,0,1-7.92-8,.38.38,0,0,1,.29-.46.39.39,0,0,1,.46.3,9.58,9.58,0,0,0,7.33,7.36.39.39,0,0,1,.3.46A.39.39,0,0,1,40.4,165.52Z" style="fill: #ffcd00"/>
    </g>
    <g>
      <rect x="9.57" y="131.62" width="9.29" height="9.29" rx="4.64" ry="4.64" style="fill: #fff"/>
      <path d="M15.63,137.88v.85H12.8v-4.9h.85v4Z" style="fill: #040006"/>
    </g>
    <g>
      <rect x="37.88" y="131.62" width="9.29" height="9.29" rx="4.64" ry="4.64" style="fill: #fff"/>
      <path d="M43.65,136.27a1.42,1.42,0,0,1,.42,1v1.44h-.85v-1.44a.59.59,0,0,0-.57-.59H42v2h-.85v-4.05h-.36v-.85h1.8a1.44,1.44,0,0,1,1,2.45Zm-1-.43a.59.59,0,0,0,0-1.17H42v1.17h.61Z" style="fill: #040006"/>
    </g>
    <g>
      <path d="M13,173.47h.81a1.56,1.56,0,1,1-3.12,0V171.9a1.56,1.56,0,1,1,3.12,0H13a.75.75,0,0,0-1.5,0v1.57a.75.75,0,0,0,1.5,0Z" style="fill: #040006"/>
      <path d="M18,170.35,16.46,175h-.85l-1.49-4.68H15L16,173.7l1.07-3.35Z" style="fill: #040006"/>
    </g>
    <g>
      <path d="M40.64,171.61V175H39.8v-3.42a.63.63,0,0,0-.63-.63.63.63,0,0,0-.63.63V175H37.7v-3.42a.63.63,0,0,0-1.26,0V175H35.6v-4h-.41v-.85h.43a.87.87,0,0,1,.6.26,1.49,1.49,0,0,1,1.9.17,1.47,1.47,0,0,1,2.52,1Z" style="fill: #fff"/>
      <path d="M44.49,174.18V175h-.43a.78.78,0,0,1-.6-.28A1.55,1.55,0,0,1,41,173.48v-3.35h.85v3.35a.7.7,0,0,0,1.4,0v-3.35h.85v4.05Z" style="fill: #fff"/>
      <path d="M47.42,170.13V171h-1V175h-.84V171h-1v-.85Z" style="fill: #fff"/>
      <path d="M48.51,171.57a.58.58,0,0,0,.59.59h1.56V173H49.1a1.31,1.31,0,0,1-.59-.13v.72a.58.58,0,0,0,.59.59h1.56V175H49.1a1.44,1.44,0,0,1-1.44-1.44v-2a1.43,1.43,0,0,1,1.44-1.43h1.56V171H49.1A.58.58,0,0,0,48.51,171.57Z" style="fill: #fff"/>
    </g>
    <rect x="7.93" y="246.99" width="12.48" height="6.43" rx="3.22" ry="3.22" style="fill: #ffcd00"/>
    <path d="M29.55,195.91l-2-1.15a.57.57,0,0,0-.85.49v2.29a.57.57,0,0,0,.85.5l2-1.15A.56.56,0,0,0,29.55,195.91Z" style="fill: #ffcd00"/>
    <g>
      <path d="M32.78,231.35H32.7a.39.39,0,0,1-.3-.46,10.36,10.36,0,0,1,20.24,0,.38.38,0,0,1-.29.46.38.38,0,0,1-.46-.29,9.59,9.59,0,0,0-18.74,0A.37.37,0,0,1,32.78,231.35Z" style="fill: #ffcd00"/>
      <path d="M44.63,243.23a.38.38,0,0,1-.08-.76,9.61,9.61,0,0,0,7.34-7.35.38.38,0,1,1,.75.16,10.35,10.35,0,0,1-7.93,7.94Z" style="fill: #ffcd00"/>
      <path d="M40.4,243.23h-.08a10.37,10.37,0,0,1-7.92-8,.38.38,0,0,1,.29-.46.39.39,0,0,1,.46.3,9.58,9.58,0,0,0,7.33,7.36.4.4,0,0,1,.3.46A.39.39,0,0,1,40.4,243.23Z" style="fill: #ffcd00"/>
    </g>
    <g>
      <rect x="9.57" y="209.32" width="9.29" height="9.29" rx="4.64" ry="4.64" style="fill: #fff"/>
      <path d="M15.63,215.59v.84H12.8v-4.9h.85v4.06Z" style="fill: #040006"/>
    </g>
    <g>
      <rect x="37.88" y="209.32" width="9.29" height="9.29" rx="4.64" ry="4.64" style="fill: #fff"/>
      <path d="M43.65,214a1.42,1.42,0,0,1,.42,1v1.44h-.85V215a.6.6,0,0,0-.57-.59H42v2h-.85v-4h-.36v-.85h1.8A1.45,1.45,0,0,1,44.07,213,1.42,1.42,0,0,1,43.65,214Zm-1-.42a.59.59,0,0,0,0-1.18H42v1.18h.61Z" style="fill: #040006"/>
    </g>
    <g>
      <path d="M13,251.17h.81a1.56,1.56,0,1,1-3.12,0V249.6a1.56,1.56,0,0,1,3.12,0H13a.75.75,0,0,0-1.5,0v1.57a.75.75,0,0,0,1.5,0Z" style="fill: #040006"/>
      <path d="M18,248.05l-1.5,4.68h-.85l-1.49-4.68H15L16,251.4l1.07-3.35Z" style="fill: #040006"/>
    </g>
    <g>
      <path d="M40.64,249.31v3.42H39.8v-3.42a.63.63,0,0,0-.63-.63.63.63,0,0,0-.63.63v3.42H37.7v-3.42a.63.63,0,0,0-1.26,0v3.42H35.6v-4h-.41v-.85h.43a.84.84,0,0,1,.6.27,1.46,1.46,0,0,1,1.9.17,1.4,1.4,0,0,1,1.05-.44A1.47,1.47,0,0,1,40.64,249.31Z" style="fill: #fff"/>
      <path d="M44.49,251.89v.84h-.43a.78.78,0,0,1-.6-.28,1.52,1.52,0,0,1-1.6.11,1.55,1.55,0,0,1-.84-1.37v-3.35h.85v3.35a.7.7,0,0,0,1.4,0v-3.35h.85v4Z" style="fill: #fff"/>
      <path d="M47.42,247.83v.85h-1v4h-.84v-4h-1v-.85Z" style="fill: #fff"/>
      <path d="M48.51,249.28a.59.59,0,0,0,.59.59h1.56v.84H49.1a1.45,1.45,0,0,1-.59-.12v.71a.58.58,0,0,0,.59.59h1.56v.85H49.1a1.43,1.43,0,0,1-1.44-1.44v-2a1.43,1.43,0,0,1,1.44-1.44h1.56v.85H49.1A.58.58,0,0,0,48.51,249.28Z" style="fill: #fff"/>
    </g>
    <g>
      <polygon points="52.1 359.16 54.18 361.24 58.55 361.24 56.47 359.16 52.1 359.16" style="fill: #ffcd00"/>
      <polygon points="62.15 359.16 57.78 359.16 59.86 361.24 64.23 361.24 62.15 359.16" style="fill: #ffcd00"/>
      <path d="M62.81,358.5l2.08,2.08V353.1a4.4,4.4,0,0,0-1.3-3.12l-1.08-1.08a4.74,4.74,0,0,1,.3,1.65Z" style="fill: #ffcd00"/>
      <path d="M60.92,348a3.93,3.93,0,0,0-3-1.38H55.39a4,4,0,0,0-4,3.95v7.68H56.2v-7a.46.46,0,0,1,.92,0v7h4.76v-7.68A3.92,3.92,0,0,0,60.92,348Z" style="fill: #ffcd00"/>
    </g>
    <g>
      <polygon points="107.53 8.78 108.69 9.94 108.13 11.29 107 11.29 107 12.43 105.65 12.99 104.9 12.24 104.9 11.12 106.21 12.43 106.21 10.5 108.13 10.5 106.41 8.78 108.13 7.05 106.21 7.05 106.21 5.13 104.9 6.43 104.9 5.31 105.65 4.57 107 5.13 107 6.26 108.13 6.26 108.69 7.61 107.53 8.78" style="fill: #ffcd00"/>
      <polygon points="102.76 7.05 100.83 7.05 102.56 8.78 100.83 10.5 102.76 10.5 102.76 12.43 104.07 11.11 104.07 12.23 103.32 12.99 101.97 12.43 101.97 11.29 100.83 11.29 100.27 9.94 101.44 8.78 100.27 7.61 100.83 6.26 101.97 6.26 101.97 5.13 103.32 4.57 104.07 5.32 104.07 6.44 102.76 5.13 102.76 7.05" style="fill: #ffcd00"/>
    </g>
    <path d="M79.12,258.87h-1v-.75h1Zm-3,0h-1v-.75h1Zm-3,0h-1v-.75h1Zm-3,0h-1v-.75h1Zm-3,0h-1v-.75h1Zm-3,0h-1v-.75h1Zm-6,0h-1v-.75h1Zm-6,0h-1v-.75h1Zm2.94,0h-1v-.75h1Zm6,0h-1v-.75h1Zm-12,0h-1v-.75h1Zm-3,0h-1v-.75h1Zm-3,0h-1v-.75h1Zm-3,0h-1v-.75h1Zm-3,0h-1v-.75h1Zm-3,0h-1v-.75h1Zm-3,0h-1v-.75h1Zm-3,0h-1v-.75h1Zm-3,0h-1v-.75h1Zm-3,0h-1v-.75h1Zm-3,0h-1v-.75h1Zm-3.25-.15-.7-.7.53-.53.7.7Zm65.31-.45-.53-.53.71-.71.53.53Zm-66.71-2h-.75v-1h.75Zm68.83-.15-.53-.53.71-.71.53.53Zm2-2.47h-.75v-1h.75Zm0-3h-.75v-1h.75Zm0-3h-.75v-1h.75Z" style="fill: #ffcd00"/>
    <path d="M79.12,180.81h-1v-.75h1Zm-3,0h-1v-.75h1Zm-3,0h-1v-.75h1Zm-3,0h-1v-.75h1Zm-3,0h-1v-.75h1Zm-3,0h-1v-.75h1Zm-3,0h-1v-.75h1Zm-3,0h-1v-.75h1Zm-3,0h-1v-.75h1Zm-3,0h-1v-.75h1Zm-3,0h-1v-.75h1Zm-3,0h-1v-.75h1Zm-3,0h-1v-.75h1Zm-3,0h-1v-.75h1Zm-3,0h-1v-.75h1Zm-3,0h-1v-.75h1Zm-3,0h-1v-.75h1Zm-3,0h-1v-.75h1Zm-3,0h-1v-.75h1Zm-3,0h-1v-.75h1Zm-3,0h-1v-.75h1Zm-3.25-.14-.7-.71.53-.53.71.71Zm65.32-.46-.54-.53.71-.7.53.53Zm-66.72-2h-.75v-1h.75Zm68.83-.16-.53-.53.71-.7.53.53Zm2-2.46h-.75v-1h.75Zm0-3h-.75v-1h.75Zm0-3h-.75v-1h.75Z" style="fill: #ffcd00"/>
    <path d="M79.12,103.16h-1v-.75h1Zm-3,0h-1v-.75h1Zm-3,0h-1v-.75h1Zm-3,0h-1v-.75h1Zm-3,0h-1v-.75h1Zm-3,0h-1v-.75h1Zm-3,0h-1v-.75h1Zm-3,0h-1v-.75h1Zm-3,0h-1v-.75h1Zm-3,0h-1v-.75h1Zm-3,0h-1v-.75h1Zm-3,0h-1v-.75h1Zm-3,0h-1v-.75h1Zm-3,0h-1v-.75h1Zm-3,0h-1v-.75h1Zm-3,0h-1v-.75h1Zm-3,0h-1v-.75h1Zm-3,0h-1v-.75h1Zm-3,0h-1v-.75h1Zm-3,0h-1v-.75h1Zm-3,0h-1v-.75h1ZM15.87,103l-.7-.71.53-.53.7.71Zm65.31-.45-.53-.53.71-.71.53.53Zm-66.71-2h-.75v-1h.75Zm68.83-.15-.53-.53.71-.71.53.53Zm2-2.47h-.75V97h.75Zm0-3h-.75V94h.75Zm0-3h-.75V91h.75Z" style="fill: #ffcd00"/>
    <g>
      <path d="M99.28,23.51a.47.47,0,0,1-.14-.35.47.47,0,1,1,.94,0,.5.5,0,0,1-.13.35.49.49,0,0,1-.34.13A.47.47,0,0,1,99.28,23.51Z" style="fill: #ffcd00"/>
      <path d="M102.33,23.51a.46.46,0,0,1-.13-.35.44.44,0,0,1,.46-.46.45.45,0,0,1,.47.46.5.5,0,0,1-.13.35.49.49,0,0,1-.34.13A.49.49,0,0,1,102.33,23.51Z" style="fill: #ffcd00"/>
      <path d="M105.38,23.51a.46.46,0,0,1-.13-.35.42.42,0,0,1,.13-.33.43.43,0,0,1,.33-.13.45.45,0,0,1,.34.13.42.42,0,0,1,.13.33.46.46,0,0,1-.13.35.49.49,0,0,1-.34.13A.49.49,0,0,1,105.38,23.51Z" style="fill: #ffcd00"/>
      <path d="M90.12,23.51a.46.46,0,0,1-.13-.35.42.42,0,0,1,.13-.33.43.43,0,0,1,.33-.13.45.45,0,0,1,.34.13.42.42,0,0,1,.13.33.46.46,0,0,1-.13.35.49.49,0,0,1-.34.13A.49.49,0,0,1,90.12,23.51Z" style="fill: #ffcd00"/>
      <path d="M93.17,23.51a.46.46,0,0,1-.13-.35.42.42,0,0,1,.13-.33.45.45,0,0,1,.34-.13.43.43,0,0,1,.33.13.42.42,0,0,1,.13.33.46.46,0,0,1-.13.35.47.47,0,0,1-.33.13A.49.49,0,0,1,93.17,23.51Z" style="fill: #ffcd00"/>
      <path d="M96.22,23.51a.5.5,0,0,1-.13-.35.42.42,0,0,1,.13-.33.45.45,0,0,1,.34-.13.44.44,0,0,1,.46.46.46.46,0,0,1-.13.35.45.45,0,0,1-.33.13A.49.49,0,0,1,96.22,23.51Z" style="fill: #ffcd00"/>
      <path d="M84,23.51a.47.47,0,0,1-.14-.35.47.47,0,1,1,.94,0,.5.5,0,0,1-.13.35.49.49,0,0,1-.34.13A.47.47,0,0,1,84,23.51Z" style="fill: #ffcd00"/>
      <path d="M87.07,23.51a.46.46,0,0,1-.13-.35.44.44,0,0,1,.46-.46.45.45,0,0,1,.47.46.5.5,0,0,1-.13.35.49.49,0,0,1-.34.13A.49.49,0,0,1,87.07,23.51Z" style="fill: #ffcd00"/>
      <path d="M77.91,23.51a.46.46,0,0,1-.13-.35.42.42,0,0,1,.13-.33.45.45,0,0,1,.34-.13.43.43,0,0,1,.33.13.42.42,0,0,1,.13.33.46.46,0,0,1-.13.35.47.47,0,0,1-.33.13A.49.49,0,0,1,77.91,23.51Z" style="fill: #ffcd00"/>
      <path d="M81,23.51a.5.5,0,0,1-.13-.35.42.42,0,0,1,.13-.33.45.45,0,0,1,.34-.13.44.44,0,0,1,.46.46.46.46,0,0,1-.13.35.45.45,0,0,1-.33.13A.49.49,0,0,1,81,23.51Z" style="fill: #ffcd00"/>
      <path d="M74.86,23.51a.46.46,0,0,1-.13-.35.42.42,0,0,1,.13-.33.43.43,0,0,1,.33-.13.45.45,0,0,1,.34.13.42.42,0,0,1,.13.33.46.46,0,0,1-.13.35.49.49,0,0,1-.34.13A.49.49,0,0,1,74.86,23.51Z" style="fill: #ffcd00"/>
      <path d="M71.76,23.51a.5.5,0,0,1-.13-.35.42.42,0,0,1,.13-.33.45.45,0,0,1,.34-.13.44.44,0,0,1,.46.46.46.46,0,0,1-.13.35.45.45,0,0,1-.33.13A.49.49,0,0,1,71.76,23.51Z" style="fill: #ffcd00"/>
      <path d="M65.66,23.51a.46.46,0,0,1-.13-.35.42.42,0,0,1,.13-.33A.43.43,0,0,1,66,22.7a.45.45,0,0,1,.34.13.42.42,0,0,1,.13.33.46.46,0,0,1-.13.35.49.49,0,0,1-.34.13A.49.49,0,0,1,65.66,23.51Z" style="fill: #ffcd00"/>
      <path d="M68.71,23.51a.46.46,0,0,1-.13-.35.42.42,0,0,1,.13-.33.45.45,0,0,1,.34-.13.44.44,0,0,1,.33.13.42.42,0,0,1,.13.33.46.46,0,0,1-.13.35.49.49,0,0,1-.33.13A.49.49,0,0,1,68.71,23.51Z" style="fill: #ffcd00"/>
      <path d="M62.61,23.51a.47.47,0,0,1-.14-.35.47.47,0,1,1,.94,0,.5.5,0,0,1-.13.35.49.49,0,0,1-.34.13A.47.47,0,0,1,62.61,23.51Z" style="fill: #ffcd00"/>
      <g>
        <path d="M56.5,23.51a.46.46,0,0,1-.13-.35.42.42,0,0,1,.13-.33.45.45,0,0,1,.34-.13.43.43,0,0,1,.33.13.42.42,0,0,1,.13.33.46.46,0,0,1-.13.35.47.47,0,0,1-.33.13A.49.49,0,0,1,56.5,23.51Z" style="fill: #ffcd00"/>
        <path d="M59.56,23.51a.47.47,0,0,1-.14-.35.47.47,0,1,1,.94,0,.5.5,0,0,1-.13.35.49.49,0,0,1-.34.13A.45.45,0,0,1,59.56,23.51Z" style="fill: #ffcd00"/>
        <path d="M47.35,23.51a.47.47,0,0,1-.14-.35.47.47,0,1,1,.94,0,.5.5,0,0,1-.13.35.49.49,0,0,1-.34.13A.47.47,0,0,1,47.35,23.51Z" style="fill: #ffcd00"/>
        <path d="M50.4,23.51a.46.46,0,0,1-.13-.35.42.42,0,0,1,.13-.33.43.43,0,0,1,.33-.13.45.45,0,0,1,.34.13.42.42,0,0,1,.13.33.46.46,0,0,1-.13.35.49.49,0,0,1-.34.13A.49.49,0,0,1,50.4,23.51Z" style="fill: #ffcd00"/>
        <path d="M53.45,23.51a.46.46,0,0,1-.13-.35.42.42,0,0,1,.13-.33.43.43,0,0,1,.33-.13.45.45,0,0,1,.34.13.42.42,0,0,1,.13.33.46.46,0,0,1-.13.35.49.49,0,0,1-.34.13A.49.49,0,0,1,53.45,23.51Z" style="fill: #ffcd00"/>
        <path d="M41.24,23.51a.46.46,0,0,1-.13-.35.42.42,0,0,1,.13-.33.45.45,0,0,1,.34-.13.43.43,0,0,1,.33.13.42.42,0,0,1,.13.33.46.46,0,0,1-.13.35.47.47,0,0,1-.33.13A.49.49,0,0,1,41.24,23.51Z" style="fill: #ffcd00"/>
        <path d="M44.29,23.51a.5.5,0,0,1-.13-.35.45.45,0,0,1,.47-.46.44.44,0,0,1,.46.46.46.46,0,0,1-.13.35.45.45,0,0,1-.33.13A.49.49,0,0,1,44.29,23.51Z" style="fill: #ffcd00"/>
        <path d="M35.14,23.51a.46.46,0,0,1-.13-.35.44.44,0,0,1,.46-.46.45.45,0,0,1,.47.46.5.5,0,0,1-.13.35.49.49,0,0,1-.34.13A.49.49,0,0,1,35.14,23.51Z" style="fill: #ffcd00"/>
        <path d="M38.19,23.51a.46.46,0,0,1-.13-.35.42.42,0,0,1,.13-.33.43.43,0,0,1,.33-.13.45.45,0,0,1,.34.13.42.42,0,0,1,.13.33.46.46,0,0,1-.13.35.49.49,0,0,1-.34.13A.49.49,0,0,1,38.19,23.51Z" style="fill: #ffcd00"/>
        <path d="M32.09,23.51a.47.47,0,0,1-.14-.35.47.47,0,1,1,.94,0,.5.5,0,0,1-.13.35.49.49,0,0,1-.34.13A.47.47,0,0,1,32.09,23.51Z" style="fill: #ffcd00"/>
        <path d="M29,23.51a.46.46,0,0,1-.13-.35.42.42,0,0,1,.13-.33.43.43,0,0,1,.33-.13.45.45,0,0,1,.34.13.42.42,0,0,1,.13.33.46.46,0,0,1-.13.35.49.49,0,0,1-.34.13A.49.49,0,0,1,29,23.51Z" style="fill: #ffcd00"/>
        <path d="M22.89,23.51a.47.47,0,0,1-.14-.35.47.47,0,1,1,.94,0,.5.5,0,0,1-.13.35.49.49,0,0,1-.34.13A.47.47,0,0,1,22.89,23.51Z" style="fill: #ffcd00"/>
        <path d="M25.94,23.51a.46.46,0,0,1-.13-.35.44.44,0,0,1,.46-.46.45.45,0,0,1,.47.46.5.5,0,0,1-.13.35.49.49,0,0,1-.34.13A.49.49,0,0,1,25.94,23.51Z" style="fill: #ffcd00"/>
        <path d="M19.83,23.51a.5.5,0,0,1-.13-.35.42.42,0,0,1,.13-.33.45.45,0,0,1,.34-.13.44.44,0,0,1,.46.46.46.46,0,0,1-.13.35.45.45,0,0,1-.33.13A.49.49,0,0,1,19.83,23.51Z" style="fill: #ffcd00"/>
        <path d="M16.74,23.51a.46.46,0,0,1-.13-.35.44.44,0,0,1,.46-.46.45.45,0,0,1,.47.46.5.5,0,0,1-.13.35.49.49,0,0,1-.34.13A.49.49,0,0,1,16.74,23.51Z" style="fill: #ffcd00"/>
        <path d="M10.63,23.51a.5.5,0,0,1-.13-.35.42.42,0,0,1,.13-.33A.45.45,0,0,1,11,22.7a.44.44,0,0,1,.46.46.46.46,0,0,1-.13.35.45.45,0,0,1-.33.13A.49.49,0,0,1,10.63,23.51Z" style="fill: #ffcd00"/>
        <path d="M13.69,23.51a.47.47,0,0,1-.14-.35.47.47,0,1,1,.94,0,.5.5,0,0,1-.13.35.49.49,0,0,1-.34.13A.47.47,0,0,1,13.69,23.51Z" style="fill: #ffcd00"/>
        <path d="M7.58,23.51a.46.46,0,0,1-.13-.35.42.42,0,0,1,.13-.33.45.45,0,0,1,.34-.13.43.43,0,0,1,.33.13.42.42,0,0,1,.13.33.46.46,0,0,1-.13.35.47.47,0,0,1-.33.13A.49.49,0,0,1,7.58,23.51Z" style="fill: #ffcd00"/>
      </g>
    </g>
    <circle cx="14.17" cy="196.36" r="1.42" style="fill: red"/>
    <circle cx="14.17" cy="155.51" r="1.42" style="fill: red"/>
    <circle cx="42.52" cy="155.51" r="1.42" style="fill: red"/>
    <circle cx="42.52" cy="118.66" r="1.42" style="fill: red"/>
    <circle cx="14.17" cy="118.66" r="1.42" style="fill: red"/>
    <circle cx="42.52" cy="77.84" r="1.42" style="fill: red"/>
    <circle cx="14.17" cy="77.84" r="1.42" style="fill: red"/>
    <circle cx="42.52" cy="40.99" r="1.42" style="fill: red"/>
    <circle cx="14.17" cy="40.99" r="1.42" style="fill: red"/>
    <circle cx="42.52" cy="196.36" r="1.42" style="fill: red"/>
    <circle cx="42.52" cy="233.21" r="1.42" style="fill: red"/>
    <circle cx="14.17" cy="233.21" r="1.42" style="fill: red"/>
  </g>
</svg>
