<?xml version="1.0" encoding="UTF-8"?>
<svg id="a" data-name="Capa 1" xmlns="http://www.w3.org/2000/svg" width="50mm" height="128.5mm" viewBox="0 0 141.73 364.26">
  <rect x="0" width="141.73" height="364.26" style="stroke-width: 0px;"/>
  <g>
    <path d="M16.45,284.81v.85h-.99v4.05h-.85v-4.05h-.99v-.85h2.83Z" style="fill: #fff; stroke-width: 0px;"/>
    <path d="M19.55,287.26c.27.27.42.63.42,1.01v1.44h-.85v-1.44c0-.32-.25-.58-.57-.59h-.61v2.03h-.85v-4.05h-.37v-.85h1.8c.79,0,1.44.64,1.44,1.44,0,.38-.15.74-.42,1.01ZM18.55,286.83c.32-.01.57-.28.57-.6s-.27-.58-.59-.58h-.59v1.18h.61Z" style="fill: #fff; stroke-width: 0px;"/>
    <path d="M21.74,285.68v3.2h.37v.85h-1.58v-.85h.37v-3.2h-.37v-.85h.37s.85,0,.85,0h0s.37,0,.37,0v.85h-.37Z" style="fill: #fff; stroke-width: 0px;"/>
    <path d="M25.93,286.84v1.24c0,.9-.73,1.62-1.63,1.62s-1.62-.72-1.63-1.62v-1.64c0-.66.4-1.25,1.01-1.5.61-.25,1.31-.11,1.78.35l-.6.6c-.22-.22-.56-.29-.85-.17-.29.12-.48.41-.48.72v1.64c0,.43.35.78.78.78s.78-.35.78-.78v-.4h-.78v-.85h1.63Z" style="fill: #fff; stroke-width: 0px;"/>
  </g>
  <g>
    <path d="M50.82,285.68v3.2h.37v.85h-1.58v-.85h.37v-3.2h-.37v-.85h.37s.85,0,.85,0h0s.37,0,.37,0v.85h-.37Z" style="fill: #fff; stroke-width: 0px;"/>
    <path d="M55.12,286.37v3.34h-.85v-3.34c0-.26-.13-.49-.35-.62-.22-.13-.49-.13-.71,0s-.35.37-.35.62v3.34h-.85v-4.04h-.41v-.85h.42c.24,0,.47.1.63.29.26-.19.58-.3.91-.29.86,0,1.55.7,1.55,1.55Z" style="fill: #fff; stroke-width: 0px;"/>
  </g>
  <g>
    <path d="M80.84,286.44v1.64c0,.9-.73,1.63-1.63,1.63s-1.63-.73-1.63-1.63v-1.64c0-.9.73-1.63,1.63-1.63.9,0,1.63.73,1.63,1.63ZM79.99,286.44c0-.43-.35-.78-.78-.78s-.78.35-.78.78v1.64c0,.43.35.78.78.78s.78-.35.78-.78v-1.64Z" style="fill: #fff; stroke-width: 0px;"/>
    <path d="M82.25,285.96c-.11.18-.11.41,0,.59.11.18.3.29.51.29h1.57v.85h-1.57c-.2,0-.4-.04-.59-.13v2.15h-.85v-3.46c0-.79.64-1.44,1.44-1.44h1.57v.85h-1.57c-.21,0-.41.11-.51.29Z" style="fill: #fff; stroke-width: 0px;"/>
    <path d="M85.81,285.96c-.11.18-.11.41,0,.59.11.18.3.29.51.29h1.57v.85h-1.57c-.2,0-.4-.04-.59-.13v2.15h-.85v-3.46c0-.79.64-1.44,1.44-1.44h1.57v.85h-1.57c-.21,0-.41.11-.51.29Z" style="fill: #fff; stroke-width: 0px;"/>
    <path d="M91.43,288.36c-.03.77-.67,1.35-1.49,1.35-1.02,0-1.38-.72-1.46-.94l.81-.31c.07.17.23.38.65.38.35,0,.61-.22.63-.53,0-.11.02-.45-.77-.72-1.15-.4-1.37-1.07-1.35-1.57.03-.77.67-1.35,1.49-1.35,1.02,0,1.38.72,1.46.94l-.81.31c-.07-.17-.23-.38-.65-.38-.35,0-.61.22-.63.53,0,.11-.02.45.77.72,1.15.4,1.37,1.07,1.35,1.57Z" style="fill: #fff; stroke-width: 0px;"/>
    <path d="M92.83,286.25c0,.33.26.59.59.59h1.57v.85h-1.57c-.2,0-.4-.04-.59-.13v.72c0,.33.26.59.59.59h1.57v.85h-1.57c-.79,0-1.44-.64-1.44-1.44v-2.03c0-.79.64-1.44,1.44-1.44h1.57v.85h-1.57c-.33,0-.59.26-.59.59Z" style="fill: #fff; stroke-width: 0px;"/>
    <path d="M98.24,284.81v.85h-.99v4.05h-.85v-4.05h-.99v-.85h2.83Z" style="fill: #fff; stroke-width: 0px;"/>
  </g>
  <g>
    <path d="M116.98,325.76c-.03.77-.67,1.35-1.49,1.35-1.02,0-1.38-.72-1.46-.94l.81-.31c.07.17.23.38.65.38.35,0,.61-.22.63-.53,0-.11.02-.45-.77-.72-1.15-.4-1.37-1.07-1.35-1.57.03-.77.67-1.35,1.49-1.35,1.02,0,1.38.72,1.46.94l-.81.31c-.07-.17-.23-.38-.65-.38-.35,0-.61.22-.63.53,0,.11-.02.45.77.72,1.15.4,1.37,1.07,1.35,1.57Z" style="fill: #fff; stroke-width: 0px;"/>
    <path d="M122.85,323.68v3.43h-.85v-3.43c0-.35-.28-.63-.63-.63s-.63.28-.63.63v3.43h-.85v-3.43c0-.35-.28-.63-.63-.63s-.63.28-.63.63v3.43h-.85v-4.04h-.4v-.85h.42c.23,0,.45.09.6.26.59-.42,1.39-.35,1.9.17.28-.28.66-.44,1.05-.44.81,0,1.47.66,1.47,1.47Z" style="fill: #fff; stroke-width: 0px;"/>
    <path d="M126.1,322.21v.85h-.99v4.05h-.85v-4.05h-.99v-.85h2.83Z" style="fill: #fff; stroke-width: 0px;"/>
    <path d="M129.78,322.22v4.89h-.85v-2.02h-1.57v2.03h-.85v-4.9h.85v2.02h1.57v-2.02h.85Z" style="fill: #fff; stroke-width: 0px;"/>
  </g>
  <g>
    <path d="M16.24,325.76c-.03.77-.67,1.35-1.49,1.35-1.02,0-1.38-.72-1.46-.94l.81-.31c.07.17.23.38.65.38.35,0,.61-.22.63-.53,0-.11.02-.45-.77-.72-1.15-.4-1.37-1.07-1.35-1.57.03-.77.67-1.35,1.49-1.35,1.02,0,1.38.72,1.46.94l-.81.31c-.07-.17-.23-.38-.65-.38-.35,0-.61.22-.63.53,0,.11-.02.45.77.72,1.15.4,1.37,1.07,1.35,1.57Z" style="fill: #fff; stroke-width: 0px;"/>
    <path d="M19.49,322.21v.85h-.99v4.05h-.85v-4.05h-.99v-.85h2.83Z" style="fill: #fff; stroke-width: 0px;"/>
    <path d="M20.75,323.65c0,.33.26.59.59.59h1.57v.85h-1.57c-.2,0-.4-.04-.59-.13v.72c0,.33.26.59.59.59h1.57v.85h-1.57c-.79,0-1.44-.64-1.44-1.44v-2.03c0-.79.64-1.44,1.44-1.44h1.57v.85h-1.57c-.33,0-.59.26-.59.59Z" style="fill: #fff; stroke-width: 0px;"/>
    <path d="M25.13,322.21c.79,0,1.44.64,1.44,1.44s-.64,1.44-1.44,1.44h-.59v2.03h-.85v-4.05h-.37v-.85h1.81ZM25.72,323.64c0-.33-.26-.59-.59-.59h-.59v1.18h.59c.33,0,.59-.26.59-.59Z" style="fill: #fff; stroke-width: 0px;"/>
  </g>
  <g>
    <path d="M52.09,326.27v.85h-2.83v-4.9h.85v4.05h1.99Z" style="fill: #fff; stroke-width: 0px;"/>
    <path d="M53.86,323.08v3.2h.37v.85h-1.58v-.85h.37v-3.2h-.37v-.85h.37s.85,0,.85,0h0s.37,0,.37,0v.85h-.37Z" style="fill: #fff; stroke-width: 0px;"/>
    <path d="M58.17,323.77v3.34h-.85v-3.34c0-.26-.13-.49-.35-.62-.22-.13-.49-.13-.71,0s-.35.37-.35.62v3.34h-.85v-4.04h-.41v-.85h.42c.24,0,.47.1.63.29.26-.19.58-.3.91-.29.86,0,1.55.7,1.55,1.55Z" style="fill: #fff; stroke-width: 0px;"/>
  </g>
  <g>
    <path d="M83.63,323.65c0,.33.26.59.59.59h1.57v.85h-1.57c-.2,0-.4-.04-.59-.13v.72c0,.33.26.59.59.59h1.57v.85h-1.57c-.79,0-1.44-.64-1.44-1.44v-2.03c0-.79.64-1.44,1.44-1.44h1.57v.85h-1.57c-.33,0-.59.26-.59.59Z" style="fill: #fff; stroke-width: 0px;"/>
    <path d="M88.96,324.66c.31.29.49.7.48,1.12v1.33h-.85v-1.33c0-.38-.32-.7-.7-.7s-.7.31-.7.7v1.33h-.85v-1.33c0-.43.17-.83.48-1.12-.31-.29-.48-.7-.48-1.12v-1.33h.85v1.33c0,.25.13.48.35.61.22.13.49.13.7,0,.22-.13.35-.36.35-.61v-1.33h.85v1.33c0,.42-.17.83-.48,1.12Z" style="fill: #fff; stroke-width: 0px;"/>
    <path d="M91.67,322.21c.79,0,1.44.64,1.44,1.44s-.64,1.44-1.44,1.44h-.59v2.03h-.85v-4.05h-.37v-.85h1.81ZM92.26,323.64c0-.33-.26-.59-.59-.59h-.59v1.18h.59c.33,0,.59-.26.59-.59Z" style="fill: #fff; stroke-width: 0px;"/>
  </g>
  <g>
    <path d="M16.03,206.04c.25.25.39.59.39.94v1.34h-.79v-1.34c0-.29-.23-.54-.53-.55h-.57v1.88h-.79v-3.76h-.34v-.79h1.67c.74,0,1.33.6,1.33,1.33,0,.35-.14.69-.39.94ZM15.1,205.64c.3-.01.53-.26.53-.56,0-.3-.25-.54-.55-.54h-.55v1.09h.55s.01,0,.02,0Z" style="fill: #fff; stroke-width: 0px;"/>
    <path d="M19.96,205.28v3.03h-.79v-1.61h-1.45v1.62h-.79v-3.04c0-.83.68-1.51,1.51-1.51.83,0,1.51.68,1.51,1.51ZM19.17,205.91v-.63c0-.4-.32-.72-.72-.72s-.72.32-.72.72v.63h1.45Z" style="fill: #fff; stroke-width: 0px;"/>
    <path d="M22.97,203.77v.79h-.92v3.76h-.79v-3.76h-.92v-.79h2.63Z" style="fill: #fff; stroke-width: 0px;"/>
    <path d="M24.14,205.1c0,.3.25.55.55.55h1.45v.79h-1.45c-.19,0-.38-.04-.55-.12v.67c0,.3.25.55.55.55h1.45v.79h-1.45c-.74,0-1.33-.6-1.33-1.33v-1.88c0-.74.6-1.33,1.33-1.33h1.45v.79h-1.45c-.3,0-.55.25-.55.55Z" style="fill: #fff; stroke-width: 0px;"/>
  </g>
  <g>
    <path d="M116.44,207.06c-.03.72-.62,1.26-1.38,1.26-.95,0-1.28-.67-1.36-.87l.75-.28c.06.16.22.36.61.36.32,0,.57-.21.58-.49,0-.1.02-.42-.71-.67-1.07-.37-1.27-1-1.25-1.46.03-.72.62-1.26,1.38-1.26.95,0,1.28.67,1.36.87l-.75.28c-.06-.16-.22-.36-.61-.36-.32,0-.57.21-.58.49,0,.1-.02.42.71.67,1.07.37,1.27,1,1.25,1.46Z" style="fill: #fff; stroke-width: 0px;"/>
    <path d="M119.99,203.77v4.54h-.79v-1.88h-1.45v1.88h-.79v-4.55h.79v1.88h1.45v-1.88h.79Z" style="fill: #fff; stroke-width: 0px;"/>
    <path d="M123.52,205.28v3.03h-.79v-1.61h-1.45v1.62h-.79v-3.04c0-.83.68-1.51,1.51-1.51.83,0,1.51.68,1.51,1.51ZM122.74,205.91v-.63c0-.4-.32-.72-.72-.72s-.72.32-.72.72v.63h1.45Z" style="fill: #fff; stroke-width: 0px;"/>
    <path d="M126.92,205.1c0,.74-.6,1.33-1.33,1.33h-.55v1.88h-.79v-3.76h-.34v-.79h1.67c.74,0,1.33.6,1.33,1.33ZM126.13,205.1c0-.3-.24-.55-.55-.55h-.55v1.09h.55c.3,0,.55-.25.55-.55Z" style="fill: #fff; stroke-width: 0px;"/>
    <path d="M128.1,205.1c0,.3.25.55.55.55h1.45v.79h-1.45c-.19,0-.38-.04-.55-.12v.67c0,.3.25.55.55.55h1.45v.79h-1.45c-.74,0-1.33-.6-1.33-1.33v-1.88c0-.74.6-1.33,1.33-1.33h1.45v.79h-1.45c-.3,0-.55.25-.55.55Z" style="fill: #fff; stroke-width: 0px;"/>
  </g>
  <g>
    <path d="M84.67,206.04c.25.25.39.59.39.94v1.34h-.79v-1.34c0-.29-.23-.54-.53-.55h-.57v1.88h-.79v-3.76h-.34v-.79h1.67c.74,0,1.33.6,1.33,1.33,0,.35-.14.69-.39.94ZM83.75,205.64c.3-.01.53-.26.53-.56,0-.3-.25-.54-.55-.54h-.55v1.09h.55s.01,0,.02,0Z" style="fill: #fff; stroke-width: 0px;"/>
    <path d="M88.72,205.21v3.1h-.79v-3.1c0-.24-.12-.46-.33-.58-.21-.12-.46-.12-.66,0-.21.12-.33.34-.33.58v3.1h-.79v-3.75h-.38v-.79h.39c.22,0,.44.1.58.27.25-.18.54-.27.85-.27.8,0,1.44.65,1.44,1.44Z" style="fill: #fff; stroke-width: 0px;"/>
    <path d="M92.35,205.23v1.63c0,.8-.65,1.46-1.46,1.46h-1.45v-3.76h-.34v-.79h1.79c.8,0,1.46.65,1.46,1.46ZM91.57,205.23c0-.37-.3-.67-.67-.67h-.66v2.97h.66c.37,0,.67-.3.67-.67v-1.63Z" style="fill: #fff; stroke-width: 0px;"/>
  </g>
  <g>
    <path d="M50.35,205.1c0,.74-.6,1.33-1.33,1.33h-.55v1.88h-.79v-3.76h-.34v-.79h1.67c.74,0,1.33.6,1.33,1.33ZM49.56,205.1c0-.3-.24-.55-.55-.55h-.55v1.09h.55c.3,0,.55-.25.55-.55Z" style="fill: #fff; stroke-width: 0px;"/>
    <path d="M53.23,206.04c.25.25.39.59.39.94v1.34h-.79v-1.34c0-.29-.23-.54-.53-.55h-.57v1.88h-.79v-3.76h-.34v-.79h1.67c.74,0,1.33.6,1.33,1.33,0,.35-.14.69-.39.94ZM52.3,205.64c.3-.01.53-.26.53-.56,0-.3-.25-.54-.55-.54h-.55v1.09h.55s.01,0,.02,0Z" style="fill: #fff; stroke-width: 0px;"/>
    <path d="M57.1,205.28v1.52c0,.83-.68,1.51-1.51,1.51s-1.51-.68-1.51-1.51v-1.52c0-.83.68-1.51,1.51-1.51.83,0,1.51.68,1.51,1.51ZM56.31,205.28c0-.4-.33-.73-.73-.73s-.73.33-.73.73v1.52c0,.4.33.73.73.73s.73-.33.73-.73v-1.52Z" style="fill: #fff; stroke-width: 0px;"/>
    <path d="M60.82,207.33c-.16.58-.68.98-1.29.98h-1.77v-3.76h-.34v-.79h1.67c.49,0,.94.27,1.17.7.23.43.21.96-.06,1.36.52.31.77.92.61,1.5ZM58.55,205.65h.55c.2,0,.38-.1.48-.27.1-.17.1-.38,0-.55s-.28-.27-.48-.27h-.55v1.09ZM59.53,207.53c.3,0,.55-.25.55-.55s-.24-.55-.55-.55h-.98v1.09h.98Z" style="fill: #fff; stroke-width: 0px;"/>
  </g>
  <g>
    <path d="M80.28,10.73c.41-.18.72-.44.95-.78.22-.34.33-.74.33-1.21s-.11-.88-.33-1.22c-.22-.34-.54-.6-.95-.79s-.89-.27-1.46-.27h-2.73v6.3h1.46v-1.75h1.27s.04,0,.07,0l1.21,1.76h1.58l-1.41-2.02s0,0,.01,0ZM79.75,7.93c.22.19.33.46.33.81s-.11.61-.33.81c-.22.19-.56.29-1.01.29h-1.19v-2.2h1.19c.45,0,.79.1,1.01.29Z" style="fill: #fff; stroke-width: 0px;"/>
    <path d="M84.69,6.45l-2.81,6.3h1.49l.56-1.35h2.92l.56,1.35h1.53l-2.82-6.3h-1.44ZM84.4,10.29l1-2.41,1,2.41h-2Z" style="fill: #fff; stroke-width: 0px;"/>
    <polygon points="93.95 10.27 90.81 6.45 89.61 6.45 89.61 12.75 91.05 12.75 91.05 8.93 94.19 12.75 95.39 12.75 95.39 6.45 93.95 6.45 93.95 10.27" style="fill: #fff; stroke-width: 0px;"/>
    <path d="M101.55,6.84c-.52-.26-1.12-.39-1.81-.39h-2.86v6.3h2.86c.68,0,1.29-.13,1.81-.39.52-.26.93-.63,1.22-1.1.29-.47.44-1.02.44-1.66s-.15-1.2-.44-1.67c-.29-.47-.7-.83-1.22-1.09ZM101.48,10.64c-.17.29-.41.52-.72.68-.31.16-.67.24-1.09.24h-1.33v-3.91h1.33c.42,0,.78.08,1.09.24.31.16.55.38.72.67s.26.64.26,1.04-.09.74-.26,1.03Z" style="fill: #fff; stroke-width: 0px;"/>
    <path d="M109.83,7.27c-.31-.29-.67-.52-1.09-.68-.42-.16-.88-.24-1.37-.24s-.95.08-1.37.24-.79.39-1.1.68c-.31.29-.55.64-.72,1.04s-.26.83-.26,1.3.09.9.26,1.3.41.74.72,1.04c.31.29.68.52,1.1.68.42.16.88.24,1.38.24s.95-.08,1.36-.24c.42-.16.78-.39,1.09-.68.31-.29.55-.64.72-1.04.17-.4.26-.83.26-1.3s-.09-.91-.26-1.3c-.17-.39-.42-.74-.72-1.03ZM109.19,10.42c-.1.25-.24.46-.42.64-.18.18-.39.32-.63.41-.24.1-.5.14-.78.14s-.54-.05-.78-.14c-.24-.1-.45-.23-.62-.41-.18-.18-.32-.39-.41-.64s-.15-.52-.15-.81.05-.57.15-.82c.1-.25.24-.46.42-.64.18-.18.39-.32.63-.41.24-.1.5-.14.78-.14s.54.05.78.14c.24.1.45.23.62.41.18.18.32.39.41.64.1.25.15.52.15.82s-.05.57-.15.82Z" style="fill: #fff; stroke-width: 0px;"/>
    <polygon points="119.01 12.75 118.99 6.45 117.8 6.45 115.48 10.36 113.12 6.45 111.91 6.45 111.91 12.75 113.28 12.75 113.28 9.05 115.12 12.08 115.78 12.08 117.63 8.97 117.64 12.75 119.01 12.75" style="fill: #fff; stroke-width: 0px;"/>
  </g>
  <path d="M134.66,344.5c-3.54,0-3.54-2.27-7.08-2.27h0s0,0,0,0c-3.54,0-3.54,2.27-7.08,2.27s-3.54-2.27-7.08-2.27-3.55,2.27-7.09,2.27-3.55-2.27-7.09-2.27-3.54,2.27-7.09,2.27-3.54-2.27-7.08-2.27-3.54,2.27-7.09,2.27-3.54-2.27-7.09-2.27-3.54,2.27-7.09,2.27-3.54-2.27-7.09-2.27-3.54,2.27-7.08,2.27-3.54-2.27-7.09-2.27-3.54,2.27-7.09,2.27-3.54-2.27-7.09-2.27-3.54,2.27-7.09,2.27-3.54-2.27-7.09-2.27-3.54,2.27-7.09,2.27-3.54-2.27-7.08-2.27v21.97h141.72v-21.97c-3.53,0-3.54,2.27-7.08,2.27Z" style="fill: #fff; stroke-width: 0px;"/>
  <g>
    <polygon points="66.27 359.11 68.35 361.19 72.72 361.19 70.64 359.11 66.27 359.11" style="fill: #fec600; stroke-width: 0px;"/>
    <polygon points="76.33 359.11 71.96 359.11 74.03 361.19 78.4 361.19 76.33 359.11" style="fill: #fec600; stroke-width: 0px;"/>
    <path d="M76.98,358.45l2.08,2.08v-7.48c0-1.17-.46-2.29-1.29-3.12l-1.08-1.08c.19.52.3,1.07.3,1.66v7.95Z" style="fill: #fec600; stroke-width: 0px;"/>
    <path d="M75.1,347.93c-.72-.84-1.8-1.38-3-1.38h-2.54c-2.18,0-3.95,1.77-3.95,3.95v7.68h4.76v-6.98c0-.26.21-.46.46-.46s.46.21.46.46v6.98h4.75v-7.68c0-.98-.36-1.88-.96-2.57Z" style="fill: #fec600; stroke-width: 0px;"/>
  </g>
  <g>
    <path d="M10.9,197.27l-.03-.04c-.35-.42-.67-.86-.94-1.31l-.03-.04,1.27-.79.03.04c.25.39.53.77.84,1.13l.03.03h0s-.04.05-.04.05l-1.11.93ZM13.21,199.54l-.04-.03c-.44-.32-.85-.68-1.22-1.05l-.03-.04,1.05-1.06.03.04c.34.32.69.63,1.08.91l.03.03h0s-.03.05-.03.05l-.87,1.16ZM28.85,197.19h-.05s-1.11-.94-1.11-.94l.03-.04c.3-.35.55-.72.8-1.1h0s.06-.07.06-.07l.05.02,1.23.76-.03.05c-.28.45-.6.89-.94,1.31l-.02.02ZM26.38,199.44l-.05-.02-.83-1.19.03-.03c.37-.26.72-.55,1.06-.85h0s.08-.06.08-.06l.04.03.99,1.05-.04.04c-.39.36-.81.71-1.25,1.02h-.03ZM9.19,194.57l-.02-.05c-.22-.49-.41-1-.57-1.51l-.02-.07h.07s1.38-.4,1.38-.4v.05c.13.43.3.87.49,1.32l.02.02-.05.05-1.3.59ZM30.54,194.49l-1.38-.61.03-.05c.2-.45.35-.88.48-1.32l.06-.04h.01s1.37.46,1.37.46c-.15.53-.33,1.04-.55,1.51l-.02.05ZM8.27,191.5v-.07c-.08-.5-.12-1.04-.13-1.6v-.05s1.5-.01,1.5-.01v.05c0,.45.04.91.11,1.36v.09s-.03.02-.03.02l-1.44.21ZM31.43,191.42l-1.48-.22v-.05c.02-.06.03-.12.04-.18.05-.38.07-.78.08-1.18v-.09s.05-.01.05-.01h1.44s0,.07,0,.07c0,.47-.03.94-.08,1.4,0,.07-.02.14-.04.21v.05ZM9.66,188.47l-1.43-.23c.07-.55.17-1.08.31-1.59v-.04s1.46.38,1.46.38l-.02.05c-.12.47-.21.93-.26,1.39h-.1s.04.04.04.04ZM29.98,188.41v-.05c-.08-.47-.17-.94-.29-1.38v-.06s1.42-.4,1.42-.4l.03.05c.14.51.24,1.03.31,1.54l-1.47.29ZM10.43,185.77h-.05s-1.34-.57-1.34-.57l.03-.06c.22-.51.46-.98.72-1.43v-.06s1.32.78,1.32.78l-.02.04c-.24.39-.46.82-.64,1.26v.04ZM29.24,185.71l-.02-.04c-.19-.44-.41-.86-.65-1.25v-.02s.03-.07.03-.07l1.22-.74.03.05c.28.45.53.93.74,1.43l.03.04-1.38.59ZM11.83,183.35l-.05-.03-1.12-.9.04-.04c.34-.42.71-.82,1.1-1.19l.04-.03,1.02,1.1-.03.04c-.33.3-.64.65-.92.99M27.8,183.31l-.04-.04c-.3-.37-.61-.72-.95-1.04h-.03s.03-.09.03-.09l.98-1.05.03.04c.4.36.76.76,1.1,1.18l.03.04-1.17.94ZM13.87,181.44l-.05-.04-.84-1.18.04-.03c.44-.31.9-.59,1.38-.85l.04-.02.7,1.33-.05.02c-.4.21-.79.46-1.17.73l-.06.04ZM25.78,181.4l-.05-.03c-.37-.27-.77-.52-1.2-.73l-.05-.02.03-.06.66-1.29.05.03c.47.25.93.53,1.38.84l.05.03-.87,1.23ZM17.51,178.32l-.03.02.29,1.38h-.04c-.44.1-.87.22-1.3.37l-.11.05-.03-.04-.49-1.37h.04c.51-.19,1.01-.34,1.52-.45M23.3,180.1l-.05-.02c-.44-.16-.9-.28-1.35-.37l-.04-.07.29-1.43.06.02c.53.11,1.05.25,1.55.43h.07s-.04.06-.04.06l-.48,1.37Z" style="fill: #fff; stroke-width: 0px;"/>
    <rect x="18.94" y="176.35" width="1.72" height="3.18" style="fill: #fec600; stroke-width: 0px;"/>
  </g>
  <g>
    <path d="M44.92,197.27l-.03-.04c-.35-.42-.67-.86-.94-1.31l-.03-.04,1.27-.79.03.04c.25.39.53.77.84,1.13l.03.03h0s-.04.05-.04.05l-1.11.93ZM47.23,199.54l-.04-.03c-.44-.32-.85-.68-1.22-1.05l-.03-.04,1.05-1.06.03.04c.34.32.69.63,1.08.91l.03.03h0s-.03.05-.03.05l-.87,1.16ZM62.87,197.19h-.05s-1.11-.94-1.11-.94l.03-.04c.3-.35.55-.72.8-1.1h0s.06-.07.06-.07l.05.02,1.23.76-.03.05c-.28.45-.6.89-.94,1.31l-.02.02ZM60.39,199.44l-.05-.02-.83-1.19.03-.03c.37-.26.72-.55,1.06-.85h0s.08-.06.08-.06l.04.03.99,1.05-.04.04c-.39.36-.81.71-1.25,1.02h-.03ZM43.21,194.57l-.02-.05c-.22-.49-.41-1-.57-1.51l-.02-.07h.07s1.38-.4,1.38-.4v.05c.13.43.3.87.49,1.32l.02.02-.05.05-1.3.59ZM64.56,194.49l-1.38-.61.03-.05c.2-.45.35-.88.48-1.32l.06-.04h.01s1.37.46,1.37.46c-.15.53-.33,1.04-.55,1.51l-.02.05ZM42.28,191.5v-.07c-.08-.5-.12-1.04-.13-1.6v-.05s1.5-.01,1.5-.01v.05c0,.45.04.91.11,1.36v.09s-.03.02-.03.02l-1.44.21ZM65.44,191.42l-1.48-.22v-.05c.02-.06.03-.12.04-.18.05-.38.07-.78.08-1.18v-.09s.05-.01.05-.01h1.44s0,.07,0,.07c0,.47-.03.94-.08,1.4,0,.07-.02.14-.04.21v.05ZM43.68,188.47l-1.43-.23c.07-.55.17-1.08.31-1.59v-.04s1.46.38,1.46.38l-.02.05c-.12.47-.21.93-.26,1.39h-.1s.04.04.04.04ZM63.99,188.41v-.05c-.08-.47-.17-.94-.29-1.38v-.06s1.42-.4,1.42-.4l.03.05c.14.51.24,1.03.31,1.54l-1.47.29ZM44.44,185.77h-.05s-1.34-.57-1.34-.57l.03-.06c.22-.51.46-.98.72-1.43v-.06s1.32.78,1.32.78l-.02.04c-.24.39-.46.82-.64,1.26v.04ZM63.25,185.71l-.02-.04c-.19-.44-.41-.86-.65-1.25v-.02s.03-.07.03-.07l1.22-.74.03.05c.28.45.53.93.74,1.43l.03.04-1.38.59ZM45.84,183.35l-.05-.03-1.12-.9.04-.04c.34-.42.71-.82,1.1-1.19l.04-.03,1.02,1.1-.03.04c-.33.3-.64.65-.92.99M61.82,183.31l-.04-.04c-.3-.37-.61-.72-.95-1.04h-.03s.03-.09.03-.09l.98-1.05.03.04c.4.36.76.76,1.1,1.18l.03.04-1.17.94ZM47.89,181.44l-.05-.04-.84-1.18.04-.03c.44-.31.9-.59,1.38-.85l.04-.02.7,1.33-.05.02c-.4.21-.79.46-1.17.73l-.06.04ZM59.79,181.4l-.05-.03c-.37-.27-.77-.52-1.2-.73l-.05-.02.03-.06.66-1.29.05.03c.47.25.93.53,1.38.84l.05.03-.87,1.23ZM51.53,178.32l-.03.02.29,1.38h-.04c-.44.1-.87.22-1.3.37l-.11.05-.03-.04-.49-1.37h.04c.51-.19,1.01-.34,1.52-.45M57.31,180.1l-.05-.02c-.44-.16-.9-.28-1.35-.37l-.04-.07.29-1.43.06.02c.53.11,1.05.25,1.55.43h.07s-.04.06-.04.06l-.48,1.37Z" style="fill: #fff; stroke-width: 0px;"/>
    <rect x="52.96" y="176.35" width="1.72" height="3.18" style="fill: #fec600; stroke-width: 0px;"/>
  </g>
  <g>
    <path d="M78.93,197.27l-.03-.04c-.35-.42-.67-.86-.94-1.31l-.03-.04,1.27-.79.03.04c.25.39.53.77.84,1.13l.03.03h0s-.04.05-.04.05l-1.11.93ZM81.24,199.54l-.04-.03c-.44-.32-.85-.68-1.22-1.05l-.03-.04,1.05-1.06.03.04c.34.32.69.63,1.08.91l.03.03h0s-.03.05-.03.05l-.87,1.16ZM96.88,197.19h-.05s-1.11-.94-1.11-.94l.03-.04c.3-.35.55-.72.8-1.1h0s.06-.07.06-.07l.05.02,1.23.76-.03.05c-.28.45-.6.89-.94,1.31l-.02.02ZM94.41,199.44l-.05-.02-.83-1.19.03-.03c.37-.26.72-.55,1.06-.85h0s.08-.06.08-.06l.04.03.99,1.05-.04.04c-.39.36-.81.71-1.25,1.02h-.03ZM77.23,194.57l-.02-.05c-.22-.49-.41-1-.57-1.51l-.02-.07h.07s1.38-.4,1.38-.4v.05c.13.43.3.87.49,1.32l.02.02-.05.05-1.3.59ZM98.57,194.49l-1.38-.61.03-.05c.2-.45.35-.88.48-1.32l.06-.04h.01s1.37.46,1.37.46c-.15.53-.33,1.04-.55,1.51l-.02.05ZM76.3,191.5v-.07c-.08-.5-.12-1.04-.13-1.6v-.05s1.5-.01,1.5-.01v.05c0,.45.04.91.11,1.36v.09s-.03.02-.03.02l-1.44.21ZM99.46,191.42l-1.48-.22v-.05c.02-.06.03-.12.04-.18.05-.38.07-.78.08-1.18v-.09s.05-.01.05-.01h1.44s0,.07,0,.07c0,.47-.03.94-.08,1.4,0,.07-.02.14-.04.21v.05ZM77.7,188.47l-1.43-.23c.07-.55.17-1.08.31-1.59v-.04s1.46.38,1.46.38l-.02.05c-.12.47-.21.93-.26,1.39h-.1s.04.04.04.04ZM98.01,188.41v-.05c-.08-.47-.17-.94-.29-1.38v-.06s1.42-.4,1.42-.4l.03.05c.14.51.24,1.03.31,1.54l-1.47.29ZM78.46,185.77h-.05s-1.34-.57-1.34-.57l.03-.06c.22-.51.46-.98.72-1.43v-.06s1.32.78,1.32.78l-.02.04c-.24.39-.46.82-.64,1.26v.04ZM97.27,185.71l-.02-.04c-.19-.44-.41-.86-.65-1.25v-.02s.03-.07.03-.07l1.22-.74.03.05c.28.45.53.93.74,1.43l.03.04-1.38.59ZM79.86,183.35l-.05-.03-1.12-.9.04-.04c.34-.42.71-.82,1.1-1.19l.04-.03,1.02,1.1-.03.04c-.33.3-.64.65-.92.99M95.84,183.31l-.04-.04c-.3-.37-.61-.72-.95-1.04h-.03s.03-.09.03-.09l.98-1.05.03.04c.4.36.76.76,1.1,1.18l.03.04-1.17.94ZM81.9,181.44l-.05-.04-.84-1.18.04-.03c.44-.31.9-.59,1.38-.85l.04-.02.7,1.33-.05.02c-.4.21-.79.46-1.17.73l-.06.04ZM93.81,181.4l-.05-.03c-.37-.27-.77-.52-1.2-.73l-.05-.02.03-.06.66-1.29.05.03c.47.25.93.53,1.38.84l.05.03-.87,1.23ZM85.55,178.32l-.03.02.29,1.38h-.04c-.44.1-.87.22-1.3.37l-.11.05-.03-.04-.49-1.37h.04c.51-.19,1.01-.34,1.52-.45M91.33,180.1l-.05-.02c-.44-.16-.9-.28-1.35-.37l-.04-.07.29-1.43.06.02c.53.11,1.05.25,1.55.43h.07s-.04.06-.04.06l-.48,1.37Z" style="fill: #fff; stroke-width: 0px;"/>
    <rect x="86.97" y="176.35" width="1.72" height="3.18" style="fill: #fec600; stroke-width: 0px;"/>
  </g>
  <g>
    <path d="M112.95,197.27l-.03-.04c-.35-.42-.67-.86-.94-1.31l-.03-.04,1.27-.79.03.04c.25.39.53.77.84,1.13l.03.03h0s-.04.05-.04.05l-1.11.93ZM115.26,199.54l-.04-.03c-.44-.32-.85-.68-1.22-1.05l-.03-.04,1.05-1.06.03.04c.34.32.69.63,1.08.91l.03.03h0s-.03.05-.03.05l-.87,1.16ZM130.9,197.19h-.05s-1.11-.94-1.11-.94l.03-.04c.3-.35.55-.72.8-1.1h0s.06-.07.06-.07l.05.02,1.23.76-.03.05c-.28.45-.6.89-.94,1.31l-.02.02ZM128.42,199.44l-.05-.02-.83-1.19.03-.03c.37-.26.72-.55,1.06-.85h0s.08-.06.08-.06l.04.03.99,1.05-.04.04c-.39.36-.81.71-1.25,1.02h-.03ZM111.24,194.57l-.02-.05c-.22-.49-.41-1-.57-1.51l-.02-.07h.07s1.38-.4,1.38-.4v.05c.13.43.3.87.49,1.32l.02.02-.05.05-1.3.59ZM132.59,194.49l-1.38-.61.03-.05c.2-.45.35-.88.48-1.32l.06-.04h.01s1.37.46,1.37.46c-.15.53-.33,1.04-.55,1.51l-.02.05ZM110.32,191.5v-.07c-.08-.5-.12-1.04-.13-1.6v-.05s1.5-.01,1.5-.01v.05c0,.45.04.91.11,1.36v.09s-.03.02-.03.02l-1.44.21ZM133.48,191.42l-1.48-.22v-.05c.02-.06.03-.12.04-.18.05-.38.07-.78.08-1.18v-.09s.05-.01.05-.01h1.44s0,.07,0,.07c0,.47-.03.94-.08,1.4,0,.07-.02.14-.04.21v.05ZM111.71,188.47l-1.43-.23c.07-.55.17-1.08.31-1.59v-.04s1.46.38,1.46.38l-.02.05c-.12.47-.21.93-.26,1.39h-.1s.04.04.04.04ZM132.03,188.41v-.05c-.08-.47-.17-.94-.29-1.38v-.06s1.42-.4,1.42-.4l.03.05c.14.51.24,1.03.31,1.54l-1.47.29ZM112.47,185.77h-.05s-1.34-.57-1.34-.57l.03-.06c.22-.51.46-.98.72-1.43v-.06s1.32.78,1.32.78l-.02.04c-.24.39-.46.82-.64,1.26v.04ZM131.29,185.71l-.02-.04c-.19-.44-.41-.86-.65-1.25v-.02s.03-.07.03-.07l1.22-.74.03.05c.28.45.53.93.74,1.43l.03.04-1.38.59ZM113.87,183.35l-.05-.03-1.12-.9.04-.04c.34-.42.71-.82,1.1-1.19l.04-.03,1.02,1.1-.03.04c-.33.3-.64.65-.92.99M129.85,183.31l-.04-.04c-.3-.37-.61-.72-.95-1.04h-.03s.03-.09.03-.09l.98-1.05.03.04c.4.36.76.76,1.1,1.18l.03.04-1.17.94ZM115.92,181.44l-.05-.04-.84-1.18.04-.03c.44-.31.9-.59,1.38-.85l.04-.02.7,1.33-.05.02c-.4.21-.79.46-1.17.73l-.06.04ZM127.82,181.4l-.05-.03c-.37-.27-.77-.52-1.2-.73l-.05-.02.03-.06.66-1.29.05.03c.47.25.93.53,1.38.84l.05.03-.87,1.23ZM119.56,178.32l-.03.02.29,1.38h-.04c-.44.1-.87.22-1.3.37l-.11.05-.03-.04-.49-1.37h.04c.51-.19,1.01-.34,1.52-.45M125.35,180.1l-.05-.02c-.44-.16-.9-.28-1.35-.37l-.04-.07.29-1.43.06.02c.53.11,1.05.25,1.55.43h.07s-.04.06-.04.06l-.48,1.37Z" style="fill: #fff; stroke-width: 0px;"/>
    <rect x="120.99" y="176.35" width="1.72" height="3.18" style="fill: #fec600; stroke-width: 0px;"/>
  </g>
  <g>
    <path d="M29.81,143.62c-.2,0-.35-.16-.35-.35V59.4c0-.2.16-.35.35-.35s.35.16.35.35v83.86c0,.2-.16.35-.35.35Z" style="fill: #fec600; stroke-width: 0px;"/>
    <g>
      <circle cx="29.81" cy="59.4" r="1.09" style="fill: #fec600; stroke-width: 0px;"/>
      <path d="M29.81,60.85c-.8,0-1.44-.65-1.44-1.44s.65-1.44,1.44-1.44,1.45.65,1.45,1.44-.65,1.44-1.45,1.44ZM29.81,58.67c-.41,0-.74.33-.74.74s.33.74.74.74.74-.33.74-.74-.33-.74-.74-.74Z" style="fill: #fec600; stroke-width: 0px;"/>
    </g>
    <g>
      <circle cx="29.81" cy="144.35" r="1.09" style="fill: #fec600; stroke-width: 0px;"/>
      <path d="M29.81,145.8c-.8,0-1.44-.65-1.44-1.44s.65-1.44,1.44-1.44,1.45.65,1.45,1.44-.65,1.44-1.45,1.44ZM29.81,143.62c-.41,0-.74.33-.74.74s.33.74.74.74.74-.33.74-.74-.33-.74-.74-.74Z" style="fill: #fec600; stroke-width: 0px;"/>
    </g>
  </g>
  <g>
    <path d="M63.81,143.87c-.2,0-.35-.16-.35-.35V59.65c0-.2.16-.35.35-.35s.35.16.35.35v83.86c0,.2-.16.35-.35.35Z" style="fill: #fec600; stroke-width: 0px;"/>
    <g>
      <circle cx="63.81" cy="59.65" r="1.09" style="fill: #fec600; stroke-width: 0px;"/>
      <path d="M63.81,61.1c-.8,0-1.44-.65-1.44-1.44s.65-1.44,1.44-1.44,1.45.65,1.45,1.44-.65,1.44-1.45,1.44ZM63.81,58.92c-.41,0-.74.33-.74.74s.33.74.74.74.74-.33.74-.74-.33-.74-.74-.74Z" style="fill: #fec600; stroke-width: 0px;"/>
    </g>
    <g>
      <circle cx="63.81" cy="144.6" r="1.09" style="fill: #fec600; stroke-width: 0px;"/>
      <path d="M63.81,146.05c-.8,0-1.44-.65-1.44-1.44s.65-1.44,1.44-1.44,1.45.65,1.45,1.44-.65,1.44-1.45,1.44ZM63.81,143.87c-.41,0-.74.33-.74.74s.33.74.74.74.74-.33.74-.74-.33-.74-.74-.74Z" style="fill: #fec600; stroke-width: 0px;"/>
    </g>
  </g>
  <g>
    <path d="M97.81,143.85c-.2,0-.35-.16-.35-.35V59.64c0-.2.16-.35.35-.35s.35.16.35.35v83.86c0,.2-.16.35-.35.35Z" style="fill: #fec600; stroke-width: 0px;"/>
    <g>
      <circle cx="97.81" cy="59.64" r="1.09" style="fill: #fec600; stroke-width: 0px;"/>
      <path d="M97.81,61.08c-.8,0-1.44-.65-1.44-1.44s.65-1.44,1.44-1.44,1.44.65,1.44,1.44-.65,1.44-1.44,1.44ZM97.81,58.9c-.41,0-.74.33-.74.74s.33.74.74.74.74-.33.74-.74-.33-.74-.74-.74Z" style="fill: #fec600; stroke-width: 0px;"/>
    </g>
    <g>
      <circle cx="97.81" cy="144.59" r="1.09" style="fill: #fec600; stroke-width: 0px;"/>
      <path d="M97.81,146.03c-.8,0-1.44-.65-1.44-1.44s.65-1.44,1.44-1.44,1.44.65,1.44,1.44-.65,1.44-1.44,1.44ZM97.81,143.85c-.41,0-.74.33-.74.74s.33.74.74.74.74-.33.74-.74-.33-.74-.74-.74Z" style="fill: #fec600; stroke-width: 0px;"/>
    </g>
  </g>
  <g>
    <path d="M131.81,143.87c-.2,0-.35-.16-.35-.35V59.65c0-.2.16-.35.35-.35s.35.16.35.35v83.86c0,.2-.16.35-.35.35Z" style="fill: #fec600; stroke-width: 0px;"/>
    <g>
      <circle cx="131.81" cy="59.65" r="1.09" style="fill: #fec600; stroke-width: 0px;"/>
      <path d="M131.81,61.1c-.8,0-1.45-.65-1.45-1.44s.65-1.44,1.45-1.44,1.44.65,1.44,1.44-.65,1.44-1.44,1.44ZM131.81,58.92c-.41,0-.74.33-.74.74s.33.74.74.74.74-.33.74-.74-.33-.74-.74-.74Z" style="fill: #fec600; stroke-width: 0px;"/>
    </g>
    <g>
      <circle cx="131.81" cy="144.6" r="1.09" style="fill: #fec600; stroke-width: 0px;"/>
      <path d="M131.81,146.05c-.8,0-1.45-.65-1.45-1.44s.65-1.44,1.45-1.44,1.44.65,1.44,1.44-.65,1.44-1.44,1.44ZM131.81,143.87c-.41,0-.74.33-.74.74s.33.74.74.74.74-.33.74-.74-.33-.74-.74-.74Z" style="fill: #fec600; stroke-width: 0px;"/>
    </g>
  </g>
  <g>
    <path d="M17.63,164.58c0-.21-.17-.38-.38-.38h-2c-.2,0-.37.17-.37.38s.17.37.37.37h2c.21,0,.38-.17.38-.37Z" style="fill: #fec600; stroke-width: 0px;"/>
    <path d="M24.87,164.58c0-.21-.17-.38-.38-.38h-2c-.2,0-.37.17-.37.38s.17.37.37.37h2c.21,0,.38-.17.38-.37Z" style="fill: #fec600; stroke-width: 0px;"/>
    <circle cx="19.76" cy="164.57" r=".54" style="fill: #fec600; stroke-width: 0px;"/>
    <path d="M19.76,167.1c-.21,0-.38.17-.38.38v2c0,.2.17.37.38.37s.37-.17.37-.37v-2c0-.21-.17-.38-.37-.38Z" style="fill: #fec600; stroke-width: 0px;"/>
    <path d="M19.76,159.1c-.21,0-.38.17-.38.38v2c0,.2.17.37.38.37s.37-.17.37-.37v-2c0-.21-.17-.38-.37-.38Z" style="fill: #fec600; stroke-width: 0px;"/>
  </g>
  <g>
    <path d="M51.61,164.58c0-.21-.17-.38-.38-.38h-2c-.2,0-.37.17-.37.38s.17.37.37.37h2c.21,0,.38-.17.38-.37Z" style="fill: #fec600; stroke-width: 0px;"/>
    <path d="M58.85,164.58c0-.21-.17-.38-.38-.38h-2c-.2,0-.37.17-.37.38s.17.37.37.37h2c.21,0,.38-.17.38-.37Z" style="fill: #fec600; stroke-width: 0px;"/>
    <circle cx="53.75" cy="164.57" r=".54" style="fill: #fec600; stroke-width: 0px;"/>
    <path d="M53.75,167.1c-.21,0-.38.17-.38.38v2c0,.2.17.37.38.37s.37-.17.37-.37v-2c0-.21-.17-.38-.37-.38Z" style="fill: #fec600; stroke-width: 0px;"/>
    <path d="M53.75,159.1c-.21,0-.38.17-.38.38v2c0,.2.17.37.38.37s.37-.17.37-.37v-2c0-.21-.17-.38-.37-.38Z" style="fill: #fec600; stroke-width: 0px;"/>
  </g>
  <g>
    <path d="M85.63,164.58c0-.21-.17-.38-.38-.38h-2c-.2,0-.37.17-.37.38s.17.37.37.37h2c.21,0,.38-.17.38-.37Z" style="fill: #fec600; stroke-width: 0px;"/>
    <path d="M92.87,164.58c0-.21-.17-.38-.38-.38h-2c-.2,0-.37.17-.37.38s.17.37.37.37h2c.21,0,.38-.17.38-.37Z" style="fill: #fec600; stroke-width: 0px;"/>
    <circle cx="87.76" cy="164.57" r=".54" style="fill: #fec600; stroke-width: 0px;"/>
    <path d="M87.77,167.1c-.21,0-.38.17-.38.38v2c0,.2.17.37.38.37s.37-.17.37-.37v-2c0-.21-.17-.38-.37-.38Z" style="fill: #fec600; stroke-width: 0px;"/>
    <path d="M87.77,159.1c-.21,0-.38.17-.38.38v2c0,.2.17.37.38.37s.37-.17.37-.37v-2c0-.21-.17-.38-.37-.38Z" style="fill: #fec600; stroke-width: 0px;"/>
  </g>
  <g>
    <path d="M119.64,164.58c0-.21-.17-.38-.38-.38h-2c-.2,0-.37.17-.37.38s.17.37.37.37h2c.21,0,.38-.17.38-.37Z" style="fill: #fec600; stroke-width: 0px;"/>
    <path d="M126.88,164.58c0-.21-.17-.38-.38-.38h-2c-.2,0-.37.17-.37.38s.17.37.37.37h2c.21,0,.38-.17.38-.37Z" style="fill: #fec600; stroke-width: 0px;"/>
    <circle cx="121.78" cy="164.57" r=".54" style="fill: #fec600; stroke-width: 0px;"/>
    <path d="M121.78,167.1c-.21,0-.38.17-.38.38v2c0,.2.17.37.38.37s.37-.17.37-.37v-2c0-.21-.17-.38-.37-.38Z" style="fill: #fec600; stroke-width: 0px;"/>
    <path d="M121.78,159.1c-.21,0-.38.17-.38.38v2c0,.2.17.37.38.37s.37-.17.37-.37v-2c0-.21-.17-.38-.37-.38Z" style="fill: #fec600; stroke-width: 0px;"/>
  </g>
  <g>
    <path d="M15.06,26.63h-.55v1.09h.55s.01,0,.02,0c.3-.01.53-.26.53-.56,0-.3-.25-.54-.55-.54Z" style="fill: #fec600; stroke-width: 0px;"/>
    <path d="M18.43,26.63c-.4,0-.72.32-.72.72v.63h1.45v-.63c0-.4-.32-.72-.72-.72Z" style="fill: #fec600; stroke-width: 0px;"/>
    <path d="M27.24,24.47h-14.8c-1.97,0-3.57,1.6-3.57,3.57s1.6,3.57,3.57,3.57h14.8c1.97,0,3.57-1.6,3.57-3.57s-1.6-3.57-3.57-3.57ZM16.4,29.05v1.34h-.79v-1.34c0-.29-.23-.54-.53-.55h-.57v1.88h-.79v-3.76h-.34v-.79h1.67c.74,0,1.33.6,1.33,1.33,0,.35-.14.69-.39.94.25.25.39.59.39.94ZM19.94,30.39h-.79v-1.61h-1.45v1.62h-.79v-3.04c0-.83.68-1.51,1.51-1.51.83,0,1.51.68,1.51,1.51v3.03ZM22.95,26.63h-.92v3.76h-.79v-3.76h-.92v-.79h2.63v.79ZM26.13,26.63h-1.45c-.3,0-.55.25-.55.55s.25.55.55.55h1.45v.79h-1.45c-.19,0-.38-.04-.55-.12v.67c0,.3.25.55.55.55h1.45v.79h-1.45c-.74,0-1.33-.6-1.33-1.33v-1.88c0-.74.6-1.33,1.33-1.33h1.45v.79Z" style="fill: #fec600; stroke-width: 0px;"/>
  </g>
  <g>
    <path d="M122.07,26.63c-.4,0-.72.32-.72.72v.63h1.45v-.63c0-.4-.32-.72-.72-.72Z" style="fill: #fec600; stroke-width: 0px;"/>
    <path d="M129.29,24.47h-14.8c-1.97,0-3.57,1.6-3.57,3.57s1.6,3.57,3.57,3.57h14.8c1.97,0,3.57-1.6,3.57-3.57s-1.6-3.57-3.57-3.57ZM115.11,30.39c-.95,0-1.28-.67-1.36-.87l.75-.28c.06.16.22.36.61.36.32,0,.57-.21.58-.49,0-.1.02-.42-.71-.67-1.07-.37-1.27-1-1.25-1.46.03-.72.63-1.26,1.38-1.26.95,0,1.28.67,1.36.87l-.75.28c-.06-.16-.22-.36-.61-.36-.32,0-.57.21-.58.49,0,.1-.02.42.71.67,1.07.37,1.27,1,1.25,1.46-.03.72-.62,1.26-1.38,1.26ZM120.04,30.39h-.79v-1.88h-1.45v1.88h-.79v-4.55h.79v1.88h1.45v-1.88h.79v4.54ZM123.58,30.39h-.79v-1.61h-1.45v1.62h-.79v-3.04c0-.83.68-1.51,1.51-1.51.83,0,1.51.68,1.51,1.51v3.03ZM125.64,28.51h-.55v1.88h-.79v-3.76h-.34v-.79h1.67c.74,0,1.33.6,1.33,1.33s-.6,1.33-1.33,1.33ZM130.15,26.63h-1.45c-.3,0-.55.25-.55.55s.24.55.55.55h1.45v.79h-1.45c-.19,0-.38-.04-.55-.12v.67c0,.3.25.55.55.55h1.45v.79h-1.45c-.74,0-1.33-.6-1.33-1.33v-1.88c0-.74.6-1.33,1.33-1.33h1.45v.79Z" style="fill: #fec600; stroke-width: 0px;"/>
    <path d="M125.64,26.63h-.55v1.09h.55c.3,0,.55-.25.55-.55s-.25-.55-.55-.55Z" style="fill: #fec600; stroke-width: 0px;"/>
  </g>
  <g>
    <path d="M84.32,26.63h-.55v1.09h.55s.01,0,.02,0c.3-.01.53-.26.53-.56,0-.3-.25-.54-.55-.54Z" style="fill: #fec600; stroke-width: 0px;"/>
    <path d="M91.49,26.63h-.66v2.97h.66c.37,0,.67-.3.67-.67v-1.63c0-.37-.3-.67-.67-.67Z" style="fill: #fec600; stroke-width: 0px;"/>
    <path d="M95.27,24.47h-14.8c-1.97,0-3.57,1.6-3.57,3.57s1.6,3.57,3.57,3.57h14.8c1.97,0,3.57-1.6,3.57-3.57s-1.6-3.57-3.57-3.57ZM85.65,29.05v1.34h-.79v-1.34c0-.29-.23-.54-.53-.55h-.57v1.88h-.79v-3.76h-.34v-.79h1.67c.74,0,1.33.6,1.33,1.33,0,.35-.14.69-.39.94.25.25.39.59.39.94ZM89.31,30.39h-.79v-3.1c0-.24-.12-.46-.33-.58-.21-.12-.46-.12-.66,0-.21.12-.33.34-.33.58v3.1h-.79v-3.75h-.38v-.79h.39c.22,0,.44.1.58.27.25-.18.54-.27.85-.27.8,0,1.44.65,1.44,1.44v3.1ZM92.95,28.94c0,.8-.65,1.46-1.46,1.46h-1.45v-3.76h-.34v-.79h1.79c.8,0,1.46.65,1.46,1.46v1.63Z" style="fill: #fec600; stroke-width: 0px;"/>
  </g>
  <g>
    <path d="M59.27,27.45c.1-.17.1-.38,0-.55s-.28-.27-.48-.27h-.55v1.09h.55c.2,0,.38-.1.48-.27Z" style="fill: #fec600; stroke-width: 0px;"/>
    <path d="M55.28,26.63c-.4,0-.73.33-.73.73v1.52c0,.4.33.73.73.73s.73-.33.73-.73v-1.52c0-.4-.32-.73-.73-.73Z" style="fill: #fec600; stroke-width: 0px;"/>
    <path d="M48.71,26.63h-.55v1.09h.55c.3,0,.55-.25.55-.55s-.25-.55-.55-.55Z" style="fill: #fec600; stroke-width: 0px;"/>
    <path d="M51.98,26.63h-.55v1.09h.55s.01,0,.02,0c.3-.01.53-.26.53-.56,0-.3-.25-.54-.55-.54Z" style="fill: #fec600; stroke-width: 0px;"/>
    <path d="M59.22,28.51h-.98v1.09h.98c.3,0,.55-.25.55-.55s-.25-.55-.55-.55Z" style="fill: #fec600; stroke-width: 0px;"/>
    <path d="M61.26,24.47h-14.8c-1.97,0-3.57,1.6-3.57,3.57s1.6,3.57,3.57,3.57h14.8c1.97,0,3.57-1.6,3.57-3.57s-1.6-3.57-3.57-3.57ZM48.71,28.51h-.55v1.88h-.79v-3.76h-.34v-.79h1.68c.74,0,1.33.6,1.33,1.33s-.6,1.33-1.33,1.33ZM53.31,29.05v1.34h-.79v-1.34c0-.29-.23-.54-.53-.55h-.57v1.88h-.79v-3.76h-.34v-.79h1.67c.74,0,1.33.6,1.33,1.33,0,.35-.14.69-.39.94.25.25.39.59.39.94ZM56.79,28.88c0,.83-.68,1.51-1.51,1.51s-1.51-.68-1.51-1.51v-1.52c0-.83.68-1.51,1.51-1.51.83,0,1.51.68,1.51,1.51v1.52ZM60.51,29.41c-.16.58-.69.98-1.29.98h-1.77v-3.76h-.34v-.79h1.67c.49,0,.94.27,1.17.7.23.43.21.96-.06,1.36h0c.52.31.77.92.61,1.5Z" style="fill: #fec600; stroke-width: 0px;"/>
  </g>
  <path d="M49.71,10.59c-.17-.16-.25-.37-.25-.64s.08-.48.24-.63c.16-.16.37-.24.63-.24s.47.08.63.24c.16.16.24.37.24.63s-.08.48-.24.64c-.16.16-.37.24-.63.24s-.46-.08-.63-.24Z" style="fill: #fec600; stroke-width: 0px;"/>
  <path d="M121.92,10.59c-.17-.16-.25-.37-.25-.64s.08-.48.24-.63c.16-.16.37-.24.63-.24s.47.08.63.24c.16.16.24.37.24.63s-.08.48-.24.64c-.16.16-.37.24-.63.24s-.46-.08-.63-.24Z" style="fill: #fec600; stroke-width: 0px;"/>
  <g id="b" data-name="layer1">
    <g id="c" data-name="g8389">
      <g id="d" data-name="g239">
        <g id="e" data-name="g224">
          <g id="f" data-name="path6333">
            <path d="M56.2,12.92c-.29,0-.56-.17-.69-.43l-2.51-5.02c-.19-.38-.04-.84.35-1.04.38-.19.84-.04,1.04.35l1.82,3.63,1.82-3.63c.19-.38.65-.54,1.04-.35.38.19.54.65.35,1.04l-2.51,5.02c-.13.26-.4.43-.69.43" style="fill: #fec600; stroke-width: 0px;"/>
            <path d="M56.2,13.02c-.33,0-.63-.19-.78-.48l-2.51-5.02c-.1-.21-.12-.45-.05-.67.07-.22.23-.4.44-.51.21-.1.45-.12.67-.05.22.07.4.23.51.44l1.72,3.45,1.72-3.45c.1-.21.29-.37.51-.44.22-.07.46-.06.67.05.43.22.61.74.39,1.18l-2.51,5.02c-.15.3-.45.48-.78.48ZM53.7,6.46c-.1,0-.2.02-.3.07-.16.08-.28.22-.33.39s-.04.35.04.51l2.51,5.02c.11.23.34.37.6.37s.48-.14.6-.37l2.51-5.02c.16-.33.03-.73-.3-.89-.16-.08-.34-.09-.51-.04-.17.06-.31.18-.39.33l-1.91,3.82-1.91-3.82c-.08-.16-.22-.28-.39-.33-.07-.02-.14-.03-.21-.03Z" style="fill: #1c1c19; stroke-width: 0px;"/>
          </g>
          <g id="g" data-name="path6337">
            <path d="M69.66,12.92c-.29,0-.56-.17-.69-.43l-2.51-5.02c-.19-.38-.04-.84.35-1.04.38-.19.84-.04,1.04.35l1.82,3.63,1.82-3.63c.19-.38.65-.54,1.04-.35.38.19.54.65.35,1.04l-2.51,5.02c-.13.26-.4.43-.69.43" style="fill: #fec600; stroke-width: 0px;"/>
            <path d="M69.66,13.02c-.33,0-.63-.19-.78-.48l-2.51-5.02c-.22-.43-.04-.96.39-1.18.21-.1.45-.12.67-.05.22.07.4.23.51.44l1.72,3.45,1.72-3.45c.1-.21.28-.37.51-.44.22-.07.46-.06.67.05.43.22.61.74.39,1.18l-2.51,5.02c-.15.3-.45.48-.78.48ZM67.15,6.46c-.1,0-.2.02-.3.07-.33.16-.46.57-.3.89l2.51,5.02c.11.23.34.37.6.37s.48-.14.6-.37l2.51-5.02c.16-.33.03-.73-.3-.89-.33-.17-.73-.03-.89.3l-1.91,3.82-1.91-3.82c-.08-.16-.22-.28-.39-.33-.07-.02-.14-.03-.21-.03Z" style="fill: #1c1c19; stroke-width: 0px;"/>
          </g>
          <g id="h" data-name="path6341-6">
            <path d="M63.32,12.92c-1.81,0-3.28-1.47-3.28-3.28s1.47-3.28,3.28-3.28c.72,0,1.4.23,1.97.66.34.26.41.74.15,1.08-.26.34-.74.41-1.08.15-.3-.23-.66-.35-1.04-.35-.96,0-1.74.78-1.74,1.74s.78,1.74,1.74,1.74c.38,0,.74-.12,1.04-.35.34-.26.82-.19,1.08.15.26.34.19.82-.15,1.08-.57.43-1.25.66-1.97.66" style="fill: #fec600; stroke-width: 0px;"/>
            <path d="M63.32,13.02c-1.87,0-3.38-1.52-3.38-3.38s1.52-3.38,3.38-3.38c.74,0,1.44.23,2.03.68.39.29.46.84.17,1.23-.14.19-.35.31-.58.34-.24.03-.46-.03-.65-.17-.28-.21-.62-.33-.98-.33-.9,0-1.63.73-1.63,1.63s.73,1.63,1.63,1.63c.36,0,.69-.11.98-.33.19-.14.42-.2.65-.17.23.03.44.15.58.34.29.39.21.94-.17,1.23-.59.44-1.29.68-2.03.68ZM63.32,6.46c-1.75,0-3.17,1.42-3.17,3.17s1.42,3.17,3.17,3.17c.69,0,1.35-.22,1.91-.63.29-.22.35-.64.13-.93-.11-.14-.26-.23-.44-.26-.17-.02-.35.02-.49.13-.32.24-.7.37-1.1.37-1.02,0-1.84-.83-1.84-1.84s.83-1.84,1.84-1.84c.4,0,.78.13,1.1.37.14.11.32.15.5.13.18-.02.33-.12.44-.26.22-.29.16-.71-.13-.93-.55-.42-1.21-.63-1.91-.63Z" style="fill: #1c1c19; stroke-width: 0px;"/>
          </g>
          <g id="i" data-name="path6345-5">
            <path d="M64.37,9.6c0,.55-.45,1-1,1s-1-.45-1-1,.45-1,1-1,1,.45,1,1" style="fill: #fec600; stroke-width: 0px;"/>
            <path d="M63.37,10.71c-.61,0-1.11-.5-1.11-1.11s.5-1.11,1.11-1.11,1.11.5,1.11,1.11-.5,1.11-1.11,1.11ZM63.37,8.7c-.5,0-.9.4-.9.9s.4.9.9.9.9-.4.9-.9-.4-.9-.9-.9Z" style="fill: #1c1c19; stroke-width: 0px;"/>
          </g>
        </g>
      </g>
    </g>
  </g>
  <g>
    <polygon points="66.27 359.11 68.35 361.19 72.72 361.19 70.65 359.11 66.27 359.11" style="fill: #fec600; stroke-width: 0px;"/>
    <polygon points="76.33 359.11 71.96 359.11 74.03 361.19 78.41 361.19 76.33 359.11" style="fill: #fec600; stroke-width: 0px;"/>
    <path d="M76.98,358.46l2.08,2.08v-7.48c0-1.17-.46-2.29-1.29-3.12l-1.08-1.08c.19.52.3,1.07.3,1.66v7.95Z" style="fill: #fec600; stroke-width: 0px;"/>
    <path d="M75.1,347.94c-.72-.84-1.8-1.38-3-1.38h-2.54c-2.18,0-3.95,1.77-3.95,3.95v7.68h4.76v-6.98c0-.26.21-.46.46-.46s.46.21.46.46v6.98h4.75v-7.68c0-.98-.36-1.88-.96-2.57Z" style="fill: #fec600; stroke-width: 0px;"/>
  </g>
  <path d="M121.43,294.63H19.57c-6.73,0-12.18,5.45-12.18,12.18s5.45,12.18,12.18,12.18h101.86c6.73,0,12.18-5.45,12.18-12.18s-5.45-12.18-12.18-12.18Z" style="fill: #fec600; stroke-width: 0px;"/>
  <path d="M121.89,282.51c-6.92,0-12.55-5.63-12.55-12.55s5.63-12.55,12.55-12.55,12.55,5.63,12.55,12.55-5.63,12.55-12.55,12.55ZM121.89,258.15c-6.51,0-11.8,5.3-11.8,11.8s5.29,11.8,11.8,11.8,11.8-5.29,11.8-11.8-5.3-11.8-11.8-11.8Z" style="fill: #fec600; stroke-width: 0px;"/>
  <g>
    <path d="M118.5,284.81v.85h-.99v4.05h-.85v-4.05h-.99v-.85h2.83Z" style="fill: #fec600; stroke-width: 0px;"/>
    <path d="M121.6,287.26c.27.27.42.63.42,1.01v1.44h-.85v-1.44c0-.32-.25-.58-.57-.59h-.61v2.03h-.85v-4.05h-.37v-.85h1.8c.79,0,1.44.64,1.44,1.44,0,.38-.15.74-.42,1.01ZM120.6,286.84c.32-.01.57-.28.57-.6s-.27-.58-.59-.58h-.59v1.18h.61Z" style="fill: #fec600; stroke-width: 0px;"/>
    <path d="M123.79,285.68v3.2h.37v.85h-1.58v-.85h.37v-3.2h-.37v-.85h.37s.85,0,.85,0h0s.37,0,.37,0v.85h-.37Z" style="fill: #fec600; stroke-width: 0px;"/>
    <path d="M127.98,286.85v1.24c0,.9-.73,1.62-1.63,1.62s-1.62-.72-1.63-1.62v-1.64c0-.66.4-1.25,1.01-1.5.61-.25,1.31-.11,1.78.35l-.6.6c-.22-.22-.56-.29-.85-.17-.29.12-.48.41-.48.72v1.64c0,.43.35.78.78.78s.78-.35.78-.78v-.4h-.78v-.85h1.63Z" style="fill: #fec600; stroke-width: 0px;"/>
  </g>
  <g>
    <path d="M78.13,268.33s-.05,0-.08,0c-.21-.05-.34-.25-.29-.46,1.03-4.73,5.28-8.17,10.12-8.17s9.1,3.43,10.12,8.17c.04.21-.09.41-.3.46-.21.04-.41-.09-.46-.3-.95-4.38-4.89-7.56-9.37-7.56s-8.42,3.18-9.37,7.56c-.04.18-.2.3-.38.3Z" style="fill: #fec600; stroke-width: 0px;"/>
    <path d="M89.98,280.21c-.18,0-.34-.12-.38-.3-.04-.21.09-.41.3-.46,3.67-.79,6.55-3.67,7.34-7.35.04-.21.24-.34.46-.3.21.04.34.25.3.46-.86,3.97-3.97,7.09-7.94,7.94-.03,0-.05,0-.08,0Z" style="fill: #fec600; stroke-width: 0px;"/>
    <path d="M85.76,280.21s-.05,0-.08,0c-3.96-.86-7.07-3.98-7.92-7.96-.04-.21.09-.41.3-.46.21-.04.41.09.46.3.79,3.68,3.66,6.57,7.33,7.36.21.05.34.25.29.46-.04.18-.2.3-.38.3Z" style="fill: #fec600; stroke-width: 0px;"/>
  </g>
  <g>
    <path d="M66.26,251.51h.72c0,.77-.62,1.39-1.39,1.39s-1.39-.62-1.39-1.39v-1.41c0-.77.62-1.39,1.39-1.39s1.39.62,1.39,1.39h-.72c0-.37-.3-.67-.67-.67s-.67.3-.67.67v1.41c0,.37.3.67.67.67.37,0,.67-.3.67-.67Z" style="fill: #fec600; stroke-width: 0px;"/>
    <path d="M70.72,248.72l-1.33,4.19h-.76l-1.33-4.19h.76l.95,3,.95-3h.76Z" style="fill: #fec600; stroke-width: 0px;"/>
    <path d="M73.78,249.46v2.74h.31v.73h-1.35v-.73h.31v-2.74h-.31v-.73h.31s.72,0,.72,0h0s.31,0,.31,0v.73h-.31Z" style="fill: #fec600; stroke-width: 0px;"/>
    <path d="M77.47,250.05v2.86h-.73v-2.86c0-.22-.11-.42-.3-.53-.19-.11-.42-.11-.61,0-.19.11-.3.31-.3.53v2.86h-.72v-3.46h-.35v-.72h.36c.21,0,.4.09.54.25.23-.17.5-.25.78-.25.74,0,1.33.6,1.33,1.33Z" style="fill: #fec600; stroke-width: 0px;"/>
  </g>
  <path d="M76.87,254.65h-12.07c-2.14,0-3.88-1.74-3.88-3.88s1.74-3.88,3.88-3.88h12.07c2.14,0,3.88,1.74,3.88,3.88s-1.74,3.88-3.88,3.88ZM64.8,247.52c-1.79,0-3.25,1.46-3.25,3.25s1.46,3.25,3.25,3.25h12.07c1.79,0,3.25-1.46,3.25-3.25s-1.46-3.25-3.25-3.25h-12.07Z" style="fill: #fec600; stroke-width: 0px;"/>
  <path d="M59.23,251.14h-2c-.2,0-.37-.17-.37-.38s.17-.37.37-.37h2c.21,0,.38.17.38.37s-.17.38-.38.38ZM55.23,251.14h-2c-.2,0-.37-.17-.37-.38s.17-.37.37-.37h2c.21,0,.38.17.38.37s-.17.38-.38.38ZM51.23,251.14h-2c-.2,0-.37-.17-.37-.38s.17-.37.37-.37h2c.21,0,.38.17.38.37s-.17.38-.38.38ZM47.23,251.14h-2c-.2,0-.37-.17-.37-.38s.17-.37.37-.37h2c.21,0,.38.17.38.37s-.17.38-.38.38ZM43.23,251.14h-2c-.2,0-.37-.17-.37-.38s.17-.37.37-.37h2c.21,0,.38.17.38.37s-.17.38-.38.38ZM39.23,251.14h-2c-.2,0-.37-.17-.37-.38s.17-.37.37-.37h2c.21,0,.38.17.38.37s-.17.38-.38.38ZM35.23,251.14h-2c-.2,0-.37-.17-.37-.38s.17-.37.37-.37h2c.21,0,.38.17.38.37s-.17.38-.38.38ZM31.23,251.14h-2c-.2,0-.37-.17-.37-.38s.17-.37.37-.37h2c.21,0,.38.17.38.37s-.17.38-.38.38ZM27.23,251.14h-2c-.2,0-.37-.17-.37-.38s.17-.37.37-.37h2c.21,0,.38.17.38.37s-.17.38-.38.38ZM23.26,250.88s-.07,0-.1-.02c0,.01,0,.01-.02,0-.02,0-.03,0-.04,0-.66-.23-1.27-.58-1.81-1.05-.08-.07-.13-.17-.13-.28,0-.09.04-.18.1-.25.13-.15.38-.17.53-.04.47.42,1,.73,1.59.92t0,.01c.15.05.25.2.24.36,0,.03,0,.07,0,.11-.06.15-.2.25-.36.25ZM20.34,248.31c-.15,0-.28-.08-.34-.21-.32-.65-.49-1.35-.53-2.07v-.02c0-.2.16-.36.36-.37h.02c.19,0,.36.15.37.35.03.62.18,1.22.45,1.78.03.05.04.11.04.16,0,.15-.08.28-.21.34-.05.03-.11.04-.16.04Z" style="fill: #fec600; stroke-width: 0px;"/>
  <path d="M116.68,251.14h-2c-.21,0-.38-.17-.38-.38s.17-.37.38-.37h2c.21,0,.37.17.37.37s-.16.38-.37.38ZM112.68,251.14h-2c-.21,0-.38-.17-.38-.38s.17-.37.38-.37h2c.2,0,.37.17.37.37s-.17.38-.37.38ZM108.68,251.14h-2c-.21,0-.38-.17-.38-.38s.17-.37.38-.37h2c.2,0,.37.17.37.37s-.17.38-.37.38ZM104.68,251.14h-2c-.21,0-.38-.17-.38-.38s.17-.37.38-.37h2c.21,0,.37.17.37.37s-.16.38-.37.38ZM100.68,251.14h-2c-.21,0-.38-.17-.38-.38s.17-.37.38-.37h2c.21,0,.37.17.37.37s-.16.38-.37.38ZM96.68,251.14h-2c-.21,0-.38-.17-.38-.38s.17-.37.38-.37h2c.2,0,.37.17.37.37s-.17.38-.37.38ZM92.68,251.14h-2c-.21,0-.38-.17-.38-.38s.17-.37.38-.37h2c.2,0,.37.17.37.37s-.17.38-.37.38ZM88.68,251.14h-2c-.21,0-.38-.17-.38-.38s.17-.37.38-.37h2c.21,0,.37.17.37.37s-.16.38-.37.38ZM84.68,251.14h-2c-.21,0-.38-.17-.38-.38s.17-.37.38-.37h2c.21,0,.37.17.37.37s-.16.38-.37.38ZM118.64,250.79c-.16,0-.3-.09-.35-.23-.02-.04-.03-.09-.03-.13,0-.16.09-.3.24-.36.58-.23,1.1-.56,1.54-1,.15-.14.39-.13.53.01.07.07.11.17.11.27s-.04.19-.11.26c-.52.51-1.13.89-1.8,1.16-.04.02-.09.02-.13.02ZM121.43,248.08c-.06,0-.11-.01-.15-.03-.14-.06-.23-.2-.23-.35,0-.05,0-.1.03-.14.24-.57.36-1.17.36-1.8,0-.21.17-.38.38-.38s.37.17.37.38c0,.72-.14,1.42-.42,2.09-.06.14-.19.23-.34.23Z" style="fill: #fec600; stroke-width: 0px;"/>
  <g>
    <path d="M19.84,218.51c-.2,0-.35-.16-.35-.35v-5.84c0-.2.16-.35.35-.35s.35.16.35.35v5.84c0,.2-.16.35-.35.35Z" style="fill: #fec600; stroke-width: 0px;"/>
    <path d="M19.84,220.69c-.8,0-1.45-.65-1.45-1.45s.65-1.44,1.45-1.44,1.44.65,1.44,1.44-.65,1.45-1.44,1.45ZM19.84,218.51c-.41,0-.74.33-.74.74s.33.74.74.74.74-.33.74-.74-.33-.74-.74-.74Z" style="fill: #fec600; stroke-width: 0px;"/>
  </g>
  <g>
    <path d="M53.86,218.51c-.2,0-.35-.16-.35-.35v-5.84c0-.2.16-.35.35-.35s.35.16.35.35v5.84c0,.2-.16.35-.35.35Z" style="fill: #fec600; stroke-width: 0px;"/>
    <path d="M53.86,220.69c-.8,0-1.44-.65-1.44-1.45s.65-1.44,1.44-1.44,1.44.65,1.44,1.44-.65,1.45-1.44,1.45ZM53.86,218.51c-.41,0-.74.33-.74.74s.33.74.74.74.74-.33.74-.74-.33-.74-.74-.74Z" style="fill: #fec600; stroke-width: 0px;"/>
  </g>
  <g>
    <path d="M87.87,218.51c-.2,0-.35-.16-.35-.35v-5.84c0-.2.16-.35.35-.35s.35.16.35.35v5.84c0,.2-.16.35-.35.35Z" style="fill: #fec600; stroke-width: 0px;"/>
    <path d="M87.87,220.69c-.8,0-1.44-.65-1.44-1.45s.65-1.44,1.44-1.44,1.45.65,1.45,1.44-.65,1.45-1.45,1.45ZM87.87,218.51c-.41,0-.74.33-.74.74s.33.74.74.74.74-.33.74-.74-.33-.74-.74-.74Z" style="fill: #fec600; stroke-width: 0px;"/>
  </g>
  <g>
    <path d="M121.89,218.51c-.2,0-.35-.16-.35-.35v-5.84c0-.2.16-.35.35-.35s.35.16.35.35v5.84c0,.2-.16.35-.35.35Z" style="fill: #fec600; stroke-width: 0px;"/>
    <path d="M121.89,220.69c-.8,0-1.44-.65-1.44-1.45s.65-1.44,1.44-1.44,1.45.65,1.45,1.44-.65,1.45-1.45,1.45ZM121.89,218.51c-.41,0-.74.33-.74.74s.33.74.74.74.74-.33.74-.74-.33-.74-.74-.74Z" style="fill: #fec600; stroke-width: 0px;"/>
  </g>
  <rect x="18.94" y="176.36" width="1.72" height="3.18" style="fill: #fec600; stroke-width: 0px;"/>
  <rect x="52.96" y="176.36" width="1.72" height="3.18" style="fill: #fec600; stroke-width: 0px;"/>
  <rect x="86.97" y="176.36" width="1.72" height="3.18" style="fill: #fec600; stroke-width: 0px;"/>
  <rect x="120.99" y="176.36" width="1.72" height="3.18" style="fill: #fec600; stroke-width: 0px;"/>
  <path d="M126.53,349.5h-9.03c-3.41,0-6.19,2.78-6.19,6.19s2.78,6.19,6.19,6.19h9.03c3.41,0,6.19-2.78,6.19-6.19s-2.78-6.19-6.19-6.19ZM126.42,360.08h-8.8c-2.43,0-4.39-1.97-4.39-4.39s1.97-4.39,4.39-4.39h8.8c2.43,0,4.39,1.97,4.39,4.39s-1.97,4.39-4.39,4.39Z" style="fill: #fec600; stroke-width: 0px;"/>
  <g>
    <path d="M126.41,360.09h-8.8c-2.43,0-4.4-1.97-4.4-4.4s1.97-4.39,4.4-4.39h8.8c2.43,0,4.4,1.97,4.4,4.39s-1.97,4.4-4.4,4.4Z" style="fill: #a19e9e; stroke-width: 0px;"/>
    <path d="M130.81,355.69c0,2.43-1.97,4.4-4.4,4.4h-8.8c-2.43,0-4.4-1.97-4.4-4.4s1.97-4.39,4.4-4.39h8.8c2.43,0,4.4,1.97,4.4,4.39Z" style="stroke-width: 0px;"/>
  </g>
  <g>
    <path d="M30.54,8.45c0,3.42-2.78,6.19-6.19,6.19h-9.02c-3.42,0-6.19-2.77-6.19-6.19s2.77-6.18,6.19-6.18h9.02c3.41,0,6.19,2.77,6.19,6.18Z" style="fill: #fec600; stroke-width: 0px;"/>
    <g>
      <path d="M24.24,12.85h-8.8c-2.43,0-4.4-1.97-4.4-4.4s1.97-4.39,4.4-4.39h8.8c2.43,0,4.4,1.97,4.4,4.39s-1.97,4.4-4.4,4.4Z" style="fill: #a19e9e; stroke-width: 0px;"/>
      <path d="M28.64,8.45c0,2.43-1.97,4.4-4.4,4.4h-8.8c-2.43,0-4.4-1.97-4.4-4.4s1.97-4.39,4.4-4.39h8.8c2.43,0,4.4,1.97,4.4,4.39Z" style="stroke-width: 0px;"/>
    </g>
  </g>
  <g>
    <circle cx="19.84" cy="38.34" r="4.89" style="fill: #2f2f2f; stroke-width: 0px;"/>
    <polygon points="20.97 36.38 18.71 36.38 17.58 38.34 18.71 40.3 20.97 40.3 22.1 38.34 20.97 36.38" style="fill: #141414; stroke-width: 0px;"/>
  </g>
  <g>
    <circle cx="53.86" cy="38.34" r="4.89" style="fill: #2f2f2f; stroke-width: 0px;"/>
    <polygon points="54.99 36.38 52.73 36.38 51.6 38.34 52.73 40.3 54.99 40.3 56.12 38.34 54.99 36.38" style="fill: #141414; stroke-width: 0px;"/>
  </g>
  <g>
    <circle cx="87.87" cy="38.34" r="4.89" style="fill: #2f2f2f; stroke-width: 0px;"/>
    <polygon points="89 36.38 86.74 36.38 85.61 38.34 86.74 40.3 89 40.3 90.13 38.34 89 36.38" style="fill: #141414; stroke-width: 0px;"/>
  </g>
  <g>
    <circle cx="121.89" cy="38.34" r="4.89" style="fill: #2f2f2f; stroke-width: 0px;"/>
    <polygon points="123.02 36.38 120.76 36.38 119.63 38.34 120.76 40.3 123.02 40.3 124.15 38.34 123.02 36.38" style="fill: #141414; stroke-width: 0px;"/>
  </g>
  <circle cx="121.89" cy="233.1" r="1.71" style="fill: #e30613; stroke-width: 0px;"/>
  <circle cx="121.89" cy="269.95" r="1.71" style="fill: #e30613; stroke-width: 0px;"/>
  <circle cx="87.87" cy="233.1" r="1.71" style="fill: #e30613; stroke-width: 0px;"/>
  <circle cx="87.87" cy="269.95" r="1.71" style="fill: #e30613; stroke-width: 0px;"/>
  <circle cx="53.86" cy="233.1" r="1.71" style="fill: #e30613; stroke-width: 0px;"/>
  <circle cx="53.86" cy="269.95" r="1.71" style="fill: #e30613; stroke-width: 0px;"/>
  <circle cx="19.84" cy="233.1" r="1.71" style="fill: #e30613; stroke-width: 0px;"/>
  <circle cx="19.84" cy="269.95" r="1.71" style="fill: #e30613; stroke-width: 0px;"/>
  <circle cx="121.89" cy="306.8" r="1.71" style="fill: #e30613; stroke-width: 0px;"/>
  <circle cx="87.87" cy="306.8" r="1.71" style="fill: #e30613; stroke-width: 0px;"/>
  <circle cx="53.86" cy="306.8" r="1.71" style="fill: #e30613; stroke-width: 0px;"/>
  <circle cx="19.84" cy="306.8" r="1.71" style="fill: #e30613; stroke-width: 0px;"/>
  <circle cx="53.87" cy="189.71" r="1.71" style="fill: #e30613; stroke-width: 0px;"/>
  <circle cx="19.84" cy="189.71" r="1.71" style="fill: #e30613; stroke-width: 0px;"/>
  <circle cx="87.87" cy="189.71" r="1.71" style="fill: #e30613; stroke-width: 0px;"/>
  <circle cx="121.89" cy="189.71" r="1.71" style="fill: #e30613; stroke-width: 0px;"/>
  <circle cx="53.87" cy="99.29" r="1.71" style="fill: #e30613; stroke-width: 0px;"/>
  <circle cx="19.84" cy="99.29" r="1.71" style="fill: #e30613; stroke-width: 0px;"/>
  <circle cx="87.87" cy="99.29" r="1.71" style="fill: #e30613; stroke-width: 0px;"/>
  <circle cx="121.89" cy="99.29" r="1.71" style="fill: #e30613; stroke-width: 0px;"/>
</svg>